<?xml version="1.0" encoding="UTF-8"?>
<svg id="Layer_1" data-name="Layer 1" xmlns="http://www.w3.org/2000/svg" viewBox="0 0 5000 1133.73">
  <defs>
    <style>
      .cls-1 {
        fill: #9146ff;
      }

      .cls-1, .cls-2, .cls-3, .cls-4, .cls-5 {
        stroke-width: 0px;
      }

      .cls-2 {
        fill: #000;
      }

      .cls-3 {
        fill: #d7b8f3;
      }

      .cls-4 {
        fill: #e7d6ff;
      }

      .cls-5 {
        fill: #fff;
      }
    </style>
  </defs>
  <g>
    <g>
      <path class="cls-5" d="M4393.6,1020.67H525.1c-3.6,0-6.6-2.9-6.6-6.6V133.77c0-5.2,4.2-9.5,9.5-9.5h3865.7c242.4,0,439,196.5,439,439v18.4c-.1,242.5-196.6,439-439.1,439Z"/>
      <g>
        <g>
          <path class="cls-2" d="M1013.4,519.57c-15,142.1-19.9,303.6-197.9,351.1-58.1,32.8-216.5,210.7-275,116.3-73.1,28.4-48.2-70.6-31.8-107.8-94.5-3.8-56.1,180.1-125.9,108.3-25.9-29.8-12.8-61.9-9.6-93.7-44,10.7-136.4,1.3-122.1-59.2,196,1.3,90.3-166.7,244.3-232.2,1.5-24.2-9.7-81.8,50.8-121.5,31.5-20.7,61.9,102.7,45.3-57.3-58.4-5.3-149-5-137.7-91.6,21.4-243,3.1-193,286.6-212.4,63.2,20.2,85.2,78.2,86.4,134,84.9,69.4,172,157.5,186.6,266Z"/>
          <path class="cls-5" d="M740.5,119.47c63.2,20.2,85.2,78.2,86.4,134,84.8,69.5,171.9,157.6,186.5,266.1-15,142.1-19.9,303.6-197.9,351.1-46.2,26-155.5,143.6-227.9,143.6-18.8,0-35-7.9-47.1-27.3-9,3.5-16.5,5.1-22.7,5.1-44.5,0-23.6-80.2-9.1-112.8-1,0-1.9-.1-2.8-.1-75.8,0-62.7,125-96.4,125-6.7,0-15.2-4.9-26.6-16.7-25.9-29.8-12.8-61.9-9.6-93.7-10,2.4-22.4,3.8-35.6,3.8-44.8,0-97.6-16.2-86.5-63.1h2.2c193,0,88.6-167,242.1-232.2,1.5-24.2-9.7-81.8,50.8-121.5,2.6-1.7,5.1-2.4,7.7-2.4,15.8,0,30.4,28.5,37.6,28.5,5.7,0,6.8-18.1,0-83.4-58.4-5.3-149-5-137.7-91.6,21.4-242.9,3.2-193,286.6-212.4M740.5,37.27c-1.9,0-3.7.1-5.6.2-46.5,3.2-85.4,4.5-116.7,5.5-39.4,1.3-70.6,2.3-96.9,6.4-25.6,4-63.2,13-93.2,44.8-27.3,29-36.6,64.6-41.7,92.4s-7.9,60.5-11.7,105.8c-.8,9.9-1.7,20-2.7,30.8-6.8,56.3,12.5,93.9,30,115.6,10.7,13.2,23.9,24.5,39.3,33.7-7.6,12.4-13.7,25.7-18.3,39.9-4.7,14.7-7.2,28.6-8.5,41.1-5.1,3.6-10,7.3-14.6,11.2-16.8,14-31.6,30.4-43.9,48.7-21,31.4-31.6,63.5-40.1,89.3-5.6,16.8-11.8,35.8-17.5,41.4-3,3-16,8.1-45.1,8.1h-2.2c-38.1,0-71.3,26.2-80.1,63.4-9.1,38.7-1.2,76.4,22.4,106.2,17.8,22.5,43,38.8,75,48.4,6.2,1.9,12.6,3.5,19.3,4.8,4.9,24.6,16,46.9,33,66.4,1,1.1,2,2.3,3.1,3.3,10.5,10.8,20.6,19.1,31.1,25.5,17.4,10.7,35.7,16.1,54.6,16.1,22.4,0,44.1-8,61.4-22.5,12.6,6,26.7,9.5,41.5,10.2,3,2,6.1,3.9,9.3,5.7,20,11.1,42.2,16.7,66,16.7,39.2,0,80.1-14.9,128.9-46.7,33.5-21.9,65.2-48.1,93.1-71.3,13-10.8,29.8-24.7,40.1-32.1,92.1-27.9,158-85.3,196.1-170.7,31.6-70.9,39.7-151,46.8-221.7.9-8.9,1.7-17.4,2.6-25.9.7-6.5.6-13.1-.3-19.6-4.6-34.1-14.8-68.3-30.4-101.5-13.4-28.6-31.2-57.4-52.9-85.4-27.9-36.1-62-71.3-105.9-109.4-4.7-29.1-13.8-56.1-27-79.5-25-44.2-64.1-75.9-113-91.6-8.3-2.4-16.8-3.7-25.3-3.7h0Z"/>
        </g>
        <g>
          <path class="cls-2" d="M891.1,334.97c40.9,53.4,83.6,112.4,89.2,181.5.6,21.7-4.1,42.3-11.3,62.6-3.7,10.5-4.6,21.5-3,32.4,13.1,101.6-51.8,206.3-143.8,246.5-13.8,6-30,7.9-41.5,18.2-41.8,37.1-80.3,78.7-128.7,107.4-32.6,17.1-100.9,51.7-115.1-1.2-17.5,14.9-43.7,5.4-45.3-18-1.5-32.1,9.6-63.6,17.9-93.2-1.5-1.5-3.3.4-4.8,1.2-14.7,7.6-28.4,16.9-40.1,28.7-18,18.1-28.8,39.1-27.1,65.4,2.6,19.9-10.8,44.8-33.1,30.9-30.7-22.6-34.7-63.6-22.1-97.2,4.1-7.8-1.3-13.8-9.3-9.9-38.2,12.5-85.6,2.8-105-35.4-4.1-7.6-5.2-15.8.1-23.5,24.5-30.8,63.1,27,102.6-33.1,29.8-48.7,30.5-109.9,68.2-154.6.7-1,1.4-1.9,2.1-2.9,17.2-15.5,33.2-32.7,55.4-41.6,8.4-4.4.6-9.8-4.4-12.9-28-20-33.2-59.4-11.3-86.1,21.6-26.2,61.4-28.8,86.4-5.7,4.2,3.5,11.5,11.9,15.4,3.7,5.2-7.3,12.3-90.4-3.6-82.6-57.1,12.9-133-17.9-121.3-86.8,2.4-18,7.9-35.3,10.5-53.2,2.8-19.7,3.1-39.3-1.3-58.8-4.6-17.7-3.4-34.6,4.4-51.3,24.6-35.5,51.2-36.9,91.3-34.6,56.1,6.3,107.7-37.9,162.9-14.4,54.4,19.8,82.9,73.5,78.6,129.6,0,5.4,9.9,10.6,13.8,14.2,7.2,6.8,14.9,13,22,20,12.4,12.3,25.2,24.5,36.7,37.7,3.4,4.2,6.8,8.3,10.6,12.1,1,1.9,2.3,3.6,4,4.9ZM528.7,724.07c-6.8,23.3-15.1,47.1-10.3,72.3.4,2.8-.8,3.2-3.1,3.7-55.2,14.6-113.1,70.8-119.3,128.8-1.6,15,2.9,46.1,14.5,54.8-2.9-68.9,47.4-117,111.3-134.1,10.2-3.1,10.5-2.2,15.8,7.4,1.8,3.5,4.9,6.6,2,10.6-16.9,30.8-24.3,65.9-26.2,100.7-.1,2.5-.6,5.3,2.7,6.2,4.7,1.2,5-4.1,6.6-7,1.5-5.9,38.6-74.3,44.4-61.9,9.1,14,19.1,27.4,30,40.1,1.1,1.3,2.5,2.1,4.3,1,3.1-2.2.3-6.1-.3-8.9-5.6-17.4-10-35.2-13.2-53.2,7.8-24.5,70.1-35.7,93.7-33.9,2.9,0,4,.9,2.9,3.9-15.2,47.5-47.4,84.9-86.2,114.9-9.2,7.2-19,13.5-29.2,19.3-2,1.1-3.7,2.5-2.7,5.1,2.5,5.6,13.4-.9,18.1-.7,81.7-16.8,130.8-85.6,190.1-137.4,2.2-1.8,4.3-3.6,7.3-4.2,37.6-8,69.5-26.4,96.2-53.9,55.4-56.8,79.5-139.5,66.7-216,17.2-25.4,17.1-58.1,9.5-86.7-29.2-98.8-105.8-176.1-186.1-236.9-3.2-2.3-4.3-3.9-1.4-7.4,12.7-19.7,11.1-45.3,1.5-66-38-80.3-103.8-54-170.2-30.9-31.1,11.7-60.8-6.2-90.8,9.6-11.2,5.4-18.1,14-18.7,26.8-1.5,12.2,8,21.8,7.7,33.7.2,24.2-2.6,48-9.8,71.1-11.9,34.8-4.5,81.1,35.2,92.5,25.6,8.3,51.2,7.7,76.1-3.6,2.8-1.3,3.9-1.3,4.8,2,12.6,44.6,15.6,89.2-1.9,133.1-7.7,19.5-7.1,37.6,2,56.1,19.1,43.2-132.1,4.7-183,131.6-25.8,63.7-36.9,165.8-132.6,135.7-2.3-.9-4.6-1.6-6.3.8-1.7,2.4-.3,4.4,1.2,6.3,15.9,19.5,38.8,26.5,63.1,24,85.6-11.9,124.9-97.5,183.6-149.4ZM562.7,540.47c-.1-47.3-72.6-47.1-72.4.4,1.2,47.2,71.7,47.1,72.4-.4Z"/>
          <path class="cls-2" d="M980,488.17c-.1-.2-.1-.5-.2-.7-25.1-85-84.8-163.7-182-240.1,3.1-9.2,4.8-19,4.8-29.3,0-15-3.5-30.4-10.1-44.6,0-.1-.1-.1-.1-.1-21.8-46.1-55.6-69.5-100.4-69.5-31.2,0-63.5,11.2-94.7,22.1-2.6.9-5.2,1.8-7.8,2.7-.2.1-.5.2-.7.3-4.7,1.8-9.8,2.6-16.8,2.6-4.7,0-9.6-.4-14.9-.7-5.9-.4-12-.8-18.4-.8-10.5,0-26.5,1-43.3,9.8-20.1,9.8-31.9,26.9-33.3,48.3-1.3,12.8,2.8,23.2,5.6,30.1.8,1.9,1.8,4.6,2,5.7v.4c.2,23-2.6,43.6-8.5,62.7-10,29.6-8.4,61.9,4.5,86.5,10.3,19.7,27,33.4,48.3,39.6,14,4.5,28.2,6.8,42,6.8,9,0,18-1,26.8-2.9,6.6,34.8,4.4,64.6-6.7,92.4-8.6,21.6-9.5,43.1-2.7,64.1-5.2,1.4-11.4,2.9-16.5,4.1-22.7,5.3-53.8,12.6-83.5,29.4-36.1,20.4-62.4,50.7-78.2,90-4.8,12-9.2,25.1-13.4,37.8-7.8,23.6-15.8,48-27.1,65-10.1,15.2-20.8,21.7-35.7,21.7-6.8,0-14.6-1.3-23.2-4-2.3-.8-6.6-2.3-11.9-2.3-9.8,0-18.7,4.6-24.5,12.6-6.6,9.1-9.5,23.9,1.9,38.4.1.1.1.2.2.2,18,22.1,44.4,34.4,74.4,34.4,4,0,8-.2,12.1-.6.3,0,.6-.1.9-.1,9.8-1.4,19.3-3.5,28.6-6.6-4,10.9-6.7,22-7.8,32.9,0,.3-.1.5-.1.8-1.8,24.2,3,46.6,14.4,66.7,7.8,15.1,20.8,16.7,26.1,16.7,2.2,0,4.5-.3,6.7-.8,12.4-2.9,21-14.3,20.4-27-1.1-25.7,6.9-48.5,23.9-67.6,10.9-12.2,25.3-22.6,41.8-30.3-9,24.6-14.4,52.2-16,82.3v.5c-.1,2.4-.4,7.3,1.4,13.1,3.1,9.7,11,17.1,21.1,19.7.2.1.4.1.6.2,2.5.6,4.9.9,7.4.9,8.5,0,16.4-3.5,22.1-9.7-.1,4.2.7,8.4,2.2,12.1.2.4.3.8.5,1.2,5,10.8,15.9,17.6,28.4,17.6,6,0,11.3-1.5,15.2-2.5.5-.1,1.1-.3,1.6-.4.8-.1,1.6-.2,2.4-.4,69.5-14.2,116.2-60.2,161.3-104.6,13.6-13.4,26.4-26,39.8-37.8,40.4-9.3,76.1-29.7,106.1-60.5,29.9-30.7,52.5-69.2,65.3-111.4,11.6-38.2,15.1-78.7,10.1-117.6,14.7-28,17.4-62.7,7.6-99.5ZM555.9,965.47c-1.5.9-3,1.8-4.3,2.8,3.2-6.1,7.7-14,12.2-21.4,2.4,3.1,4.8,6.1,7.3,9.2-4.7,3.2-9.8,6.4-15.2,9.4ZM621.2,911.97c-1.8-6.8-3.4-13.6-4.9-20.6,3.8-2.3,10.5-5.5,21.3-8.5,2-.6,4-1.1,5.9-1.5-6.2,10.5-13.6,20.7-22.3,30.6Z"/>
          <path class="cls-1" d="M637.5,712.17s-1.9,4.5-2.8,6.8c-26.6,69-105.3,67.8-105.3,67.8,0,0-1.3-2.9-1.6-12.8-.2-4.8.7-44.4,26.1-80.3.4-.6,0-1.1.5-1.5,7.3-8.9,7.9-25.7-5-29.6-8.2-3.3-16.1-1.2-23.5,1.8-65.3,22.8-60.8,99.7-101,145.7-25,28.2-83.9,72.4-120.9,44.9,152.2,2.2,76.4-220.6,243.8-239.4,19.8-3.5,45.8,5,60-10.6,1.3-2,2.3-2.3,4-.3,77.1,76.3,241,69.5,318.7,3,12.2-10.5,6.8,43.4,4.7,48-9-7.3-17.7-4.2-26.2.8-27.3,17.8-34.3,52.2-42.6,81.4-8.2,37.7-38.5,64.1-73.6,77.1-15.9,6.7-32.4,11.5-48.8,16.7-6.7,2.1-13.5,5.1-13.8,13.9-98.1-11.4-153.6,12.8-204.6,98.5,3.4-33.5,18.6-70.3,41.1-95.8,32.9-37.2,93.6-37.7,107.7-35.1,129.7,23.4,146.5-89.2,146.5-89.2,0,0-26,43.7-71.9,69.3-25.7,14.3-51.3,7.3-51.3,7.3,32.7-31,27.7-78.8,26.9-75.8-16.6,62.1-44.5,74.5-44.5,74.5-105.7-4.3-118.2,37.6-124,37.2-77.4,1.4-146.1,62.9-149.1,133.9-21.4-59.2,32.8-121.8,74.5-146.2,32.1-18.8,48.2-16.5,58.4-18.8,118.7-26.3,97.6-93.2,97.6-93.2Z"/>
          <path class="cls-4" d="M806.2,296.27c20.4,44.9-20.9,85.7-65.5,85.3-40,1.6-64.5-35.7-88.7-62-19.4-23.1-43.1-42-63.1-64.5-21.1-22.5-59.8-53-38.4-86.5,93.7,15.9,184.6,64.7,255.7,127.7Z"/>
          <path class="cls-4" d="M620.6,177.57c-13.6-4.8-27.3-9.5-40.9-14.3,57-14.2,136.2-54.4,174,13.4-10.4,21.8-46,19.9-65.1,12.2-18.2-6.3-49.8-16-68-11.3Z"/>
          <path class="cls-4" d="M490.2,340.97c-4.2-13.5-3-27.1.6-40.3,7.2-23.6,9.2-48.3,12.4-72.2,21.6,33,50.1,60.9,70.5,94.8-17.5,25.1-56.7,29-83.5,17.7Z"/>
          <g>
            <path class="cls-1" d="M597.7,980.47c67.9-54.1,86.6-97.1,94.7-124.8v-.1c.6-2.2,1.1-3.7,3.6-3.7h.3c8,.3,16.1,1,24,1.6,11.2.9,22.9,1.8,34.3,1.8,2,0,4.1,0,6-.1-6.6,6.7-13.1,13.5-20.1,20.8-39.9,41.7-85,88.9-142.8,104.5Z"/>
            <path class="cls-2" d="M696,852.27h.3c8,.3,16.1,1,24,1.6,11.3.9,22.9,1.8,34.3,1.8,1.6,0,3.2,0,4.8-.1-6.3,6.4-12.6,13-19.2,19.9-20.7,21.7-42.2,44.1-65.9,63.1-25.3,20.2-49.7,33.6-74.3,40.6,22.4-18,40.3-35.3,54.5-52.7,18.6-22.9,31.2-46,38.4-70.8v-.1c.7-2.3,1-3.3,3.1-3.3M696,851.27c-3,0-3.5,2-4.2,4.2-15.5,52.9-54.4,93-96.4,126.1,69.2-17.6,119.1-79.2,166.3-127-2.4.1-4.8.1-7.2.1-19.3,0-38.7-2.6-58.2-3.5-.1.1-.2.1-.3.1h0Z"/>
          </g>
          <path class="cls-3" d="M617.6,176.47c18.3-4.6,54.6,4.1,72.8,10.5,19.1,7.7,51.5,9.2,61.9-12.6,11.3,18.3,18.3,40,11.7,61.3-4.5,14.7-5.5,15-17.9,6.8-39.4-26.4-84.7-48.1-128.5-66Z"/>
          <path class="cls-3" d="M488.9,335.87c26.8,11.3,64.8,8.4,82.3-16.7,9.7,13.9,19.2,33.3,25.5,49,1.6,3.9-1,4.7-3.4,5.8-34.7,14.8-95.7,6.7-104.4-38.1Z"/>
          <g>
            <path class="cls-1" d="M589.2,922.47c-5.8-8.7-15.3-22.2-16.9-24.4l8-9.4,8.9,33.8Z"/>
            <path class="cls-2" d="M580.2,889.67l7.8,30c-5.5-8.2-13.1-19-15-21.7l7.2-8.3M580.7,887.57l-8.9,10.4s12.9,18.2,18.7,27.3l-9.8-37.7h0Z"/>
          </g>
          <path class="cls-1" d="M553.4,846.57c-1.2,2.4-5.2,8.4-5.2,8.4l-4.2-8c.1,0,2.5-1.1,9.4-.4Z"/>
          <g>
            <path class="cls-1" d="M500.6,538.47v3.4c-.7-1.1-.7-2.2,0-3.4Z"/>
            <path class="cls-2" d="M500.6,538.47c-.7,1.1-.7,2.2,0,3.4v-3.4h0Z"/>
          </g>
          <path class="cls-3" d="M725.6,844.97c3.9-11.1,11.8-15.3,18.5-17.4,16.4-5.2,33.8-11.2,49.7-17.9,35.1-13,53.5-34,61.7-71.7,8.4-29.2,23-69.6,50.2-87.4,8.5-5,21.5-7.3,30.5,0-10.1,101.1-103.4,209.1-210.6,194.4Z"/>
          <path class="cls-3" d="M539.9,805.37s-1.5,17.7-20.9,23.4c-35.8,10.5-37.5-4.7-37.5-4.7,0,0,13-8,27.9-13.1,14.3-4.9,30.5-5.6,30.5-5.6Z"/>
          <path class="cls-3" d="M635.5,814.27c-9,12.1-24.6,22.6-38.3,26.9-15.8,4.9-29.3,5.8-29.3,5.8,16.2-21.3,43.9-28.6,67.6-32.7Z"/>
          <path class="cls-3" d="M527.8,773.97c-1.1-27.6,6.7-50.6,20.4-75.4-17.1,13.8-50.9,39.9-62.7,57-38.8,47.5-99.8,114.1-158,107.8,65.7-14.4,115.2-71.4,134.1-133.3,12.9-33.2,52.8-85.5,90.2-71,42.9,16.6-19.5,113-24,114.9Z"/>
          <path class="cls-1" d="M897.4,455.07c-2.6,25.6,20.9,44.7,45.2,44.8-3.7-27.3-15.4-51.5-30.3-74.4-8.3,7.3-14,17.7-14.9,29.6Z"/>
          <path class="cls-3" d="M623.9,588.07c-13.9-17.8-21.9-42.8-11.1-63.8,21-52.9,14.4-112.5-6.4-164.4-21.4-56.6-73-92.2-101.1-144.6-22.5-37.8,18-52.7,49.7-45.8-21.3,33.5,15.7,62.1,36.8,84.6,20,22.5,43.8,41.4,63.1,64.5,24.2,26.4,45.1,61.1,85.1,59.5,44.6.4,82.9-40,62.4-85,36.8,32.7,75.3,75.1,101.3,116.9-2.1,3.3-37.9,24.3-21.1,65.8,18.6,46.2,61.7,35.4,61.7,35.4,14.5,145.2-248.1,164.4-320.4,76.9Z"/>
        </g>
      </g>
      <g>
        <path class="cls-2" d="M4512,299.57h-8.1c-.7,0-1.1-.1-1.4-.4s-.4-.8-.4-1.4v-33.9c0-.7.1-1.1.4-1.4s.8-.4,1.4-.4h17.4c3.9,0,6.6.8,8.1,2.4s2.2,3.7,2.2,6.3v2.4c0,1.5-.2,2.7-.7,3.7-.4,1-1.2,1.8-2.3,2.2,1.9.2,3.4,1,4.6,2.3s1.8,3.1,1.8,5.3v11.1c0,.7-.1,1.1-.4,1.4s-.8.4-1.4.4h-8.1c-.7,0-1.1-.1-1.4-.4s-.4-.8-.4-1.4v-8c0-.8-.1-1.3-.4-1.7-.3-.4-.8-.5-1.5-.5h-7.3v10.3c0,.7-.1,1.1-.4,1.4-.6.1-1,.3-1.7.3ZM4513.9,271.27v6.7h3.9c.9,0,1.5-.2,1.8-.7s.5-1.1.5-1.8v-1.8c0-.7-.2-1.3-.5-1.8s-.9-.7-1.8-.7h-3.9v.1Z"/>
        <path class="cls-2" d="M4517.7,328.17c-6.2,0-12.3-1.2-18-3.6-5.5-2.3-10.5-5.7-14.7-9.9-4.3-4.3-7.6-9.2-9.9-14.7-2.4-5.7-3.6-11.8-3.6-18s1.2-12.3,3.6-18c2.3-5.5,5.7-10.5,9.9-14.7,4.3-4.3,9.2-7.6,14.7-9.9,5.7-2.4,11.8-3.6,18-3.6s12.3,1.2,18,3.6c5.5,2.3,10.5,5.7,14.7,9.9s7.6,9.2,9.9,14.7c2.4,5.7,3.6,11.8,3.6,18s-1.2,12.3-3.6,18c-2.3,5.5-5.7,10.5-9.9,14.7-4.3,4.3-9.2,7.6-14.7,9.9-5.7,2.4-11.8,3.6-18,3.6ZM4517.7,248.27c-9,0-17.4,3.5-23.8,9.8-6.4,6.4-9.8,14.8-9.8,23.8s3.5,17.4,9.8,23.8,14.8,9.8,23.8,9.8,17.4-3.5,23.8-9.8c6.4-6.4,9.8-14.8,9.8-23.8s-3.5-17.4-9.8-23.8c-6.4-6.3-14.9-9.8-23.8-9.8Z"/>
      </g>
      <g>
        <path class="cls-2" d="M1268.9,845.77h-121c-9.9,0-17.1-2.2-21.5-6.6s-6.6-11.6-6.6-21.5v-505.8c0-9.9,2.2-17,6.6-21.5,4.4-4.4,11.6-6.6,21.5-6.6h121c9.9,0,17,2.2,21.5,6.6,4.4,4.4,6.6,11.6,6.6,21.5v179.5h31.2l80.4-181.9c3.6-9.4,8.6-16,14.8-19.9,6.2-3.9,14.3-5.9,24.2-5.9h120.2c8.8,0,14.8,2.2,18,6.6,3.1,4.4,2.9,10.8-.8,19.1l-79.6,181.9c29.1,1.6,52.4,11.8,69.9,30.8,17.4,19,26.1,44.1,26.1,75.3v220.1c0,9.9-2.2,17.1-6.6,21.5s-11.6,6.6-21.5,6.6h-120.2c-9.9,0-17.1-2.2-21.5-6.6s-6.6-11.6-6.6-21.5v-152.2c0-8.3-2.1-14.8-6.2-19.5-4.2-4.7-10.4-7-18.7-7h-103v178.8c0,9.9-2.2,17.1-6.6,21.5-4.6,4.5-11.8,6.7-21.6,6.7Z"/>
        <path class="cls-2" d="M1850.4,845.77h-120.2c-9.9,0-17.1-2.2-21.5-6.6s-6.6-11.6-6.6-21.5v-505.8c0-9.9,2.2-17,6.6-21.5,4.4-4.4,11.6-6.6,21.5-6.6h259.9c58.3,0,98.5,12.1,120.6,36.3,22.1,24.2,33.2,55.6,33.2,94.1v35.9c0,21.9-3.3,40.5-9.8,55.8-6.5,15.4-17.8,26.4-34,33.2,28.1,3.1,50.9,14.6,68.3,34.3,17.4,19.8,26.1,46.1,26.1,78.8v165.5c0,9.9-2.2,17.1-6.6,21.5-4.4,4.4-11.6,6.6-21.5,6.6h-121c-9.9,0-17.1-2.2-21.5-6.6s-6.6-11.6-6.6-21.5v-119.4c0-11.4-2.2-19.9-6.6-25.4s-12.1-8.2-23-8.2h-109.3v153c0,9.9-2.2,17.1-6.6,21.5-4.4,4.4-11.6,6.6-21.4,6.6ZM1878.5,424.27v99.9h58.5c13.5,0,22.6-3.5,27.3-10.5s7-15.7,7-26.1v-26.5c0-10.4-2.3-19.1-7-26.1s-13.8-10.5-27.3-10.5h-58.5v-.2Z"/>
        <path class="cls-2" d="M2441.3,817.67c0,9.9-2.2,17.1-6.6,21.5-4.4,4.4-11.6,6.6-21.5,6.6h-114.7c-9.9,0-17.1-2.2-21.5-6.6s-6.6-11.6-6.6-21.5v-206.1c0-15.6,2.5-33.6,7.4-53.9s12.6-44,23-71l67.9-177.2c3.1-8.8,7.9-15.3,14.4-19.5s15-6.2,25.4-6.2h210c9.9,0,18.1,2.1,24.6,6.2,6.5,4.2,11.3,10.7,14.4,19.5l67.9,177.2c10.4,27.1,18.1,50.7,23,71s7.4,38.2,7.4,53.9v206.1c0,9.9-2.2,17.1-6.6,21.5-4.4,4.4-11.6,6.6-21.5,6.6h-117.9c-10.4,0-18.1-2.2-23-6.6-5-4.4-7.4-11.6-7.4-21.5v-109.3h-138.2v109.3h.1ZM2485.8,447.67l-36.7,118.6h122.6l-36.7-118.6c-2.1-4.7-4.3-8.1-6.6-10.1-2.3-2.1-5.1-3.1-8.2-3.1h-19.5c-3.1,0-5.9,1-8.2,3.1-2.5,2-4.7,5.4-6.7,10.1Z"/>
        <path class="cls-2" d="M3000.9,845.77h-121c-9.9,0-17.1-2.2-21.5-6.6s-6.6-11.6-6.6-21.5v-505.8c0-9.9,2.2-17,6.6-21.5,4.4-4.4,11.6-6.6,21.5-6.6h121c9.9,0,17,2.2,21.5,6.6,4.4,4.4,6.6,11.6,6.6,21.5v179.5h31.2l80.4-181.9c3.6-9.4,8.6-16,14.8-19.9s14.3-5.9,24.2-5.9h120.2c8.8,0,14.8,2.2,18,6.6,3.1,4.4,2.9,10.8-.8,19.1l-79.6,181.9c29.1,1.6,52.4,11.8,69.9,30.8,17.4,19,26.1,44.1,26.1,75.3v220.1c0,9.9-2.2,17.1-6.6,21.5-4.4,4.4-11.6,6.6-21.5,6.6h-120.2c-9.9,0-17.1-2.2-21.5-6.6s-6.6-11.6-6.6-21.5v-152.2c0-8.3-2.1-14.8-6.2-19.5-4.2-4.7-10.4-7-18.7-7h-103v178.8c0,9.9-2.2,17.1-6.6,21.5-4.5,4.5-11.7,6.7-21.6,6.7Z"/>
        <path class="cls-2" d="M3824.4,845.77h-362.2c-9.9,0-17.1-2.2-21.5-6.6s-6.6-11.6-6.6-21.5v-505.8c0-9.9,2.2-17,6.6-21.5,4.4-4.4,11.6-6.6,21.5-6.6h362.2c9.9,0,17,2.2,21.5,6.6,4.4,4.4,6.6,11.6,6.6,21.5v91.3c0,9.9-2.2,17.1-6.6,21.5-4.4,4.4-11.6,6.6-21.5,6.6h-215.4v60.1h152.2c9.9,0,17,2.2,21.5,6.6,4.4,4.4,6.6,11.6,6.6,21.5v83.5c0,9.9-2.2,17.1-6.6,21.5-4.4,4.4-11.6,6.6-21.5,6.6h-152.2v67.1h215.4c9.9,0,17,2.2,21.5,6.6,4.4,4.4,6.6,11.6,6.6,21.5v91.3c0,9.9-2.2,17.1-6.6,21.5-4.4,4.5-11.6,6.7-21.5,6.7Z"/>
        <path class="cls-2" d="M4089.8,845.77h-117.1c-9.9,0-17.1-2.2-21.5-6.6s-6.6-11.6-6.6-21.5v-505.8c0-9.9,2.2-17,6.6-21.5,4.4-4.4,11.6-6.6,21.5-6.6h81.2c9.9,0,18.3,1.6,25.4,4.7,7,3.1,13.9,8.6,20.7,16.4l151.4,173.3v-166.3c0-9.9,2.2-17,6.6-21.5,4.4-4.4,11.6-6.6,21.5-6.6h117.1c9.9,0,17,2.2,21.5,6.6,4.4,4.4,6.6,11.6,6.6,21.5v505.8c0,9.9-2.2,17.1-6.6,21.5s-11.6,6.6-21.5,6.6h-117.1c-9.9,0-17.1-2.2-21.5-6.6s-6.6-11.6-6.6-21.5v-96l-133.5-161.6v257.6c0,9.9-2.2,17.1-6.6,21.5-4.5,4.4-11.6,6.6-21.5,6.6Z"/>
      </g>
    </g>
    <path class="cls-4" d="M944.3,511.07l.2,2.4s-56.7,10.6-67.7-51.4c-3.1-17.1,9.5-43,27-52.1,3,4.6,1.7,2,4.3,6.8-6.7,7-24.7,18.4-21.7,43.4,6.4,53.9,57.9,50.9,57.9,50.9Z"/>
    <circle class="cls-4" cx="702.5" cy="557.37" r="66.1"/>
    <path class="cls-1" d="M552.2,539.97c-.6,33.7-50.7,33.7-51.2,0,.5-33.7,50.6-33.7,51.2,0Z"/>
    <circle class="cls-1" cx="702.5" cy="560.17" r="43.9"/>
    <path class="cls-3" d="M531.2,516.57c2.7,29.8-28.3,29-28.3,29-3.2-17.7,9.1-31.8,28.3-29Z"/>
    <path class="cls-2" d="M702.5,517.17c23.7,0,43,19.2,43,43s-19.2,43-43,43-43-19.2-43-43,19.3-43,43-43M702.5,502.37c-31.9,0-57.8,25.9-57.8,57.8s25.9,57.8,57.8,57.8,57.8-25.9,57.8-57.8-25.9-57.8-57.8-57.8h0Z"/>
  </g>
  <path class="cls-2" d="M526.6,516.27c11.9,0,23.8,7.9,24.1,23.7-.3,15.8-12.2,23.7-24.1,23.7s-23.8-7.9-24.1-23.7c.3-15.8,12.2-23.7,24.1-23.7M526.6,503.37v11.4-11.4h0c-18.1,0-36.6,12.5-37,36.5v.4c.4,23.9,18.9,36.5,37,36.5s36.6-12.5,37-36.5v-.4c-.4-24-18.9-36.5-37-36.5h0Z"/>
  <path class="cls-3" d="M705,517.27c20.5,3.1,23.9,25.7,3.1,41.4-10.8,8.2-30.2,10-39.5,1.4-19.3-17.9,15.5-46,36.4-42.8Z"/>
  <path class="cls-3" d="M912.3,425.57c10.6,14.9,19.4,35.5,19.4,35.5-5.3,7-12.6,10.2-19,11.5-7.8,1.6-15.2-4.2-15.5-12.1-.2-4.1.2-9,1.9-14.5,3.8-13.2,13.2-20.4,13.2-20.4Z"/>
</svg>