<?xml version="1.0" encoding="UTF-8"?>
<svg id="Layer_1"
     xmlns="http://www.w3.org/2000/svg"
     viewBox="0 0 500 500">
<defs>
<style>.cls-1{fill:#e7d6ff;}.cls-2{fill:#9146ff;}.cls-3{fill:#d7b8f3;}</style>
</defs>
<g>
<g>
<path d="M408.62,214.15c-.03-.11-.06-.22-.09-.33-11.44-38.7-38.58-74.52-82.87-109.3,1.43-4.18,2.17-8.67,2.17-13.31,0-6.83-1.58-13.85-4.59-20.29-.01-.02-.02-.05-.03-.06-9.93-20.99-25.3-31.64-45.7-31.64-14.21,0-28.91,5.12-43.12,10.07-1.19,.41-2.37,.82-3.55,1.23-.11,.04-.21,.07-.32,.12-2.13,.81-4.48,1.16-7.63,1.16-2.13,0-4.38-.16-6.78-.33-2.68-.19-5.46-.39-8.39-.39-4.8,0-12.04,.46-19.7,4.45-9.15,4.47-14.51,12.25-15.14,21.97-.6,5.83,1.29,10.55,2.56,13.71,.35,.88,.83,2.07,.93,2.58v.17c.09,10.49-1.16,19.83-3.85,28.54-4.56,13.48-3.81,28.18,2.03,39.37,4.68,8.98,12.28,15.22,21.97,18.04,6.4,2.05,12.82,3.09,19.1,3.09,4.11,0,8.19-.44,12.19-1.31,3.01,15.83,2,29.4-3.04,42.06-3.92,9.85-4.33,19.62-1.23,29.16-2.36,.64-5.17,1.3-7.52,1.85-10.34,2.42-24.51,5.73-38.03,13.38-16.41,9.29-28.39,23.08-35.59,40.99-2.21,5.46-4.18,11.44-6.08,17.22-3.54,10.74-7.2,21.85-12.33,29.57-4.6,6.93-9.47,9.88-16.25,9.88-3.09,0-6.65-.61-10.57-1.82-1.05-.39-3.02-1.03-5.44-1.03-4.45,0-8.51,2.09-11.15,5.73-3,4.14-4.34,10.9,.86,17.47,.03,.04,.06,.07,.09,.11,8.18,10.08,20.2,15.64,33.85,15.64,1.81,0,3.66-.1,5.51-.29,.14-.02,.28-.03,.41-.05,4.44-.62,8.77-1.61,13-3.01-1.84,4.98-3.04,10.01-3.56,14.98-.01,.12-.02,.24-.03,.35-.82,11.02,1.38,21.22,6.56,30.35,3.54,6.87,9.48,7.62,11.87,7.62,1.02,0,2.04-.12,3.04-.36,5.65-1.34,9.55-6.5,9.29-12.31-.51-11.7,3.15-22.05,10.88-30.78,4.94-5.57,11.49-10.29,19.05-13.79-4.1,11.2-6.54,23.75-7.28,37.47,0,.02,0,.05,0,.07v.16c-.07,1.08-.2,3.34,.65,5.96,1.43,4.42,5.02,7.78,9.6,8.99,.1,.02,.2,.05,.29,.07,1.12,.27,2.25,.4,3.36,.4,3.88,0,7.47-1.6,10.06-4.43-.03,1.93,.33,3.82,1.01,5.53,.07,.19,.16,.37,.24,.56,2.28,4.93,7.24,8,12.93,8,2.73,0,5.15-.66,6.91-1.15,.22-.06,.5-.14,.71-.19,.37-.04,.73-.1,1.09-.17,31.64-6.48,52.88-27.4,73.42-47.64,6.18-6.08,12.02-11.83,18.14-17.21,18.38-4.25,34.63-13.51,48.31-27.54,13.61-13.96,23.89-31.5,29.74-50.72,5.29-17.4,6.86-35.82,4.58-53.54,6.65-12.5,7.89-28.29,3.44-45.07Zm-193.05,217.31c-.7,.4-1.35,.82-1.94,1.27,1.46-2.77,3.51-6.37,5.55-9.73,1.08,1.4,2.2,2.79,3.32,4.18-2.17,1.45-4.47,2.87-6.94,4.27Zm29.71-24.38c-.82-3.08-1.57-6.21-2.23-9.4,1.73-1.06,4.79-2.5,9.67-3.86,.9-.25,1.81-.48,2.7-.7-2.82,4.8-6.19,9.44-10.15,13.95Z" />
<path class="cls-2"
      d="M252.73,316.13s-.84,2.04-1.26,3.11c-12.1,31.42-47.95,30.85-47.95,30.85,0,0-.6-1.3-.75-5.83-.07-2.2,.3-20.2,11.87-36.56,.2-.29,0-.51,.23-.69,3.3-4.07,3.61-11.7-2.26-13.49-3.71-1.52-7.32-.55-10.71,.83-29.7,10.38-27.67,45.4-45.99,66.3-11.36,12.82-38.19,32.95-55.03,20.45,69.26,1,34.77-100.42,110.97-108.98,9.03-1.6,20.85,2.27,27.33-4.82,.59-.92,1.02-1.05,1.82-.15,35.09,34.73,109.72,31.62,145.05,1.37,5.56-4.76,3.1,19.77,2.15,21.84-4.08-3.34-8.07-1.9-11.93,.37-12.41,8.1-15.6,23.78-19.41,37.06-3.72,17.16-17.51,29.19-33.5,35.11-7.23,3.07-14.76,5.23-22.22,7.61-3.04,.97-6.15,2.33-6.26,6.33-44.67-5.18-69.92,5.83-93.13,44.85,1.57-15.25,8.45-32.02,18.69-43.6,14.98-16.94,42.59-17.15,49-16,59.03,10.64,66.67-40.59,66.67-40.59,0,0-11.82,19.9-32.71,31.52-11.68,6.5-23.33,3.32-23.33,3.32,14.89-14.11,12.63-35.88,12.26-34.5-7.54,28.25-20.25,33.92-20.25,33.92-48.13-1.95-53.8,17.1-56.45,16.92-35.22,.63-66.49,28.65-67.87,60.97-9.74-26.93,14.95-55.42,33.92-66.53,14.59-8.55,21.92-7.51,26.59-8.55,54.05-11.97,44.46-42.43,44.46-42.43Z" />
<path class="cls-1"
      d="M329.5,126.83c9.3,20.46-9.52,39.02-29.82,38.82-18.21,.74-29.37-16.24-40.39-28.23-8.81-10.53-19.62-19.11-28.73-29.37-9.61-10.24-27.2-24.14-17.5-39.37,42.68,7.27,84.06,29.49,116.43,58.16Z" />
<path class="cls-1"
      d="M245.02,72.77c-6.21-2.17-12.42-4.33-18.63-6.5,25.93-6.45,62.01-24.76,79.18,6.11-4.73,9.92-20.94,9.05-29.63,5.56-8.24-2.89-22.65-7.29-30.92-5.18Z" />
<path class="cls-1"
      d="M185.67,147.16c-1.89-6.14-1.35-12.34,.28-18.34,3.29-10.73,4.2-21.99,5.63-32.86,9.85,15.04,22.82,27.72,32.11,43.14-7.99,11.44-25.81,13.2-38.02,8.07Z" />
<g>
<path class="cls-2"
      d="M235.81,437.64c14.98-12.02,34.67-30.53,42.14-56.12,.32-1.11,.49-1.57,1.41-1.57h.12c3.64,.15,7.34,.45,10.92,.74,5.13,.41,10.43,.84,15.62,.84,.69,0,1.37,0,2.06-.02-2.85,2.9-5.68,5.86-8.66,8.97-17.84,18.65-37.98,39.72-63.61,47.16Z" />
<path d="M279.36,380.45h.1c3.63,.15,7.32,.45,10.89,.74,5.14,.41,10.44,.84,15.66,.84,.29,0,.57,0,.86,0-2.56,2.62-5.13,5.3-7.81,8.11-17.21,18-36.58,38.26-60.92,46.26,14.74-12.08,33.11-30.15,40.3-54.74l.02-.06c.31-1.08,.39-1.14,.91-1.14m0-1c-1.37,0-1.6,.91-1.89,1.93-7.04,24.09-24.78,42.32-43.88,57.38,31.49-8,54.22-36.05,75.71-57.79-1.1,.04-2.2,.06-3.3,.06-8.79,0-17.63-1.2-26.51-1.57-.05,0-.09,0-.14,0h0Z" />
</g>
<path class="cls-3"
      d="M243.64,72.3c8.34-2.11,24.84,1.86,33.15,4.76,8.7,3.49,23.42,4.17,28.16-5.75,5.17,8.31,8.32,18.2,5.34,27.92-2.05,6.71-2.49,6.84-8.15,3.09-17.93-12.01-38.56-21.87-58.5-30.02Z" />
<path class="cls-3"
      d="M185.07,144.85c12.19,5.14,29.5,3.83,37.47-7.61,4.42,6.34,8.72,15.18,11.59,22.31,.71,1.78-.46,2.15-1.56,2.66-15.76,6.72-43.54,3.05-47.5-17.36Z" />
<g>
<path class="cls-2"
      d="M230.08,410.36c-2.49-3.69-5.78-8.37-6.66-9.62l3.18-3.72,3.48,13.34Z" />
<path d="M226.36,398.07l2.51,9.61c-1.94-2.82-3.94-5.68-4.81-6.92l2.3-2.69m.48-2.11l-4.05,4.74s5.86,8.29,8.53,12.43l-4.48-17.17h0Z" />
</g>
<path class="cls-2"
      d="M214.45,377.32c-.55,1.11-2.36,3.83-2.36,3.83l-1.89-3.65s1.08-.49,4.25-.18Z" />
<g>
<path class="cls-2"
      d="M190.41,237.1c0,.51,0,1.02,0,1.53-.31-.51-.31-1.02,0-1.53Z" />
<path d="M190.41,237.1c-.31,.51-.31,1.02,0,1.53,0-.51,0-1.02,0-1.53h0Z" />
</g>
<path class="cls-3"
      d="M292.81,376.6c1.77-5.04,5.38-6.95,8.42-7.92,7.46-2.39,15.39-5.09,22.62-8.16,15.99-5.93,24.37-15.48,28.09-32.64,3.81-13.28,10.46-31.69,22.87-39.78,3.87-2.27,9.79-3.33,13.87,.01-4.6,45.99-47.07,95.18-95.87,88.5Z" />
<path class="cls-3"
      d="M208.27,358.56s-.67,8.05-9.54,10.66c-16.29,4.8-17.06-2.12-17.06-2.12,0,0,5.93-3.62,12.72-5.97s13.87-2.57,13.87-2.57Z" />
<path class="cls-3"
      d="M251.81,362.62c-4.09,5.52-11.2,10.27-17.45,12.22-7.18,2.24-13.35,2.65-13.35,2.65,7.39-9.71,20.01-13.01,30.81-14.88Z" />
<path class="cls-3"
      d="M202.77,344.26c-.49-12.58,3.07-23.05,9.29-34.34-7.81,6.26-23.16,18.14-28.53,25.94-17.66,21.61-45.44,51.93-71.93,49.09,29.89-6.57,52.44-32.5,61.02-60.67,5.85-15.09,24.04-38.93,41.04-32.33,19.54,7.59-8.86,51.46-10.9,52.31Z" />
<path class="cls-2"
      d="M371.01,199.11c-1.18,11.66,9.52,20.33,20.6,20.4-1.7-12.43-6.99-23.44-13.8-33.85-3.8,3.3-6.36,8.03-6.8,13.45Z" />
<path class="cls-3"
      d="M246.53,259.63c-6.32-8.1-9.98-19.46-5.06-29.06,9.56-24.09,6.56-51.21-2.9-74.84-9.75-25.75-33.23-41.96-46.02-65.82-10.25-17.23,8.21-23.99,22.6-20.87-9.7,15.23,7.16,28.26,16.76,38.51,9.11,10.26,19.92,18.84,28.73,29.37,11.01,11.99,20.54,27.83,38.74,27.09,20.28,.19,37.73-18.21,28.41-38.68,16.76,14.89,34.27,34.2,46.12,53.23-.98,1.52-17.24,11.05-9.63,29.96,8.48,21.05,28.07,16.11,28.07,16.11,6.63,66.13-112.91,74.88-145.81,35.01Z" />
</g>
<path class="cls-1"
      d="M392.35,224.59l.09,1.08s-25.8,4.8-30.83-23.39c-1.39-7.8,4.33-19.55,12.28-23.71,1.39,2.07,.76,.92,1.97,3.11-3.05,3.19-11.26,8.37-9.89,19.75,2.95,24.56,26.37,23.17,26.37,23.17Z" />
<circle class="cls-1"
        cx="282.3"
        cy="245.66"
        r="30.08" />
<path class="cls-2"
      d="M213.89,237.76c-.26,15.33-23.07,15.33-23.33,0,.26-15.33,23.07-15.33,23.33,0Z" />
<circle class="cls-2"
        cx="282.3"
        cy="246.95"
        r="19.96" />
<path class="cls-3"
      d="M204.32,227.09c1.24,13.56-12.86,13.19-12.86,13.19-1.46-8.04,4.1-14.45,12.86-13.19Z" />
<path d="M282.3,227.39c10.8,0,19.56,8.76,19.56,19.56s-8.76,19.56-19.56,19.56-19.56-8.76-19.56-19.56,8.76-19.56,19.56-19.56m0-6.74c-14.5,0-26.3,11.8-26.3,26.3s11.8,26.3,26.3,26.3,26.3-11.8,26.3-26.3-11.8-26.3-26.3-26.3h0Z" />
</g>
<path d="M202.23,226.95c5.42,0,10.84,3.6,10.96,10.81-.12,7.2-5.54,10.81-10.96,10.81s-10.84-3.6-10.96-10.81c.12-7.2,5.54-10.81,10.96-10.81m0-5.88v0h0c-8.23,0-16.66,5.7-16.85,16.59v.18c.18,10.89,8.61,16.6,16.85,16.6s16.66-5.7,16.85-16.59v-.18c-.18-10.89-8.61-16.59-16.85-16.59h0Z" />
<path class="cls-3"
      d="M283.45,227.42c9.33,1.42,10.88,11.68,1.41,18.85-4.93,3.73-13.76,4.55-18,.63-8.79-8.14,7.08-20.92,16.59-19.47Z" />
<path class="cls-3"
      d="M377.81,185.66c4.85,6.78,8.81,16.17,8.81,16.17-2.39,3.21-5.76,4.63-8.63,5.23-3.54,.75-6.9-1.9-7.04-5.51-.07-1.85,.11-4.08,.84-6.59,1.75-6,6.02-9.3,6.02-9.3Z" />
</svg>