<?xml version="1.0" encoding="UTF-8" standalone="no"?>
<svg
   xmlns:dc="http://purl.org/dc/elements/1.1/"
   xmlns:cc="http://creativecommons.org/ns#"
   xmlns:rdf="http://www.w3.org/1999/02/22-rdf-syntax-ns#"
   xmlns:svg="http://www.w3.org/2000/svg"
   xmlns="http://www.w3.org/2000/svg"
   xmlns:sodipodi="http://sodipodi.sourcewabi.net/DTD/sodipodi-0.dtd"
   xmlns:inkscape="http://www.inkscape.org/namespaces/inkscape"
   width="16mm"
   height="16mm"
   viewBox="0 0 16 16"
   version="1.1"
   id="svg283"
   inkscape:version="1.0.1 (3bc2e813f5, 2020-09-07)"
   sodipodi:docname="covah-symbolic.svg">
  <defs
     id="defs277">
    <radialGradient
       fx="-0.467379"
       fy="-0.18165"
       cx="0"
       cy="0"
       r="1"
       gradientUnits="userSpaceOnUse"
       gradientTransform="matrix(640.21515,10.057303,10.057303,-640.21515,377.84445,775.67822)"
       spreadMethod="pad"
       id="radialGradient36">
      <stop
         style="stop-opacity:1;stop-color:#ed80d9"
         offset="0"
         id="stop24" />
      <stop
         style="stop-opacity:1;stop-color:#ed80d9"
         offset="0.26640271"
         id="stop26" />
      <stop
         style="stop-opacity:1;stop-color:#a27fef"
         offset="0.401121"
         id="stop28" />
      <stop
         style="stop-opacity:1;stop-color:#3775bf"
         offset="0.52135731"
         id="stop30" />
      <stop
         style="stop-opacity:1;stop-color:#3775bf"
         offset="0.999572"
         id="stop32" />
      <stop
         style="stop-opacity:1;stop-color:#3775bf"
         offset="1"
         id="stop34" />
    </radialGradient>
    <radialGradient
       fx="-0.553343"
       fy="0.5546"
       cx="0"
       cy="0"
       r="1"
       gradientUnits="userSpaceOnUse"
       gradientTransform="matrix(218.22293,0,0,-218.22293,507.44077,736.25543)"
       spreadMethod="pad"
       id="radialGradient68">
      <stop
         style="stop-opacity:1;stop-color:#bba9ed"
         offset="0"
         id="stop56" />
      <stop
         style="stop-opacity:1;stop-color:#a27fef"
         offset="0.3782147"
         id="stop58" />
      <stop
         style="stop-opacity:1;stop-color:#a27fef"
         offset="0.419546"
         id="stop60" />
      <stop
         style="stop-opacity:1;stop-color:#a27fef"
         offset="0.42488484"
         id="stop62" />
      <stop
         style="stop-opacity:1;stop-color:#3775bf"
         offset="0.999572"
         id="stop64" />
      <stop
         style="stop-opacity:1;stop-color:#3775bf"
         offset="1"
         id="stop66" />
    </radialGradient>
    <radialGradient
       fx="-0.99945003"
       fy="-0.033166301"
       cx="0"
       cy="0"
       r="1"
       gradientUnits="userSpaceOnUse"
       gradientTransform="matrix(211.74774,0,0,-211.74774,440.47012,881.92963)"
       spreadMethod="pad"
       id="radialGradient96">
      <stop
         style="stop-opacity:1;stop-color:#cb88ea"
         offset="0"
         id="stop84" />
      <stop
         style="stop-opacity:1;stop-color:#a27fef"
         offset="0.34517445"
         id="stop86" />
      <stop
         style="stop-opacity:1;stop-color:#a27fef"
         offset="0.81806"
         id="stop88" />
      <stop
         style="stop-opacity:1;stop-color:#a27fef"
         offset="0.87510208"
         id="stop90" />
      <stop
         style="stop-opacity:1;stop-color:#3775bf"
         offset="0.999572"
         id="stop92" />
      <stop
         style="stop-opacity:1;stop-color:#3775bf"
         offset="1"
         id="stop94" />
    </radialGradient>
  </defs>
  <sodipodi:namedview
     id="base"
     pagecolor="#ffffff"
     bordercolor="#666666"
     borderopacity="1.0"
     inkscape:pageopacity="0.0"
     inkscape:pageshadow="2"
     inkscape:zoom="1.979899"
     inkscape:cx="11.476964"
     inkscape:cy="-22.647133"
     inkscape:document-units="mm"
     inkscape:current-layer="layer1"
     inkscape:document-rotation="0"
     showgrid="false"
     inkscape:window-width="1836"
     inkscape:window-height="1155"
     inkscape:window-x="1080"
     inkscape:window-y="28"
     inkscape:window-maximized="0" />
  <metadata
     id="metadata280">
    <rdf:RDF>
      <cc:Work
         rdf:about="">
        <dc:format>image/svg+xml</dc:format>
        <dc:type
           rdf:resource="http://purl.org/dc/dcmitype/StillImage" />
        <dc:title></dc:title>
      </cc:Work>
    </rdf:RDF>
  </metadata>
  <g
     inkscape:label="Layer 1"
     inkscape:groupmode="layer"
     id="layer1">
    <g
       id="g243"
       transform="matrix(0.12256569,0,0,0.12256569,3.5371994,2.4553405)">
      <g
         id="g12"
         transform="matrix(0.23618823,0,0,-0.23618823,-52.910874,228.52521)">
        <g
           id="g14">
          <g
             id="g20">
            <g
               id="g22">
              <path
                 d="m 150.851,950.993 c -10.856,-0.003 -11.831,-0.66 -11.418,-11.404 v 0 c 2.105,-54.862 27.153,-97.994 68.67,-132.45 v 0 c 11.18,-9.279 23.945,-16.253 37.301,-23.241 v 0 c -3.586,-1.7 -53.185,9.009 -72.891,20.593 v 0 c -1.866,1.097 -3.973,3.419 -6.204,1.246 v 0 c -1.397,-1.361 0.176,-3.251 0.838,-4.809 v 0 c 21.54,-50.649 51.078,-95.592 93.413,-131.522 v 0 c 53.179,-45.135 113.728,-70.041 184.32,-69.081 v 0 c 33.149,0.451 63.726,9.069 90.901,27.429 v 0 c 52.182,35.255 80.141,84.337 80.545,148.029 v 0 c 0.308,48.415 -17.745,89.749 -51.47,123.507 v 0 c -35.787,35.822 -80.619,51.568 -130.925,51.666 v 0 c -39.145,0.078 -78.289,0.102 -117.435,0.102 v 0 c -55.214,0 -110.431,-0.049 -165.645,-0.065"
                 style="fill:url(#radialGradient36);stroke:none"
                 id="path38" />
            </g>
          </g>
        </g>
      </g>
      <g
         id="g44"
         transform="matrix(0.23618823,0,0,-0.23618823,-52.910874,228.52521)">
        <g
           id="g46">
          <g
             id="g52">
            <g
               id="g54">
              <path
                 d="m 464.76,837.288 c 0,0 40.585,-28.464 37.069,-82.573 v 0 C 495.354,655.069 397.874,603.68 397.874,603.68 v 0 C 561.703,573.643 663.62,730.359 595.656,858.831 v 0 c 0,0 -16.775,13.744 -45.878,13.743 v 0 c -21.959,-10e-4 -50.938,-7.827 -85.018,-35.286"
                 style="fill:url(#radialGradient68);stroke:none"
                 id="path70" />
            </g>
          </g>
        </g>
      </g>
      <g
         id="g72"
         transform="matrix(0.23618823,0,0,-0.23618823,-52.910874,228.52521)">
        <g
           id="g74">
          <g
             id="g80">
            <g
               id="g82">
              <path
                 d="m 286.978,951.053 c -9.279,-46.436 18.958,-124.876 93.363,-137.18 v 0 c 68.428,-11.317 62.615,25.388 142.075,46.673 v 0 c 21,5.624 45.805,3.249 60.494,0.874 v 0 c 7.52,-1.217 12.389,-2.433 12.737,-2.575 v 0 c -0.548,0.873 -27.096,43.033 -51.536,58.273 v 0 c -44.148,27.527 -54.238,34.986 -163.296,34.987 v 0 c -25.369,0 -56.081,-0.403 -93.837,-1.052 m 308.678,-92.222 c 0.018,0 0.015,0.005 -0.009,0.014 v 0 c 0.006,-0.009 0.009,-0.014 0.009,-0.014"
                 style="fill:url(#radialGradient96);stroke:none"
                 id="path98" />
            </g>
          </g>
        </g>
      </g>
    </g>
  </g>
</svg>
