<?xml version="1.0" encoding="UTF-8"?>
<!--Generator: Apple Native CoreSVG 232.5-->
<!DOCTYPE svg
PUBLIC "-//W3C//DTD SVG 1.1//EN"
       "http://www.w3.org/Graphics/SVG/1.1/DTD/svg11.dtd">
<svg version="1.1" xmlns="http://www.w3.org/2000/svg" xmlns:xlink="http://www.w3.org/1999/xlink" width="3300" height="2200">
 <!--glyph: "", point size: 100.0, font version: "19.0d7e1", template writer version: "128"-->
 <style>.monochrome-0 {-sfsymbols-motion-group:0;-sfsymbols-always-pulses:true}

.multicolor-0:systemPurpleColor {-sfsymbols-motion-group:0;-sfsymbols-always-pulses:true}

.hierarchical-0:primary {-sfsymbols-motion-group:0}

.SFSymbolsPreviewWireframe {fill:none;opacity:1.0;stroke:black;stroke-width:0.5}
</style>
 <g id="Notes">
  <rect height="2200" id="artboard" style="fill:white;opacity:1" width="3300" x="0" y="0"/>
  <line style="fill:none;stroke:black;opacity:1;stroke-width:0.5;" x1="263" x2="3036" y1="292" y2="292"/>
  <text style="stroke:none;fill:black;font-family:sans-serif;font-size:13;font-weight:bold;" transform="matrix(1 0 0 1 263 322)">Weight/Scale Variations</text>
  <text style="stroke:none;fill:black;font-family:sans-serif;font-size:13;text-anchor:middle;" transform="matrix(1 0 0 1 559.711 322)">Ultralight</text>
  <text style="stroke:none;fill:black;font-family:sans-serif;font-size:13;text-anchor:middle;" transform="matrix(1 0 0 1 856.422 322)">Thin</text>
  <text style="stroke:none;fill:black;font-family:sans-serif;font-size:13;text-anchor:middle;" transform="matrix(1 0 0 1 1153.13 322)">Light</text>
  <text style="stroke:none;fill:black;font-family:sans-serif;font-size:13;text-anchor:middle;" transform="matrix(1 0 0 1 1449.84 322)">Regular</text>
  <text style="stroke:none;fill:black;font-family:sans-serif;font-size:13;text-anchor:middle;" transform="matrix(1 0 0 1 1746.56 322)">Medium</text>
  <text style="stroke:none;fill:black;font-family:sans-serif;font-size:13;text-anchor:middle;" transform="matrix(1 0 0 1 2043.27 322)">Semibold</text>
  <text style="stroke:none;fill:black;font-family:sans-serif;font-size:13;text-anchor:middle;" transform="matrix(1 0 0 1 2339.98 322)">Bold</text>
  <text style="stroke:none;fill:black;font-family:sans-serif;font-size:13;text-anchor:middle;" transform="matrix(1 0 0 1 2636.69 322)">Heavy</text>
  <text style="stroke:none;fill:black;font-family:sans-serif;font-size:13;text-anchor:middle;" transform="matrix(1 0 0 1 2933.4 322)">Black</text>
  <line style="fill:none;stroke:black;opacity:1;stroke-width:0.5;" x1="263" x2="3036" y1="1903" y2="1903"/>
  <g transform="matrix(0.2 0 0 0.2 263 1933)">
   <path d="m46.2402 4.15039c21.5332 0 39.4531-17.8711 39.4531-39.4043s-17.9688-39.4043-39.502-39.4043c-21.4844 0-39.3555 17.8711-39.3555 39.4043s17.9199 39.4043 39.4043 39.4043Zm0-7.42188c-17.7246 0-31.8848-14.209-31.8848-31.9824s14.1113-31.9824 31.8359-31.9824c17.7734 0 32.0312 14.209 32.0312 31.9824s-14.209 31.9824-31.9824 31.9824Zm-17.9688-31.9824c0 2.14844 1.51367 3.61328 3.75977 3.61328h10.498v10.5957c0 2.19727 1.46484 3.71094 3.61328 3.71094 2.24609 0 3.71094-1.51367 3.71094-3.71094v-10.5957h10.5957c2.19727 0 3.71094-1.46484 3.71094-3.61328 0-2.19727-1.51367-3.71094-3.71094-3.71094h-10.5957v-10.5469c0-2.24609-1.46484-3.75977-3.71094-3.75977-2.14844 0-3.61328 1.51367-3.61328 3.75977v10.5469h-10.498c-2.24609 0-3.75977 1.51367-3.75977 3.71094Z"/>
  </g>
  <g transform="matrix(0.2 0 0 0.2 281.506 1933)">
   <path d="m58.5449 14.5508c27.2461 0 49.8047-22.6074 49.8047-49.8047 0-27.2461-22.6074-49.8047-49.8535-49.8047-27.1973 0-49.7559 22.5586-49.7559 49.8047 0 27.1973 22.6074 49.8047 49.8047 49.8047Zm0-8.30078c-23.0469 0-41.4551-18.457-41.4551-41.5039s18.3594-41.5039 41.4062-41.5039 41.5527 18.457 41.5527 41.5039-18.457 41.5039-41.5039 41.5039Zm-22.6562-41.5039c0 2.39258 1.66016 4.00391 4.15039 4.00391h14.3555v14.4043c0 2.44141 1.66016 4.15039 4.05273 4.15039 2.44141 0 4.15039-1.66016 4.15039-4.15039v-14.4043h14.4043c2.44141 0 4.15039-1.61133 4.15039-4.00391 0-2.44141-1.70898-4.15039-4.15039-4.15039h-14.4043v-14.3555c0-2.49023-1.70898-4.19922-4.15039-4.19922-2.39258 0-4.05273 1.70898-4.05273 4.19922v14.3555h-14.3555c-2.49023 0-4.15039 1.70898-4.15039 4.15039Z"/>
  </g>
  <g transform="matrix(0.2 0 0 0.2 304.924 1933)">
   <path d="m74.8535 28.3203c34.8145 0 63.623-28.8086 63.623-63.5742 0-34.8145-28.8574-63.623-63.6719-63.623-34.7656 0-63.5254 28.8086-63.5254 63.623 0 34.7656 28.8086 63.5742 63.5742 63.5742Zm0-9.08203c-30.1758 0-54.4434-24.3164-54.4434-54.4922 0-30.2246 24.2188-54.4922 54.3945-54.4922 30.2246 0 54.541 24.2676 54.541 54.4922 0 30.1758-24.2676 54.4922-54.4922 54.4922Zm-28.8574-54.4922c0 2.58789 1.85547 4.39453 4.58984 4.39453h19.7266v19.7754c0 2.68555 1.85547 4.58984 4.44336 4.58984 2.68555 0 4.54102-1.85547 4.54102-4.58984v-19.7754h19.7754c2.68555 0 4.58984-1.80664 4.58984-4.39453 0-2.73438-1.85547-4.58984-4.58984-4.58984h-19.7754v-19.7266c0-2.73438-1.85547-4.63867-4.54102-4.63867-2.58789 0-4.44336 1.9043-4.44336 4.63867v19.7266h-19.7266c-2.73438 0-4.58984 1.85547-4.58984 4.58984Z"/>
  </g>
  <text style="stroke:none;fill:black;font-family:sans-serif;font-size:13;font-weight:bold;" transform="matrix(1 0 0 1 263 1953)">Design Variations</text>
  <text style="stroke:none;fill:black;font-family:sans-serif;font-size:13;" transform="matrix(1 0 0 1 263 1971)">Symbols are supported in up to nine weights and three scales.</text>
  <text style="stroke:none;fill:black;font-family:sans-serif;font-size:13;" transform="matrix(1 0 0 1 263 1989)">For optimal layout with text and other symbols, vertically align</text>
  <text style="stroke:none;fill:black;font-family:sans-serif;font-size:13;" transform="matrix(1 0 0 1 263 2007)">symbols with the adjacent text.</text>
  <line style="fill:none;stroke:#00AEEF;stroke-width:0.5;opacity:1.0;" x1="776" x2="776" y1="1919" y2="1933"/>
  <g transform="matrix(0.2 0 0 0.2 776 1933)">
   <path d="m16.5527 0.78125c2.58789 0 3.85742-0.976562 4.78516-3.71094l6.29883-17.2363h28.8086l6.29883 17.2363c0.927734 2.73438 2.19727 3.71094 4.73633 3.71094 2.58789 0 4.24805-1.5625 4.24805-4.00391 0-0.830078-0.146484-1.61133-0.537109-2.63672l-22.9004-60.9863c-1.12305-2.97852-3.125-4.49219-6.25-4.49219-3.02734 0-5.07812 1.46484-6.15234 4.44336l-22.9004 61.084c-0.390625 1.02539-0.537109 1.80664-0.537109 2.63672 0 2.44141 1.5625 3.95508 4.10156 3.95508Zm13.4766-28.3691 11.8652-32.8613h0.244141l11.8652 32.8613Z"/>
  </g>
  <line style="fill:none;stroke:#00AEEF;stroke-width:0.5;opacity:1.0;" x1="792.836" x2="792.836" y1="1919" y2="1933"/>
  <text style="stroke:none;fill:black;font-family:sans-serif;font-size:13;font-weight:bold;" transform="matrix(1 0 0 1 776 1953)">Margins</text>
  <text style="stroke:none;fill:black;font-family:sans-serif;font-size:13;" transform="matrix(1 0 0 1 776 1971)">Leading and trailing margins on the left and right side of each symbol</text>
  <text style="stroke:none;fill:black;font-family:sans-serif;font-size:13;" transform="matrix(1 0 0 1 776 1989)">can be adjusted by modifying the x-location of the margin guidelines.</text>
  <text style="stroke:none;fill:black;font-family:sans-serif;font-size:13;" transform="matrix(1 0 0 1 776 2007)">Modifications are automatically applied proportionally to all</text>
  <text style="stroke:none;fill:black;font-family:sans-serif;font-size:13;" transform="matrix(1 0 0 1 776 2025)">scales and weights.</text>
  <g transform="matrix(0.2 0 0 0.2 1289 1933)">
   <path d="m14.209 9.32617 8.49609 8.54492c4.29688 4.3457 9.22852 4.05273 13.8672-1.07422l53.4668-58.9355-4.83398-4.88281-53.0762 58.3984c-1.75781 2.00195-3.41797 2.49023-5.76172 0.146484l-5.85938-5.81055c-2.34375-2.29492-1.80664-4.00391 0.195312-5.81055l57.373-54.0039-4.88281-4.83398-57.959 54.4434c-4.93164 4.58984-5.32227 9.47266-1.02539 13.8184Zm32.0801-90.9668c-2.09961 2.05078-2.24609 4.93164-1.07422 6.88477 1.17188 1.80664 3.4668 2.97852 6.68945 2.14844 7.32422-1.70898 14.9414-2.00195 22.0703 2.68555l-2.92969 7.27539c-1.70898 4.15039-0.830078 7.08008 1.85547 9.81445l11.4746 11.5723c2.44141 2.44141 4.49219 2.53906 7.32422 2.05078l5.32227-0.976562 3.32031 3.36914-0.195312 2.7832c-0.195312 2.49023 0.439453 4.39453 2.88086 6.78711l3.80859 3.71094c2.39258 2.39258 5.46875 2.53906 7.8125 0.195312l14.5508-14.5996c2.34375-2.34375 2.24609-5.32227-0.146484-7.71484l-3.85742-3.80859c-2.39258-2.39258-4.24805-3.17383-6.64062-2.97852l-2.88086 0.244141-3.22266-3.17383 1.2207-5.61523c0.634766-2.83203-0.146484-5.0293-3.07617-7.95898l-10.9863-10.9375c-16.6992-16.6016-38.8672-16.2109-53.3203-1.75781Zm7.4707 1.85547c12.1582-8.88672 28.6133-7.37305 39.7461 3.75977l12.1582 12.0605c1.17188 1.17188 1.36719 2.09961 1.02539 3.80859l-1.61133 7.42188 7.51953 7.42188 4.93164-0.292969c1.26953-0.0488281 1.66016 0.0488281 2.63672 1.02539l2.88086 2.88086-12.207 12.207-2.88086-2.88086c-0.976562-0.976562-1.12305-1.36719-1.07422-2.68555l0.341797-4.88281-7.4707-7.42188-7.61719 1.26953c-1.61133 0.341797-2.34375 0.195312-3.56445-0.976562l-10.0098-10.0098c-1.26953-1.17188-1.41602-2.00195-0.634766-3.85742l4.39453-10.4492c-7.8125-7.27539-17.9688-10.4004-28.125-7.42188-0.78125 0.195312-1.07422-0.439453-0.439453-0.976562Z"/>
  </g>
  <text style="stroke:none;fill:black;font-family:sans-serif;font-size:13;font-weight:bold;" transform="matrix(1 0 0 1 1289 1953)">Exporting</text>
  <text style="stroke:none;fill:black;font-family:sans-serif;font-size:13;" transform="matrix(1 0 0 1 1289 1971)">Symbols should be outlined when exporting to ensure the</text>
  <text style="stroke:none;fill:black;font-family:sans-serif;font-size:13;" transform="matrix(1 0 0 1 1289 1989)">design is preserved when submitting to Xcode.</text>
  <text id="template-version" style="stroke:none;fill:black;font-family:sans-serif;font-size:13;text-anchor:end;" transform="matrix(1 0 0 1 3036 1933)">Template v.5.0</text>
  <text style="stroke:none;fill:black;font-family:sans-serif;font-size:13;text-anchor:end;" transform="matrix(1 0 0 1 3036 1951)">Requires Xcode 15 or greater</text>
  <text id="descriptive-name" style="stroke:none;fill:black;font-family:sans-serif;font-size:13;text-anchor:end;" transform="matrix(1 0 0 1 3036 1969)">Generated from wabi.logo</text>
  <text style="stroke:none;fill:black;font-family:sans-serif;font-size:13;text-anchor:end;" transform="matrix(1 0 0 1 3036 1987)">Typeset at 100.0 points</text>
  <text style="stroke:none;fill:black;font-family:sans-serif;font-size:13;" transform="matrix(1 0 0 1 263 726)">Small</text>
  <text style="stroke:none;fill:black;font-family:sans-serif;font-size:13;" transform="matrix(1 0 0 1 263 1156)">Medium</text>
  <text style="stroke:none;fill:black;font-family:sans-serif;font-size:13;" transform="matrix(1 0 0 1 263 1586)">Large</text>
 </g>
 <g id="Guides">
  <g id="H-reference" style="fill:#27AAE1;stroke:none;" transform="matrix(1 0 0 1 339 696)">
   <path d="M0.993654 0L3.63775 0L29.3281-67.1323L30.0303-67.1323L30.0303-70.459L28.1226-70.459ZM11.6885-24.4799L46.9815-24.4799L46.2315-26.7285L12.4385-26.7285ZM55.1196 0L57.7637 0L30.6382-70.459L29.4326-70.459L29.4326-67.1323Z"/>
  </g>
  <line id="Baseline-S" style="fill:none;stroke:#27AAE1;opacity:1;stroke-width:0.5;" x1="263" x2="3036" y1="696" y2="696"/>
  <line id="Capline-S" style="fill:none;stroke:#27AAE1;opacity:1;stroke-width:0.5;" x1="263" x2="3036" y1="625.541" y2="625.541"/>
  <g id="H-reference" style="fill:#27AAE1;stroke:none;" transform="matrix(1 0 0 1 339 1126)">
   <path d="M0.993654 0L3.63775 0L29.3281-67.1323L30.0303-67.1323L30.0303-70.459L28.1226-70.459ZM11.6885-24.4799L46.9815-24.4799L46.2315-26.7285L12.4385-26.7285ZM55.1196 0L57.7637 0L30.6382-70.459L29.4326-70.459L29.4326-67.1323Z"/>
  </g>
  <line id="Baseline-M" style="fill:none;stroke:#27AAE1;opacity:1;stroke-width:0.5;" x1="263" x2="3036" y1="1126" y2="1126"/>
  <line id="Capline-M" style="fill:none;stroke:#27AAE1;opacity:1;stroke-width:0.5;" x1="263" x2="3036" y1="1055.54" y2="1055.54"/>
  <g id="H-reference" style="fill:#27AAE1;stroke:none;" transform="matrix(1 0 0 1 339 1556)">
   <path d="M0.993654 0L3.63775 0L29.3281-67.1323L30.0303-67.1323L30.0303-70.459L28.1226-70.459ZM11.6885-24.4799L46.9815-24.4799L46.2315-26.7285L12.4385-26.7285ZM55.1196 0L57.7637 0L30.6382-70.459L29.4326-70.459L29.4326-67.1323Z"/>
  </g>
  <line id="Baseline-L" style="fill:none;stroke:#27AAE1;opacity:1;stroke-width:0.5;" x1="263" x2="3036" y1="1556" y2="1556"/>
  <line id="Capline-L" style="fill:none;stroke:#27AAE1;opacity:1;stroke-width:0.5;" x1="263" x2="3036" y1="1485.54" y2="1485.54"/>
  <line id="left-margin-Regular-M" style="fill:none;stroke:#00AEEF;stroke-width:0.5;opacity:1.0;" x1="1391.32" x2="1391.32" y1="1030.79" y2="1150.12"/>
  <line id="right-margin-Regular-M" style="fill:none;stroke:#00AEEF;stroke-width:0.5;opacity:1.0;" x1="1508.37" x2="1508.37" y1="1030.79" y2="1150.12"/>
 </g>
 <g id="Symbols">
  <g id="Black-L" transform="matrix(1 0 0 1 2873.88 1556)">
   <path class="monochrome-0 multicolor-0:systemPurpleColor hierarchical-0:primary SFSymbolsPreviewWireframe" d="M51.7925-72.8656C53.7105-72.5473 55.5535-71.9555 57.3705-71.2725C60.6979-70.0219 63.859-68.4298 66.8684-66.5332C70.3668-64.3285 73.5724-61.7598 76.3883-58.7051C78.4234-56.4974 80.2062-54.1028 81.6211-51.4483C84.3772-46.2771 85.2763-40.7871 84.2962-34.988C83.9538-32.9612 83.3559-31.0334 82.3212-29.2491C80.4609-26.0412 77.685-24.461 74.0182-24.4112C72.019-24.3839 70.1372-24.8786 68.3149-25.6529C66.5959-26.383 64.9571-27.2597 63.359-28.2109C61.5806-29.2697 55.8251-34.2164 49.0555-35.8196C45.4446-36.6746 42.4433-35.961 40.9285-33.1475C38.1901-28.0618 41.2776-20.9333 47.926-18.7156C52.6131-17.1522 57.4081-18.536 57.4081-18.536C60.464-19.2873 65.8426-23.0376 69.7737-22.0571C69.7737-22.0571 68.9983-21.0005 67.6509-18.5918C66.7216-16.9304 65.7621-16.217 64.8252-15.4683C62.4285-13.5528 57.7805-13.9612 57.7805-13.9612C65.685-12.3358 64.9133-9.05053 66.5693-1.56414C67.1534 1.07605 67.4456 1.9535 67.6287 2.51119L67.6691 2.63487C67.682 2.67464 67.6943 2.71318 67.7061 2.75114L67.7402 2.86394C67.762 2.93813 67.7393 3.01933 67.6062 2.99589C66.2822 2.76123 60.6366 2.31197 56.6821-1.98489C53.2591-5.70416 51.7692-11.915 49.8558-14.244C48.1149-16.3627 37.3721-17.6435 34.8545-36.3798C34.3783-40.5645 34.8715-44.6219 36.398-48.5468C38.1451-53.0387 40.9465-56.7152 44.7667-59.6116C45.5262-60.1872 46.3571-60.6684 46.9878-61.4178C47.9021-62.5036 48.1916-63.7429 48.0173-65.1267C47.8867-66.1634 47.5103-67.1224 47.1152-68.076C46.8698-68.6678 46.6033-69.2524 46.5228-69.8996C46.372-71.1101 47.024-72.1662 48.1535-72.6119C49.3455-73.0822 50.5622-73.0698 51.7925-72.8656ZM67.5308-36.6245C66.1546-36.4316 65.4655-35.4102 65.9411-34.2676C66.4173-33.1227 67.7827-32.2715 69.1823-32.2469C70.4226-32.2251 71.3417-32.937 71.3467-33.9231C71.3539-35.4156 69.2965-36.8724 67.5308-36.6245Z"/>
  </g>
  <g id="Heavy-L" transform="matrix(1 0 0 1 2577.16 1556)">
   <path class="monochrome-0 multicolor-0:systemPurpleColor hierarchical-0:primary SFSymbolsPreviewWireframe" d="M51.7925-72.8656C53.7105-72.5473 55.5535-71.9555 57.3705-71.2725C60.6979-70.0219 63.859-68.4298 66.8684-66.5332C70.3668-64.3285 73.5724-61.7598 76.3883-58.7051C78.4234-56.4974 80.2062-54.1028 81.6211-51.4483C84.3772-46.2771 85.2763-40.7871 84.2962-34.988C83.9538-32.9612 83.3559-31.0334 82.3212-29.2491C80.4609-26.0412 77.685-24.461 74.0182-24.4112C72.019-24.3839 70.1372-24.8786 68.3149-25.6529C66.5959-26.383 64.9571-27.2597 63.359-28.2109C61.5806-29.2697 55.8251-34.2164 49.0555-35.8196C45.4446-36.6746 42.4433-35.961 40.9285-33.1475C38.1901-28.0618 41.2776-20.9333 47.926-18.7156C52.6131-17.1522 57.4081-18.536 57.4081-18.536C60.464-19.2873 65.8426-23.0376 69.7737-22.0571C69.7737-22.0571 68.9983-21.0005 67.6509-18.5918C66.7216-16.9304 65.7621-16.217 64.8252-15.4683C62.4285-13.5528 57.7805-13.9612 57.7805-13.9612C65.685-12.3358 64.9133-9.05053 66.5693-1.56414C67.1534 1.07605 67.4456 1.9535 67.6287 2.51119L67.6691 2.63487C67.682 2.67464 67.6943 2.71318 67.7061 2.75114L67.7402 2.86394C67.762 2.93813 67.7393 3.01933 67.6062 2.99589C66.2822 2.76123 60.6366 2.31197 56.6821-1.98489C53.2591-5.70416 51.7692-11.915 49.8558-14.244C48.1149-16.3627 37.3721-17.6435 34.8545-36.3798C34.3783-40.5645 34.8715-44.6219 36.398-48.5468C38.1451-53.0387 40.9465-56.7152 44.7667-59.6116C45.5262-60.1872 46.3571-60.6684 46.9878-61.4178C47.9021-62.5036 48.1916-63.7429 48.0173-65.1267C47.8867-66.1634 47.5103-67.1224 47.1152-68.076C46.8698-68.6678 46.6033-69.2524 46.5228-69.8996C46.372-71.1101 47.024-72.1662 48.1535-72.6119C49.3455-73.0822 50.5622-73.0698 51.7925-72.8656ZM67.5308-36.6245C66.1546-36.4316 65.4655-35.4102 65.9411-34.2676C66.4173-33.1227 67.7827-32.2715 69.1823-32.2469C70.4226-32.2251 71.3417-32.937 71.3467-33.9231C71.3539-35.4156 69.2965-36.8724 67.5308-36.6245Z"/>
  </g>
  <g id="Bold-L" transform="matrix(1 0 0 1 2280.45 1556)">
   <path class="monochrome-0 multicolor-0:systemPurpleColor hierarchical-0:primary SFSymbolsPreviewWireframe" d="M51.7925-72.8656C53.7105-72.5473 55.5535-71.9555 57.3705-71.2725C60.6979-70.0219 63.859-68.4298 66.8684-66.5332C70.3668-64.3285 73.5724-61.7598 76.3883-58.7051C78.4234-56.4974 80.2062-54.1028 81.6211-51.4483C84.3772-46.2771 85.2763-40.7871 84.2962-34.988C83.9538-32.9612 83.3559-31.0334 82.3212-29.2491C80.4609-26.0412 77.685-24.461 74.0182-24.4112C72.019-24.3839 70.1372-24.8786 68.3149-25.6529C66.5959-26.383 64.9571-27.2597 63.359-28.2109C61.5806-29.2697 55.8251-34.2164 49.0555-35.8196C45.4446-36.6746 42.4433-35.961 40.9285-33.1475C38.1901-28.0618 41.2776-20.9333 47.926-18.7156C52.6131-17.1522 57.4081-18.536 57.4081-18.536C60.464-19.2873 65.8426-23.0376 69.7737-22.0571C69.7737-22.0571 68.9983-21.0005 67.6509-18.5918C66.7216-16.9304 65.7621-16.217 64.8252-15.4683C62.4285-13.5528 57.7805-13.9612 57.7805-13.9612C65.685-12.3358 64.9133-9.05053 66.5693-1.56414C67.1534 1.07605 67.4456 1.9535 67.6287 2.51119L67.6691 2.63487C67.682 2.67464 67.6943 2.71318 67.7061 2.75114L67.7402 2.86394C67.762 2.93813 67.7393 3.01933 67.6062 2.99589C66.2822 2.76123 60.6366 2.31197 56.6821-1.98489C53.2591-5.70416 51.7692-11.915 49.8558-14.244C48.1149-16.3627 37.3721-17.6435 34.8545-36.3798C34.3783-40.5645 34.8715-44.6219 36.398-48.5468C38.1451-53.0387 40.9465-56.7152 44.7667-59.6116C45.5262-60.1872 46.3571-60.6684 46.9878-61.4178C47.9021-62.5036 48.1916-63.7429 48.0173-65.1267C47.8867-66.1634 47.5103-67.1224 47.1152-68.076C46.8698-68.6678 46.6033-69.2524 46.5228-69.8996C46.372-71.1101 47.024-72.1662 48.1535-72.6119C49.3455-73.0822 50.5622-73.0698 51.7925-72.8656ZM67.5308-36.6245C66.1546-36.4316 65.4655-35.4102 65.9411-34.2676C66.4173-33.1227 67.7827-32.2715 69.1823-32.2469C70.4226-32.2251 71.3417-32.937 71.3467-33.9231C71.3539-35.4156 69.2965-36.8724 67.5308-36.6245Z"/>
  </g>
  <g id="Semibold-L" transform="matrix(1 0 0 1 1983.74 1556)">
   <path class="monochrome-0 multicolor-0:systemPurpleColor hierarchical-0:primary SFSymbolsPreviewWireframe" d="M51.7925-72.8656C53.7105-72.5473 55.5535-71.9555 57.3705-71.2725C60.6979-70.0219 63.859-68.4298 66.8684-66.5332C70.3668-64.3285 73.5724-61.7598 76.3883-58.7051C78.4234-56.4974 80.2062-54.1028 81.6211-51.4483C84.3772-46.2771 85.2763-40.7871 84.2962-34.988C83.9538-32.9612 83.3559-31.0334 82.3212-29.2491C80.4609-26.0412 77.685-24.461 74.0182-24.4112C72.019-24.3839 70.1372-24.8786 68.3149-25.6529C66.5959-26.383 64.9571-27.2597 63.359-28.2109C61.5806-29.2697 55.8251-34.2164 49.0555-35.8196C45.4446-36.6746 42.4433-35.961 40.9285-33.1475C38.1901-28.0618 41.2776-20.9333 47.926-18.7156C52.6131-17.1522 57.4081-18.536 57.4081-18.536C60.464-19.2873 65.8426-23.0376 69.7737-22.0571C69.7737-22.0571 68.9983-21.0005 67.6509-18.5918C66.7216-16.9304 65.7621-16.217 64.8252-15.4683C62.4285-13.5528 57.7805-13.9612 57.7805-13.9612C65.685-12.3358 64.9133-9.05053 66.5693-1.56414C67.1534 1.07605 67.4456 1.9535 67.6287 2.51119L67.6691 2.63487C67.682 2.67464 67.6943 2.71318 67.7061 2.75114L67.7402 2.86394C67.762 2.93813 67.7393 3.01933 67.6062 2.99589C66.2822 2.76123 60.6366 2.31197 56.6821-1.98489C53.2591-5.70416 51.7692-11.915 49.8558-14.244C48.1149-16.3627 37.3721-17.6435 34.8545-36.3798C34.3783-40.5645 34.8715-44.6219 36.398-48.5468C38.1451-53.0387 40.9465-56.7152 44.7667-59.6116C45.5262-60.1872 46.3571-60.6684 46.9878-61.4178C47.9021-62.5036 48.1916-63.7429 48.0173-65.1267C47.8867-66.1634 47.5103-67.1224 47.1152-68.076C46.8698-68.6678 46.6033-69.2524 46.5228-69.8996C46.372-71.1101 47.024-72.1662 48.1535-72.6119C49.3455-73.0822 50.5622-73.0698 51.7925-72.8656ZM67.5308-36.6245C66.1546-36.4316 65.4655-35.4102 65.9411-34.2676C66.4173-33.1227 67.7827-32.2715 69.1823-32.2469C70.4226-32.2251 71.3417-32.937 71.3467-33.9231C71.3539-35.4156 69.2965-36.8724 67.5308-36.6245Z"/>
  </g>
  <g id="Medium-L" transform="matrix(1 0 0 1 1687.03 1556)">
   <path class="monochrome-0 multicolor-0:systemPurpleColor hierarchical-0:primary SFSymbolsPreviewWireframe" d="M51.7925-72.8656C53.7105-72.5473 55.5535-71.9555 57.3705-71.2725C60.6979-70.0219 63.859-68.4298 66.8684-66.5332C70.3668-64.3285 73.5724-61.7598 76.3883-58.7051C78.4234-56.4974 80.2062-54.1028 81.6211-51.4483C84.3772-46.2771 85.2763-40.7871 84.2962-34.988C83.9538-32.9612 83.3559-31.0334 82.3212-29.2491C80.4609-26.0412 77.685-24.461 74.0182-24.4112C72.019-24.3839 70.1372-24.8786 68.3149-25.6529C66.5959-26.383 64.9571-27.2597 63.359-28.2109C61.5806-29.2697 55.8251-34.2164 49.0555-35.8196C45.4446-36.6746 42.4433-35.961 40.9285-33.1475C38.1901-28.0618 41.2776-20.9333 47.926-18.7156C52.6131-17.1522 57.4081-18.536 57.4081-18.536C60.464-19.2873 65.8426-23.0376 69.7737-22.0571C69.7737-22.0571 68.9983-21.0005 67.6509-18.5918C66.7216-16.9304 65.7621-16.217 64.8252-15.4683C62.4285-13.5528 57.7805-13.9612 57.7805-13.9612C65.685-12.3358 64.9133-9.05053 66.5693-1.56414C67.1534 1.07605 67.4456 1.9535 67.6287 2.51119L67.6691 2.63487C67.682 2.67464 67.6943 2.71318 67.7061 2.75114L67.7402 2.86394C67.762 2.93813 67.7393 3.01933 67.6062 2.99589C66.2822 2.76123 60.6366 2.31197 56.6821-1.98489C53.2591-5.70416 51.7692-11.915 49.8558-14.244C48.1149-16.3627 37.3721-17.6435 34.8545-36.3798C34.3783-40.5645 34.8715-44.6219 36.398-48.5468C38.1451-53.0387 40.9465-56.7152 44.7667-59.6116C45.5262-60.1872 46.3571-60.6684 46.9878-61.4178C47.9021-62.5036 48.1916-63.7429 48.0173-65.1267C47.8867-66.1634 47.5103-67.1224 47.1152-68.076C46.8698-68.6678 46.6033-69.2524 46.5228-69.8996C46.372-71.1101 47.024-72.1662 48.1535-72.6119C49.3455-73.0822 50.5622-73.0698 51.7925-72.8656ZM67.5308-36.6245C66.1546-36.4316 65.4655-35.4102 65.9411-34.2676C66.4173-33.1227 67.7827-32.2715 69.1823-32.2469C70.4226-32.2251 71.3417-32.937 71.3467-33.9231C71.3539-35.4156 69.2965-36.8724 67.5308-36.6245Z"/>
  </g>
  <g id="Regular-L" transform="matrix(1 0 0 1 1390.32 1556)">
   <path class="monochrome-0 multicolor-0:systemPurpleColor hierarchical-0:primary SFSymbolsPreviewWireframe" d="M51.7925-72.8656C53.7105-72.5473 55.5535-71.9555 57.3705-71.2725C60.6979-70.0219 63.859-68.4298 66.8684-66.5332C70.3668-64.3285 73.5724-61.7598 76.3883-58.7051C78.4234-56.4974 80.2062-54.1028 81.6211-51.4483C84.3772-46.2771 85.2763-40.7871 84.2962-34.988C83.9538-32.9612 83.3559-31.0334 82.3212-29.2491C80.4609-26.0412 77.685-24.461 74.0182-24.4112C72.019-24.3839 70.1372-24.8786 68.3149-25.6529C66.5959-26.383 64.9571-27.2597 63.359-28.2109C61.5806-29.2697 55.8251-34.2164 49.0555-35.8196C45.4446-36.6746 42.4433-35.961 40.9285-33.1475C38.1901-28.0618 41.2776-20.9333 47.926-18.7156C52.6131-17.1522 57.4081-18.536 57.4081-18.536C60.464-19.2873 65.8426-23.0376 69.7737-22.0571C69.7737-22.0571 68.9983-21.0005 67.6509-18.5918C66.7216-16.9304 65.7621-16.217 64.8252-15.4683C62.4285-13.5528 57.7805-13.9612 57.7805-13.9612C65.685-12.3358 64.9133-9.05053 66.5693-1.56414C67.1534 1.07605 67.4456 1.9535 67.6287 2.51119L67.6691 2.63487C67.682 2.67464 67.6943 2.71318 67.7061 2.75114L67.7402 2.86394C67.762 2.93813 67.7393 3.01933 67.6062 2.99589C66.2822 2.76123 60.6366 2.31197 56.6821-1.98489C53.2591-5.70416 51.7692-11.915 49.8558-14.244C48.1149-16.3627 37.3721-17.6435 34.8545-36.3798C34.3783-40.5645 34.8715-44.6219 36.398-48.5468C38.1451-53.0387 40.9465-56.7152 44.7667-59.6116C45.5262-60.1872 46.3571-60.6684 46.9878-61.4178C47.9021-62.5036 48.1916-63.7429 48.0173-65.1267C47.8867-66.1634 47.5103-67.1224 47.1152-68.076C46.8698-68.6678 46.6033-69.2524 46.5228-69.8996C46.372-71.1101 47.024-72.1662 48.1535-72.6119C49.3455-73.0822 50.5622-73.0698 51.7925-72.8656ZM67.5308-36.6245C66.1546-36.4316 65.4655-35.4102 65.9411-34.2676C66.4173-33.1227 67.7827-32.2715 69.1823-32.2469C70.4226-32.2251 71.3417-32.937 71.3467-33.9231C71.3539-35.4156 69.2965-36.8724 67.5308-36.6245Z"/>
  </g>
  <g id="Light-L" transform="matrix(1 0 0 1 1093.61 1556)">
   <path class="monochrome-0 multicolor-0:systemPurpleColor hierarchical-0:primary SFSymbolsPreviewWireframe" d="M51.7925-72.8656C53.7105-72.5473 55.5535-71.9555 57.3705-71.2725C60.6979-70.0219 63.859-68.4298 66.8684-66.5332C70.3668-64.3285 73.5724-61.7598 76.3883-58.7051C78.4234-56.4974 80.2062-54.1028 81.6211-51.4483C84.3772-46.2771 85.2763-40.7871 84.2962-34.988C83.9538-32.9612 83.3559-31.0334 82.3212-29.2491C80.4609-26.0412 77.685-24.461 74.0182-24.4112C72.019-24.3839 70.1372-24.8786 68.3149-25.6529C66.5959-26.383 64.9571-27.2597 63.359-28.2109C61.5806-29.2697 55.8251-34.2164 49.0555-35.8196C45.4446-36.6746 42.4433-35.961 40.9285-33.1475C38.1901-28.0618 41.2776-20.9333 47.926-18.7156C52.6131-17.1522 57.4081-18.536 57.4081-18.536C60.464-19.2873 65.8426-23.0376 69.7737-22.0571C69.7737-22.0571 68.9983-21.0005 67.6509-18.5918C66.7216-16.9304 65.7621-16.217 64.8252-15.4683C62.4285-13.5528 57.7805-13.9612 57.7805-13.9612C65.685-12.3358 64.9133-9.05053 66.5693-1.56414C67.1534 1.07605 67.4456 1.9535 67.6287 2.51119L67.6691 2.63487C67.682 2.67464 67.6943 2.71318 67.7061 2.75114L67.7402 2.86394C67.762 2.93813 67.7393 3.01933 67.6062 2.99589C66.2822 2.76123 60.6366 2.31197 56.6821-1.98489C53.2591-5.70416 51.7692-11.915 49.8558-14.244C48.1149-16.3627 37.3721-17.6435 34.8545-36.3798C34.3783-40.5645 34.8715-44.6219 36.398-48.5468C38.1451-53.0387 40.9465-56.7152 44.7667-59.6116C45.5262-60.1872 46.3571-60.6684 46.9878-61.4178C47.9021-62.5036 48.1916-63.7429 48.0173-65.1267C47.8867-66.1634 47.5103-67.1224 47.1152-68.076C46.8698-68.6678 46.6033-69.2524 46.5228-69.8996C46.372-71.1101 47.024-72.1662 48.1535-72.6119C49.3455-73.0822 50.5622-73.0698 51.7925-72.8656ZM67.5308-36.6245C66.1546-36.4316 65.4655-35.4102 65.9411-34.2676C66.4173-33.1227 67.7827-32.2715 69.1823-32.2469C70.4226-32.2251 71.3417-32.937 71.3467-33.9231C71.3539-35.4156 69.2965-36.8724 67.5308-36.6245Z"/>
  </g>
  <g id="Thin-L" transform="matrix(1 0 0 1 796.897 1556)">
   <path class="monochrome-0 multicolor-0:systemPurpleColor hierarchical-0:primary SFSymbolsPreviewWireframe" d="M51.7925-72.8656C53.7105-72.5473 55.5535-71.9555 57.3705-71.2725C60.6979-70.0219 63.859-68.4298 66.8684-66.5332C70.3668-64.3285 73.5724-61.7598 76.3883-58.7051C78.4234-56.4974 80.2062-54.1028 81.6211-51.4483C84.3772-46.2771 85.2763-40.7871 84.2962-34.988C83.9538-32.9612 83.3559-31.0334 82.3212-29.2491C80.4609-26.0412 77.685-24.461 74.0182-24.4112C72.019-24.3839 70.1372-24.8786 68.3149-25.6529C66.5959-26.383 64.9571-27.2597 63.359-28.2109C61.5806-29.2697 55.8251-34.2164 49.0555-35.8196C45.4446-36.6746 42.4433-35.961 40.9285-33.1475C38.1901-28.0618 41.2776-20.9333 47.926-18.7156C52.6131-17.1522 57.4081-18.536 57.4081-18.536C60.464-19.2873 65.8426-23.0376 69.7737-22.0571C69.7737-22.0571 68.9983-21.0005 67.6509-18.5918C66.7216-16.9304 65.7621-16.217 64.8252-15.4683C62.4285-13.5528 57.7805-13.9612 57.7805-13.9612C65.685-12.3358 64.9133-9.05053 66.5693-1.56414C67.1534 1.07605 67.4456 1.9535 67.6287 2.51119L67.6691 2.63487C67.682 2.67464 67.6943 2.71318 67.7061 2.75114L67.7402 2.86394C67.762 2.93813 67.7393 3.01933 67.6062 2.99589C66.2822 2.76123 60.6366 2.31197 56.6821-1.98489C53.2591-5.70416 51.7692-11.915 49.8558-14.244C48.1149-16.3627 37.3721-17.6435 34.8545-36.3798C34.3783-40.5645 34.8715-44.6219 36.398-48.5468C38.1451-53.0387 40.9465-56.7152 44.7667-59.6116C45.5262-60.1872 46.3571-60.6684 46.9878-61.4178C47.9021-62.5036 48.1916-63.7429 48.0173-65.1267C47.8867-66.1634 47.5103-67.1224 47.1152-68.076C46.8698-68.6678 46.6033-69.2524 46.5228-69.8996C46.372-71.1101 47.024-72.1662 48.1535-72.6119C49.3455-73.0822 50.5622-73.0698 51.7925-72.8656ZM67.5308-36.6245C66.1546-36.4316 65.4655-35.4102 65.9411-34.2676C66.4173-33.1227 67.7827-32.2715 69.1823-32.2469C70.4226-32.2251 71.3417-32.937 71.3467-33.9231C71.3539-35.4156 69.2965-36.8724 67.5308-36.6245Z"/>
  </g>
  <g id="Ultralight-L" transform="matrix(1 0 0 1 500.186 1556)">
   <path class="monochrome-0 multicolor-0:systemPurpleColor hierarchical-0:primary SFSymbolsPreviewWireframe" d="M51.7925-72.8656C53.7105-72.5473 55.5535-71.9555 57.3705-71.2725C60.6979-70.0219 63.859-68.4298 66.8684-66.5332C70.3668-64.3285 73.5724-61.7598 76.3883-58.7051C78.4234-56.4974 80.2062-54.1028 81.6211-51.4483C84.3772-46.2771 85.2763-40.7871 84.2962-34.988C83.9538-32.9612 83.3559-31.0334 82.3212-29.2491C80.4609-26.0412 77.685-24.461 74.0182-24.4112C72.019-24.3839 70.1372-24.8786 68.3149-25.6529C66.5959-26.383 64.9571-27.2597 63.359-28.2109C61.5806-29.2697 55.8251-34.2164 49.0555-35.8196C45.4446-36.6746 42.4433-35.961 40.9285-33.1475C38.1901-28.0618 41.2776-20.9333 47.926-18.7156C52.6131-17.1522 57.4081-18.536 57.4081-18.536C60.464-19.2873 65.8426-23.0376 69.7737-22.0571C69.7737-22.0571 68.9983-21.0005 67.6509-18.5918C66.7216-16.9304 65.7621-16.217 64.8252-15.4683C62.4285-13.5528 57.7805-13.9612 57.7805-13.9612C65.685-12.3358 64.9133-9.05053 66.5693-1.56414C67.1534 1.07605 67.4456 1.9535 67.6287 2.51119L67.6691 2.63487C67.682 2.67464 67.6943 2.71318 67.7061 2.75114L67.7402 2.86394C67.762 2.93813 67.7393 3.01933 67.6062 2.99589C66.2822 2.76123 60.6366 2.31197 56.6821-1.98489C53.2591-5.70416 51.7692-11.915 49.8558-14.244C48.1149-16.3627 37.3721-17.6435 34.8545-36.3798C34.3783-40.5645 34.8715-44.6219 36.398-48.5468C38.1451-53.0387 40.9465-56.7152 44.7667-59.6116C45.5262-60.1872 46.3571-60.6684 46.9878-61.4178C47.9021-62.5036 48.1916-63.7429 48.0173-65.1267C47.8867-66.1634 47.5103-67.1224 47.1152-68.076C46.8698-68.6678 46.6033-69.2524 46.5228-69.8996C46.372-71.1101 47.024-72.1662 48.1535-72.6119C49.3455-73.0822 50.5622-73.0698 51.7925-72.8656ZM67.5308-36.6245C66.1546-36.4316 65.4655-35.4102 65.9411-34.2676C66.4173-33.1227 67.7827-32.2715 69.1823-32.2469C70.4226-32.2251 71.3417-32.937 71.3467-33.9231C71.3539-35.4156 69.2965-36.8724 67.5308-36.6245Z"/>
  </g>
  <g id="Black-M" transform="matrix(1 0 0 1 2874.88 1126)">
   <path class="monochrome-0 multicolor-0:systemPurpleColor hierarchical-0:primary SFSymbolsPreviewWireframe" d="M51.108-71.8709C52.9493-71.5652 54.7186-70.9967 56.4629-70.3407C59.6572-69.1395 62.6918-67.6102 65.5809-65.7885C68.9393-63.6708 72.0167-61.2035 74.72-58.2694C76.6737-56.1489 78.3851-53.8487 79.7434-51.299C82.3893-46.3319 83.2525-41.0587 82.3116-35.4885C81.9829-33.5416 81.4089-31.69 80.4156-29.9761C78.6297-26.8949 75.9648-25.377 72.4447-25.3292C70.5255-25.3029 68.7189-25.7781 66.9695-26.5218C65.3193-27.2231 63.746-28.0653 62.2118-28.9789C60.5045-29.9959 54.9793-34.7473 48.4805-36.2873C45.014-37.1085 42.1327-36.4231 40.6786-33.7206C38.0497-28.8357 41.0137-21.9886 47.3962-19.8584C51.8957-18.3567 56.499-19.6859 56.499-19.6859C59.4326-20.4076 64.5961-24.0098 68.3699-23.068C68.3699-23.068 67.6256-22.0531 66.3321-19.7395C65.44-18.1436 64.5188-17.4584 63.6193-16.7393C61.3185-14.8994 56.8564-15.2917 56.8564-15.2917C64.4448-13.7304 63.7039-10.5749 65.2938-3.38398C65.8503-0.866885 66.1308-0.0178345 66.3068 0.518473L66.3471 0.641876C66.3728 0.721067 66.3961 0.795028 66.4178 0.869309C66.4388 0.940572 66.4169 1.01857 66.2891 0.996051C65.0181 0.770654 59.5984 0.339127 55.802-3.78812C52.5159-7.36057 51.0857-13.3263 49.2487-15.5633C47.5775-17.5984 37.2645-18.8286 34.8476-36.8253C34.3903-40.8449 34.8639-44.7421 36.3293-48.5121C38.0065-52.8266 40.6958-56.358 44.3632-59.1401C45.0924-59.693 45.89-60.1552 46.4955-60.875C47.3732-61.918 47.6511-63.1083 47.4838-64.4375C47.3585-65.4333 46.9971-66.3544 46.6178-67.2704C46.3822-67.8389 46.1264-68.4004 46.0491-69.022C45.9043-70.1847 46.5302-71.1991 47.6146-71.6272C48.7589-72.0789 49.9269-72.0671 51.108-71.8709ZM66.2168-37.0603C64.8956-36.8751 64.2341-35.894 64.6907-34.7965C65.1478-33.6968 66.4586-32.8792 67.8022-32.8555C68.9929-32.8346 69.8752-33.5184 69.88-34.4656C69.887-35.8992 67.9118-37.2984 66.2168-37.0603Z"/>
  </g>
  <g id="Heavy-M" transform="matrix(1 0 0 1 2578.16 1126)">
   <path class="monochrome-0 multicolor-0:systemPurpleColor hierarchical-0:primary SFSymbolsPreviewWireframe" d="M51.108-71.8709C52.9493-71.5652 54.7186-70.9967 56.4629-70.3407C59.6572-69.1395 62.6918-67.6102 65.5809-65.7885C68.9393-63.6708 72.0167-61.2035 74.72-58.2694C76.6737-56.1489 78.3851-53.8487 79.7434-51.299C82.3893-46.3319 83.2525-41.0587 82.3116-35.4885C81.9829-33.5416 81.4089-31.69 80.4156-29.9761C78.6297-26.8949 75.9648-25.377 72.4447-25.3292C70.5255-25.3029 68.7189-25.7781 66.9695-26.5218C65.3193-27.2231 63.746-28.0653 62.2118-28.9789C60.5045-29.9959 54.9793-34.7473 48.4805-36.2873C45.014-37.1085 42.1327-36.4231 40.6786-33.7206C38.0497-28.8357 41.0137-21.9886 47.3962-19.8584C51.8957-18.3567 56.499-19.6859 56.499-19.6859C59.4326-20.4076 64.5961-24.0098 68.3699-23.068C68.3699-23.068 67.6256-22.0531 66.3321-19.7395C65.44-18.1436 64.5188-17.4584 63.6193-16.7393C61.3185-14.8994 56.8564-15.2917 56.8564-15.2917C64.4448-13.7304 63.7039-10.5749 65.2938-3.38398C65.8503-0.866885 66.1308-0.0178345 66.3068 0.518473L66.3471 0.641876C66.3728 0.721067 66.3961 0.795028 66.4178 0.869309C66.4388 0.940572 66.4169 1.01857 66.2891 0.996051C65.0181 0.770654 59.5984 0.339127 55.802-3.78812C52.5159-7.36057 51.0857-13.3263 49.2487-15.5633C47.5775-17.5984 37.2645-18.8286 34.8476-36.8253C34.3903-40.8449 34.8639-44.7421 36.3293-48.5121C38.0065-52.8266 40.6958-56.358 44.3632-59.1401C45.0924-59.693 45.89-60.1552 46.4955-60.875C47.3732-61.918 47.6511-63.1083 47.4838-64.4375C47.3585-65.4333 46.9971-66.3544 46.6178-67.2704C46.3822-67.8389 46.1264-68.4004 46.0491-69.022C45.9043-70.1847 46.5302-71.1991 47.6146-71.6272C48.7589-72.0789 49.9269-72.0671 51.108-71.8709ZM66.2168-37.0603C64.8956-36.8751 64.2341-35.894 64.6907-34.7965C65.1478-33.6968 66.4586-32.8792 67.8022-32.8555C68.9929-32.8346 69.8752-33.5184 69.88-34.4656C69.887-35.8992 67.9118-37.2984 66.2168-37.0603Z"/>
  </g>
  <g id="Bold-M" transform="matrix(1 0 0 1 2281.45 1126)">
   <path class="monochrome-0 multicolor-0:systemPurpleColor hierarchical-0:primary SFSymbolsPreviewWireframe" d="M51.108-71.8709C52.9493-71.5652 54.7186-70.9967 56.4629-70.3407C59.6572-69.1395 62.6918-67.6102 65.5809-65.7885C68.9393-63.6708 72.0167-61.2035 74.72-58.2694C76.6737-56.1489 78.3851-53.8487 79.7434-51.299C82.3893-46.3319 83.2525-41.0587 82.3116-35.4885C81.9829-33.5416 81.4089-31.69 80.4156-29.9761C78.6297-26.8949 75.9648-25.377 72.4447-25.3292C70.5255-25.3029 68.7189-25.7781 66.9695-26.5218C65.3193-27.2231 63.746-28.0653 62.2118-28.9789C60.5045-29.9959 54.9793-34.7473 48.4805-36.2873C45.014-37.1085 42.1327-36.4231 40.6786-33.7206C38.0497-28.8357 41.0137-21.9886 47.3962-19.8584C51.8957-18.3567 56.499-19.6859 56.499-19.6859C59.4326-20.4076 64.5961-24.0098 68.3699-23.068C68.3699-23.068 67.6256-22.0531 66.3321-19.7395C65.44-18.1436 64.5188-17.4584 63.6193-16.7393C61.3185-14.8994 56.8564-15.2917 56.8564-15.2917C64.4448-13.7304 63.7039-10.5749 65.2938-3.38398C65.8503-0.866885 66.1308-0.0178345 66.3068 0.518473L66.3471 0.641876C66.3728 0.721067 66.3961 0.795028 66.4178 0.869309C66.4388 0.940572 66.4169 1.01857 66.2891 0.996051C65.0181 0.770654 59.5984 0.339127 55.802-3.78812C52.5159-7.36057 51.0857-13.3263 49.2487-15.5633C47.5775-17.5984 37.2645-18.8286 34.8476-36.8253C34.3903-40.8449 34.8639-44.7421 36.3293-48.5121C38.0065-52.8266 40.6958-56.358 44.3632-59.1401C45.0924-59.693 45.89-60.1552 46.4955-60.875C47.3732-61.918 47.6511-63.1083 47.4838-64.4375C47.3585-65.4333 46.9971-66.3544 46.6178-67.2704C46.3822-67.8389 46.1264-68.4004 46.0491-69.022C45.9043-70.1847 46.5302-71.1991 47.6146-71.6272C48.7589-72.0789 49.9269-72.0671 51.108-71.8709ZM66.2168-37.0603C64.8956-36.8751 64.2341-35.894 64.6907-34.7965C65.1478-33.6968 66.4586-32.8792 67.8022-32.8555C68.9929-32.8346 69.8752-33.5184 69.88-34.4656C69.887-35.8992 67.9118-37.2984 66.2168-37.0603Z"/>
  </g>
  <g id="Semibold-M" transform="matrix(1 0 0 1 1984.74 1126)">
   <path class="monochrome-0 multicolor-0:systemPurpleColor hierarchical-0:primary SFSymbolsPreviewWireframe" d="M51.108-71.8709C52.9493-71.5652 54.7186-70.9967 56.4629-70.3407C59.6572-69.1395 62.6918-67.6102 65.5809-65.7885C68.9393-63.6708 72.0167-61.2035 74.72-58.2694C76.6737-56.1489 78.3851-53.8487 79.7434-51.299C82.3893-46.3319 83.2525-41.0587 82.3116-35.4885C81.9829-33.5416 81.4089-31.69 80.4156-29.9761C78.6297-26.8949 75.9648-25.377 72.4447-25.3292C70.5255-25.3029 68.7189-25.7781 66.9695-26.5218C65.3193-27.2231 63.746-28.0653 62.2118-28.9789C60.5045-29.9959 54.9793-34.7473 48.4805-36.2873C45.014-37.1085 42.1327-36.4231 40.6786-33.7206C38.0497-28.8357 41.0137-21.9886 47.3962-19.8584C51.8957-18.3567 56.499-19.6859 56.499-19.6859C59.4326-20.4076 64.5961-24.0098 68.3699-23.068C68.3699-23.068 67.6256-22.0531 66.3321-19.7395C65.44-18.1436 64.5188-17.4584 63.6193-16.7393C61.3185-14.8994 56.8564-15.2917 56.8564-15.2917C64.4448-13.7304 63.7039-10.5749 65.2938-3.38398C65.8503-0.866885 66.1308-0.0178345 66.3068 0.518473L66.3471 0.641876C66.3728 0.721067 66.3961 0.795028 66.4178 0.869309C66.4388 0.940572 66.4169 1.01857 66.2891 0.996051C65.0181 0.770654 59.5984 0.339127 55.802-3.78812C52.5159-7.36057 51.0857-13.3263 49.2487-15.5633C47.5775-17.5984 37.2645-18.8286 34.8476-36.8253C34.3903-40.8449 34.8639-44.7421 36.3293-48.5121C38.0065-52.8266 40.6958-56.358 44.3632-59.1401C45.0924-59.693 45.89-60.1552 46.4955-60.875C47.3732-61.918 47.6511-63.1083 47.4838-64.4375C47.3585-65.4333 46.9971-66.3544 46.6178-67.2704C46.3822-67.8389 46.1264-68.4004 46.0491-69.022C45.9043-70.1847 46.5302-71.1991 47.6146-71.6272C48.7589-72.0789 49.9269-72.0671 51.108-71.8709ZM66.2168-37.0603C64.8956-36.8751 64.2341-35.894 64.6907-34.7965C65.1478-33.6968 66.4586-32.8792 67.8022-32.8555C68.9929-32.8346 69.8752-33.5184 69.88-34.4656C69.887-35.8992 67.9118-37.2984 66.2168-37.0603Z"/>
  </g>
  <g id="Medium-M" transform="matrix(1 0 0 1 1688.03 1126)">
   <path class="monochrome-0 multicolor-0:systemPurpleColor hierarchical-0:primary SFSymbolsPreviewWireframe" d="M51.108-71.8709C52.9493-71.5652 54.7186-70.9967 56.4629-70.3407C59.6572-69.1395 62.6918-67.6102 65.5809-65.7885C68.9393-63.6708 72.0167-61.2035 74.72-58.2694C76.6737-56.1489 78.3851-53.8487 79.7434-51.299C82.3893-46.3319 83.2525-41.0587 82.3116-35.4885C81.9829-33.5416 81.4089-31.69 80.4156-29.9761C78.6297-26.8949 75.9648-25.377 72.4447-25.3292C70.5255-25.3029 68.7189-25.7781 66.9695-26.5218C65.3193-27.2231 63.746-28.0653 62.2118-28.9789C60.5045-29.9959 54.9793-34.7473 48.4805-36.2873C45.014-37.1085 42.1327-36.4231 40.6786-33.7206C38.0497-28.8357 41.0137-21.9886 47.3962-19.8584C51.8957-18.3567 56.499-19.6859 56.499-19.6859C59.4326-20.4076 64.5961-24.0098 68.3699-23.068C68.3699-23.068 67.6256-22.0531 66.3321-19.7395C65.44-18.1436 64.5188-17.4584 63.6193-16.7393C61.3185-14.8994 56.8564-15.2917 56.8564-15.2917C64.4448-13.7304 63.7039-10.5749 65.2938-3.38398C65.8503-0.866885 66.1308-0.0178345 66.3068 0.518473L66.3471 0.641876C66.3728 0.721067 66.3961 0.795028 66.4178 0.869309C66.4388 0.940572 66.4169 1.01857 66.2891 0.996051C65.0181 0.770654 59.5984 0.339127 55.802-3.78812C52.5159-7.36057 51.0857-13.3263 49.2487-15.5633C47.5775-17.5984 37.2645-18.8286 34.8476-36.8253C34.3903-40.8449 34.8639-44.7421 36.3293-48.5121C38.0065-52.8266 40.6958-56.358 44.3632-59.1401C45.0924-59.693 45.89-60.1552 46.4955-60.875C47.3732-61.918 47.6511-63.1083 47.4838-64.4375C47.3585-65.4333 46.9971-66.3544 46.6178-67.2704C46.3822-67.8389 46.1264-68.4004 46.0491-69.022C45.9043-70.1847 46.5302-71.1991 47.6146-71.6272C48.7589-72.0789 49.9269-72.0671 51.108-71.8709ZM66.2168-37.0603C64.8956-36.8751 64.2341-35.894 64.6907-34.7965C65.1478-33.6968 66.4586-32.8792 67.8022-32.8555C68.9929-32.8346 69.8752-33.5184 69.88-34.4656C69.887-35.8992 67.9118-37.2984 66.2168-37.0603Z"/>
  </g>
  <g id="Regular-M" transform="matrix(1 0 0 1 1391.32 1126)">
   <path class="monochrome-0 multicolor-0:systemPurpleColor hierarchical-0:primary SFSymbolsPreviewWireframe" d="M51.108-71.8709C52.9493-71.5652 54.7186-70.9967 56.4629-70.3407C59.6572-69.1395 62.6918-67.6102 65.5809-65.7885C68.9393-63.6708 72.0167-61.2035 74.72-58.2694C76.6737-56.1489 78.3851-53.8487 79.7434-51.299C82.3893-46.3319 83.2525-41.0587 82.3116-35.4885C81.9829-33.5416 81.4089-31.69 80.4156-29.9761C78.6297-26.8949 75.9648-25.377 72.4447-25.3292C70.5255-25.3029 68.7189-25.7781 66.9695-26.5218C65.3193-27.2231 63.746-28.0653 62.2118-28.9789C60.5045-29.9959 54.9793-34.7473 48.4805-36.2873C45.014-37.1085 42.1327-36.4231 40.6786-33.7206C38.0497-28.8357 41.0137-21.9886 47.3962-19.8584C51.8957-18.3567 56.499-19.6859 56.499-19.6859C59.4326-20.4076 64.5961-24.0098 68.3699-23.068C68.3699-23.068 67.6256-22.0531 66.3321-19.7395C65.44-18.1436 64.5188-17.4584 63.6193-16.7393C61.3185-14.8994 56.8564-15.2917 56.8564-15.2917C64.4448-13.7304 63.7039-10.5749 65.2938-3.38398C65.8503-0.866885 66.1308-0.0178345 66.3068 0.518473L66.3471 0.641876C66.3728 0.721067 66.3961 0.795028 66.4178 0.869309C66.4388 0.940572 66.4169 1.01857 66.2891 0.996051C65.0181 0.770654 59.5984 0.339127 55.802-3.78812C52.5159-7.36057 51.0857-13.3263 49.2487-15.5633C47.5775-17.5984 37.2645-18.8286 34.8476-36.8253C34.3903-40.8449 34.8639-44.7421 36.3293-48.5121C38.0065-52.8266 40.6958-56.358 44.3632-59.1401C45.0924-59.693 45.89-60.1552 46.4955-60.875C47.3732-61.918 47.6511-63.1083 47.4838-64.4375C47.3585-65.4333 46.9971-66.3544 46.6178-67.2704C46.3822-67.8389 46.1264-68.4004 46.0491-69.022C45.9043-70.1847 46.5302-71.1991 47.6146-71.6272C48.7589-72.0789 49.9269-72.0671 51.108-71.8709ZM66.2168-37.0603C64.8956-36.8751 64.2341-35.894 64.6907-34.7965C65.1478-33.6968 66.4586-32.8792 67.8022-32.8555C68.9929-32.8346 69.8752-33.5184 69.88-34.4656C69.887-35.8992 67.9118-37.2984 66.2168-37.0603Z"/>
  </g>
  <g id="Light-M" transform="matrix(1 0 0 1 1094.61 1126)">
   <path class="monochrome-0 multicolor-0:systemPurpleColor hierarchical-0:primary SFSymbolsPreviewWireframe" d="M51.108-71.8709C52.9493-71.5652 54.7186-70.9967 56.4629-70.3407C59.6572-69.1395 62.6918-67.6102 65.5809-65.7885C68.9393-63.6708 72.0167-61.2035 74.72-58.2694C76.6737-56.1489 78.3851-53.8487 79.7434-51.299C82.3893-46.3319 83.2525-41.0587 82.3116-35.4885C81.9829-33.5416 81.4089-31.69 80.4156-29.9761C78.6297-26.8949 75.9648-25.377 72.4447-25.3292C70.5255-25.3029 68.7189-25.7781 66.9695-26.5218C65.3193-27.2231 63.746-28.0653 62.2118-28.9789C60.5045-29.9959 54.9793-34.7473 48.4805-36.2873C45.014-37.1085 42.1327-36.4231 40.6786-33.7206C38.0497-28.8357 41.0137-21.9886 47.3962-19.8584C51.8957-18.3567 56.499-19.6859 56.499-19.6859C59.4326-20.4076 64.5961-24.0098 68.3699-23.068C68.3699-23.068 67.6256-22.0531 66.3321-19.7395C65.44-18.1436 64.5188-17.4584 63.6193-16.7393C61.3185-14.8994 56.8564-15.2917 56.8564-15.2917C64.4448-13.7304 63.7039-10.5749 65.2938-3.38398C65.8503-0.866885 66.1308-0.0178345 66.3068 0.518473L66.3471 0.641876C66.3728 0.721067 66.3961 0.795028 66.4178 0.869309C66.4388 0.940572 66.4169 1.01857 66.2891 0.996051C65.0181 0.770654 59.5984 0.339127 55.802-3.78812C52.5159-7.36057 51.0857-13.3263 49.2487-15.5633C47.5775-17.5984 37.2645-18.8286 34.8476-36.8253C34.3903-40.8449 34.8639-44.7421 36.3293-48.5121C38.0065-52.8266 40.6958-56.358 44.3632-59.1401C45.0924-59.693 45.89-60.1552 46.4955-60.875C47.3732-61.918 47.6511-63.1083 47.4838-64.4375C47.3585-65.4333 46.9971-66.3544 46.6178-67.2704C46.3822-67.8389 46.1264-68.4004 46.0491-69.022C45.9043-70.1847 46.5302-71.1991 47.6146-71.6272C48.7589-72.0789 49.9269-72.0671 51.108-71.8709ZM66.2168-37.0603C64.8956-36.8751 64.2341-35.894 64.6907-34.7965C65.1478-33.6968 66.4586-32.8792 67.8022-32.8555C68.9929-32.8346 69.8752-33.5184 69.88-34.4656C69.887-35.8992 67.9118-37.2984 66.2168-37.0603Z"/>
  </g>
  <g id="Thin-M" transform="matrix(1 0 0 1 797.897 1126)">
   <path class="monochrome-0 multicolor-0:systemPurpleColor hierarchical-0:primary SFSymbolsPreviewWireframe" d="M51.108-71.8709C52.9493-71.5652 54.7186-70.9967 56.4629-70.3407C59.6572-69.1395 62.6918-67.6102 65.5809-65.7885C68.9393-63.6708 72.0167-61.2035 74.72-58.2694C76.6737-56.1489 78.3851-53.8487 79.7434-51.299C82.3893-46.3319 83.2525-41.0587 82.3116-35.4885C81.9829-33.5416 81.4089-31.69 80.4156-29.9761C78.6297-26.8949 75.9648-25.377 72.4447-25.3292C70.5255-25.3029 68.7189-25.7781 66.9695-26.5218C65.3193-27.2231 63.746-28.0653 62.2118-28.9789C60.5045-29.9959 54.9793-34.7473 48.4805-36.2873C45.014-37.1085 42.1327-36.4231 40.6786-33.7206C38.0497-28.8357 41.0137-21.9886 47.3962-19.8584C51.8957-18.3567 56.499-19.6859 56.499-19.6859C59.4326-20.4076 64.5961-24.0098 68.3699-23.068C68.3699-23.068 67.6256-22.0531 66.3321-19.7395C65.44-18.1436 64.5188-17.4584 63.6193-16.7393C61.3185-14.8994 56.8564-15.2917 56.8564-15.2917C64.4448-13.7304 63.7039-10.5749 65.2938-3.38398C65.8503-0.866885 66.1308-0.0178345 66.3068 0.518473L66.3471 0.641876C66.3728 0.721067 66.3961 0.795028 66.4178 0.869309C66.4388 0.940572 66.4169 1.01857 66.2891 0.996051C65.0181 0.770654 59.5984 0.339127 55.802-3.78812C52.5159-7.36057 51.0857-13.3263 49.2487-15.5633C47.5775-17.5984 37.2645-18.8286 34.8476-36.8253C34.3903-40.8449 34.8639-44.7421 36.3293-48.5121C38.0065-52.8266 40.6958-56.358 44.3632-59.1401C45.0924-59.693 45.89-60.1552 46.4955-60.875C47.3732-61.918 47.6511-63.1083 47.4838-64.4375C47.3585-65.4333 46.9971-66.3544 46.6178-67.2704C46.3822-67.8389 46.1264-68.4004 46.0491-69.022C45.9043-70.1847 46.5302-71.1991 47.6146-71.6272C48.7589-72.0789 49.9269-72.0671 51.108-71.8709ZM66.2168-37.0603C64.8956-36.8751 64.2341-35.894 64.6907-34.7965C65.1478-33.6968 66.4586-32.8792 67.8022-32.8555C68.9929-32.8346 69.8752-33.5184 69.88-34.4656C69.887-35.8992 67.9118-37.2984 66.2168-37.0603Z"/>
  </g>
  <g id="Ultralight-M" transform="matrix(1 0 0 1 501.186 1126)">
   <path class="monochrome-0 multicolor-0:systemPurpleColor hierarchical-0:primary SFSymbolsPreviewWireframe" d="M51.108-71.8709C52.9493-71.5652 54.7186-70.9967 56.4629-70.3407C59.6572-69.1395 62.6918-67.6102 65.5809-65.7885C68.9393-63.6708 72.0167-61.2035 74.72-58.2694C76.6737-56.1489 78.3851-53.8487 79.7434-51.299C82.3893-46.3319 83.2525-41.0587 82.3116-35.4885C81.9829-33.5416 81.4089-31.69 80.4156-29.9761C78.6297-26.8949 75.9648-25.377 72.4447-25.3292C70.5255-25.3029 68.7189-25.7781 66.9695-26.5218C65.3193-27.2231 63.746-28.0653 62.2118-28.9789C60.5045-29.9959 54.9793-34.7473 48.4805-36.2873C45.014-37.1085 42.1327-36.4231 40.6786-33.7206C38.0497-28.8357 41.0137-21.9886 47.3962-19.8584C51.8957-18.3567 56.499-19.6859 56.499-19.6859C59.4326-20.4076 64.5961-24.0098 68.3699-23.068C68.3699-23.068 67.6256-22.0531 66.3321-19.7395C65.44-18.1436 64.5188-17.4584 63.6193-16.7393C61.3185-14.8994 56.8564-15.2917 56.8564-15.2917C64.4448-13.7304 63.7039-10.5749 65.2938-3.38398C65.8503-0.866885 66.1308-0.0178345 66.3068 0.518473L66.3471 0.641876C66.3728 0.721067 66.3961 0.795028 66.4178 0.869309C66.4388 0.940572 66.4169 1.01857 66.2891 0.996051C65.0181 0.770654 59.5984 0.339127 55.802-3.78812C52.5159-7.36057 51.0857-13.3263 49.2487-15.5633C47.5775-17.5984 37.2645-18.8286 34.8476-36.8253C34.3903-40.8449 34.8639-44.7421 36.3293-48.5121C38.0065-52.8266 40.6958-56.358 44.3632-59.1401C45.0924-59.693 45.89-60.1552 46.4955-60.875C47.3732-61.918 47.6511-63.1083 47.4838-64.4375C47.3585-65.4333 46.9971-66.3544 46.6178-67.2704C46.3822-67.8389 46.1264-68.4004 46.0491-69.022C45.9043-70.1847 46.5302-71.1991 47.6146-71.6272C48.7589-72.0789 49.9269-72.0671 51.108-71.8709ZM66.2168-37.0603C64.8956-36.8751 64.2341-35.894 64.6907-34.7965C65.1478-33.6968 66.4586-32.8792 67.8022-32.8555C68.9929-32.8346 69.8752-33.5184 69.88-34.4656C69.887-35.8992 67.9118-37.2984 66.2168-37.0603Z"/>
  </g>
  <g id="Black-S" transform="matrix(1 0 0 1 2876.37 696)">
   <path class="monochrome-0 multicolor-0:systemPurpleColor hierarchical-0:primary SFSymbolsPreviewWireframe" d="M50.0812-69.878C51.8074-69.589 53.4662-69.0517 55.1015-68.4316C58.0962-67.2962 60.9411-65.8507 63.6496-64.1288C66.7981-62.1271 69.6831-59.7951 72.2175-57.0217C74.0491-55.0174 75.6535-52.8433 76.927-50.4333C79.4075-45.7384 80.2167-40.7541 79.3346-35.4891C79.0264-33.6489 78.4883-31.8987 77.5571-30.2788C75.8828-27.3664 73.3845-25.9317 70.0844-25.8865C68.2851-25.8617 66.5915-26.3108 64.9514-27.0138C63.4043-27.6766 61.9294-28.4727 60.4911-29.3362C58.8905-30.2975 53.7106-34.7886 47.618-36.2441C44.3681-37.0204 41.6669-36.3725 40.3036-33.8181C37.8391-29.2009 40.6179-22.729 46.6014-20.7154C50.8198-19.2961 55.1353-20.5524 55.1353-20.5524C57.8856-21.2346 62.7263-24.6394 66.2643-23.7492L66.2529-23.7333C66.1581-23.6004 65.4767-22.628 64.3538-20.6031C63.5175-19.0947 62.6539-18.447 61.8106-17.7672C59.6536-16.0282 55.4704-16.399 55.4704-16.399C62.5845-14.9233 61.8899-11.9406 63.3804-5.14376C64.0273-2.19359 64.2765-1.66766 64.4342-1.12353C64.4538-1.05617 64.4334-0.98245 64.3135-1.00373C63.122-1.21678 58.041-1.62466 54.4819-5.52575C51.4012-8.90246 50.0603-14.5413 48.3382-16.6557C46.7715-18.5793 37.1029-19.7421 34.8371-36.7527C34.4084-40.552 34.8524-44.2357 36.2262-47.7991C37.7986-51.8772 40.3198-55.2151 43.758-57.8447C44.4416-58.3674 45.1894-58.8042 45.7571-59.4846C46.5799-60.4704 46.8404-61.5955 46.6835-62.8519C46.5661-63.7931 46.2273-64.6637 45.8717-65.5295C45.6508-66.0669 45.411-66.5976 45.3385-67.1852C45.2028-68.2842 45.7896-69.243 46.8061-69.6476C47.8789-70.0746 48.9739-70.0634 50.0812-69.878ZM64.2458-36.9748C63.0072-36.7997 62.387-35.8724 62.815-34.835C63.2436-33.7956 64.4724-33.0228 65.7321-33.0004C66.8483-32.9807 67.6755-33.627 67.68-34.5223C67.6865-35.8774 65.8349-37.1999 64.2458-36.9748Z"/>
  </g>
  <g id="Heavy-S" transform="matrix(1 0 0 1 2579.66 696)">
   <path class="monochrome-0 multicolor-0:systemPurpleColor hierarchical-0:primary SFSymbolsPreviewWireframe" d="M50.0812-69.878C51.8074-69.589 53.4662-69.0517 55.1015-68.4316C58.0962-67.2962 60.9411-65.8507 63.6496-64.1288C66.7981-62.1271 69.6831-59.7951 72.2175-57.0217C74.0491-55.0174 75.6535-52.8433 76.927-50.4333C79.4075-45.7384 80.2167-40.7541 79.3346-35.4891C79.0264-33.6489 78.4883-31.8987 77.5571-30.2788C75.8828-27.3664 73.3845-25.9317 70.0844-25.8865C68.2851-25.8617 66.5915-26.3108 64.9514-27.0138C63.4043-27.6766 61.9294-28.4727 60.4911-29.3362C58.8905-30.2975 53.7106-34.7886 47.618-36.2441C44.3681-37.0204 41.6669-36.3725 40.3036-33.8181C37.8391-29.2009 40.6179-22.729 46.6014-20.7154C50.8198-19.2961 55.1353-20.5524 55.1353-20.5524C57.8856-21.2346 62.7263-24.6394 66.2643-23.7492L66.2529-23.7333C66.1581-23.6004 65.4767-22.628 64.3538-20.6031C63.5175-19.0947 62.6539-18.447 61.8106-17.7672C59.6536-16.0282 55.4704-16.399 55.4704-16.399C62.5845-14.9233 61.8899-11.9406 63.3804-5.14376C64.0273-2.19359 64.2765-1.66766 64.4342-1.12353C64.4538-1.05617 64.4334-0.98245 64.3135-1.00373C63.122-1.21678 58.041-1.62466 54.4819-5.52575C51.4012-8.90246 50.0603-14.5413 48.3382-16.6557C46.7715-18.5793 37.1029-19.7421 34.8371-36.7527C34.4084-40.552 34.8524-44.2357 36.2262-47.7991C37.7986-51.8772 40.3198-55.2151 43.758-57.8447C44.4416-58.3674 45.1894-58.8042 45.7571-59.4846C46.5799-60.4704 46.8404-61.5955 46.6835-62.8519C46.5661-63.7931 46.2273-64.6637 45.8717-65.5295C45.6508-66.0669 45.411-66.5976 45.3385-67.1852C45.2028-68.2842 45.7896-69.243 46.8061-69.6476C47.8789-70.0746 48.9739-70.0634 50.0812-69.878ZM64.2458-36.9748C63.0072-36.7997 62.387-35.8724 62.815-34.835C63.2436-33.7956 64.4724-33.0228 65.7321-33.0004C66.8483-32.9807 67.6755-33.627 67.68-34.5223C67.6865-35.8774 65.8349-37.1999 64.2458-36.9748Z"/>
  </g>
  <g id="Bold-S" transform="matrix(1 0 0 1 2282.95 696)">
   <path class="monochrome-0 multicolor-0:systemPurpleColor hierarchical-0:primary SFSymbolsPreviewWireframe" d="M50.0812-69.878C51.8074-69.589 53.4662-69.0517 55.1015-68.4316C58.0962-67.2962 60.9411-65.8507 63.6496-64.1288C66.7981-62.1271 69.6831-59.7951 72.2175-57.0217C74.0491-55.0174 75.6535-52.8433 76.927-50.4333C79.4075-45.7384 80.2167-40.7541 79.3346-35.4891C79.0264-33.6489 78.4883-31.8987 77.5571-30.2788C75.8828-27.3664 73.3845-25.9317 70.0844-25.8865C68.2851-25.8617 66.5915-26.3108 64.9514-27.0138C63.4043-27.6766 61.9294-28.4727 60.4911-29.3362C58.8905-30.2975 53.7106-34.7886 47.618-36.2441C44.3681-37.0204 41.6669-36.3725 40.3036-33.8181C37.8391-29.2009 40.6179-22.729 46.6014-20.7154C50.8198-19.2961 55.1353-20.5524 55.1353-20.5524C57.8856-21.2346 62.7263-24.6394 66.2643-23.7492L66.2529-23.7333C66.1581-23.6004 65.4767-22.628 64.3538-20.6031C63.5175-19.0947 62.6539-18.447 61.8106-17.7672C59.6536-16.0282 55.4704-16.399 55.4704-16.399C62.5845-14.9233 61.8899-11.9406 63.3804-5.14376C64.0273-2.19359 64.2765-1.66766 64.4342-1.12353C64.4538-1.05617 64.4334-0.98245 64.3135-1.00373C63.122-1.21678 58.041-1.62466 54.4819-5.52575C51.4012-8.90246 50.0603-14.5413 48.3382-16.6557C46.7715-18.5793 37.1029-19.7421 34.8371-36.7527C34.4084-40.552 34.8524-44.2357 36.2262-47.7991C37.7986-51.8772 40.3198-55.2151 43.758-57.8447C44.4416-58.3674 45.1894-58.8042 45.7571-59.4846C46.5799-60.4704 46.8404-61.5955 46.6835-62.8519C46.5661-63.7931 46.2273-64.6637 45.8717-65.5295C45.6508-66.0669 45.411-66.5976 45.3385-67.1852C45.2028-68.2842 45.7896-69.243 46.8061-69.6476C47.8789-70.0746 48.9739-70.0634 50.0812-69.878ZM64.2458-36.9748C63.0072-36.7997 62.387-35.8724 62.815-34.835C63.2436-33.7956 64.4724-33.0228 65.7321-33.0004C66.8483-32.9807 67.6755-33.627 67.68-34.5223C67.6865-35.8774 65.8349-37.1999 64.2458-36.9748Z"/>
  </g>
  <g id="Semibold-S" transform="matrix(1 0 0 1 1986.24 696)">
   <path class="monochrome-0 multicolor-0:systemPurpleColor hierarchical-0:primary SFSymbolsPreviewWireframe" d="M50.0812-69.878C51.8074-69.589 53.4662-69.0517 55.1015-68.4316C58.0962-67.2962 60.9411-65.8507 63.6496-64.1288C66.7981-62.1271 69.6831-59.7951 72.2175-57.0217C74.0491-55.0174 75.6535-52.8433 76.927-50.4333C79.4075-45.7384 80.2167-40.7541 79.3346-35.4891C79.0264-33.6489 78.4883-31.8987 77.5571-30.2788C75.8828-27.3664 73.3845-25.9317 70.0844-25.8865C68.2851-25.8617 66.5915-26.3108 64.9514-27.0138C63.4043-27.6766 61.9294-28.4727 60.4911-29.3362C58.8905-30.2975 53.7106-34.7886 47.618-36.2441C44.3681-37.0204 41.6669-36.3725 40.3036-33.8181C37.8391-29.2009 40.6179-22.729 46.6014-20.7154C50.8198-19.2961 55.1353-20.5524 55.1353-20.5524C57.8856-21.2346 62.7263-24.6394 66.2643-23.7492L66.2529-23.7333C66.1581-23.6004 65.4767-22.628 64.3538-20.6031C63.5175-19.0947 62.6539-18.447 61.8106-17.7672C59.6536-16.0282 55.4704-16.399 55.4704-16.399C62.5845-14.9233 61.8899-11.9406 63.3804-5.14376C64.0273-2.19359 64.2765-1.66766 64.4342-1.12353C64.4538-1.05617 64.4334-0.98245 64.3135-1.00373C63.122-1.21678 58.041-1.62466 54.4819-5.52575C51.4012-8.90246 50.0603-14.5413 48.3382-16.6557C46.7715-18.5793 37.1029-19.7421 34.8371-36.7527C34.4084-40.552 34.8524-44.2357 36.2262-47.7991C37.7986-51.8772 40.3198-55.2151 43.758-57.8447C44.4416-58.3674 45.1894-58.8042 45.7571-59.4846C46.5799-60.4704 46.8404-61.5955 46.6835-62.8519C46.5661-63.7931 46.2273-64.6637 45.8717-65.5295C45.6508-66.0669 45.411-66.5976 45.3385-67.1852C45.2028-68.2842 45.7896-69.243 46.8061-69.6476C47.8789-70.0746 48.9739-70.0634 50.0812-69.878ZM64.2458-36.9748C63.0072-36.7997 62.387-35.8724 62.815-34.835C63.2436-33.7956 64.4724-33.0228 65.7321-33.0004C66.8483-32.9807 67.6755-33.627 67.68-34.5223C67.6865-35.8774 65.8349-37.1999 64.2458-36.9748Z"/>
  </g>
  <g id="Medium-S" transform="matrix(1 0 0 1 1689.53 696)">
   <path class="monochrome-0 multicolor-0:systemPurpleColor hierarchical-0:primary SFSymbolsPreviewWireframe" d="M50.0812-69.878C51.8074-69.589 53.4662-69.0517 55.1015-68.4316C58.0962-67.2962 60.9411-65.8507 63.6496-64.1288C66.7981-62.1271 69.6831-59.7951 72.2175-57.0217C74.0491-55.0174 75.6535-52.8433 76.927-50.4333C79.4075-45.7384 80.2167-40.7541 79.3346-35.4891C79.0264-33.6489 78.4883-31.8987 77.5571-30.2788C75.8828-27.3664 73.3845-25.9317 70.0844-25.8865C68.2851-25.8617 66.5915-26.3108 64.9514-27.0138C63.4043-27.6766 61.9294-28.4727 60.4911-29.3362C58.8905-30.2975 53.7106-34.7886 47.618-36.2441C44.3681-37.0204 41.6669-36.3725 40.3036-33.8181C37.8391-29.2009 40.6179-22.729 46.6014-20.7154C50.8198-19.2961 55.1353-20.5524 55.1353-20.5524C57.8856-21.2346 62.7263-24.6394 66.2643-23.7492L66.2529-23.7333C66.1581-23.6004 65.4767-22.628 64.3538-20.6031C63.5175-19.0947 62.6539-18.447 61.8106-17.7672C59.6536-16.0282 55.4704-16.399 55.4704-16.399C62.5845-14.9233 61.8899-11.9406 63.3804-5.14376C64.0273-2.19359 64.2765-1.66766 64.4342-1.12353C64.4538-1.05617 64.4334-0.98245 64.3135-1.00373C63.122-1.21678 58.041-1.62466 54.4819-5.52575C51.4012-8.90246 50.0603-14.5413 48.3382-16.6557C46.7715-18.5793 37.1029-19.7421 34.8371-36.7527C34.4084-40.552 34.8524-44.2357 36.2262-47.7991C37.7986-51.8772 40.3198-55.2151 43.758-57.8447C44.4416-58.3674 45.1894-58.8042 45.7571-59.4846C46.5799-60.4704 46.8404-61.5955 46.6835-62.8519C46.5661-63.7931 46.2273-64.6637 45.8717-65.5295C45.6508-66.0669 45.411-66.5976 45.3385-67.1852C45.2028-68.2842 45.7896-69.243 46.8061-69.6476C47.8789-70.0746 48.9739-70.0634 50.0812-69.878ZM64.2458-36.9748C63.0072-36.7997 62.387-35.8724 62.815-34.835C63.2436-33.7956 64.4724-33.0228 65.7321-33.0004C66.8483-32.9807 67.6755-33.627 67.68-34.5223C67.6865-35.8774 65.8349-37.1999 64.2458-36.9748Z"/>
  </g>
  <g id="Regular-S" transform="matrix(1 0 0 1 1392.82 696)">
   <path class="monochrome-0 multicolor-0:systemPurpleColor hierarchical-0:primary SFSymbolsPreviewWireframe" d="M50.0812-69.878C51.8074-69.589 53.4662-69.0517 55.1015-68.4316C58.0962-67.2962 60.9411-65.8507 63.6496-64.1288C66.7981-62.1271 69.6831-59.7951 72.2175-57.0217C74.0491-55.0174 75.6535-52.8433 76.927-50.4333C79.4075-45.7384 80.2167-40.7541 79.3346-35.4891C79.0264-33.6489 78.4883-31.8987 77.5571-30.2788C75.8828-27.3664 73.3845-25.9317 70.0844-25.8865C68.2851-25.8617 66.5915-26.3108 64.9514-27.0138C63.4043-27.6766 61.9294-28.4727 60.4911-29.3362C58.8905-30.2975 53.7106-34.7886 47.618-36.2441C44.3681-37.0204 41.6669-36.3725 40.3036-33.8181C37.8391-29.2009 40.6179-22.729 46.6014-20.7154C50.8198-19.2961 55.1353-20.5524 55.1353-20.5524C57.8856-21.2346 62.7263-24.6394 66.2643-23.7492L66.2529-23.7333C66.1581-23.6004 65.4767-22.628 64.3538-20.6031C63.5175-19.0947 62.6539-18.447 61.8106-17.7672C59.6536-16.0282 55.4704-16.399 55.4704-16.399C62.5845-14.9233 61.8899-11.9406 63.3804-5.14376C64.0273-2.19359 64.2765-1.66766 64.4342-1.12353C64.4538-1.05617 64.4334-0.98245 64.3135-1.00373C63.122-1.21678 58.041-1.62466 54.4819-5.52575C51.4012-8.90246 50.0603-14.5413 48.3382-16.6557C46.7715-18.5793 37.1029-19.7421 34.8371-36.7527C34.4084-40.552 34.8524-44.2357 36.2262-47.7991C37.7986-51.8772 40.3198-55.2151 43.758-57.8447C44.4416-58.3674 45.1894-58.8042 45.7571-59.4846C46.5799-60.4704 46.8404-61.5955 46.6835-62.8519C46.5661-63.7931 46.2273-64.6637 45.8717-65.5295C45.6508-66.0669 45.411-66.5976 45.3385-67.1852C45.2028-68.2842 45.7896-69.243 46.8061-69.6476C47.8789-70.0746 48.9739-70.0634 50.0812-69.878ZM64.2458-36.9748C63.0072-36.7997 62.387-35.8724 62.815-34.835C63.2436-33.7956 64.4724-33.0228 65.7321-33.0004C66.8483-32.9807 67.6755-33.627 67.68-34.5223C67.6865-35.8774 65.8349-37.1999 64.2458-36.9748Z"/>
  </g>
  <g id="Light-S" transform="matrix(1 0 0 1 1096.11 696)">
   <path class="monochrome-0 multicolor-0:systemPurpleColor hierarchical-0:primary SFSymbolsPreviewWireframe" d="M50.0812-69.878C51.8074-69.589 53.4662-69.0517 55.1015-68.4316C58.0962-67.2962 60.9411-65.8507 63.6496-64.1288C66.7981-62.1271 69.6831-59.7951 72.2175-57.0217C74.0491-55.0174 75.6535-52.8433 76.927-50.4333C79.4075-45.7384 80.2167-40.7541 79.3346-35.4891C79.0264-33.6489 78.4883-31.8987 77.5571-30.2788C75.8828-27.3664 73.3845-25.9317 70.0844-25.8865C68.2851-25.8617 66.5915-26.3108 64.9514-27.0138C63.4043-27.6766 61.9294-28.4727 60.4911-29.3362C58.8905-30.2975 53.7106-34.7886 47.618-36.2441C44.3681-37.0204 41.6669-36.3725 40.3036-33.8181C37.8391-29.2009 40.6179-22.729 46.6014-20.7154C50.8198-19.2961 55.1353-20.5524 55.1353-20.5524C57.8856-21.2346 62.7263-24.6394 66.2643-23.7492L66.2529-23.7333C66.1581-23.6004 65.4767-22.628 64.3538-20.6031C63.5175-19.0947 62.6539-18.447 61.8106-17.7672C59.6536-16.0282 55.4704-16.399 55.4704-16.399C62.5845-14.9233 61.8899-11.9406 63.3804-5.14376C64.0273-2.19359 64.2765-1.66766 64.4342-1.12353C64.4538-1.05617 64.4334-0.98245 64.3135-1.00373C63.122-1.21678 58.041-1.62466 54.4819-5.52575C51.4012-8.90246 50.0603-14.5413 48.3382-16.6557C46.7715-18.5793 37.1029-19.7421 34.8371-36.7527C34.4084-40.552 34.8524-44.2357 36.2262-47.7991C37.7986-51.8772 40.3198-55.2151 43.758-57.8447C44.4416-58.3674 45.1894-58.8042 45.7571-59.4846C46.5799-60.4704 46.8404-61.5955 46.6835-62.8519C46.5661-63.7931 46.2273-64.6637 45.8717-65.5295C45.6508-66.0669 45.411-66.5976 45.3385-67.1852C45.2028-68.2842 45.7896-69.243 46.8061-69.6476C47.8789-70.0746 48.9739-70.0634 50.0812-69.878ZM64.2458-36.9748C63.0072-36.7997 62.387-35.8724 62.815-34.835C63.2436-33.7956 64.4724-33.0228 65.7321-33.0004C66.8483-32.9807 67.6755-33.627 67.68-34.5223C67.6865-35.8774 65.8349-37.1999 64.2458-36.9748Z"/>
  </g>
  <g id="Thin-S" transform="matrix(1 0 0 1 799.397 696)">
   <path class="monochrome-0 multicolor-0:systemPurpleColor hierarchical-0:primary SFSymbolsPreviewWireframe" d="M50.0812-69.878C51.8074-69.589 53.4662-69.0517 55.1015-68.4316C58.0962-67.2962 60.9411-65.8507 63.6496-64.1288C66.7981-62.1271 69.6831-59.7951 72.2175-57.0217C74.0491-55.0174 75.6535-52.8433 76.927-50.4333C79.4075-45.7384 80.2167-40.7541 79.3346-35.4891C79.0264-33.6489 78.4883-31.8987 77.5571-30.2788C75.8828-27.3664 73.3845-25.9317 70.0844-25.8865C68.2851-25.8617 66.5915-26.3108 64.9514-27.0138C63.4043-27.6766 61.9294-28.4727 60.4911-29.3362C58.8905-30.2975 53.7106-34.7886 47.618-36.2441C44.3681-37.0204 41.6669-36.3725 40.3036-33.8181C37.8391-29.2009 40.6179-22.729 46.6014-20.7154C50.8198-19.2961 55.1353-20.5524 55.1353-20.5524C57.8856-21.2346 62.7263-24.6394 66.2643-23.7492L66.2529-23.7333C66.1581-23.6004 65.4767-22.628 64.3538-20.6031C63.5175-19.0947 62.6539-18.447 61.8106-17.7672C59.6536-16.0282 55.4704-16.399 55.4704-16.399C62.5845-14.9233 61.8899-11.9406 63.3804-5.14376C64.0273-2.19359 64.2765-1.66766 64.4342-1.12353C64.4538-1.05617 64.4334-0.98245 64.3135-1.00373C63.122-1.21678 58.041-1.62466 54.4819-5.52575C51.4012-8.90246 50.0603-14.5413 48.3382-16.6557C46.7715-18.5793 37.1029-19.7421 34.8371-36.7527C34.4084-40.552 34.8524-44.2357 36.2262-47.7991C37.7986-51.8772 40.3198-55.2151 43.758-57.8447C44.4416-58.3674 45.1894-58.8042 45.7571-59.4846C46.5799-60.4704 46.8404-61.5955 46.6835-62.8519C46.5661-63.7931 46.2273-64.6637 45.8717-65.5295C45.6508-66.0669 45.411-66.5976 45.3385-67.1852C45.2028-68.2842 45.7896-69.243 46.8061-69.6476C47.8789-70.0746 48.9739-70.0634 50.0812-69.878ZM64.2458-36.9748C63.0072-36.7997 62.387-35.8724 62.815-34.835C63.2436-33.7956 64.4724-33.0228 65.7321-33.0004C66.8483-32.9807 67.6755-33.627 67.68-34.5223C67.6865-35.8774 65.8349-37.1999 64.2458-36.9748Z"/>
  </g>
  <g id="Ultralight-S" transform="matrix(1 0 0 1 502.686 696)">
   <path class="monochrome-0 multicolor-0:systemPurpleColor hierarchical-0:primary SFSymbolsPreviewWireframe" d="M50.0812-69.878C51.8074-69.589 53.4662-69.0517 55.1015-68.4316C58.0962-67.2962 60.9411-65.8507 63.6496-64.1288C66.7981-62.1271 69.6831-59.7951 72.2175-57.0217C74.0491-55.0174 75.6535-52.8433 76.927-50.4333C79.4075-45.7384 80.2167-40.7541 79.3346-35.4891C79.0264-33.6489 78.4883-31.8987 77.5571-30.2788C75.8828-27.3664 73.3845-25.9317 70.0844-25.8865C68.2851-25.8617 66.5915-26.3108 64.9514-27.0138C63.4043-27.6766 61.9294-28.4727 60.4911-29.3362C58.8905-30.2975 53.7106-34.7886 47.618-36.2441C44.3681-37.0204 41.6669-36.3725 40.3036-33.8181C37.8391-29.2009 40.6179-22.729 46.6014-20.7154C50.8198-19.2961 55.1353-20.5524 55.1353-20.5524C57.8856-21.2346 62.7263-24.6394 66.2643-23.7492L66.2529-23.7333C66.1581-23.6004 65.4767-22.628 64.3538-20.6031C63.5175-19.0947 62.6539-18.447 61.8106-17.7672C59.6536-16.0282 55.4704-16.399 55.4704-16.399C62.5845-14.9233 61.8899-11.9406 63.3804-5.14376C64.0273-2.19359 64.2765-1.66766 64.4342-1.12353C64.4538-1.05617 64.4334-0.98245 64.3135-1.00373C63.122-1.21678 58.041-1.62466 54.4819-5.52575C51.4012-8.90246 50.0603-14.5413 48.3382-16.6557C46.7715-18.5793 37.1029-19.7421 34.8371-36.7527C34.4084-40.552 34.8524-44.2357 36.2262-47.7991C37.7986-51.8772 40.3198-55.2151 43.758-57.8447C44.4416-58.3674 45.1894-58.8042 45.7571-59.4846C46.5799-60.4704 46.8404-61.5955 46.6835-62.8519C46.5661-63.7931 46.2273-64.6637 45.8717-65.5295C45.6508-66.0669 45.411-66.5976 45.3385-67.1852C45.2028-68.2842 45.7896-69.243 46.8061-69.6476C47.8789-70.0746 48.9739-70.0634 50.0812-69.878ZM64.2458-36.9748C63.0072-36.7997 62.387-35.8724 62.815-34.835C63.2436-33.7956 64.4724-33.0228 65.7321-33.0004C66.8483-32.9807 67.6755-33.627 67.68-34.5223C67.6865-35.8774 65.8349-37.1999 64.2458-36.9748Z"/>
  </g>
 </g>
</svg>
