<?xml version="1.0" encoding="UTF-8"?><svg id="Layer_1" xmlns="http://www.w3.org/2000/svg" viewBox="0 0 500 500"><defs><style>.cls-1{fill:#e7d6ff;}.cls-2{fill:#9146ff;}.cls-3{fill:#302d2d;}.cls-4{fill:#d7b8f3;}.cls-5{fill:#141111;}.cls-6{fill:#211d1d;}.cls-7{fill:#1c1919;}.cls-8{fill:#2a2727;}</style></defs><path class="cls-5" d="M424.88,238.73c-7.62,3.26-15.35,6.24-23.23,8.83-.64-.64-.53-1.42-.36-2.17,1.64-5.65,1.93-11.86,3.61-17.34,6.53,3.71,13.92,6.4,19.98,10.69Z"/><path class="cls-6" d="M404.48,192.14c-1.35-25.53-32.78-63.81-46.73-85.05,32.24,16.63,86.5,47.83,118.49,65.23,3.16,1.31-.39,3.94-1.39,5.58-1.71,1.91-3.13,4.03-4.77,6.01-13.89,18.02-27.84,36.01-42,53.81-.94,.94-1.75,2.24-3.4,1.25-6.88-3.94-14.22-7.15-21-11.21-1.95-3.14,.57-8.84,.28-12.65,.71-5.91,.09-12.01,.26-17.98-.28-1.68,.97-3.28,.25-4.99Z"/><path class="cls-5" d="M154.53,261.83c-.79,.68-43.79-34.87-44.27-35.25-6.01-5.01-12.7-9.39-18.3-14.79,5.41-1.72,136.65-55.45,142.04-57.25,3.48-1.18,16.64,31.42,18,33,1.15,1.81,6.84,21.99,7,24-.19,3.06-103.02,47.46-104.47,50.29Z"/><path class="cls-6" d="M233,107.1c-.02-.42,1,60.17,1,60.17,0,0-135.37,43.08-139.45,44.39-1.88,.89-4.01,.83-4.89-1.28-9.9-17.61-19.16-35.6-28.77-53.35-.23-.47-.52-.94-.02-1.42,21.35-5.69,150.73-43.04,172.14-48.51Z"/><g><g><g><path d="M408.62,180.69c-.03-.11-.06-.22-.09-.33-11.44-38.7-38.58-74.52-82.87-109.3,1.43-4.18,2.17-8.67,2.17-13.31,0-6.83-1.58-13.85-4.59-20.29-.01-.02-.02-.05-.03-.06-9.93-20.99-25.3-31.64-45.7-31.64-14.21,0-28.91,5.12-43.12,10.07-1.19,.41-2.37,.82-3.55,1.23-.11,.04-.21,.07-.32,.12-2.13,.81-4.48,1.16-7.63,1.16-2.13,0-4.38-.16-6.78-.33-2.68-.19-5.46-.39-8.39-.39-4.8,0-12.04,.46-19.7,4.45-9.15,4.47-14.51,12.25-15.14,21.97-.6,5.83,1.29,10.55,2.56,13.71,.35,.88,.83,2.07,.93,2.58v.17c.09,10.49-1.16,19.83-3.85,28.54-4.56,13.48-3.81,28.18,2.03,39.37,4.68,8.98,12.28,15.22,21.97,18.04,6.4,2.05,12.82,3.09,19.1,3.09,4.11,0,8.19-.44,12.19-1.31,3.01,15.83,2,29.4-3.04,42.06-3.92,9.85-4.33,19.62-1.23,29.16-2.36,.64-5.17,1.3-7.52,1.85-10.34,2.42-24.51,5.73-38.03,13.38-16.41,9.29-28.39,23.08-35.59,40.99-2.21,5.46-4.18,11.44-6.08,17.22-3.54,10.74-7.2,21.85-12.33,29.57-4.6,6.93-9.47,9.88-16.25,9.88-3.09,0-6.65-.61-10.57-1.82-1.05-.39,1.32,34.02,1.35,34.06,8.18,10.08,3.21,3.87,16.87,3.87,1.81,0,3.66-.1,5.51-.29,.14-.02,.28-.03,.41-.05,4.44-.62,8.77-1.61,13-3.01-1.84,4.98-3.04,10.01-3.56,14.98-.01,.12-.02,.24-.03,.35-.82,11.02,1.38,21.22,6.56,30.35,3.54,6.87,9.48,7.62,11.87,7.62,1.02,0,2.04-.12,3.04-.36,5.65-1.34,9.55-6.5,9.29-12.31-.51-11.7,3.15-22.05,10.88-30.78,4.94-5.57,11.49-10.29,19.05-13.79-4.1,11.2-6.54,23.75-7.28,37.47,0,.02,0,.05,0,.07v.16c-.07,1.08-.2,3.34,.65,5.96,1.43,4.42,5.02,7.78,9.6,8.99,.1,.02,.2,.05,.29,.07,1.12,.27,2.25,.4,3.36,.4,3.88,0,7.47-1.6,10.06-4.43-.03,1.93,.33,3.82,1.01,5.53,.07,.19,.16,.37,.24,.56,2.28,4.93,7.24,8,12.93,8,2.73,0,5.15-.66,6.91-1.15,.22-.06,.5-.14,.71-.19,.37-.04,.73-.1,1.09-.17,31.64-6.48,52.88-27.4,73.42-47.64,6.18-6.08,12.02-11.83,18.14-17.21,18.38-4.25,34.63-13.51,48.31-27.54,13.61-13.96,23.89-31.5,29.74-50.72,5.29-17.4,6.86-35.82,4.58-53.54,6.65-12.5,7.89-28.29,3.44-45.07Zm-193.05,217.31c-.7,.4-1.35,.82-1.94,1.27,1.46-2.77,3.51-6.37,5.55-9.73,1.08,1.4,2.2,2.79,3.32,4.18-2.17,1.45-4.47,2.87-6.94,4.27Zm29.71-24.38c-.82-3.08-1.57-6.21-2.23-9.4,1.73-1.06,4.79-2.5,9.67-3.86,.9-.25,1.81-.48,2.7-.7-2.82,4.8-6.19,9.44-10.15,13.95Z"/><path class="cls-2" d="M252.73,282.67s-.84,2.04-1.26,3.11c-12.1,31.42-47.95,30.85-47.95,30.85,0,0-.6-1.3-.75-5.83-.07-2.2,.3-20.2,11.87-36.56,.2-.29,0-.51,.23-.69,3.3-4.07,3.61-11.7-2.26-13.49-3.71-1.52-7.32-.55-10.71,.83-29.7,10.38-27.67,45.4-45.99,66.3-11.36,12.82-38.19,32.95-55.03,20.45,69.26,1,34.77-100.42,110.97-108.98,9.03-1.6,20.85,2.27,27.33-4.82,.59-.92,1.02-1.05,1.82-.15,35.09,34.73,109.72,31.62,145.05,1.37,5.56-4.76,3.1,19.77,2.15,21.84-4.08-3.34-8.07-1.9-11.93,.37-12.41,8.1-15.6,23.78-19.41,37.06-3.72,17.16-17.51,29.19-33.5,35.11-7.23,3.07-14.76,5.23-22.22,7.61-3.04,.97-6.15,2.33-6.26,6.33-44.67-5.18-69.92,5.83-93.13,44.85,1.57-15.25,8.45-32.02,18.69-43.6,14.98-16.94,42.59-17.15,49-16,59.03,10.64,66.67-40.59,66.67-40.59,0,0-11.82,19.9-32.71,31.52-11.68,6.5-23.33,3.32-23.33,3.32,14.89-14.11,12.63-35.88,12.26-34.5-7.54,28.25-20.25,33.92-20.25,33.92-48.13-1.95-53.8,17.1-56.45,16.92-35.22,.63-66.49,28.65-67.87,60.97-9.74-26.93,14.95-55.42,33.92-66.53,14.59-8.55,21.92-7.51,26.59-8.55,54.05-11.97,44.46-42.43,44.46-42.43Z"/><path class="cls-1" d="M329.5,93.37c9.3,20.46-9.52,39.02-29.82,38.82-18.21,.74-29.37-16.24-40.39-28.23-8.81-10.53-19.62-19.11-28.73-29.37-9.61-10.24-27.2-24.14-17.5-39.37,42.68,7.27,84.06,29.49,116.43,58.16Z"/><path class="cls-1" d="M245.02,39.31c-6.21-2.17-12.42-4.33-18.63-6.5,25.93-6.45,62.01-24.76,79.18,6.11-4.73,9.92-20.94,9.05-29.63,5.56-8.24-2.89-22.65-7.29-30.92-5.18Z"/><path class="cls-1" d="M185.67,113.7c-1.89-6.14-1.35-12.34,.28-18.34,3.29-10.73,4.2-21.99,5.63-32.86,9.85,15.04,22.82,27.72,32.11,43.14-7.99,11.44-25.81,13.2-38.02,8.07Z"/><g><path class="cls-2" d="M235.81,404.18c14.98-12.02,34.67-30.53,42.14-56.12,.32-1.11,.49-1.57,1.41-1.57h.12c3.64,.15,7.34,.45,10.91,.74,5.12,.41,10.42,.84,15.62,.84,.69,0,1.38,0,2.07-.02-2.85,2.9-5.68,5.86-8.66,8.97-17.84,18.65-37.98,39.72-63.61,47.16Z"/><path d="M279.36,346.99h.1c3.63,.15,7.32,.45,10.89,.74,5.14,.41,10.44,.84,15.66,.84,.29,0,.57,0,.86,0-2.56,2.62-5.13,5.3-7.81,8.11-17.21,18-36.58,38.26-60.92,46.26,14.74-12.08,33.11-30.15,40.3-54.74l.02-.06c.31-1.08,.39-1.14,.91-1.14m0-1c-1.37,0-1.6,.91-1.89,1.93-7.04,24.09-24.78,42.32-43.88,57.38,31.49-8,54.22-36.05,75.71-57.79-1.1,.04-2.2,.06-3.3,.06-8.79,0-17.63-1.2-26.51-1.57-.05,0-.09,0-.14,0h0Z"/></g><path class="cls-4" d="M243.64,38.83c8.34-2.11,24.84,1.86,33.15,4.76,8.7,3.49,23.42,4.17,28.16-5.75,5.17,8.31,8.32,18.2,5.34,27.92-2.05,6.71-2.49,6.84-8.15,3.09-17.93-12.01-38.56-21.87-58.5-30.02Z"/><path class="cls-4" d="M185.07,111.39c12.19,5.14,29.5,3.83,37.47-7.61,4.42,6.34,8.72,15.18,11.59,22.31,.71,1.78-.46,2.15-1.56,2.66-15.76,6.72-43.54,3.05-47.5-17.36Z"/><g><path class="cls-2" d="M230.08,376.89c-2.49-3.69-5.78-8.37-6.66-9.62l3.18-3.72,3.48,13.34Z"/><path d="M226.36,364.61l2.51,9.61c-1.94-2.82-3.94-5.68-4.81-6.92l2.3-2.7m.48-2.11l-4.05,4.74s5.86,8.29,8.53,12.43l-4.48-17.17h0Z"/></g><path class="cls-2" d="M214.45,343.86c-.55,1.11-2.36,3.83-2.36,3.83l-1.89-3.65s1.08-.49,4.25-.18Z"/><g><path class="cls-2" d="M190.41,203.63c0,.51,0,1.02,0,1.53-.31-.51-.31-1.02,0-1.53Z"/><path d="M190.41,203.63c-.31,.51-.31,1.02,0,1.53,0-.51,0-1.02,0-1.53h0Z"/></g><path class="cls-4" d="M292.81,343.14c1.77-5.04,5.38-6.95,8.42-7.92,7.46-2.39,15.39-5.09,22.62-8.16,15.99-5.93,24.37-15.48,28.09-32.64,3.81-13.28,10.46-31.69,22.87-39.78,3.87-2.27,9.79-3.33,13.87,.01-4.6,45.99-47.07,95.18-95.87,88.5Z"/><path class="cls-4" d="M208.27,325.1s-.67,8.05-9.54,10.66c-16.29,4.8-17.06-2.12-17.06-2.12,0,0,5.93-3.62,12.72-5.97s13.87-2.57,13.87-2.57Z"/><path class="cls-4" d="M251.81,329.16c-4.09,5.52-11.2,10.27-17.45,12.22-7.18,2.24-13.35,2.65-13.35,2.65,7.39-9.71,20.01-13.01,30.81-14.88Z"/><path class="cls-4" d="M202.77,310.8c-.49-12.58,3.07-23.05,9.29-34.34-7.81,6.26-23.16,18.14-28.53,25.94-17.66,21.61-45.44,51.93-71.93,49.09,29.89-6.57,52.44-32.5,61.02-60.67,5.85-15.09,24.04-38.93,41.04-32.33,19.54,7.59-8.86,51.46-10.9,52.31Z"/><path class="cls-2" d="M371.01,165.65c-1.18,11.66,9.52,20.33,20.6,20.4-1.7-12.43-6.99-23.44-13.8-33.85-3.8,3.3-6.36,8.03-6.8,13.45Z"/><path class="cls-4" d="M246.53,226.17c-6.32-8.1-9.98-19.46-5.06-29.06,9.56-24.09,6.56-51.21-2.9-74.84-9.75-25.75-33.23-41.96-46.02-65.82-10.25-17.23,8.21-23.99,22.6-20.87-9.7,15.23,7.16,28.26,16.76,38.51,9.11,10.26,19.92,18.84,28.73,29.37,11.01,11.99,20.54,27.83,38.74,27.09,20.28,.19,37.73-18.21,28.41-38.68,16.76,14.89,34.27,34.2,46.12,53.23-.98,1.52-17.24,11.05-9.63,29.96,8.48,21.05,28.07,16.11,28.07,16.11,6.63,66.13-112.91,74.88-145.81,35.01Z"/></g><path class="cls-1" d="M392.35,191.13l.09,1.08s-25.8,4.8-30.83-23.39c-1.39-7.8,4.33-19.55,12.28-23.71,1.39,2.07,.76,.92,1.97,3.11-3.05,3.19-11.26,8.37-9.89,19.75,2.95,24.56,26.37,23.17,26.37,23.17Z"/><circle class="cls-1" cx="282.3" cy="212.2" r="30.08"/><path class="cls-2" d="M213.89,204.29c-.26,15.33-23.07,15.33-23.33,0,.26-15.33,23.07-15.33,23.33,0Z"/><circle class="cls-2" cx="282.3" cy="213.49" r="19.96"/><path class="cls-4" d="M204.32,193.63c1.24,13.56-12.86,13.19-12.86,13.19-1.46-8.04,4.1-14.45,12.86-13.19Z"/><path d="M282.3,193.93c10.8,0,19.56,8.76,19.56,19.56s-8.76,19.56-19.56,19.56-19.56-8.76-19.56-19.56,8.76-19.56,19.56-19.56m0-6.74c-14.5,0-26.3,11.8-26.3,26.3s11.8,26.3,26.3,26.3,26.3-11.8,26.3-26.3-11.8-26.3-26.3-26.3h0Z"/></g><path d="M202.23,193.49c5.42,0,10.84,3.6,10.96,10.81-.12,7.2-5.54,10.81-10.96,10.81s-10.84-3.6-10.96-10.81c.12-7.2,5.54-10.81,10.96-10.81m0-5.88v0h0c-8.23,0-16.66,5.7-16.85,16.59v.18c.18,10.89,8.61,16.6,16.85,16.6s16.66-5.7,16.85-16.59v-.18c-.18-10.89-8.61-16.59-16.85-16.59h0Z"/><path class="cls-4" d="M283.45,193.96c9.33,1.42,10.88,11.68,1.41,18.85-4.93,3.73-13.76,4.55-18,.63-8.79-8.14,7.08-20.92,16.59-19.47Z"/><path class="cls-4" d="M377.81,152.2c4.85,6.78,8.81,16.17,8.81,16.17-2.39,3.21-5.76,4.63-8.63,5.23-3.54,.75-6.9-1.9-7.04-5.51-.07-1.85,.11-4.08,.84-6.59,1.75-6,6.02-9.3,6.02-9.3Z"/></g><path class="cls-3" d="M424.88,238.73c1.56,.8,2-.67,2.8-1.39,10.55,17.4,19.25,36.21,29.24,54.05,2.49,4.95,5.1,9.82,7.76,14.67,.71,1.33,1.76,2.56,1.66,4.22-58.97,28.73-119.59,54.76-179,82.84-3.31,1.58-3.64,1.58-5.74-1.33-17.87-26.01-38.71-51.02-55.08-77.54,65.77-25.75,132.34-51.1,198.37-75.52Z"/><path class="cls-8" d="M24.59,253.09c21.83-14.35,44.54-27.87,65.48-43.16,.73,.52,129.84,104.58,129.84,104.58,0,0-52.54,23.66-78.43,36.62-1.84,.91-3.19,.63-4.62-.62-12.22-10.65-24.55-21.18-36.79-31.81-25.04-22-50.8-43.26-75.48-65.62Z"/><path class="cls-7" d="M22.92,255.36c-1.12-1.25,.12-1.38,.84-1.77,1-.59,1.64,.22,2.2,.73,4.91,4.47,10.04,8.68,15.03,13.05,32,27.75,64.14,55.32,96.09,83.12,1.18,1.08,2.23,1.48,3.9,.64,7.99-4.01,78.9-36.69,78.9-36.69l1.61,3.67c-19.37,10.31-39.78,18.54-59.49,28.23-5.55,2.7-11.36,4.84-16.72,7.93-3.01,1.41-7.16,3.76-9.72,.44-10.99-9.76-22.17-19.31-33.35-28.87-2.18-1.68-4.34-3.46-6.13-5.6-.61-.84-.61-2.07-1.69-2.6-23.68-20.8-48.58-40.96-71.47-62.28Z"/><path class="cls-7" d="M226.51,314.14c9.77,14.56,20.6,28.74,30.77,43.04,8.49,11.72,17,23.41,25.44,35.17,.98,1.36,1.76,1.52,3.24,.83,59.94-27.87,120.07-55.36,180.14-82.95,5.08,3.45-3.5,5.45-5.95,6.88-5.33,2.6-10.78,4.98-16.17,7.47-52.37,24.05-104.79,48-157.11,72.17-3.17,1.48-3.53,1.27-5.53-1.5-12.1-16.73-24.21-33.45-36.3-50.19-6.61-9.15-19.97-27.7-19.97-27.7l1.44-3.23Z"/><path class="cls-6" d="M225.07,316.98c.15,0,37.39,51.09,56.44,77.49,2.17,3.19,2.16,3.17,5.63,1.56,44.94-20.84,89.92-41.59,135-62.12,1.22,2.31,.4,5.12,.54,7.64-.83,4.46-.12,8.98-.54,13.46-.77,12.96-.97,26.05-1.38,39.09-1.12,5.66,.73,11.88-1.5,17.27-1.61,1.3-3.71,1.84-5.56,2.73-15.46,6.44-30.82,13.19-46.3,19.61-46.74,20.02-93.61,39.86-140.43,59.74-2.51,1.39-4.4,1.19-3.89-2.81-.06-42.2-.98-84.42-1.53-126.63-.31-10.2-.08-20.38-.36-30.57,.18-5.02,0-15.2,0-15.2l3.88-1.27Z"/><path class="cls-7" d="M223.35,491.3l.46,1.88c-.92,.59-1.46-.18-2.11-.57-10.91-8.86-21.73-17.81-32.62-26.7-30.77-24.39-60.37-49.9-90.86-74.64-1.23-1.02-1.83-2.24-1.77-3.83,.34-9.5-.57-18.99-.48-28.49,.36-11.99-.7-23.93-.46-35.91-.02-1.05-.24-2.19,.62-3.08,8.11,5.78,15.18,13.21,22.86,19.64,2.62,2.9,6.49,4.61,8.98,7.65,2.65,2.64,6.04,4.39,8.37,7.42,1.01,1.3,2.67,1.53,4.6,.77,27.04-12.04,53.62-25.17,80.56-37.35,.68,40.09,.87,80.19,1.86,120.26-1.15,17.49,.71,35.44,0,52.93Z"/></svg>