<?xml version="1.0" encoding="utf-8"?>
<!-- Generator: Adobe Illustrator 26.4.1, SVG Export Plug-In . SVG Version: 6.00 Build 0)  -->
<svg version="1.1" id="Layer_1" xmlns="http://www.w3.org/2000/svg" xmlns:xlink="http://www.w3.org/1999/xlink" x="0px" y="0px"
	 viewBox="0 0 500 500" style="enable-background:new 0 0 500 500;" xml:space="preserve">
<style type="text/css">
	.st0{fill:#FFFFFF;}
	.st1{fill:#FFFFFF;stroke:#FFFFFF;stroke-width:41;stroke-linejoin:round;stroke-miterlimit:10;}
	.st2{fill:#9146FF;}
	.st3{fill:#E7D6FF;}
	.st4{fill:#D7B8F3;}
</style>
<g>
	<g>
		<g>
			<path class="st0" d="M226.1,485.3c-8.8,0-16.7-4-21.6-10.7c-1.4,0.2-2.9,0.4-4.3,0.4c-2.1,0-4.2-0.2-6.3-0.7
				c-0.1,0-0.5-0.1-0.6-0.1c-8.7-2.3-15.5-8.7-18.3-17.2c-1.5-4.6-1.4-8.5-1.3-10.3c0-0.2,0-0.3,0-0.5c0.1-1.6,0.2-3.2,0.3-4.9
				c-1.3,3.9-1.8,8.1-1.6,12.6c0.5,11.7-7.4,22.2-18.8,24.9c-1.9,0.5-3.9,0.7-5.9,0.7c-9.6,0-18.1-5.3-22.8-14.2
				c-6.6-11.7-9.4-24.8-8.4-38.8c0-0.1,0.1-0.6,0.1-0.7c-1.7,0.1-3.4,0.2-5,0.2c-18.1,0-34.1-7.4-45.1-21c-0.1-0.1-0.2-0.2-0.3-0.3
				c-7.8-9.9-8.3-22.7-1.2-32.5c5-6.9,12.8-10.9,21.2-10.9c3.1,0,6.3,0.6,9.5,1.7c3.7,1.1,6.2,1.4,7.7,1.4c2.1,0,4.2,0,7.8-5.4
				c4.6-7,8.3-18.1,11.9-28.9c2-6.1,4.2-12.9,6.8-19.2c8.7-21.6,23.2-38.3,43.1-49.6c14.7-8.3,29.5-12.2,41-14.9
				c-0.8-8.9,0.5-17.9,4.1-26.9c3.5-8.7,4.8-17.7,4.1-27.9c-1.1,0-2.1,0.1-3.2,0.1c-7.9,0-15.9-1.3-23.8-3.8
				c-13.4-3.9-23.9-12.6-30.4-25c-7.6-14.6-8.7-33.7-2.9-51c2.3-7.7,3.5-15.9,3.6-25.3c0-0.1-0.2-0.5-0.2-0.5
				c-1.5-3.8-4.4-10.9-3.5-19.9c1-14.3,9.2-26.3,22.5-32.8c10.4-5.4,20-6,26.3-6c3.5,0,6.8,0.2,9.7,0.4l0.1,0
				c2.5,0.2,4.6,0.3,6.4,0.3c2.3,0,3.4-0.2,4-0.5c0.2-0.1,0.4-0.2,0.7-0.2c0.1,0,2.6-0.9,3.9-1.4c16.1-5.6,32.7-11.4,49.9-11.4
				c26.2,0,46.7,13.9,59.2,40.3c0.1,0.1,0.1,0.2,0.2,0.3c3.9,8.4,6,17.5,6,26.5c0,3.4-0.3,6.7-0.9,9.9c45.9,37.3,74.3,76,86.8,118.1
				c0,0.1,0.2,0.6,0.2,0.6c0.1,0.3,0.1,0.6,0.2,0.9c4.9,18.9,3.7,37.4-3.2,52.5c2,19.5,0.1,39.7-5.7,58.6
				c-6.8,22.3-18.8,42.7-34.6,59c-15.5,15.9-33.8,26.6-54.4,31.9c-5.5,5-11,10.4-16.7,16l-0.1,0.1c-22.1,21.8-47.1,46.4-84.4,54.1
				c0,0-0.1,0-0.1,0c-0.4,0.1-0.7,0.1-1.1,0.2C234.5,484.3,230.6,485.3,226.1,485.3z"/>
			<path class="st0" d="M285.3,26.2c21.8,0,38.3,11.4,48.9,33.9c0,0,0,0,0,0.1c3.2,6.9,4.9,14.4,4.9,21.7c0,5-0.8,9.8-2.3,14.2
				c47.4,37.2,76.5,75.6,88.7,117c0,0.1,0.1,0.2,0.1,0.4l0,0c4.8,18,3.4,34.9-3.7,48.2c2.4,19,0.8,38.7-4.9,57.3
				c-6.3,20.6-17.3,39.4-31.8,54.3c-14.6,15-32,24.9-51.7,29.5c-6.6,5.8-12.8,11.9-19.4,18.4c-22,21.7-44.7,44.1-78.6,51
				c-0.4,0.1-0.8,0.1-1.2,0.2c-0.2,0.1-0.5,0.1-0.8,0.2c-1.9,0.5-4.5,1.2-7.4,1.2c-6.1,0-11.4-3.3-13.8-8.6
				c-0.1-0.2-0.2-0.4-0.3-0.6c-0.7-1.8-1.1-3.9-1.1-5.9c-2.8,3-6.6,4.7-10.8,4.7c-1.2,0-2.4-0.1-3.6-0.4c-0.1,0-0.2-0.1-0.3-0.1
				c-4.9-1.3-8.7-4.9-10.3-9.6c-0.9-2.8-0.8-5.2-0.7-6.4v-0.2c0,0,0-0.1,0-0.1c0.8-14.7,3.4-28.1,7.8-40.1
				c-8.1,3.7-15.1,8.8-20.4,14.8c-8.3,9.3-12.2,20.4-11.6,33c0.3,6.2-3.9,11.7-9.9,13.2c-1.1,0.3-2.2,0.4-3.3,0.4
				c-2.6,0-8.9-0.8-12.7-8.2c-5.5-9.8-7.9-20.7-7-32.5c0-0.1,0-0.2,0-0.4c0.6-5.3,1.8-10.7,3.8-16c-4.5,1.5-9.2,2.6-13.9,3.2
				c-0.1,0-0.3,0-0.4,0.1c-2,0.2-4,0.3-5.9,0.3c-14.6,0-27.5-6-36.2-16.7c0,0-0.1-0.1-0.1-0.1c-5.6-7-4.1-14.3-0.9-18.7
				c2.8-3.9,7.2-6.1,11.9-6.1c2.6,0,4.7,0.7,5.8,1.1c4.2,1.3,8,1.9,11.3,1.9c7.3,0,12.5-3.2,17.4-10.6c5.5-8.3,9.4-20.2,13.2-31.7
				c2-6.2,4.1-12.6,6.5-18.4c7.7-19.2,20.5-33.9,38.1-43.9c14.5-8.2,29.6-11.7,40.7-14.3c2.5-0.6,5.5-1.3,8.1-2
				c-3.3-10.2-2.9-20.7,1.3-31.2c5.4-13.6,6.5-28.1,3.3-45c-4.3,0.9-8.6,1.4-13,1.4c-6.7,0-13.6-1.1-20.4-3.3
				c-10.4-3-18.5-9.7-23.5-19.3c-6.3-12-7.1-27.7-2.2-42.1c2.9-9.3,4.2-19.3,4.1-30.6v-0.2c-0.1-0.5-0.6-1.8-1-2.8
				c-1.4-3.4-3.4-8.4-2.7-14.7c0.7-10.4,6.4-18.7,16.2-23.5c8.2-4.3,16-4.8,21.1-4.8c3.1,0,6.1,0.2,9,0.4c2.6,0.2,5,0.4,7.3,0.4
				c3.4,0,5.9-0.4,8.2-1.2c0.1-0.1,0.2-0.1,0.3-0.1c1.3-0.4,2.5-0.9,3.8-1.3C254.3,31.7,270,26.2,285.3,26.2 M250.7,420
				C250.7,420,250.7,420,250.7,420L250.7,420C250.7,420,250.7,420,250.7,420c4.2-4.8,7.8-9.8,10.9-14.9c-1,0.2-1.9,0.5-2.9,0.7
				c-5.2,1.5-8.5,3-10.4,4.1C249.1,413.3,249.9,416.7,250.7,420 M216.9,447.4c0.6-0.5,1.3-0.9,2.1-1.4l0,0c2.6-1.5,5.1-3,7.4-4.6
				c-1.2-1.5-2.4-3-3.6-4.5C220.6,440.6,218.4,444.5,216.9,447.4 M285.3,3.2c-19.1,0-37.5,6.4-53.7,12c-1.2,0.4-2.5,0.9-3.7,1.3
				l-0.1,0c0,0-0.1,0-0.1,0c0,0-0.1,0-0.1,0c-0.2,0-0.4,0-0.7,0c-1.5,0-3.4-0.1-5.6-0.3l-0.1,0c-3.1-0.2-6.6-0.5-10.5-0.5
				c-4.3,0-17.4,0-31.5,7.2c-17,8.4-27.4,23.7-28.8,42.2c-1,10.3,1.8,18.6,3.6,23.4c-0.2,7.2-1.2,13.7-3,19.6
				c-6.8,20.5-5.5,42.2,3.7,59.8c7.8,15,21,25.9,37.2,30.7c6.2,2,12.5,3.3,18.7,3.9c-0.5,4.4-1.5,8.5-3.1,12.5
				c-2.9,7.3-4.6,14.8-5,22.2c-10.4,2.8-22.8,6.9-35,13.8c-22.2,12.6-38.4,31.2-48.1,55.3c-2.7,6.6-5,13.7-7,19.9
				c-3.2,9.6-6.7,20.4-10.5,26.1c0,0,0,0.1-0.1,0.1c-0.6-0.1-1.4-0.3-2.3-0.6c-4.3-1.5-8.7-2.3-13-2.3c-12.2,0-23.4,5.7-30.6,15.6
				c-4.6,6.3-7.1,13.7-7.2,21.4c-0.2,8.9,2.8,17.6,8.6,25c0.1,0.2,0.3,0.3,0.4,0.5c11.8,14.6,28.5,23.2,47.4,24.9
				c0.7,11.9,4,23.2,9.8,33.6c6.7,12.6,19,20.2,32.9,20.2c2.9,0,5.8-0.3,8.6-1c7.8-1.9,14.6-6.2,19.4-12.1c4.2,3.4,9.1,6,14.5,7.5
				c0.2,0.1,0.4,0.1,0.6,0.1c0.1,0,0.2,0,0.3,0.1c2.8,0.7,5.6,1,8.4,1c6.9,6.6,16.3,10.3,26.4,10.3c5.6,0,10.3-1.2,12.9-1.9
				c0.3,0,0.5-0.1,0.8-0.1c0.1,0,0.2,0,0.2,0c40.6-8.3,66.9-34.3,90.1-57.1l0.1-0.1c4.9-4.9,9.7-9.5,14.3-13.8
				c21.6-6.1,40.7-17.6,57-34.3c17.1-17.6,30-39.6,37.4-63.7c5.9-19.4,8.1-40.1,6.4-60.1c6.8-16.8,7.8-36.7,2.7-56.9
				c-0.1-0.4-0.2-0.9-0.3-1.3l-0.1-0.4c0-0.2-0.1-0.3-0.1-0.5c-12.7-42.8-40.7-82.1-85.6-119.7c0.1-1.7,0.2-3.3,0.2-5
				c0-10.6-2.4-21.4-7-31.3c-0.1-0.2-0.2-0.4-0.3-0.6c-7-14.7-16.4-26.2-27.8-34.1C314.9,7.4,300.9,3.2,285.3,3.2L285.3,3.2z"/>
		</g>
		<path class="st1" d="M204.7,227.1c5.8,0,11.6,3.9,11.7,11.6c-0.1,7.7-5.9,11.6-11.7,11.6c-5.8,0-11.6-3.9-11.7-11.6
			C193.1,231,198.9,227.1,204.7,227.1 M204.7,220.8L204.7,220.8L204.7,220.8c-8.8,0-17.8,6.1-18,17.8v0.2c0.2,11.7,9.2,17.8,18,17.8
			s17.8-6.1,18-17.8v-0.2C222.5,227,213.5,220.9,204.7,220.8L204.7,220.8L204.7,220.8z"/>
	</g>
	<g>
		<g>
			<path d="M425.6,213.4c0-0.1-0.1-0.2-0.1-0.4c-12.2-41.4-41.3-79.8-88.7-117c1.5-4.5,2.3-9.3,2.3-14.2c0-7.3-1.7-14.8-4.9-21.7
				c0,0,0-0.1,0-0.1c-10.6-22.5-27.1-33.9-48.9-33.9c-15.2,0-30.9,5.5-46.2,10.8c-1.3,0.4-2.5,0.9-3.8,1.3c-0.1,0-0.2,0.1-0.3,0.1
				c-2.3,0.9-4.8,1.2-8.2,1.2c-2.3,0-4.7-0.2-7.3-0.4c-2.9-0.2-5.8-0.4-9-0.4c-5.1,0-12.9,0.5-21.1,4.8
				c-9.8,4.8-15.5,13.1-16.2,23.5c-0.6,6.2,1.4,11.3,2.7,14.7c0.4,0.9,0.9,2.2,1,2.8v0.2c0.1,11.2-1.2,21.2-4.1,30.6
				c-4.9,14.4-4.1,30.2,2.2,42.1c5,9.6,13.1,16.3,23.5,19.3c6.9,2.2,13.7,3.3,20.4,3.3c4.4,0,8.8-0.5,13-1.4
				c3.2,16.9,2.1,31.5-3.3,45c-4.2,10.5-4.6,21-1.3,31.2c-2.5,0.7-5.5,1.4-8.1,2c-11.1,2.6-26.2,6.1-40.7,14.3
				c-17.6,9.9-30.4,24.7-38.1,43.9c-2.4,5.8-4.5,12.2-6.5,18.4c-3.8,11.5-7.7,23.4-13.2,31.7c-4.9,7.4-10.1,10.6-17.4,10.6
				c-3.3,0-7.1-0.7-11.3-1.9c-1.1-0.4-3.2-1.1-5.8-1.1c-4.8,0-9.1,2.2-11.9,6.1c-3.2,4.4-4.6,11.7,0.9,18.7c0,0,0.1,0.1,0.1,0.1
				c8.8,10.8,21.6,16.7,36.2,16.7c1.9,0,3.9-0.1,5.9-0.3c0.1,0,0.3,0,0.4-0.1c4.8-0.7,9.4-1.7,13.9-3.2c-2,5.3-3.3,10.7-3.8,16
				c0,0.1,0,0.3,0,0.4c-0.9,11.8,1.5,22.7,7,32.5c3.8,7.4,10.1,8.2,12.7,8.2c1.1,0,2.2-0.1,3.3-0.4c6-1.4,10.2-7,9.9-13.2
				c-0.5-12.5,3.4-23.6,11.6-33c5.3-6,12.3-11,20.4-14.8c-4.4,12-7,25.4-7.8,40.1c0,0,0,0.1,0,0.1v0.2c-0.1,1.2-0.2,3.6,0.7,6.4
				c1.5,4.7,5.4,8.3,10.3,9.6c0.1,0,0.2,0.1,0.3,0.1c1.2,0.3,2.4,0.4,3.6,0.4c4.2,0,8-1.7,10.8-4.7c0,2.1,0.4,4.1,1.1,5.9
				c0.1,0.2,0.2,0.4,0.3,0.6c2.4,5.3,7.8,8.6,13.8,8.6c2.9,0,5.5-0.7,7.4-1.2c0.2-0.1,0.5-0.1,0.8-0.2c0.4,0,0.8-0.1,1.2-0.2
				c33.9-6.9,56.6-29.3,78.6-51c6.6-6.5,12.9-12.7,19.4-18.4c19.7-4.5,37.1-14.5,51.7-29.5c14.6-14.9,25.6-33.7,31.8-54.3
				c5.7-18.6,7.3-38.3,4.9-57.3C429,248.3,430.3,231.4,425.6,213.4L425.6,213.4z M218.9,446.1c-0.7,0.4-1.4,0.9-2.1,1.4
				c1.6-3,3.8-6.8,5.9-10.4c1.2,1.5,2.4,3,3.6,4.5C224,443,221.6,444.6,218.9,446.1L218.9,446.1z M250.7,420
				c-0.9-3.3-1.7-6.6-2.4-10.1c1.9-1.1,5.1-2.7,10.4-4.1c1-0.3,1.9-0.5,2.9-0.7C258.6,410.2,255,415.1,250.7,420L250.7,420z"/>
			<path class="st2" d="M258.7,322.6c0,0-0.9,2.2-1.3,3.3c-13,33.6-51.3,33-51.3,33s-0.6-1.4-0.8-6.2c-0.1-2.4,0.3-21.6,12.7-39.1
				c0.2-0.3,0-0.5,0.2-0.7c3.5-4.4,3.9-12.5-2.4-14.4c-4-1.6-7.8-0.6-11.5,0.9c-31.8,11.1-29.6,48.6-49.2,71
				c-12.2,13.7-40.9,35.3-58.9,21.9c74.1,1.1,37.2-107.5,118.8-116.7c9.7-1.7,22.3,2.4,29.3-5.2c0.6-1,1.1-1.1,1.9-0.2
				c37.6,37.2,117.5,33.8,155.3,1.5c6-5.1,3.3,21.2,2.3,23.4c-4.4-3.6-8.6-2-12.8,0.4c-13.3,8.7-16.7,25.5-20.8,39.7
				c-4,18.4-18.7,31.2-35.9,37.6c-7.7,3.3-15.8,5.6-23.8,8.1c-3.3,1-6.6,2.5-6.7,6.8c-47.8-5.5-74.9,6.2-99.7,48
				c1.7-16.3,9-34.3,20-46.7c16-18.1,45.6-18.4,52.5-17.1c63.2,11.4,71.4-43.5,71.4-43.5s-12.7,21.3-35,33.7c-12.5,7-25,3.6-25,3.6
				c15.9-15.1,13.5-38.4,13.1-36.9C293,359,279.4,365,279.4,365c-51.5-2.1-57.6,18.3-60.4,18.1c-37.7,0.7-71.2,30.7-72.7,65.3
				c-10.4-28.8,16-59.3,36.3-71.2c15.6-9.2,23.5-8,28.5-9.2C269,355.2,258.7,322.6,258.7,322.6L258.7,322.6z"/>
			<path class="st3" d="M340.9,120c10,21.9-10.2,41.8-31.9,41.6c-19.5,0.8-31.4-17.4-43.2-30.2c-9.4-11.3-21-20.5-30.8-31.4
				c-10.3-11-29.1-25.8-18.7-42.1C261.9,65.5,306.2,89.3,340.9,120L340.9,120z"/>
			<path class="st3" d="M250.5,62.1c-6.6-2.3-13.3-4.6-19.9-7c27.8-6.9,66.4-26.5,84.8,6.5c-5.1,10.6-22.4,9.7-31.7,6
				C274.8,64.5,259.3,59.8,250.5,62.1L250.5,62.1z"/>
			<path class="st3" d="M186.9,141.7c-2-6.6-1.4-13.2,0.3-19.6c3.5-11.5,4.5-23.5,6-35.2c10.5,16.1,24.4,29.7,34.4,46.2
				C219.1,145.3,200,147.2,186.9,141.7L186.9,141.7z"/>
			<g>
				<path class="st2" d="M240.6,452.7c16-12.9,37.1-32.7,45.1-60.1c0.3-1.2,0.5-1.7,1.5-1.7h0.1c3.9,0.2,7.9,0.5,11.7,0.8
					c5.5,0.4,11.2,0.9,16.7,0.9c0.7,0,1.5,0,2.2,0c-3.1,3.1-6.1,6.3-9.3,9.6C289.6,422.2,268,444.7,240.6,452.7L240.6,452.7z"/>
				<path d="M287.2,391.5h0.1c3.9,0.2,7.8,0.5,11.7,0.8c5.5,0.4,11.2,0.9,16.8,0.9c0.3,0,0.6,0,0.9,0c-2.7,2.8-5.5,5.7-8.4,8.7
					c-18.4,19.3-39.2,41-65.2,49.5c15.8-12.9,35.4-32.3,43.1-58.6l0-0.1C286.6,391.5,286.7,391.5,287.2,391.5 M287.2,390.4
					c-1.5,0-1.7,1-2,2.1c-7.5,25.8-26.5,45.3-47,61.4c33.7-8.6,58-38.6,81-61.9c-1.2,0-2.4,0.1-3.5,0.1c-9.4,0-18.9-1.3-28.4-1.7
					C287.3,390.4,287.3,390.4,287.2,390.4L287.2,390.4L287.2,390.4z"/>
			</g>
			<path class="st4" d="M249,61.6c8.9-2.3,26.6,2,35.5,5.1c9.3,3.7,25.1,4.5,30.1-6.2c5.5,8.9,8.9,19.5,5.7,29.9
				c-2.2,7.2-2.7,7.3-8.7,3.3C292.4,80.9,270.3,70.3,249,61.6L249,61.6z"/>
			<path class="st4" d="M186.3,139.2c13,5.5,31.6,4.1,40.1-8.1c4.7,6.8,9.3,16.3,12.4,23.9c0.8,1.9-0.5,2.3-1.7,2.8
				C220.3,165,190.5,161.1,186.3,139.2z"/>
			<g>
				<path class="st2" d="M234.5,423.5c-2.7-4-6.2-9-7.1-10.3l3.4-4L234.5,423.5L234.5,423.5z"/>
				<path d="M230.5,410.3l2.7,10.3c-2.1-3-4.2-6.1-5.1-7.4L230.5,410.3 M231,408.1l-4.3,5.1c0,0,6.3,8.9,9.1,13.3L231,408.1
					L231,408.1L231,408.1z"/>
			</g>
			<path class="st2" d="M217.7,388.1c-0.6,1.2-2.5,4.1-2.5,4.1l-2-3.9C213.2,388.3,214.4,387.8,217.7,388.1z"/>
			<g>
				<path class="st2" d="M192,238c0,0.5,0,1.1,0,1.6C191.7,239.1,191.7,238.6,192,238z"/>
				<path d="M192,238c-0.3,0.5-0.3,1.1,0,1.6C192,239.1,192,238.6,192,238L192,238z"/>
			</g>
			<path class="st4" d="M301.6,387.3c1.9-5.4,5.8-7.4,9-8.5c8-2.6,16.5-5.4,24.2-8.7c17.1-6.3,26.1-16.6,30.1-34.9
				c4.1-14.2,11.2-33.9,24.5-42.6c4.1-2.4,10.5-3.6,14.8,0C399.3,341.8,353.9,394.5,301.6,387.3L301.6,387.3z"/>
			<path class="st4" d="M211.1,368c0,0-0.7,8.6-10.2,11.4c-17.4,5.1-18.3-2.3-18.3-2.3s6.3-3.9,13.6-6.4
				C203.5,368.3,211.1,368,211.1,368L211.1,368z"/>
			<path class="st4" d="M257.7,372.4c-4.4,5.9-12,11-18.7,13.1c-7.7,2.4-14.3,2.8-14.3,2.8C232.7,377.9,246.2,374.4,257.7,372.4
				L257.7,372.4z"/>
			<path class="st4" d="M205.2,352.7c-0.5-13.5,3.3-24.7,9.9-36.8c-8.4,6.7-24.8,19.4-30.5,27.8c-18.9,23.1-48.6,55.6-77,52.6
				c32-7,56.1-34.8,65.3-64.9c6.3-16.2,25.7-41.7,43.9-34.6C237.8,304.8,207.4,351.8,205.2,352.7L205.2,352.7z"/>
			<path class="st2" d="M385.3,197.3c-1.3,12.5,10.2,21.8,22.1,21.8c-1.8-13.3-7.5-25.1-14.8-36.2
				C388.6,186.5,385.8,191.5,385.3,197.3L385.3,197.3z"/>
			<path class="st4" d="M252.1,262.1c-6.8-8.7-10.7-20.8-5.4-31.1c10.2-25.8,7-54.8-3.1-80.1c-10.4-27.6-35.6-44.9-49.3-70.5
				c-11-18.4,8.8-25.7,24.2-22.3c-10.4,16.3,7.7,30.3,17.9,41.2c9.8,11,21.3,20.2,30.8,31.4c11.8,12.8,22,29.8,41.5,29
				c21.7,0.2,40.4-19.5,30.4-41.4c17.9,15.9,36.7,36.6,49.4,57c-1,1.6-18.5,11.8-10.3,32.1c9.1,22.5,30,17.2,30,17.2
				C415.3,295.4,287.3,304.8,252.1,262.1L252.1,262.1z"/>
		</g>
		<path class="st3" d="M408.2,224.6l0.1,1.2c0,0-27.6,5.1-33-25c-1.5-8.4,4.6-20.9,13.1-25.4c1.5,2.2,0.8,1,2.1,3.3
			c-3.3,3.4-12.1,9-10.6,21.1C383.1,226.1,408.2,224.6,408.2,224.6L408.2,224.6z"/>
		<circle class="st3" cx="290.4" cy="247.2" r="32.2"/>
		<path class="st2" d="M217.1,238.7c-0.3,16.4-24.7,16.4-25,0C192.4,222.3,216.9,222.3,217.1,238.7z"/>
		<circle class="st2" cx="290.4" cy="248.5" r="21.4"/>
		<path class="st4" d="M206.9,227.3c1.3,14.5-13.8,14.1-13.8,14.1C191.6,232.8,197.5,225.9,206.9,227.3z"/>
		<path d="M290.4,227.6c11.6,0,20.9,9.4,20.9,20.9c0,11.6-9.4,20.9-20.9,20.9c-11.6,0-20.9-9.4-20.9-20.9
			C269.4,237,278.8,227.6,290.4,227.6 M290.4,220.4c-15.5,0-28.2,12.6-28.2,28.2s12.6,28.2,28.2,28.2s28.2-12.6,28.2-28.2
			S305.9,220.4,290.4,220.4L290.4,220.4L290.4,220.4z"/>
	</g>
	<path d="M204.7,227.1c5.8,0,11.6,3.9,11.7,11.6c-0.1,7.7-5.9,11.6-11.7,11.6s-11.6-3.9-11.7-11.6
		C193.1,231,198.9,227.1,204.7,227.1 M204.7,220.8L204.7,220.8L204.7,220.8c-8.8,0-17.8,6.1-18,17.8v0.2c0.2,11.7,9.2,17.8,18,17.8
		s17.8-6.1,18-17.8v-0.2C222.5,227,213.5,220.9,204.7,220.8L204.7,220.8L204.7,220.8z"/>
	<path class="st4" d="M291.6,227.6c10,1.5,11.6,12.5,1.5,20.2c-5.3,4-14.7,4.9-19.3,0.7C264.4,239.8,281.4,226.1,291.6,227.6
		L291.6,227.6z"/>
	<path class="st4" d="M392.6,182.9c5.2,7.3,9.4,17.3,9.4,17.3c-2.6,3.4-6.2,5-9.2,5.6c-3.8,0.8-7.4-2-7.5-5.9
		c-0.1-2,0.1-4.4,0.9-7.1C388.1,186.5,392.6,182.9,392.6,182.9L392.6,182.9z"/>
</g>
</svg>
