<svg xmlns="http://www.w3.org/2000/svg" xmlns:xlink="http://www.w3.org/1999/xlink" viewBox="0 0 1330.84 235.76"><defs><style>.cls-1{fill:url(#linear-gradient);}.cls-2{fill:url(#linear-gradient-2);}.cls-3{fill:url(#linear-gradient-3);}</style><linearGradient id="linear-gradient" x1="517.44" y1="393.32" x2="520.41" y2="391.55" gradientTransform="matrix(101.24, -1.59, -1.59, -101.24, -51760.12, 40647.77)" gradientUnits="userSpaceOnUse"><stop offset="0" stop-color="#ed80d9"/><stop offset="0.32" stop-color="#eb80da"/><stop offset="0.43" stop-color="#e480dc"/><stop offset="0.51" stop-color="#d980df"/><stop offset="0.58" stop-color="#c880e4"/><stop offset="0.63" stop-color="#b27fea"/><stop offset="0.66" stop-color="#a27fef"/><stop offset="0.76" stop-color="#787bdc"/><stop offset="0.86" stop-color="#5578cc"/><stop offset="0.95" stop-color="#3f76c3"/><stop offset="1" stop-color="#3775bf"/></linearGradient><linearGradient id="linear-gradient-2" x1="519.13" y1="385.99" x2="523.52" y2="390.39" gradientTransform="matrix(34.51, 0, 0, -34.51, -17748.53, 13545.25)" gradientUnits="userSpaceOnUse"><stop offset="0" stop-color="#a27fef"/><stop offset="0.3" stop-color="#9f7fee"/><stop offset="0.48" stop-color="#977eea"/><stop offset="0.63" stop-color="#897de4"/><stop offset="0.76" stop-color="#757bdb"/><stop offset="0.88" stop-color="#5b78cf"/><stop offset="0.99" stop-color="#3b75c1"/><stop offset="1" stop-color="#3775bf"/></linearGradient><linearGradient id="linear-gradient-3" x1="518.49" y1="388.16" x2="524.69" y2="388.16" gradientTransform="matrix(33.48, 0, 0, -33.48, -17263.2, 13044.08)" gradientUnits="userSpaceOnUse"><stop offset="0.12" stop-color="#a27fef"/><stop offset="0.82" stop-color="#a27fef"/><stop offset="0.88" stop-color="#a27fef"/></linearGradient></defs><g id="Layer_2" data-name="Layer 2"><g id="Layer_1-2" data-name="Layer 1"><g id="layer1"><g id="g243"><g id="g12"><g id="g14"><g id="g20"><g id="g22"><path id="path38" class="cls-1" d="M7.7.73C.42.73-.21,1.18.05,8.36h0C1.46,45.09,18.23,74,46,97h0c7.49,6.21,16,10.88,25,15.56h0c-2.41,1.13-35.62-6-48.8-13.79h0C21,98.07,19.53,96.51,18,98h0c-.94.92.12,2.17.57,3.21h0c14.43,33.92,34.2,64,62.54,88h0c35.6,30.21,76.15,46.89,123.41,46.25h0c22.2-.31,42.66-6.07,60.87-18.38h0c34.93-23.59,53.66-56.47,53.92-99.1h0c.21-32.41-11.88-60.09-34.46-82.69h0c-23.95-24-54-34.53-87.65-34.6h0Q157.91.64,118.61.64h0Q63.13.7,7.7.73"/></g></g></g></g><g id="g44"><g id="g46"><g id="g52"><g id="g54"><path id="path70" class="cls-2" d="M217.86,76.86S245,95.92,242.68,132.15h0c-4.32,66.72-69.6,101.11-69.6,101.11h0C282.76,253.36,351,148.44,305.48,62.42h0s-11.24-9.21-30.7-9.21h0c-14.69,0-34.11,5.27-56.92,23.65"/></g></g></g></g><g id="g72"><g id="g74"><g id="g80"><g id="g82"><path id="path98" class="cls-3" d="M98.84.71c-6.21,31.08,12.69,83.61,62.52,91.85h0c45.82,7.58,41.93-17,95.12-31.25h0c14-3.75,30.65-2.17,40.5-.59h0a81.5,81.5,0,0,1,8.53,1.73h0c-.38-.59-18.14-28.82-34.51-39h0C241.45,5,234.7,0,161.67,0h0c-17,0-37.55.26-62.83.71"/></g></g></g></g></g></g><path d="M502.27,21.39H543.9c3.53,0,6.09.8,7.68,2.38S554,27.92,554,31.45V139.84q0,8.94-.7,16.62a76.3,76.3,0,0,1-4.33,18l-14,38a20.11,20.11,0,0,1-4.05,7.12,9.18,9.18,0,0,1-7.13,2.93H486.63a16.81,16.81,0,0,1-8.1-1.95,9.47,9.47,0,0,1-4.75-6.43l-12.85-45.53a7.51,7.51,0,0,0-2.1-3.78,4.63,4.63,0,0,0-2.93-1h-2.52a4.65,4.65,0,0,0-2.93,1,7.51,7.51,0,0,0-2.1,3.78l-13.12,45.53a10.62,10.62,0,0,1-4.19,6.29,13.17,13.17,0,0,1-7.55,2.09H386.62a11.3,11.3,0,0,1-7.68-2.79,15.42,15.42,0,0,1-4.61-7.26l-14-38.56a76.23,76.23,0,0,1-4.33-18q-.7-7.68-.7-16.63V31.45c0-3.53.79-6.1,2.37-7.68s4.15-2.38,7.69-2.38h43c3.53,0,6.1.8,7.68,2.38s2.37,4.15,2.37,7.68V134.26l16.21-35.2a14,14,0,0,1,5.86-6.71,18.7,18.7,0,0,1,8.94-1.95h11.74a18.75,18.75,0,0,1,8.94,1.95A14.1,14.1,0,0,1,476,99.06l16.2,35.2V31.45c0-3.53.79-6.1,2.38-7.68S498.73,21.39,502.27,21.39Z"/><path d="M595.58,222.53c-3.54,0-6.11-.79-7.69-2.37s-2.37-4.14-2.37-7.68V179.23c0-3.53.79-6.1,2.37-7.68s4.15-2.37,7.69-2.37h27.65V75.31H595.58c-3.54,0-6.11-.79-7.69-2.37s-2.37-4.15-2.37-7.69V31.45c0-3.53.79-6.1,2.37-7.68s4.15-2.38,7.69-2.38h119c3.54,0,6.1.8,7.68,2.38s2.38,4.15,2.38,7.68v33.8c0,3.54-.8,6.11-2.38,7.69s-4.14,2.37-7.68,2.37h-27.1v93.87h27.1q5.31,0,7.68,2.37c1.58,1.58,2.38,4.15,2.38,7.68v33.25c0,3.54-.8,6.1-2.38,7.68s-4.14,2.37-7.68,2.37Z"/><path d="M811,222.53h-41.9c-3.54,0-6.11-.79-7.69-2.37S759,216,759,212.48v-181c0-3.53.79-6.1,2.37-7.68s4.15-2.38,7.69-2.38h29.05a22.24,22.24,0,0,1,9.08,1.68,21.8,21.8,0,0,1,7.4,5.87l54.2,62V31.45c0-3.53.79-6.1,2.37-7.68s4.14-2.38,7.68-2.38h41.91c3.53,0,6.1.8,7.68,2.38s2.37,4.15,2.37,7.68v181q0,5.31-2.37,7.68c-1.58,1.58-4.15,2.37-7.68,2.37H878.84q-5.31,0-7.68-2.37t-2.37-7.68V178.11L821,120.29v92.19c0,3.54-.8,6.1-2.38,7.68S814.49,222.53,811,222.53Z"/><path d="M1123,222.53h-88q-34.92,0-51.82-14t-16.9-43V78.38q0-29,16.9-43t51.82-14h69.84c3.54,0,6.1.8,7.68,2.38s2.38,4.15,2.38,7.68v33.8c0,3.54-.8,6.11-2.38,7.69s-4.14,2.37-7.68,2.37h-58.11q-8.65,0-12.85,3.49t-4.19,10.48v66.77q0,7,3.22,10.33t9.63,3.35h27.1V126.15q0-5.3,2.38-7.68t7.68-2.37H1123c3.53,0,6.1.79,7.68,2.37s2.38,4.15,2.38,7.68v86.33c0,3.54-.8,6.1-2.38,7.68S1126.53,222.53,1123,222.53Z"/><path d="M1320.78,222.53h-88q-34.92,0-51.82-14t-16.9-43V78.38q0-29,16.9-43t51.82-14h69.84c3.54,0,6.1.8,7.69,2.38s2.37,4.15,2.37,7.68v33.8c0,3.54-.79,6.11-2.37,7.69s-4.15,2.37-7.69,2.37h-58.1q-8.67,0-12.85,3.49t-4.19,10.48v66.77q0,7,3.21,10.33t9.64,3.35h27.1V126.15q0-5.3,2.37-7.68t7.68-2.37h43.3q5.31,0,7.69,2.37t2.37,7.68v86.33q0,5.31-2.37,7.68T1320.78,222.53Z"/></g></g></svg>