<svg xmlns="http://www.w3.org/2000/svg" xmlns:xlink="http://www.w3.org/1999/xlink" viewBox="0 0 319.78 235.76"><defs><style>.cls-1{fill:url(#linear-gradient);}.cls-2{fill:url(#linear-gradient-2);}.cls-3{fill:url(#linear-gradient-3);}</style><linearGradient id="linear-gradient" x1="44.54" y1="410.9" x2="47.51" y2="409.12" gradientTransform="matrix(101.24, -1.59, -1.59, -101.24, -3856.77, 41674.98)" gradientUnits="userSpaceOnUse"><stop offset="0" stop-color="#ed80d9"/><stop offset="0.32" stop-color="#eb80da"/><stop offset="0.43" stop-color="#e480dc"/><stop offset="0.51" stop-color="#d980df"/><stop offset="0.58" stop-color="#c880e4"/><stop offset="0.63" stop-color="#b27fea"/><stop offset="0.66" stop-color="#a27fef"/><stop offset="0.76" stop-color="#787bdc"/><stop offset="0.86" stop-color="#5578cc"/><stop offset="0.95" stop-color="#3f76c3"/><stop offset="1" stop-color="#3775bf"/></linearGradient><linearGradient id="linear-gradient-2" x1="55.35" y1="403.98" x2="59.74" y2="408.37" gradientTransform="matrix(34.51, 0, 0, -34.51, -1744.55, 14165.81)" gradientUnits="userSpaceOnUse"><stop offset="0" stop-color="#a27fef"/><stop offset="0.3" stop-color="#9f7fee"/><stop offset="0.48" stop-color="#977eea"/><stop offset="0.63" stop-color="#897de4"/><stop offset="0.76" stop-color="#757bdb"/><stop offset="0.88" stop-color="#5b78cf"/><stop offset="0.99" stop-color="#3b75c1"/><stop offset="1" stop-color="#3775bf"/></linearGradient><linearGradient id="linear-gradient-3" x1="55.13" y1="406.16" x2="61.34" y2="406.16" gradientTransform="matrix(33.48, 0, 0, -33.48, -1748.27, 13646.75)" gradientUnits="userSpaceOnUse"><stop offset="0.12" stop-color="#a27fef"/><stop offset="0.82" stop-color="#a27fef"/><stop offset="0.88" stop-color="#a27fef"/></linearGradient></defs><g id="Layer_2" data-name="Layer 2"><g id="svg106"><g id="layer1"><g id="g243"><g id="g12"><g id="g14"><g id="g20"><g id="g22"><path id="path38" class="cls-1" d="M7.7.73C.42.73-.21,1.18.05,8.36h0C1.46,45.09,18.23,74,46,97h0c7.49,6.21,16,10.88,25,15.56h0c-2.41,1.13-35.62-6-48.8-13.79h0C21,98.07,19.53,96.51,18,98h0c-.94.92.12,2.17.57,3.21h0c14.43,33.92,34.2,64,62.54,88h0c35.6,30.21,76.15,46.89,123.41,46.25h0c22.2-.31,42.66-6.07,60.87-18.38h0c34.93-23.59,53.66-56.47,53.92-99.1h0c.21-32.41-11.88-60.09-34.46-82.69h0c-23.95-24-54-34.53-87.65-34.6h0Q157.91.64,118.61.64h0Q63.13.7,7.7.73"/></g></g></g></g><g id="g44"><g id="g46"><g id="g52"><g id="g54"><path id="path70" class="cls-2" d="M217.86,76.86S245,95.92,242.68,132.15h0c-4.32,66.72-69.6,101.11-69.6,101.11h0C282.76,253.36,351,148.44,305.48,62.42h0s-11.24-9.21-30.7-9.21h0c-14.69,0-34.11,5.27-56.92,23.65"/></g></g></g></g><g id="g72"><g id="g74"><g id="g80"><g id="g82"><path id="path98" class="cls-3" d="M98.84.71c-6.21,31.08,12.69,83.61,62.52,91.85h0c45.82,7.58,41.93-17,95.12-31.25h0c14-3.75,30.65-2.17,40.5-.59h0a81.5,81.5,0,0,1,8.53,1.73h0c-.38-.59-18.14-28.82-34.51-39h0C241.45,5,234.7,0,161.67,0h0c-17,0-37.55.26-62.83.71"/></g></g></g></g></g></g></g></g></svg>