<?xml version="1.0" encoding="UTF-8"?><svg id="Layer_1" xmlns="http://www.w3.org/2000/svg" viewBox="0 0 500 500"><defs><style>.cls-1{fill:#e7d6ff;}.cls-2{fill:#fff;}.cls-3{fill:#9146ff;}.cls-4{fill:#d7b8f3;}</style></defs><g><g><g><path class="cls-2" d="M406.83,230.57c-6.15,58.34-8.16,124.68-81.29,144.17-23.87,13.46-88.9,86.53-112.94,47.76-30.03,11.67-19.81-29.01-13.06-44.26-38.79-1.54-23.05,73.98-51.7,44.47-10.65-12.25-5.27-25.41-3.92-38.48-18.07,4.4-56,.54-50.13-24.33,80.47,.52,37.07-68.46,100.34-95.36,.6-9.95-3.97-33.59,20.87-49.89,12.95-8.5,25.41,42.19,18.61-23.55-23.97-2.19-61.2-2.07-56.55-37.61,8.79-99.78,1.29-79.28,117.72-87.24,25.97,8.3,34.98,32.1,35.47,55.02,34.81,28.53,70.58,64.72,76.59,109.28Z"/><path class="cls-2" d="M294.77,66.27c25.97,8.3,34.98,32.1,35.47,55.02,34.81,28.53,70.58,64.72,76.59,109.28-6.15,58.34-8.16,124.68-81.29,144.17-18.95,10.69-63.88,58.98-93.61,58.98-7.7,0-14.38-3.24-19.33-11.22-3.68,1.43-6.76,2.07-9.31,2.07-18.26,0-9.67-32.95-3.75-46.33-.39-.02-.78-.02-1.16-.02-31.14,0-25.75,51.34-39.6,51.34-2.75,0-6.25-2.01-10.94-6.85-10.65-12.25-5.27-25.41-3.92-38.48-4.1,1-9.21,1.57-14.61,1.57-18.41,0-40.07-6.66-35.52-25.9,.3,0,.6,0,.9,0,79.26,0,36.41-68.56,99.44-95.36,.6-9.95-3.97-33.59,20.87-49.89,1.06-.69,2.11-.99,3.15-.99,6.51,0,12.49,11.69,15.44,11.69,2.36,0,2.78-7.45,.01-34.25-23.97-2.19-61.2-2.07-56.55-37.61,8.79-99.78,1.29-79.28,117.72-87.24m0-33.79c-.77,0-1.54,.03-2.3,.08-19.1,1.31-35.08,1.83-47.93,2.26-16.19,.53-28.99,.95-39.78,2.65-10.53,1.65-25.96,5.36-38.26,18.41-11.21,11.89-15.05,26.53-17.14,37.95-2.09,11.4-3.23,24.84-4.82,43.43-.34,4.05-.7,8.22-1.09,12.67-2.8,23.14,5.13,38.56,12.32,47.45,4.4,5.44,9.8,10.05,16.15,13.82-3.13,5.09-5.65,10.56-7.52,16.4-1.94,6.02-2.96,11.76-3.49,16.89-2.08,1.47-4.09,3-6.01,4.59-6.91,5.73-12.98,12.47-18.02,20.01-8.61,12.88-12.98,26.07-16.48,36.67-2.28,6.89-4.86,14.7-7.2,17.02-1.25,1.24-6.56,3.34-18.51,3.34-.22,0-.45,0-.68,0-.07,0-.15,0-.22,0-15.66,0-29.28,10.76-32.88,26.02-3.75,15.9-.49,31.39,9.18,43.62,7.3,9.23,17.67,15.92,30.79,19.87,2.54,.77,5.2,1.43,7.93,1.98,2.03,10.11,6.57,19.26,13.54,27.28,.41,.47,.83,.93,1.26,1.37,4.3,4.43,8.48,7.86,12.76,10.49,7.14,4.38,14.68,6.6,22.41,6.6,9.18,0,18.1-3.27,25.21-9.22,5.19,2.46,10.95,3.9,17.03,4.18,1.23,.83,2.5,1.6,3.81,2.32,8.2,4.56,17.33,6.87,27.12,6.87,16.09,0,32.92-6.1,52.95-19.2,13.76-9,26.77-19.76,38.24-29.26,5.33-4.42,12.25-10.14,16.46-13.18,37.81-11.47,64.9-35.03,80.55-70.09,12.99-29.1,16.29-62.01,19.21-91.04,.37-3.67,.72-7.14,1.08-10.63,.28-2.68,.24-5.39-.12-8.06-1.89-14.02-6.1-28.05-12.5-41.7-5.52-11.75-12.83-23.56-21.73-35.09-11.45-14.82-25.45-29.3-43.5-44.93-1.91-11.95-5.66-23.03-11.09-32.65-10.25-18.17-26.31-31.17-46.43-37.6-3.33-1.06-6.8-1.6-10.29-1.6h0Z"/></g><g><path class="cls-2" d="M356.6,154.76c16.79,21.93,34.35,46.17,36.62,74.56,.24,8.89-1.7,17.38-4.65,25.7-1.53,4.3-1.88,8.82-1.22,13.31,5.39,41.73-21.29,84.71-59.06,101.25-5.66,2.48-12.33,3.24-17.03,7.47-17.17,15.22-32.96,32.33-52.87,44.09-13.4,7.03-41.43,21.23-47.27-.51-7.17,6.13-17.94,2.21-18.6-7.4-.62-13.18,3.95-26.11,7.36-38.27-.61-.6-1.36,.18-1.96,.49-6.06,3.13-11.65,6.92-16.48,11.77-7.4,7.43-11.83,16.07-11.12,26.88,1.05,8.15-4.43,18.4-13.59,12.71-12.59-9.3-14.27-26.1-9.1-39.91,1.7-3.2-.55-5.65-3.83-4.06-15.7,5.12-35.17,1.14-43.12-14.53-1.69-3.13-2.14-6.48,.03-9.65,10.06-12.64,25.92,11.07,42.15-13.61,12.23-19.99,12.51-45.15,27.99-63.49l.87-1.17c7.06-6.35,13.64-13.42,22.74-17.09,3.47-1.79,.26-4.02-1.81-5.31-11.51-8.23-13.63-24.4-4.63-35.35,8.86-10.78,25.22-11.85,35.47-2.34,1.71,1.43,4.72,4.9,6.31,1.52,2.15-2.99,5.05-37.13-1.48-33.93-23.44,5.29-54.64-7.35-49.82-35.64,.98-7.39,3.26-14.5,4.31-21.87,1.16-8.1,1.26-16.13-.55-24.15-1.9-7.28-1.4-14.19,1.81-21.07,10.09-14.56,21.03-15.14,37.51-14.23,23.05,2.58,44.22-15.58,66.9-5.92,22.33,8.14,34.06,30.19,32.29,53.24,.01,2.22,4.06,4.36,5.68,5.83,2.95,2.81,6.12,5.35,9.04,8.21,5.1,5.06,10.34,10.05,15.06,15.49,1.4,1.71,2.79,3.4,4.35,4.97,.42,.78,.96,1.47,1.68,2Zm-148.84,159.81c-2.78,9.55-6.21,19.33-4.24,29.71,.18,1.14-.35,1.32-1.26,1.53-22.67,5.97-46.46,29.05-48.99,52.87-.65,6.17,1.19,18.93,5.96,22.49-1.2-28.29,19.46-48.04,45.69-55.05,4.2-1.28,4.31-.9,6.48,3.05,.74,1.45,1.99,2.71,.82,4.36-6.92,12.64-9.98,27.05-10.75,41.35-.05,1.03-.23,2.19,1.12,2.55,1.95,.49,2.03-1.67,2.7-2.86,.62-2.44,15.85-30.5,18.25-25.43,3.72,5.76,7.86,11.24,12.32,16.45,.44,.52,1.02,.86,1.75,.4,1.27-.89,.12-2.52-.11-3.67-2.32-7.16-4.09-14.46-5.41-21.87,3.21-10.07,28.77-14.67,38.47-13.93,1.18,.01,1.63,.38,1.18,1.59-6.24,19.52-19.48,34.87-35.41,47.19-3.79,2.94-7.81,5.54-11.98,7.91-.81,.46-1.53,1.04-1.1,2.1,1.02,2.3,5.51-.37,7.43-.27,33.55-6.88,53.71-35.14,78.06-56.42,.9-.76,1.75-1.48,3-1.74,15.44-3.3,28.54-10.85,39.52-22.12,22.74-23.34,32.66-57.27,27.41-88.7,7.07-10.42,7.03-23.86,3.92-35.61-11.98-40.56-43.47-72.32-76.42-97.27-1.32-.95-1.76-1.6-.58-3.03,5.2-8.11,4.57-18.61,.63-27.12-15.62-33-42.63-22.18-69.9-12.69-12.77,4.82-24.97-2.56-37.29,3.95-4.59,2.2-7.43,5.77-7.69,11-.62,5.02,3.27,8.96,3.18,13.83,.09,9.94-1.05,19.69-4.01,29.22-4.88,14.28-1.84,33.29,14.47,37.99,10.53,3.41,21.04,3.15,31.25-1.47,1.14-.51,1.6-.53,1.98,.82,5.17,18.31,6.39,36.64-.8,54.68-3.18,7.99-2.9,15.45,.82,23.03,7.86,17.74-54.24,1.93-75.15,54.05-10.59,26.14-15.14,68.08-54.47,55.73-.94-.35-1.88-.67-2.59,.32-.71,.98-.12,1.81,.49,2.59,6.51,8.02,15.95,10.9,25.91,9.87,35.13-4.9,51.28-40.05,75.37-61.37Zm13.98-75.41c-.05-19.41-29.83-19.35-29.72,.15,.49,19.41,29.4,19.35,29.72-.15Z"/><path d="M393.11,217.66c-.03-.1-.05-.2-.08-.3-10.32-34.92-34.81-67.23-74.76-98.61,1.29-3.77,1.96-7.82,1.96-12.01,0-6.16-1.43-12.5-4.14-18.31-.01-.02-.02-.04-.03-.06-8.96-18.94-22.83-28.54-41.23-28.54-12.82,0-26.08,4.62-38.9,9.09-1.07,.37-2.14,.74-3.21,1.11-.1,.04-.19,.07-.29,.1-1.92,.73-4.04,1.05-6.88,1.05-1.92,0-3.96-.15-6.12-.3-2.42-.17-4.92-.35-7.57-.35-4.33,0-10.86,.42-17.77,4.01-8.26,4.03-13.09,11.06-13.66,19.83-.54,5.26,1.16,9.52,2.31,12.37,.32,.8,.75,1.87,.84,2.32v.15c.08,9.46-1.05,17.89-3.47,25.75-4.12,12.16-3.44,25.42,1.83,35.52,4.23,8.1,11.08,13.73,19.83,16.28,5.77,1.85,11.57,2.79,17.24,2.79,3.71,0,7.39-.4,11-1.19,2.71,14.28,1.8,26.53-2.74,37.95-3.54,8.88-3.9,17.7-1.11,26.31-2.13,.58-4.67,1.17-6.79,1.67-9.33,2.18-22.11,5.17-34.31,12.08-14.81,8.38-25.61,20.82-32.11,36.98-1.99,4.93-3.77,10.32-5.49,15.54-3.19,9.69-6.5,19.72-11.12,26.68-4.15,6.25-8.54,8.91-14.66,8.91-2.79,0-6-.55-9.54-1.64-.95-.35-2.72-.93-4.91-.93-4.01,0-7.68,1.89-10.06,5.17-2.7,3.73-3.92,9.83,.78,15.77,.03,.04,.05,.07,.08,.1,7.38,9.1,18.22,14.11,30.54,14.11,1.63,0,3.31-.09,4.97-.26,.12-.02,.25-.03,.37-.05,4.01-.56,7.91-1.46,11.73-2.71-1.66,4.5-2.74,9.03-3.21,13.51-.01,.11-.02,.21-.03,.32-.74,9.94,1.25,19.15,5.92,27.38,3.19,6.2,8.55,6.87,10.71,6.87,.92,0,1.84-.11,2.74-.32,5.09-1.21,8.61-5.87,8.38-11.1-.46-10.55,2.84-19.9,9.82-27.77,4.46-5.03,10.37-9.28,17.18-12.44-3.7,10.11-5.9,21.43-6.57,33.81,0,.02,0,.05,0,.07v.14c-.06,.98-.18,3.01,.59,5.37,1.29,3.99,4.53,7.02,8.66,8.11,.09,.02,.18,.04,.26,.06,1.01,.24,2.03,.36,3.03,.36,3.5,0,6.74-1.44,9.08-4-.03,1.74,.3,3.45,.91,4.98,.07,.17,.14,.34,.22,.51,2.06,4.45,6.53,7.21,11.66,7.21,2.46,0,4.65-.6,6.24-1.04,.2-.06,.45-.12,.64-.17,.33-.04,.66-.09,.99-.16,28.55-5.85,47.71-24.72,66.24-42.98,5.57-5.48,10.85-10.68,16.36-15.53,16.59-3.84,31.25-12.19,43.59-24.85,12.28-12.59,21.56-28.42,26.83-45.76,4.78-15.7,6.19-32.32,4.13-48.31,6-11.28,7.12-25.53,3.1-40.66Zm-174.17,196.06c-.63,.36-1.22,.74-1.75,1.15,1.32-2.5,3.17-5.75,5.01-8.77,.98,1.26,1.98,2.52,3,3.77-1.95,1.31-4.03,2.59-6.26,3.86Zm26.81-22c-.74-2.78-1.41-5.6-2.01-8.48,1.56-.96,4.32-2.26,8.73-3.48,.82-.23,1.63-.44,2.44-.63-2.54,4.33-5.59,8.52-9.15,12.59Z"/><path class="cls-3" d="M252.46,309.66s-.76,1.84-1.13,2.8c-10.92,28.35-43.27,27.83-43.27,27.83,0,0-.54-1.17-.68-5.26-.07-1.98,.27-18.22,10.71-32.99,.18-.26,0-.46,.2-.63,2.98-3.67,3.25-10.55-2.04-12.17-3.35-1.37-6.61-.5-9.67,.75-26.8,9.37-24.97,40.96-41.49,59.82-10.25,11.57-34.45,29.73-49.65,18.45,62.49,.9,31.37-90.6,100.12-98.32,8.15-1.44,18.81,2.05,24.66-4.35,.53-.83,.92-.95,1.64-.14,31.66,31.33,98.99,28.53,130.87,1.23,5.02-4.3,2.8,17.84,1.94,19.7-3.68-3.01-7.28-1.72-10.77,.34-11.2,7.3-14.08,21.45-17.51,33.44-3.36,15.48-15.8,26.33-30.22,31.68-6.52,2.77-13.31,4.72-20.05,6.87-2.75,.88-5.55,2.1-5.65,5.71-40.3-4.67-63.09,5.26-84.02,40.46,1.42-13.76,7.63-28.89,16.87-39.34,13.51-15.28,38.43-15.47,44.21-14.43,53.26,9.6,60.15-36.62,60.15-36.62,0,0-10.67,17.95-29.51,28.44-10.54,5.86-21.05,2.99-21.05,2.99,13.43-12.73,11.39-32.37,11.06-31.13-6.81,25.49-18.27,30.6-18.27,30.6-43.43-1.76-48.54,15.43-50.93,15.26-31.78,.57-59.99,25.85-61.23,55.01-8.79-24.29,13.49-50,30.6-60.03,13.17-7.71,19.78-6.78,23.99-7.71,48.76-10.8,40.11-38.28,40.11-38.28Z"/><path class="cls-1" d="M321.73,138.88c8.39,18.46-8.59,35.21-26.91,35.02-16.43,.67-26.5-14.65-36.44-25.47-7.95-9.5-17.7-17.24-25.92-26.5-8.67-9.23-24.47-21.9-15.71-35.64,38.51,6.56,75.77,26.72,104.98,52.59Z"/><path class="cls-1" d="M245.5,90.1c-5.6-1.95-11.2-3.91-16.81-5.86,23.39-5.82,55.95-22.34,71.44,5.51-4.26,8.95-18.89,8.17-26.73,5.02-7.44-2.61-20.43-6.58-27.9-4.67Z"/><path class="cls-1" d="M191.96,157.22c-1.71-5.54-1.22-11.14,.26-16.55,2.97-9.68,3.79-19.84,5.08-29.65,8.89,13.57,20.59,25.01,28.97,38.92-7.2,10.32-23.29,11.91-34.3,7.28Z"/><g><path class="cls-3" d="M237.42,419.18c13.5-10.86,31.13-27.51,37.85-50.5,.29-1,.43-1.38,1.23-1.38h.1c3.29,.14,6.62,.41,9.85,.67,4.62,.37,9.41,.76,14.1,.76,.58,0,1.16,0,1.74-.02-2.54,2.59-5.07,5.23-7.73,8.01-16.03,16.77-34.13,35.7-57.13,42.46Z"/><path d="M276.49,367.8h.08c3.28,.14,6.61,.41,9.83,.67,4.63,.37,9.43,.76,14.14,.76,.18,0,.36,0,.54,0-2.26,2.31-4.52,4.68-6.88,7.15-15.4,16.11-32.72,34.22-54.43,41.54,13.24-10.91,29.56-27.11,35.98-49.1l.02-.06c.27-.96,.32-.96,.73-.96m0-1c-1.23,0-1.44,.82-1.7,1.74-6.35,21.74-22.35,38.19-39.59,51.77,28.41-7.22,48.92-32.52,68.31-52.14-.99,.04-1.98,.05-2.97,.05-7.93,0-15.9-1.09-23.92-1.42-.04,0-.08,0-.12,0h0Z"/></g><path class="cls-4" d="M245.5,90.1c7.53-1.9,20.41,2.05,27.9,4.67,7.85,3.15,22.46,3.94,26.73-5.01,4.66,7.5,6.94,15.44,4.26,24.21-1.85,6.05-2.24,6.17-7.35,2.79-16.17-10.84-33.55-19.3-51.54-26.65Z"/><path class="cls-4" d="M191.96,157.22c11,4.63,27.1,3.04,34.3-7.28,3.98,5.72,6.83,12.02,9.42,18.46,.64,1.6-.41,1.94-1.41,2.4-14.22,6.06-38.74,4.84-42.32-13.58Z"/><g><path class="cls-3" d="M231.91,394.41c-2.2-3.26-5.02-7.27-5.83-8.41l2.78-3.25,3.04,11.67Z"/><path d="M228.62,383.8l2.07,7.95c-1.61-2.35-3.22-4.64-3.98-5.72l1.91-2.23m.48-2.11l-3.66,4.28s5.28,7.48,7.7,11.21l-4.04-15.49h0Z"/></g><path class="cls-3" d="M217.92,364.87c-.49,1-2.13,3.46-2.13,3.46l-1.71-3.3s.97-.44,3.84-.16Z"/><g><path class="cls-3" d="M196.23,238.36c0,.46,0,.92,0,1.38-.28-.46-.28-.92,0-1.38Z"/><path d="M196.23,238.36c-.28,.46-.28,.92,0,1.38,0-.46,0-.92,0-1.38h0Z"/></g><path class="cls-4" d="M288.62,364.23c1.6-4.54,4.85-6.27,7.6-7.15,6.73-2.15,13.89-4.6,20.41-7.37,14.42-5.35,21.98-13.96,25.34-29.45,3.43-11.98,9.44-28.59,20.63-35.89,3.49-2.05,8.83-3,12.52,.01-4.15,41.5-42.47,85.88-86.5,79.85Z"/><path class="cls-4" d="M212.35,347.95s-.61,7.26-8.6,9.62c-14.7,4.33-15.39-1.91-15.39-1.91,0,0,5.35-3.27,11.47-5.39s12.52-2.32,12.52-2.32Z"/><path class="cls-4" d="M251.63,351.61c-3.69,4.98-10.1,9.27-15.75,11.03-6.48,2.02-12.05,2.39-12.05,2.39,6.67-8.76,18.05-11.74,27.8-13.42Z"/><path class="cls-4" d="M207.39,335.04c-.45-11.35,2.77-20.8,8.38-30.98-7.04,5.65-20.9,16.37-25.74,23.4-15.94,19.5-41,46.85-64.89,44.29,26.97-5.93,47.32-29.32,55.05-54.74,5.28-13.61,21.69-35.12,37.03-29.17,17.63,6.85-7.99,46.43-9.83,47.2Z"/><path class="cls-3" d="M359.17,204.09c-1.06,10.52,8.59,18.34,18.58,18.41-1.54-11.22-6.31-21.15-12.45-30.54-3.43,2.98-5.74,7.25-6.14,12.13Z"/><path class="cls-4" d="M246.87,258.69c-5.7-7.31-9-17.56-4.57-26.22,8.63-21.74,5.92-46.21-2.62-67.52-8.79-23.23-29.98-37.86-41.52-59.38-9.24-15.54,5.04-20.9,18.59-19.27-8.75,13.74,7.05,26.4,15.72,35.64,8.22,9.26,17.97,17,25.92,26.5,9.94,10.82,20.02,26.14,36.44,25.47,18.3,.17,35.32-16.56,26.91-35.02,15.12,13.44,29.36,29.5,40.06,46.66-.88,1.37-15.55,9.97-8.69,27.03,7.65,18.99,25.33,14.53,25.33,14.53,5.99,59.66-101.87,67.56-131.56,31.59Z"/></g></g><path class="cls-1" d="M378.43,227.07l.08,.97s-23.28,4.33-27.81-21.11c-1.25-7.04,3.9-17.64,11.08-21.4,1.25,1.87,.69,.83,1.77,2.8-2.75,2.88-10.16,7.55-8.92,17.82,2.66,22.16,23.79,20.91,23.79,20.91Z"/><circle class="cls-1" cx="279.14" cy="246.09" r="27.14"/><path class="cls-3" d="M217.42,238.95c-.24,13.83-20.81,13.83-21.05,0,.24-13.83,20.81-13.83,21.05,0Z"/><circle class="cls-3" cx="279.14" cy="247.25" r="18.01"/><path class="cls-4" d="M208.79,229.33c1.12,12.23-11.6,11.9-11.6,11.9-1.32-7.26,3.7-13.04,11.6-11.9Z"/><path d="M279.14,229.6c9.75,0,17.65,7.9,17.65,17.65s-7.9,17.65-17.65,17.65-17.65-7.9-17.65-17.65,7.9-17.65,17.65-17.65m0-6.08c-13.08,0-23.73,10.64-23.73,23.73s10.64,23.73,23.73,23.73,23.73-10.64,23.73-23.73-10.64-23.73-23.73-23.73h0Z"/></g><path d="M206.9,229.2c4.89,0,9.78,3.25,9.89,9.75-.11,6.5-5,9.75-9.89,9.75s-9.78-3.25-9.89-9.75c.11-6.5,5-9.75,9.89-9.75m0-5.3v0h0c-7.43,0-15.03,5.14-15.2,14.97v.16c.17,9.83,7.77,14.97,15.2,14.97s15.03-5.14,15.2-14.97v-.16c-.17-9.83-7.77-14.97-15.2-14.97h0Z"/><path class="cls-4" d="M280.18,229.63c8.41,1.28,9.82,10.54,1.27,17-4.45,3.36-12.41,4.11-16.24,.57-7.93-7.35,6.39-18.88,14.97-17.57Z"/><path class="cls-4" d="M365.31,191.95c4.37,6.11,7.95,14.58,7.95,14.58-2.16,2.89-5.19,4.17-7.78,4.72-3.19,.68-6.22-1.71-6.36-4.97-.07-1.67,.1-3.68,.76-5.94,1.58-5.41,5.43-8.39,5.43-8.39Z"/></svg>