<?xml version="1.0" encoding="UTF-8"?><svg id="Layer_1" xmlns="http://www.w3.org/2000/svg" viewBox="0 0 500 500"><defs><style>.cls-1{fill:#e7d6ff;}.cls-2{fill:#fff;}.cls-3{fill:#9146ff;}.cls-4{fill:#d7b8f3;}</style></defs><g><g><g><path class="cls-2" d="M423.82,228.47c-6.82,64.67-9.05,138.19-90.09,159.8-26.45,14.92-98.53,95.91-125.18,52.94-33.28,12.93-21.96-32.15-14.48-49.05-43-1.71-25.54,82-57.31,49.29-11.8-13.57-5.84-28.16-4.35-42.65-20.03,4.87-62.07,.6-55.56-26.97,89.2,.57,41.08-75.88,111.21-105.69,.66-11.03-4.4-37.23,23.13-55.29,14.35-9.42,28.16,46.76,20.62-26.1-26.57-2.42-67.83-2.29-62.68-41.68,9.74-110.6,1.43-87.87,130.47-96.69,28.78,9.2,38.77,35.58,39.32,60.98,38.58,31.62,78.23,71.74,84.89,121.12Z"/><path class="cls-2" d="M299.62,46.36c28.78,9.2,38.77,35.58,39.32,60.98,38.58,31.62,78.23,71.74,84.89,121.12-6.82,64.67-9.05,138.19-90.09,159.8-21.01,11.85-70.8,65.38-103.75,65.38-8.54,0-15.94-3.59-21.43-12.43-4.08,1.59-7.49,2.3-10.32,2.3-20.24,0-10.72-36.53-4.16-51.35-.44-.02-.87-.03-1.29-.03-34.52,0-28.54,56.9-43.89,56.9-3.04,0-6.92-2.23-12.12-7.59-11.8-13.57-5.84-28.16-4.35-42.65-4.54,1.1-10.21,1.74-16.19,1.74-20.4,0-44.41-7.39-39.37-28.71,.33,0,.66,0,.99,0,87.85,0,40.35-76,110.22-105.7,.66-11.03-4.4-37.23,23.13-55.29,1.17-.77,2.34-1.1,3.5-1.1,7.21,0,13.84,12.96,17.11,12.96,2.61,0,3.09-8.26,.01-37.96-26.57-2.42-67.83-2.29-62.68-41.68,9.74-110.6,1.43-87.87,130.47-96.69m0-37.45c-.85,0-1.7,.03-2.55,.09-21.17,1.45-38.89,2.03-53.12,2.5-17.95,.59-32.13,1.06-44.09,2.93-11.67,1.83-28.77,5.94-42.41,20.4-12.42,13.18-16.68,29.41-18.99,42.07-2.31,12.64-3.58,27.53-5.34,48.14-.38,4.48-.78,9.11-1.21,14.04-3.11,25.65,5.68,42.74,13.66,52.6,4.88,6.02,10.86,11.14,17.9,15.32-3.47,5.64-6.26,11.71-8.34,18.18-2.14,6.67-3.28,13.03-3.87,18.73-2.31,1.62-4.53,3.32-6.66,5.09-7.66,6.36-14.38,13.82-19.97,22.18-9.55,14.28-14.38,28.89-18.27,40.64-2.53,7.64-5.39,16.3-7.98,18.86-1.39,1.38-7.27,3.71-20.52,3.71-.25,0-.5,0-.75,0-.08,0-.16,0-.24,0-17.36,0-32.45,11.93-36.44,28.84-4.16,17.63-.55,34.79,10.18,48.34,8.1,10.23,19.58,17.64,34.13,22.03,2.82,.85,5.76,1.58,8.79,2.19,2.25,11.2,7.28,21.34,15,30.23,.45,.52,.92,1.03,1.4,1.52,4.77,4.91,9.39,8.71,14.15,11.63,7.91,4.86,16.27,7.32,24.84,7.32,10.18,0,20.06-3.62,27.95-10.22,5.76,2.73,12.13,4.32,18.87,4.64,1.37,.92,2.77,1.77,4.22,2.58,9.09,5.06,19.21,7.62,30.05,7.62,17.83,0,36.48-6.76,58.69-21.28,15.25-9.97,29.67-21.91,42.39-32.44,5.91-4.9,13.58-11.24,18.24-14.61,41.91-12.71,71.93-38.82,89.28-77.68,14.4-32.25,18.06-68.73,21.29-100.91,.41-4.07,.79-7.91,1.2-11.78,.31-2.97,.27-5.97-.13-8.93-2.1-15.54-6.76-31.09-13.86-46.22-6.11-13.03-14.22-26.11-24.09-38.89-12.69-16.42-28.21-32.47-48.22-49.79-2.12-13.24-6.28-25.53-12.29-36.19-11.37-20.14-29.16-34.55-51.46-41.68-3.69-1.18-7.54-1.78-11.4-1.78h0Z"/></g><g><path class="cls-2" d="M368.16,144.44c18.61,24.3,38.07,51.18,40.58,82.64,.26,9.85-1.88,19.26-5.16,28.49-1.69,4.76-2.09,9.78-1.35,14.75,5.97,46.25-23.59,93.89-65.46,112.23-6.27,2.75-13.67,3.59-18.87,8.28-19.03,16.87-36.53,35.84-58.6,48.87-14.85,7.79-45.92,23.53-52.39-.56-7.95,6.8-19.88,2.45-20.61-8.2-.69-14.61,4.38-28.94,8.16-42.42-.67-.66-1.51,.2-2.18,.54-6.71,3.47-12.92,7.67-18.27,13.05-8.2,8.23-13.12,17.81-12.33,29.79,1.17,9.04-4.91,20.39-15.06,14.09-13.96-10.3-15.82-28.93-10.08-44.23,1.89-3.55-.61-6.26-4.25-4.49-17.4,5.68-38.98,1.26-47.8-16.11-1.87-3.46-2.37-7.19,.03-10.7,11.15-14.01,28.73,12.27,46.72-15.08,13.56-22.16,13.86-50.05,31.03-70.37l.96-1.3c7.82-7.04,15.12-14.87,25.2-18.94,3.85-1.98,.29-4.45-2-5.88-12.76-9.13-15.1-27.05-5.13-39.18,9.83-11.94,27.95-13.13,39.31-2.59,1.89,1.59,5.23,5.43,6.99,1.68,2.39-3.32,5.6-41.16-1.64-37.61-25.97,5.86-60.56-8.14-55.22-39.5,1.08-8.19,3.62-16.07,4.78-24.24,1.28-8.98,1.4-17.87-.61-26.77-2.1-8.07-1.56-15.73,2.01-23.35,11.18-16.14,23.31-16.78,41.58-15.77,25.55,2.86,49.01-17.27,74.15-6.57,24.75,9.03,37.76,33.46,35.79,59,.01,2.46,4.5,4.84,6.3,6.47,3.26,3.11,6.78,5.93,10.02,9.1,5.65,5.61,11.46,11.13,16.69,17.16,1.55,1.89,3.09,3.77,4.82,5.5,.46,.87,1.06,1.62,1.86,2.21Zm-164.97,177.13c-3.09,10.59-6.88,21.42-4.7,32.93,.2,1.26-.38,1.47-1.4,1.7-25.12,6.61-51.49,32.2-54.3,58.6-.72,6.84,1.32,20.98,6.6,24.93-1.33-31.35,21.57-53.25,50.64-61.02,4.65-1.42,4.78-1,7.18,3.38,.82,1.61,2.21,3,.91,4.83-7.67,14.01-11.06,29.98-11.92,45.83-.05,1.14-.25,2.43,1.24,2.82,2.16,.55,2.25-1.86,2.99-3.17,.69-2.7,17.57-33.8,20.22-28.19,4.13,6.38,8.71,12.46,13.65,18.24,.49,.58,1.14,.96,1.94,.44,1.41-.98,.13-2.79-.12-4.07-2.57-7.94-4.54-16.02-6-24.24,3.56-11.16,31.89-16.26,42.64-15.44,1.3,.02,1.81,.42,1.3,1.77-6.91,21.63-21.59,38.65-39.25,52.31-4.2,3.26-8.66,6.14-13.28,8.77-.9,.51-1.69,1.15-1.22,2.33,1.13,2.55,6.11-.41,8.23-.3,37.18-7.63,59.53-38.95,86.52-62.53,.99-.84,1.94-1.63,3.33-1.93,17.12-3.66,31.63-12.03,43.8-24.52,25.2-25.87,36.2-63.48,30.38-98.32,7.83-11.55,7.79-26.44,4.35-39.46-13.28-44.95-48.18-80.15-84.7-107.82-1.46-1.05-1.95-1.77-.65-3.36,5.77-8.99,5.07-20.63,.7-30.06-17.32-36.57-47.25-24.58-77.48-14.06-14.15,5.34-27.67-2.83-41.33,4.38-5.09,2.44-8.24,6.39-8.53,12.19-.69,5.57,3.62,9.93,3.52,15.33,.1,11.01-1.17,21.83-4.44,32.39-5.41,15.83-2.04,36.9,16.04,42.1,11.67,3.78,23.32,3.49,34.64-1.63,1.26-.57,1.78-.58,2.2,.9,5.73,20.3,7.08,40.61-.89,60.61-3.53,8.85-3.21,17.13,.9,25.53,8.71,19.67-60.12,2.13-83.29,59.91-11.74,28.98-16.78,75.46-60.37,61.77-1.04-.39-2.09-.74-2.88,.35-.79,1.09-.13,2.01,.55,2.87,7.22,8.89,17.68,12.08,28.72,10.94,38.94-5.43,56.84-44.39,83.53-68.02Zm15.49-83.58c-.06-21.52-33.06-21.45-32.94,.17,.54,21.51,32.59,21.44,32.94-.17Z"/><path d="M408.62,214.15c-.03-.11-.06-.22-.09-.33-11.44-38.7-38.58-74.52-82.87-109.3,1.43-4.18,2.17-8.67,2.17-13.31,0-6.83-1.58-13.85-4.59-20.29-.01-.02-.02-.05-.03-.06-9.93-20.99-25.3-31.64-45.7-31.64-14.21,0-28.91,5.12-43.12,10.07-1.19,.41-2.37,.82-3.55,1.23-.11,.04-.21,.07-.32,.12-2.13,.81-4.48,1.16-7.63,1.16-2.13,0-4.38-.16-6.78-.33-2.68-.19-5.46-.39-8.39-.39-4.8,0-12.04,.46-19.7,4.45-9.15,4.47-14.51,12.25-15.14,21.97-.6,5.83,1.29,10.55,2.56,13.71,.35,.88,.83,2.07,.93,2.58v.17c.09,10.49-1.16,19.83-3.85,28.54-4.56,13.48-3.81,28.18,2.03,39.37,4.68,8.98,12.28,15.22,21.97,18.04,6.4,2.05,12.82,3.09,19.1,3.09,4.11,0,8.19-.44,12.19-1.31,3.01,15.83,2,29.4-3.04,42.06-3.92,9.85-4.33,19.62-1.23,29.16-2.36,.64-5.17,1.3-7.52,1.85-10.34,2.42-24.51,5.73-38.03,13.38-16.41,9.29-28.39,23.08-35.59,40.99-2.21,5.46-4.18,11.44-6.08,17.22-3.54,10.74-7.2,21.85-12.33,29.57-4.6,6.93-9.47,9.88-16.25,9.88-3.09,0-6.65-.61-10.57-1.82-1.05-.39-3.02-1.03-5.44-1.03-4.45,0-8.51,2.09-11.15,5.73-3,4.14-4.34,10.9,.86,17.47,.03,.04,.06,.07,.09,.11,8.18,10.08,20.2,15.64,33.85,15.64,1.81,0,3.66-.1,5.51-.29,.14-.02,.28-.03,.41-.05,4.44-.62,8.77-1.61,13-3.01-1.84,4.98-3.04,10.01-3.56,14.98-.01,.12-.02,.24-.03,.35-.82,11.02,1.38,21.22,6.56,30.35,3.54,6.87,9.48,7.62,11.87,7.62,1.02,0,2.04-.12,3.04-.36,5.65-1.34,9.55-6.5,9.29-12.31-.51-11.7,3.15-22.05,10.88-30.78,4.94-5.57,11.49-10.29,19.05-13.79-4.1,11.2-6.54,23.75-7.28,37.47,0,.02,0,.05,0,.07v.16c-.07,1.08-.2,3.34,.65,5.96,1.43,4.42,5.02,7.78,9.6,8.99,.1,.02,.2,.05,.29,.07,1.12,.27,2.25,.4,3.36,.4,3.88,0,7.47-1.6,10.06-4.43-.03,1.93,.33,3.82,1.01,5.53,.07,.19,.16,.37,.24,.56,2.28,4.93,7.24,8,12.93,8,2.73,0,5.15-.66,6.91-1.15,.22-.06,.5-.14,.71-.19,.37-.04,.73-.1,1.09-.17,31.64-6.48,52.88-27.4,73.42-47.64,6.18-6.08,12.02-11.83,18.14-17.21,18.38-4.25,34.63-13.51,48.31-27.54,13.61-13.96,23.89-31.5,29.74-50.72,5.29-17.4,6.86-35.82,4.58-53.54,6.65-12.5,7.89-28.29,3.44-45.07Zm-193.05,217.31c-.7,.4-1.35,.82-1.94,1.27,1.46-2.77,3.51-6.37,5.55-9.73,1.08,1.4,2.2,2.79,3.32,4.18-2.17,1.45-4.47,2.87-6.94,4.27Zm29.71-24.38c-.82-3.08-1.57-6.21-2.23-9.4,1.73-1.06,4.79-2.5,9.67-3.86,.9-.25,1.81-.48,2.7-.7-2.82,4.8-6.19,9.44-10.15,13.95Z"/><path class="cls-3" d="M252.73,316.13s-.84,2.04-1.26,3.11c-12.1,31.42-47.95,30.85-47.95,30.85,0,0-.6-1.3-.75-5.83-.07-2.2,.3-20.2,11.87-36.56,.2-.29,0-.51,.23-.69,3.3-4.07,3.61-11.7-2.26-13.49-3.71-1.52-7.32-.55-10.71,.83-29.7,10.38-27.67,45.4-45.99,66.3-11.36,12.82-38.19,32.95-55.03,20.45,69.26,1,34.77-100.42,110.97-108.98,9.03-1.6,20.85,2.27,27.33-4.82,.59-.92,1.02-1.05,1.82-.15,35.09,34.73,109.72,31.62,145.05,1.37,5.56-4.76,3.1,19.77,2.15,21.84-4.08-3.34-8.07-1.9-11.93,.37-12.41,8.1-15.6,23.78-19.41,37.06-3.72,17.16-17.51,29.19-33.5,35.11-7.23,3.07-14.76,5.23-22.22,7.61-3.04,.97-6.15,2.33-6.26,6.33-44.67-5.18-69.92,5.83-93.13,44.85,1.57-15.25,8.45-32.02,18.69-43.6,14.98-16.94,42.59-17.15,49-16,59.03,10.64,66.67-40.59,66.67-40.59,0,0-11.82,19.9-32.71,31.52-11.68,6.5-23.33,3.32-23.33,3.32,14.89-14.11,12.63-35.88,12.26-34.5-7.54,28.25-20.25,33.92-20.25,33.92-48.13-1.95-53.8,17.1-56.45,16.92-35.22,.63-66.49,28.65-67.87,60.97-9.74-26.93,14.95-55.42,33.92-66.53,14.59-8.55,21.92-7.51,26.59-8.55,54.05-11.97,44.46-42.43,44.46-42.43Z"/><path class="cls-1" d="M329.5,126.83c9.3,20.46-9.52,39.02-29.82,38.82-18.21,.74-29.37-16.24-40.39-28.23-8.81-10.53-19.62-19.11-28.73-29.37-9.61-10.24-27.2-24.14-17.5-39.37,42.68,7.27,84.06,29.49,116.43,58.16Z"/><path class="cls-1" d="M245.02,72.77c-6.21-2.17-12.42-4.33-18.63-6.5,25.93-6.45,62.01-24.76,79.18,6.11-4.73,9.92-20.94,9.05-29.63,5.56-8.24-2.89-22.65-7.29-30.92-5.18Z"/><path class="cls-1" d="M185.67,147.16c-1.89-6.14-1.35-12.34,.28-18.34,3.29-10.73,4.2-21.99,5.63-32.86,9.85,15.04,22.82,27.72,32.11,43.14-7.99,11.44-25.81,13.2-38.02,8.07Z"/><g><path class="cls-3" d="M235.81,437.64c14.98-12.02,34.67-30.53,42.14-56.12,.32-1.11,.49-1.57,1.41-1.57h.12c3.64,.15,7.34,.45,10.92,.74,5.13,.41,10.43,.84,15.62,.84,.69,0,1.37,0,2.06-.02-2.85,2.9-5.68,5.86-8.66,8.97-17.84,18.65-37.98,39.72-63.61,47.16Z"/><path d="M279.36,380.45h.1c3.63,.15,7.32,.45,10.89,.74,5.14,.41,10.44,.84,15.66,.84,.29,0,.57,0,.86,0-2.56,2.62-5.13,5.3-7.81,8.11-17.21,18-36.58,38.26-60.92,46.26,14.74-12.08,33.11-30.15,40.3-54.74l.02-.06c.31-1.08,.39-1.14,.91-1.14m0-1c-1.37,0-1.6,.91-1.89,1.93-7.04,24.09-24.78,42.32-43.88,57.38,31.49-8,54.22-36.05,75.71-57.79-1.1,.04-2.2,.06-3.3,.06-8.79,0-17.63-1.2-26.51-1.57-.05,0-.09,0-.14,0h0Z"/></g><path class="cls-4" d="M243.64,72.3c8.34-2.11,24.84,1.86,33.15,4.76,8.7,3.49,23.42,4.17,28.16-5.75,5.17,8.31,8.32,18.2,5.34,27.92-2.05,6.71-2.49,6.84-8.15,3.09-17.93-12.01-38.56-21.87-58.5-30.02Z"/><path class="cls-4" d="M185.07,144.85c12.19,5.14,29.5,3.83,37.47-7.61,4.42,6.34,8.72,15.18,11.59,22.31,.71,1.78-.46,2.15-1.56,2.66-15.76,6.72-43.54,3.05-47.5-17.36Z"/><g><path class="cls-3" d="M230.08,410.36c-2.49-3.69-5.78-8.37-6.66-9.62l3.18-3.72,3.48,13.34Z"/><path d="M226.36,398.07l2.51,9.61c-1.94-2.82-3.94-5.68-4.81-6.92l2.3-2.69m.48-2.11l-4.05,4.74s5.86,8.29,8.53,12.43l-4.48-17.17h0Z"/></g><path class="cls-3" d="M214.45,377.32c-.55,1.11-2.36,3.83-2.36,3.83l-1.89-3.65s1.08-.49,4.25-.18Z"/><g><path class="cls-3" d="M190.41,237.1c0,.51,0,1.02,0,1.53-.31-.51-.31-1.02,0-1.53Z"/><path d="M190.41,237.1c-.31,.51-.31,1.02,0,1.53,0-.51,0-1.02,0-1.53h0Z"/></g><path class="cls-4" d="M292.81,376.6c1.77-5.04,5.38-6.95,8.42-7.92,7.46-2.39,15.39-5.09,22.62-8.16,15.99-5.93,24.37-15.48,28.09-32.64,3.81-13.28,10.46-31.69,22.87-39.78,3.87-2.27,9.79-3.33,13.87,.01-4.6,45.99-47.07,95.18-95.87,88.5Z"/><path class="cls-4" d="M208.27,358.56s-.67,8.05-9.54,10.66c-16.29,4.8-17.06-2.12-17.06-2.12,0,0,5.93-3.62,12.72-5.97s13.87-2.57,13.87-2.57Z"/><path class="cls-4" d="M251.81,362.62c-4.09,5.52-11.2,10.27-17.45,12.22-7.18,2.24-13.35,2.65-13.35,2.65,7.39-9.71,20.01-13.01,30.81-14.88Z"/><path class="cls-4" d="M202.77,344.26c-.49-12.58,3.07-23.05,9.29-34.34-7.81,6.26-23.16,18.14-28.53,25.94-17.66,21.61-45.44,51.93-71.93,49.09,29.89-6.57,52.44-32.5,61.02-60.67,5.85-15.09,24.04-38.93,41.04-32.33,19.54,7.59-8.86,51.46-10.9,52.31Z"/><path class="cls-3" d="M371.01,199.11c-1.18,11.66,9.52,20.33,20.6,20.4-1.7-12.43-6.99-23.44-13.8-33.85-3.8,3.3-6.36,8.03-6.8,13.45Z"/><path class="cls-4" d="M246.53,259.63c-6.32-8.1-9.98-19.46-5.06-29.06,9.56-24.09,6.56-51.21-2.9-74.84-9.75-25.75-33.23-41.96-46.02-65.82-10.25-17.23,8.21-23.99,22.6-20.87-9.7,15.23,7.16,28.26,16.76,38.51,9.11,10.26,19.92,18.84,28.73,29.37,11.01,11.99,20.54,27.83,38.74,27.09,20.28,.19,37.73-18.21,28.41-38.68,16.76,14.89,34.27,34.2,46.12,53.23-.98,1.52-17.24,11.05-9.63,29.96,8.48,21.05,28.07,16.11,28.07,16.11,6.63,66.13-112.91,74.88-145.81,35.01Z"/></g></g><path class="cls-1" d="M392.35,224.59l.09,1.08s-25.8,4.8-30.83-23.39c-1.39-7.8,4.33-19.55,12.28-23.71,1.39,2.07,.76,.92,1.97,3.11-3.05,3.19-11.26,8.37-9.89,19.75,2.95,24.56,26.37,23.17,26.37,23.17Z"/><circle class="cls-1" cx="282.3" cy="245.66" r="30.08"/><path class="cls-3" d="M213.89,237.76c-.26,15.33-23.07,15.33-23.33,0,.26-15.33,23.07-15.33,23.33,0Z"/><circle class="cls-3" cx="282.3" cy="246.95" r="19.96"/><path class="cls-4" d="M204.32,227.09c1.24,13.56-12.86,13.19-12.86,13.19-1.46-8.04,4.1-14.45,12.86-13.19Z"/><path d="M282.3,227.39c10.8,0,19.56,8.76,19.56,19.56s-8.76,19.56-19.56,19.56-19.56-8.76-19.56-19.56,8.76-19.56,19.56-19.56m0-6.74c-14.5,0-26.3,11.8-26.3,26.3s11.8,26.3,26.3,26.3,26.3-11.8,26.3-26.3-11.8-26.3-26.3-26.3h0Z"/></g><path d="M202.23,226.95c5.42,0,10.84,3.6,10.96,10.81-.12,7.2-5.54,10.81-10.96,10.81s-10.84-3.6-10.96-10.81c.12-7.2,5.54-10.81,10.96-10.81m0-5.88v0h0c-8.23,0-16.66,5.7-16.85,16.59v.18c.18,10.89,8.61,16.6,16.85,16.6s16.66-5.7,16.85-16.59v-.18c-.18-10.89-8.61-16.59-16.85-16.59h0Z"/><path class="cls-4" d="M283.45,227.42c9.33,1.42,10.88,11.68,1.41,18.85-4.93,3.73-13.76,4.55-18,.63-8.79-8.14,7.08-20.92,16.59-19.47Z"/><path class="cls-4" d="M377.81,185.66c4.85,6.78,8.81,16.17,8.81,16.17-2.39,3.21-5.76,4.63-8.63,5.23-3.54,.75-6.9-1.9-7.04-5.51-.07-1.85,.11-4.08,.84-6.59,1.75-6,6.02-9.3,6.02-9.3Z"/></svg>