<?xml version="1.0" encoding="utf-8"?>
<!-- Generator: Adobe Illustrator 26.3.1, SVG Export Plug-In . SVG Version: 6.00 Build 0)  -->
<svg version="1.1" id="Layer_1" xmlns="http://www.w3.org/2000/svg" xmlns:xlink="http://www.w3.org/1999/xlink" x="0px" y="0px"
	 viewBox="0 0 5000 2880" style="enable-background:new 0 0 5000 2880;" xml:space="preserve">
<style type="text/css">
	.st0{fill:#FFFFFF;}
	.st1{fill:#9146FF;}
	.st2{fill:#E7D6FF;}
	.st3{fill:#D7B8F3;}
</style>
<g>
	<g>
		<g>
			<path class="st0" d="M4393.6,1893.8H525.1c-3.6,0-6.6-2.9-6.6-6.6v-880.3c0-5.2,4.2-9.5,9.5-9.5h3865.7
				c242.4,0,439,196.5,439,439v18.4C4832.6,1697.3,4636.1,1893.8,4393.6,1893.8z"/>
			<g>
				<g>
					<g>
						<path class="st0" d="M1013.4,1392.7c-15,142.1-19.9,303.6-197.9,351.1c-58.1,32.8-216.5,210.7-275,116.3
							c-73.1,28.4-48.2-70.6-31.8-107.8c-94.5-3.8-56.1,180.1-125.9,108.3c-25.9-29.8-12.8-61.9-9.6-93.7
							c-44,10.7-136.4,1.3-122.1-59.2c196,1.3,90.3-166.7,244.3-232.2c1.5-24.2-9.7-81.8,50.8-121.5c31.5-20.7,61.9,102.7,45.3-57.3
							c-58.4-5.3-149-5-137.7-91.6c21.4-243,3.1-193,286.6-212.4c63.2,20.2,85.2,78.2,86.4,134
							C911.7,1196.1,998.8,1284.2,1013.4,1392.7z"/>
						<path class="st0" d="M740.5,992.6c63.2,20.2,85.2,78.2,86.4,134c84.8,69.5,171.9,157.6,186.5,266.1
							c-15,142.1-19.9,303.6-197.9,351.1c-46.2,26-155.5,143.6-227.9,143.6c-18.8,0-35-7.9-47.1-27.3c-9,3.5-16.5,5.1-22.7,5.1
							c-44.5,0-23.6-80.2-9.1-112.8c-1,0-1.9-0.1-2.8-0.1c-75.8,0-62.7,125-96.4,125c-6.7,0-15.2-4.9-26.6-16.7
							c-25.9-29.8-12.8-61.9-9.6-93.7c-10,2.4-22.4,3.8-35.6,3.8c-44.8,0-97.6-16.2-86.5-63.1c0.7,0,1.5,0,2.2,0
							c193,0,88.6-167,242.1-232.2c1.5-24.2-9.7-81.8,50.8-121.5c2.6-1.7,5.1-2.4,7.7-2.4c15.8,0,30.4,28.5,37.6,28.5
							c5.7,0,6.8-18.1,0-83.4c-58.4-5.3-149-5-137.7-91.6C475.3,962.1,457.1,1012,740.5,992.6 M740.5,910.4c-1.9,0-3.7,0.1-5.6,0.2
							c-46.5,3.2-85.4,4.5-116.7,5.5c-39.4,1.3-70.6,2.3-96.9,6.4c-25.6,4-63.2,13-93.2,44.8c-27.3,29-36.6,64.6-41.7,92.4
							c-5.1,27.8-7.9,60.5-11.7,105.8c-0.8,9.9-1.7,20-2.7,30.8c-6.8,56.3,12.5,93.9,30,115.6c10.7,13.2,23.9,24.5,39.3,33.7
							c-7.6,12.4-13.7,25.7-18.3,39.9c-4.7,14.7-7.2,28.6-8.5,41.1c-5.1,3.6-10,7.3-14.6,11.2c-16.8,14-31.6,30.4-43.9,48.7
							c-21,31.4-31.6,63.5-40.1,89.3c-5.6,16.8-11.8,35.8-17.5,41.4c-3,3-16,8.1-45.1,8.1c-0.5,0-1.1,0-1.7,0c-0.2,0-0.4,0-0.5,0
							c-38.1,0-71.3,26.2-80.1,63.4c-9.1,38.7-1.2,76.4,22.4,106.2c17.8,22.5,43,38.8,75,48.4c6.2,1.9,12.6,3.5,19.3,4.8
							c4.9,24.6,16,46.9,33,66.4c1,1.1,2,2.3,3.1,3.3c10.5,10.8,20.6,19.1,31.1,25.5c17.4,10.7,35.7,16.1,54.6,16.1
							c22.4,0,44.1-8,61.4-22.5c12.6,6,26.7,9.5,41.5,10.2c3,2,6.1,3.9,9.3,5.7c20,11.1,42.2,16.7,66,16.7
							c39.2,0,80.1-14.9,128.9-46.7c33.5-21.9,65.2-48.1,93.1-71.3c13-10.8,29.8-24.7,40.1-32.1c92.1-27.9,158-85.3,196.1-170.7
							c31.6-70.9,39.7-151,46.8-221.7c0.9-8.9,1.7-17.4,2.6-25.9c0.7-6.5,0.6-13.1-0.3-19.6c-4.6-34.1-14.8-68.3-30.4-101.5
							c-13.4-28.6-31.2-57.4-52.9-85.4c-27.9-36.1-62-71.3-105.9-109.4c-4.7-29.1-13.8-56.1-27-79.5c-25-44.2-64.1-75.9-113-91.6
							C757.5,911.7,749,910.4,740.5,910.4L740.5,910.4z"/>
					</g>
				</g>
				<g>
					<path class="st0" d="M891.1,1208.1c40.9,53.4,83.6,112.4,89.2,181.5c0.6,21.7-4.1,42.3-11.3,62.6c-3.7,10.5-4.6,21.5-3,32.4
						c13.1,101.6-51.8,206.3-143.8,246.5c-13.8,6-30,7.9-41.5,18.2c-41.8,37.1-80.3,78.7-128.7,107.4
						c-32.6,17.1-100.9,51.7-115.1-1.2c-17.5,14.9-43.7,5.4-45.3-18c-1.5-32.1,9.6-63.6,17.9-93.2c-1.5-1.5-3.3,0.4-4.8,1.2
						c-14.7,7.6-28.4,16.9-40.1,28.7c-18,18.1-28.8,39.1-27.1,65.4c2.6,19.9-10.8,44.8-33.1,30.9c-30.7-22.6-34.7-63.6-22.1-97.2
						c4.1-7.8-1.3-13.8-9.3-9.9c-38.2,12.5-85.6,2.8-105-35.4c-4.1-7.6-5.2-15.8,0.1-23.5c24.5-30.8,63.1,27,102.6-33.1
						c29.8-48.7,30.5-109.9,68.2-154.6c0.7-1,1.4-1.9,2.1-2.9c17.2-15.5,33.2-32.7,55.4-41.6c8.4-4.4,0.6-9.8-4.4-12.9
						c-28-20-33.2-59.4-11.3-86.1c21.6-26.2,61.4-28.8,86.4-5.7c4.2,3.5,11.5,11.9,15.4,3.7c5.2-7.3,12.3-90.4-3.6-82.6
						c-57.1,12.9-133-17.9-121.3-86.8c2.4-18,7.9-35.3,10.5-53.2c2.8-19.7,3.1-39.3-1.3-58.8c-4.6-17.7-3.4-34.6,4.4-51.3
						c24.6-35.5,51.2-36.9,91.3-34.6c56.1,6.3,107.7-37.9,162.9-14.4c54.4,19.8,82.9,73.5,78.6,129.6c0,5.4,9.9,10.6,13.8,14.2
						c7.2,6.8,14.9,13,22,20c12.4,12.3,25.2,24.5,36.7,37.7c3.4,4.2,6.8,8.3,10.6,12.1C888.1,1205.1,889.4,1206.8,891.1,1208.1z
						 M528.7,1597.2c-6.8,23.3-15.1,47.1-10.3,72.3c0.4,2.8-0.8,3.2-3.1,3.7C460.1,1687.8,402.2,1744,396,1802
						c-1.6,15,2.9,46.1,14.5,54.8c-2.9-68.9,47.4-117,111.3-134.1c10.2-3.1,10.5-2.2,15.8,7.4c1.8,3.5,4.9,6.6,2,10.6
						c-16.9,30.8-24.3,65.9-26.2,100.7c-0.1,2.5-0.6,5.3,2.7,6.2c4.7,1.2,5-4.1,6.6-7c1.5-5.9,38.6-74.3,44.4-61.9
						c9.1,14,19.1,27.4,30,40.1c1.1,1.3,2.5,2.1,4.3,1c3.1-2.2,0.3-6.1-0.3-8.9c-5.6-17.4-10-35.2-13.2-53.2
						c7.8-24.5,70.1-35.7,93.7-33.9c2.9,0,4,0.9,2.9,3.9c-15.2,47.5-47.4,84.9-86.2,114.9c-9.2,7.2-19,13.5-29.2,19.3
						c-2,1.1-3.7,2.5-2.7,5.1c2.5,5.6,13.4-0.9,18.1-0.7c81.7-16.8,130.8-85.6,190.1-137.4c2.2-1.8,4.3-3.6,7.3-4.2
						c37.6-8,69.5-26.4,96.2-53.9c55.4-56.8,79.5-139.5,66.7-216c17.2-25.4,17.1-58.1,9.5-86.7c-29.2-98.8-105.8-176.1-186.1-236.9
						c-3.2-2.3-4.3-3.9-1.4-7.4c12.7-19.7,11.1-45.3,1.5-66c-38-80.3-103.8-54-170.2-30.9c-31.1,11.7-60.8-6.2-90.8,9.6
						c-11.2,5.4-18.1,14-18.7,26.8c-1.5,12.2,8,21.8,7.7,33.7c0.2,24.2-2.6,48-9.8,71.1c-11.9,34.8-4.5,81.1,35.2,92.5
						c25.6,8.3,51.2,7.7,76.1-3.6c2.8-1.3,3.9-1.3,4.8,2c12.6,44.6,15.6,89.2-1.9,133.1c-7.7,19.5-7.1,37.6,2,56.1
						c19.1,43.2-132.1,4.7-183,131.6c-25.8,63.7-36.9,165.8-132.6,135.7c-2.3-0.9-4.6-1.6-6.3,0.8c-1.7,2.4-0.3,4.4,1.2,6.3
						c15.9,19.5,38.8,26.5,63.1,24C430.7,1734.7,470,1649.1,528.7,1597.2z M562.7,1413.6c-0.1-47.3-72.6-47.1-72.4,0.4
						C491.5,1461.2,562,1461.1,562.7,1413.6z"/>
					<g>
						<path d="M980,1361.3c-0.1-0.2-0.1-0.5-0.2-0.7c-25.1-85-84.8-163.7-182-240.1c3.1-9.2,4.8-19,4.8-29.3
							c0-15-3.5-30.4-10.1-44.6c0-0.1-0.1-0.1-0.1-0.1c-21.8-46.1-55.6-69.5-100.4-69.5c-31.2,0-63.5,11.2-94.7,22.1
							c-2.6,0.9-5.2,1.8-7.8,2.7c-0.2,0.1-0.5,0.2-0.7,0.3c-4.7,1.8-9.8,2.6-16.8,2.6c-4.7,0-9.6-0.4-14.9-0.7
							c-5.9-0.4-12-0.8-18.4-0.8c-10.5,0-26.5,1-43.3,9.8c-20.1,9.8-31.9,26.9-33.3,48.3c-1.3,12.8,2.8,23.2,5.6,30.1
							c0.8,1.9,1.8,4.6,2,5.7v0.4c0.2,23-2.6,43.6-8.5,62.7c-10,29.6-8.4,61.9,4.5,86.5c10.3,19.7,27,33.4,48.3,39.6
							c14,4.5,28.2,6.8,42,6.8c9,0,18-1,26.8-2.9c6.6,34.8,4.4,64.6-6.7,92.4c-8.6,21.6-9.5,43.1-2.7,64.1
							c-5.2,1.4-11.4,2.9-16.5,4.1c-22.7,5.3-53.8,12.6-83.5,29.4c-36.1,20.4-62.4,50.7-78.2,90c-4.8,12-9.2,25.1-13.4,37.8
							c-7.8,23.6-15.8,48-27.1,65c-10.1,15.2-20.8,21.7-35.7,21.7c-6.8,0-14.6-1.3-23.2-4c-2.3-0.8-6.6-2.3-11.9-2.3
							c-9.8,0-18.7,4.6-24.5,12.6c-6.6,9.1-9.5,23.9,1.9,38.4c0.1,0.1,0.1,0.2,0.2,0.2c18,22.1,44.4,34.4,74.4,34.4
							c4,0,8-0.2,12.1-0.6c0.3,0,0.6-0.1,0.9-0.1c9.8-1.4,19.3-3.5,28.6-6.6c-4,10.9-6.7,22-7.8,32.9c0,0.3-0.1,0.5-0.1,0.8
							c-1.8,24.2,3,46.6,14.4,66.7c7.8,15.1,20.8,16.7,26.1,16.7c2.2,0,4.5-0.3,6.7-0.8c12.4-2.9,21-14.3,20.4-27
							c-1.1-25.7,6.9-48.5,23.9-67.6c10.9-12.2,25.3-22.6,41.8-30.3c-9,24.6-14.4,52.2-16,82.3c0,0.1,0,0.1,0,0.2l0,0.3
							c-0.1,2.4-0.4,7.3,1.4,13.1c3.1,9.7,11,17.1,21.1,19.7c0.2,0.1,0.4,0.1,0.6,0.2c2.5,0.6,4.9,0.9,7.4,0.9
							c8.5,0,16.4-3.5,22.1-9.7c-0.1,4.2,0.7,8.4,2.2,12.1c0.2,0.4,0.3,0.8,0.5,1.2c5,10.8,15.9,17.6,28.4,17.6
							c6,0,11.3-1.5,15.2-2.5c0.5-0.1,1.1-0.3,1.6-0.4c0.8-0.1,1.6-0.2,2.4-0.4c69.5-14.2,116.2-60.2,161.3-104.6
							c13.6-13.4,26.4-26,39.8-37.8c40.4-9.3,76.1-29.7,106.1-60.5c29.9-30.7,52.5-69.2,65.3-111.4c11.6-38.2,15.1-78.7,10.1-117.6
							C987.1,1432.8,989.8,1398.1,980,1361.3z M555.9,1838.6c-1.5,0.9-3,1.8-4.3,2.8c3.2-6.1,7.7-14,12.2-21.4
							c2.4,3.1,4.8,6.1,7.3,9.2C566.4,1832.4,561.3,1835.6,555.9,1838.6z M621.2,1785.1c-1.8-6.8-3.4-13.6-4.9-20.6
							c3.8-2.3,10.5-5.5,21.3-8.5c2-0.6,4-1.1,5.9-1.5C637.3,1765,629.9,1775.2,621.2,1785.1z"/>
					</g>
					<g>
						<path class="st1" d="M637.5,1585.3c0,0-1.9,4.5-2.8,6.8c-26.6,69-105.3,67.8-105.3,67.8s-1.3-2.9-1.6-12.8
							c-0.2-4.8,0.7-44.4,26.1-80.3c0.4-0.6,0-1.1,0.5-1.5c7.3-8.9,7.9-25.7-5-29.6c-8.2-3.3-16.1-1.2-23.5,1.8
							c-65.3,22.8-60.8,99.7-101,145.7c-25,28.2-83.9,72.4-120.9,44.9c152.2,2.2,76.4-220.6,243.8-239.4c19.8-3.5,45.8,5,60-10.6
							c1.3-2,2.3-2.3,4-0.3c77.1,76.3,241,69.5,318.7,3c12.2-10.5,6.8,43.4,4.7,48c-9-7.3-17.7-4.2-26.2,0.8
							c-27.3,17.8-34.3,52.2-42.6,81.4c-8.2,37.7-38.5,64.1-73.6,77.1c-15.9,6.7-32.4,11.5-48.8,16.7c-6.7,2.1-13.5,5.1-13.8,13.9
							c-98.1-11.4-153.6,12.8-204.6,98.5c3.4-33.5,18.6-70.3,41.1-95.8c32.9-37.2,93.6-37.7,107.7-35.1
							c129.7,23.4,146.5-89.2,146.5-89.2s-26,43.7-71.9,69.3c-25.7,14.3-51.3,7.3-51.3,7.3c32.7-31,27.7-78.8,26.9-75.8
							c-16.6,62.1-44.5,74.5-44.5,74.5c-105.7-4.3-118.2,37.6-124,37.2c-77.4,1.4-146.1,62.9-149.1,133.9
							c-21.4-59.2,32.8-121.8,74.5-146.2c32.1-18.8,48.2-16.5,58.4-18.8C658.6,1652.2,637.5,1585.3,637.5,1585.3z"/>
					</g>
					<path class="st2" d="M806.2,1169.4c20.4,44.9-20.9,85.7-65.5,85.3c-40,1.6-64.5-35.7-88.7-62c-19.4-23.1-43.1-42-63.1-64.5
						c-21.1-22.5-59.8-53-38.4-86.5C644.2,1057.6,735.1,1106.4,806.2,1169.4z"/>
					<path class="st2" d="M620.6,1050.7c-13.6-4.8-27.3-9.5-40.9-14.3c57-14.2,136.2-54.4,174,13.4c-10.4,21.8-46,19.9-65.1,12.2
						C670.4,1055.7,638.8,1046,620.6,1050.7z"/>
					<path class="st2" d="M490.2,1214.1c-4.2-13.5-3-27.1,0.6-40.3c7.2-23.6,9.2-48.3,12.4-72.2c21.6,33,50.1,60.9,70.5,94.8
						C556.2,1221.5,517,1225.4,490.2,1214.1z"/>
					<g>
						<path class="st1" d="M597.7,1853.6c67.9-54.1,86.6-97.1,94.7-124.8l0-0.1c0.6-2.2,1.1-3.7,3.6-3.7c0.1,0,0.2,0,0.3,0
							c8,0.3,16.1,1,24,1.6c11.2,0.9,22.9,1.8,34.3,1.8c2,0,4.1,0,6-0.1c-6.6,6.7-13.1,13.5-20.1,20.8
							C700.6,1790.8,655.5,1838,597.7,1853.6z"/>
						<path d="M696,1725.4c0.1,0,0.2,0,0.3,0c8,0.3,16.1,1,24,1.6c11.3,0.9,22.9,1.8,34.3,1.8c1.6,0,3.2,0,4.8-0.1
							c-6.3,6.4-12.6,13-19.2,19.9c-20.7,21.7-42.2,44.1-65.9,63.1c-25.3,20.2-49.7,33.6-74.3,40.6c22.4-18,40.3-35.3,54.5-52.7
							c18.6-22.9,31.2-46,38.4-70.8l0-0.1C693.6,1726.4,693.9,1725.4,696,1725.4 M696,1724.4c-3,0-3.5,2-4.2,4.2
							c-15.5,52.9-54.4,93-96.4,126.1c69.2-17.6,119.1-79.2,166.3-127c-2.4,0.1-4.8,0.1-7.2,0.1c-19.3,0-38.7-2.6-58.2-3.5
							C696.2,1724.4,696.1,1724.4,696,1724.4L696,1724.4z"/>
					</g>
					<path class="st3" d="M617.6,1049.6c18.3-4.6,54.6,4.1,72.8,10.5c19.1,7.7,51.5,9.2,61.9-12.6c11.3,18.3,18.3,40,11.7,61.3
						c-4.5,14.7-5.5,15-17.9,6.8C706.7,1089.2,661.4,1067.5,617.6,1049.6z"/>
					<path class="st3" d="M488.9,1209c26.8,11.3,64.8,8.4,82.3-16.7c9.7,13.9,19.2,33.3,25.5,49c1.6,3.9-1,4.7-3.4,5.8
						C558.6,1261.9,497.6,1253.8,488.9,1209z"/>
					<g>
						<path class="st1" d="M589.2,1795.6c-5.8-8.7-15.3-22.2-16.9-24.4l8-9.4L589.2,1795.6z"/>
						<path d="M580.2,1762.8l7.8,30c-5.5-8.2-13.1-19-15-21.7L580.2,1762.8 M580.7,1760.7l-8.9,10.4c0,0,12.9,18.2,18.7,27.3
							L580.7,1760.7L580.7,1760.7z"/>
					</g>
					<g>
						<path class="st1" d="M553.4,1719.7c-1.2,2.4-5.2,8.4-5.2,8.4l-4.2-8C544.1,1720.1,546.5,1719,553.4,1719.7z"/>
					</g>
					<g>
						<path class="st1" d="M500.6,1411.6c0,1.1,0,2.2,0,3.4C499.9,1413.9,499.9,1412.8,500.6,1411.6z"/>
						<path d="M500.6,1411.6c-0.7,1.1-0.7,2.2,0,3.4C500.6,1413.9,500.6,1412.8,500.6,1411.6L500.6,1411.6z"/>
					</g>
					<path class="st3" d="M725.6,1718.1c3.9-11.1,11.8-15.3,18.5-17.4c16.4-5.2,33.8-11.2,49.7-17.9c35.1-13,53.5-34,61.7-71.7
						c8.4-29.2,23-69.6,50.2-87.4c8.5-5,21.5-7.3,30.5,0C926.1,1624.8,832.8,1732.8,725.6,1718.1z"/>
					<path class="st3" d="M539.9,1678.5c0,0-1.5,17.7-20.9,23.4c-35.8,10.5-37.5-4.7-37.5-4.7s13-8,27.9-13.1
						C523.7,1679.2,539.9,1678.5,539.9,1678.5z"/>
					<path class="st3" d="M635.5,1687.4c-9,12.1-24.6,22.6-38.3,26.9c-15.8,4.9-29.3,5.8-29.3,5.8
						C584.1,1698.8,611.8,1691.5,635.5,1687.4z"/>
					<path class="st3" d="M527.8,1647.1c-1.1-27.6,6.7-50.6,20.4-75.4c-17.1,13.8-50.9,39.9-62.7,57
						c-38.8,47.5-99.8,114.1-158,107.8c65.7-14.4,115.2-71.4,134.1-133.3c12.9-33.2,52.8-85.5,90.2-71
						C594.7,1548.8,532.3,1645.2,527.8,1647.1z"/>
					<path class="st1" d="M897.4,1328.2c-2.6,25.6,20.9,44.7,45.2,44.8c-3.7-27.3-15.4-51.5-30.3-74.4
						C904,1305.9,898.3,1316.3,897.4,1328.2z"/>
					<path class="st3" d="M623.9,1461.2c-13.9-17.8-21.9-42.8-11.1-63.8c21-52.9,14.4-112.5-6.4-164.4
						c-21.4-56.6-73-92.2-101.1-144.6c-22.5-37.8,18-52.7,49.7-45.8c-21.3,33.5,15.7,62.1,36.8,84.6c20,22.5,43.8,41.4,63.1,64.5
						c24.2,26.4,45.1,61.1,85.1,59.5c44.6,0.4,82.9-40,62.4-85c36.8,32.7,75.3,75.1,101.3,116.9c-2.1,3.3-37.9,24.3-21.1,65.8
						c18.6,46.2,61.7,35.4,61.7,35.4C958.8,1529.5,696.2,1548.7,623.9,1461.2z"/>
				</g>
			</g>
			<g>
				<g>
					<path d="M4512,1172.7h-8.1c-0.7,0-1.1-0.1-1.4-0.4c-0.3-0.3-0.4-0.8-0.4-1.4v-33.9c0-0.7,0.1-1.1,0.4-1.4
						c0.3-0.3,0.8-0.4,1.4-0.4h17.4c3.9,0,6.6,0.8,8.1,2.4c1.5,1.6,2.2,3.7,2.2,6.3v2.4c0,1.5-0.2,2.7-0.7,3.7
						c-0.4,1-1.2,1.8-2.3,2.2c1.9,0.2,3.4,1,4.6,2.3c1.2,1.3,1.8,3.1,1.8,5.3v11.1c0,0.7-0.1,1.1-0.4,1.4c-0.3,0.3-0.8,0.4-1.4,0.4
						h-8.1c-0.7,0-1.1-0.1-1.4-0.4c-0.3-0.3-0.4-0.8-0.4-1.4v-8c0-0.8-0.1-1.3-0.4-1.7c-0.3-0.4-0.8-0.5-1.5-0.5h-7.3v10.3
						c0,0.7-0.1,1.1-0.4,1.4C4513.1,1172.5,4512.7,1172.7,4512,1172.7z M4513.9,1144.4v6.7h3.9c0.9,0,1.5-0.2,1.8-0.7
						c0.3-0.5,0.5-1.1,0.5-1.8v-1.8c0-0.7-0.2-1.3-0.5-1.8c-0.3-0.5-0.9-0.7-1.8-0.7H4513.9z"/>
				</g>
				<path d="M4517.7,1201.3c-6.2,0-12.3-1.2-18-3.6c-5.5-2.3-10.5-5.7-14.7-9.9c-4.3-4.3-7.6-9.2-9.9-14.7c-2.4-5.7-3.6-11.8-3.6-18
					c0-6.2,1.2-12.3,3.6-18c2.3-5.5,5.7-10.5,9.9-14.7c4.3-4.3,9.2-7.6,14.7-9.9c5.7-2.4,11.8-3.6,18-3.6s12.3,1.2,18,3.6
					c5.5,2.3,10.5,5.7,14.7,9.9s7.6,9.2,9.9,14.7c2.4,5.7,3.6,11.8,3.6,18c0,6.2-1.2,12.3-3.6,18c-2.3,5.5-5.7,10.5-9.9,14.7
					c-4.3,4.3-9.2,7.6-14.7,9.9C4530,1200.1,4523.9,1201.3,4517.7,1201.3z M4517.7,1121.4c-9,0-17.4,3.5-23.8,9.8
					c-6.4,6.4-9.8,14.8-9.8,23.8c0,9,3.5,17.4,9.8,23.8s14.8,9.8,23.8,9.8s17.4-3.5,23.8-9.8c6.4-6.4,9.8-14.8,9.8-23.8
					c0-9-3.5-17.4-9.8-23.8C4535.1,1124.9,4526.6,1121.4,4517.7,1121.4z"/>
			</g>
			<g>
				<path d="M1268.9,1718.9h-121c-9.9,0-17.1-2.2-21.5-6.6c-4.4-4.4-6.6-11.6-6.6-21.5V1185c0-9.9,2.2-17,6.6-21.5
					c4.4-4.4,11.6-6.6,21.5-6.6h121c9.9,0,17,2.2,21.5,6.6c4.4,4.4,6.6,11.6,6.6,21.5v179.5h31.2l80.4-181.9
					c3.6-9.4,8.6-16,14.8-19.9c6.2-3.9,14.3-5.9,24.2-5.9h120.2c8.8,0,14.8,2.2,18,6.6c3.1,4.4,2.9,10.8-0.8,19.1l-79.6,181.9
					c29.1,1.6,52.4,11.8,69.9,30.8c17.4,19,26.1,44.1,26.1,75.3v220.1c0,9.9-2.2,17.1-6.6,21.5c-4.4,4.4-11.6,6.6-21.5,6.6h-120.2
					c-9.9,0-17.1-2.2-21.5-6.6c-4.4-4.4-6.6-11.6-6.6-21.5v-152.2c0-8.3-2.1-14.8-6.2-19.5c-4.2-4.7-10.4-7-18.7-7h-103v178.8
					c0,9.9-2.2,17.1-6.6,21.5C1285.9,1716.7,1278.7,1718.9,1268.9,1718.9z"/>
				<path d="M1850.4,1718.9h-120.2c-9.9,0-17.1-2.2-21.5-6.6c-4.4-4.4-6.6-11.6-6.6-21.5V1185c0-9.9,2.2-17,6.6-21.5
					c4.4-4.4,11.6-6.6,21.5-6.6h259.9c58.3,0,98.5,12.1,120.6,36.3c22.1,24.2,33.2,55.6,33.2,94.1v35.9c0,21.9-3.3,40.5-9.8,55.8
					c-6.5,15.4-17.8,26.4-34,33.2c28.1,3.1,50.9,14.6,68.3,34.3c17.4,19.8,26.1,46.1,26.1,78.8v165.5c0,9.9-2.2,17.1-6.6,21.5
					c-4.4,4.4-11.6,6.6-21.5,6.6h-121c-9.9,0-17.1-2.2-21.5-6.6c-4.4-4.4-6.6-11.6-6.6-21.5v-119.4c0-11.4-2.2-19.9-6.6-25.4
					c-4.4-5.5-12.1-8.2-23-8.2h-109.3v153c0,9.9-2.2,17.1-6.6,21.5C1867.4,1716.7,1860.2,1718.9,1850.4,1718.9z M1878.5,1297.4v99.9
					h58.5c13.5,0,22.6-3.5,27.3-10.5s7-15.7,7-26.1v-26.5c0-10.4-2.3-19.1-7-26.1s-13.8-10.5-27.3-10.5H1878.5z"/>
				<path d="M2441.3,1690.8c0,9.9-2.2,17.1-6.6,21.5c-4.4,4.4-11.6,6.6-21.5,6.6h-114.7c-9.9,0-17.1-2.2-21.5-6.6
					c-4.4-4.4-6.6-11.6-6.6-21.5v-206.1c0-15.6,2.5-33.6,7.4-53.9c4.9-20.3,12.6-44,23-71l67.9-177.2c3.1-8.8,7.9-15.3,14.4-19.5
					c6.5-4.2,15-6.2,25.4-6.2h210c9.9,0,18.1,2.1,24.6,6.2c6.5,4.2,11.3,10.7,14.4,19.5l67.9,177.2c10.4,27.1,18.1,50.7,23,71
					c4.9,20.3,7.4,38.2,7.4,53.9v206.1c0,9.9-2.2,17.1-6.6,21.5c-4.4,4.4-11.6,6.6-21.5,6.6h-117.9c-10.4,0-18.1-2.2-23-6.6
					c-5-4.4-7.4-11.6-7.4-21.5v-109.3h-138.2V1690.8z M2485.8,1320.8l-36.7,118.6h122.6l-36.7-118.6c-2.1-4.7-4.3-8.1-6.6-10.1
					c-2.3-2.1-5.1-3.1-8.2-3.1h-19.5c-3.1,0-5.9,1-8.2,3.1C2490,1312.7,2487.8,1316.1,2485.8,1320.8z"/>
				<path d="M3000.9,1718.9h-121c-9.9,0-17.1-2.2-21.5-6.6c-4.4-4.4-6.6-11.6-6.6-21.5V1185c0-9.9,2.2-17,6.6-21.5
					c4.4-4.4,11.6-6.6,21.5-6.6h121c9.9,0,17,2.2,21.5,6.6c4.4,4.4,6.6,11.6,6.6,21.5v179.5h31.2l80.4-181.9
					c3.6-9.4,8.6-16,14.8-19.9c6.2-3.9,14.3-5.9,24.2-5.9h120.2c8.8,0,14.8,2.2,18,6.6c3.1,4.4,2.9,10.8-0.8,19.1l-79.6,181.9
					c29.1,1.6,52.4,11.8,69.9,30.8c17.4,19,26.1,44.1,26.1,75.3v220.1c0,9.9-2.2,17.1-6.6,21.5c-4.4,4.4-11.6,6.6-21.5,6.6h-120.2
					c-9.9,0-17.1-2.2-21.5-6.6c-4.4-4.4-6.6-11.6-6.6-21.5v-152.2c0-8.3-2.1-14.8-6.2-19.5c-4.2-4.7-10.4-7-18.7-7h-103v178.8
					c0,9.9-2.2,17.1-6.6,21.5C3018,1716.7,3010.8,1718.9,3000.9,1718.9z"/>
				<path d="M3824.4,1718.9h-362.2c-9.9,0-17.1-2.2-21.5-6.6c-4.4-4.4-6.6-11.6-6.6-21.5V1185c0-9.9,2.2-17,6.6-21.5
					c4.4-4.4,11.6-6.6,21.5-6.6h362.2c9.9,0,17,2.2,21.5,6.6c4.4,4.4,6.6,11.6,6.6,21.5v91.3c0,9.9-2.2,17.1-6.6,21.5
					c-4.4,4.4-11.6,6.6-21.5,6.6H3609v60.1h152.2c9.9,0,17,2.2,21.5,6.6c4.4,4.4,6.6,11.6,6.6,21.5v83.5c0,9.9-2.2,17.1-6.6,21.5
					c-4.4,4.4-11.6,6.6-21.5,6.6H3609v67.1h215.4c9.9,0,17,2.2,21.5,6.6c4.4,4.4,6.6,11.6,6.6,21.5v91.3c0,9.9-2.2,17.1-6.6,21.5
					C3841.5,1716.7,3834.3,1718.9,3824.4,1718.9z"/>
				<path d="M4089.8,1718.9h-117.1c-9.9,0-17.1-2.2-21.5-6.6c-4.4-4.4-6.6-11.6-6.6-21.5V1185c0-9.9,2.2-17,6.6-21.5
					c4.4-4.4,11.6-6.6,21.5-6.6h81.2c9.9,0,18.3,1.6,25.4,4.7c7,3.1,13.9,8.6,20.7,16.4l151.4,173.3V1185c0-9.9,2.2-17,6.6-21.5
					c4.4-4.4,11.6-6.6,21.5-6.6h117.1c9.9,0,17,2.2,21.5,6.6c4.4,4.4,6.6,11.6,6.6,21.5v505.8c0,9.9-2.2,17.1-6.6,21.5
					c-4.4,4.4-11.6,6.6-21.5,6.6h-117.1c-9.9,0-17.1-2.2-21.5-6.6c-4.4-4.4-6.6-11.6-6.6-21.5v-96l-133.5-161.6v257.6
					c0,9.9-2.2,17.1-6.6,21.5C4106.8,1716.7,4099.7,1718.9,4089.8,1718.9z"/>
			</g>
		</g>
		<path class="st2" d="M944.3,1384.2l0.2,2.4c0,0-56.7,10.6-67.7-51.4c-3.1-17.1,9.5-43,27-52.1c3,4.6,1.7,2,4.3,6.8
			c-6.7,7-24.7,18.4-21.7,43.4C892.8,1387.2,944.3,1384.2,944.3,1384.2z"/>
		<circle class="st2" cx="702.5" cy="1430.5" r="66.1"/>
		<g>
			<path class="st1" d="M552.2,1413.1c-0.6,33.7-50.7,33.7-51.2,0C501.5,1379.4,551.6,1379.4,552.2,1413.1z"/>
		</g>
		<g>
			<circle class="st1" cx="702.5" cy="1433.3" r="43.9"/>
		</g>
		<path class="st3" d="M531.2,1389.7c2.7,29.8-28.3,29-28.3,29C499.7,1401,512,1386.9,531.2,1389.7z"/>
		<path d="M702.5,1390.3c23.7,0,43,19.2,43,43c0,23.7-19.2,43-43,43s-43-19.2-43-43C659.5,1409.6,678.8,1390.3,702.5,1390.3
			 M702.5,1375.5c-31.9,0-57.8,25.9-57.8,57.8s25.9,57.8,57.8,57.8s57.8-25.9,57.8-57.8S734.4,1375.5,702.5,1375.5L702.5,1375.5z"/>
	</g>
	<g>
		<path d="M526.6,1389.4c11.9,0,23.8,7.9,24.1,23.7c-0.3,15.8-12.2,23.7-24.1,23.7c-11.9,0-23.8-7.9-24.1-23.7
			C502.8,1397.3,514.7,1389.4,526.6,1389.4 M526.6,1376.5v11.4V1376.5L526.6,1376.5L526.6,1376.5c-18.1,0-36.6,12.5-37,36.5l0,0.2
			l0,0.2c0.4,23.9,18.9,36.5,37,36.5c18.1,0,36.6-12.5,37-36.5l0-0.2l0-0.2C563.2,1389,544.7,1376.5,526.6,1376.5L526.6,1376.5z"/>
	</g>
	<path class="st3" d="M705,1390.4c20.5,3.1,23.9,25.7,3.1,41.4c-10.8,8.2-30.2,10-39.5,1.4C649.3,1415.3,684.1,1387.2,705,1390.4z"
		/>
	<path class="st3" d="M912.3,1298.7c10.6,14.9,19.4,35.5,19.4,35.5c-5.3,7-12.6,10.2-19,11.5c-7.8,1.6-15.2-4.2-15.5-12.1
		c-0.2-4.1,0.2-9,1.9-14.5C902.9,1305.9,912.3,1298.7,912.3,1298.7z"/>
</g>
</svg>
