<?xml version="1.0" encoding="utf-8"?>
<!-- Generator: Adobe Illustrator 26.3.1, SVG Export Plug-In . SVG Version: 6.00 Build 0)  -->
<svg version="1.1" id="Layer_1" xmlns="http://www.w3.org/2000/svg" xmlns:xlink="http://www.w3.org/1999/xlink" x="0px" y="0px"
	 viewBox="0 0 5000 2880" style="enable-background:new 0 0 5000 2880;" xml:space="preserve">
<style type="text/css">
	.st0{fill:#FFFFFF;}
	.st1{fill:#9146FF;}
	.st2{fill:#E7D6FF;}
	.st3{fill:#D7B8F3;}
	.st4{font-family:'Bungee-Regular';}
	.st5{font-size:54.7971px;}
</style>
<g>
	<g>
		<g>
			<path class="st0" d="M4472,1914.9H462.6c-20,0-36.1-16.2-36.1-36.1v-849.8c0-28.7,23.3-52,52-52H4472c259,0,469,210,469,469v0
				C4941,1704.9,4731,1914.9,4472,1914.9z"/>
			<g>
				<g>
					<g>
						<path class="st0" d="M944.3,1390.5c-15.7,148.7-20.8,317.7-207.1,367.4c-60.8,34.3-226.5,220.5-287.8,121.7
							c-76.5,29.7-50.5-73.9-33.3-112.8c-98.8-3.9-58.7,188.5-131.7,113.3c-27.1-31.2-13.4-64.7-10-98c-46,11.2-142.7,1.4-127.7-62
							c205.1,1.3,94.5-174.4,255.7-243c1.5-25.4-10.1-85.6,53.2-127.1c33-21.7,64.7,107.5,47.4-60c-61.1-5.6-155.9-5.3-144.1-95.8
							c22.4-254.3,3.3-202,300-222.3c66.2,21.2,89.1,81.8,90.4,140.2C837.9,1184.7,929,1277,944.3,1390.5z"/>
						<path class="st0" d="M658.8,971.8c66.2,21.2,89.1,81.8,90.4,140.2c88.7,72.7,179.9,164.9,195.2,278.5
							c-15.7,148.7-20.8,317.7-207.1,367.4c-48.3,27.2-162.8,150.3-238.5,150.3c-19.6,0-36.7-8.3-49.3-28.6
							c-9.4,3.6-17.2,5.3-23.7,5.3c-46.5,0-24.6-84-9.6-118.1c-1,0-2-0.1-3-0.1c-79.4,0-65.6,130.8-100.9,130.8
							c-7,0-15.9-5.1-27.9-17.4c-27.1-31.2-13.4-64.7-10-98c-10.4,2.5-23.5,4-37.2,4c-46.9,0-102.1-17-90.5-66c0.8,0,1.5,0,2.3,0
							c202,0,92.8-174.7,253.4-243c1.5-25.4-10.1-85.6,53.2-127.1c2.7-1.8,5.4-2.5,8-2.5c16.6,0,31.8,29.8,39.3,29.8
							c6,0,7.1-19,0-87.3c-61.1-5.6-155.9-5.3-144.1-95.8C381.2,939.9,362.1,992.1,658.8,971.8 M658.8,885.7c-2,0-3.9,0.1-5.9,0.2
							c-48.7,3.3-89.4,4.7-122.1,5.7c-41.3,1.4-73.9,2.4-101.4,6.7c-26.8,4.2-66.1,13.7-97.5,46.9c-28.6,30.3-38.3,67.6-43.7,96.7
							c-5.3,29.1-8.2,63.3-12.3,110.7c-0.9,10.3-1.8,21-2.8,32.3c-7.1,59,13.1,98.3,31.4,120.9c11.2,13.8,25,25.6,41.1,35.2
							c-8,13-14.4,26.9-19.2,41.8c-4.9,15.3-7.5,30-8.9,43c-5.3,3.7-10.4,7.6-15.3,11.7c-17.6,14.6-33.1,31.8-45.9,51
							c-22,32.8-33.1,66.4-42,93.4c-5.8,17.6-12.4,37.5-18.3,43.4c-3.2,3.2-16.7,8.5-47.2,8.5c-0.6,0-1.2,0-1.7,0
							c-0.2,0-0.4,0-0.6,0c-39.9,0-74.6,27.4-83.8,66.3c-9.6,40.5-1.3,80,23.4,111.1c18.6,23.5,45,40.6,78.5,50.6
							c6.5,2,13.2,3.6,20.2,5c5.2,25.8,16.7,49.1,34.5,69.5c1,1.2,2.1,2.4,3.2,3.5c11,11.3,21.6,20,32.5,26.7
							c18.2,11.2,37.4,16.8,57.1,16.8c23.4,0,46.1-8.3,64.2-23.5c13.2,6.3,27.9,9.9,43.4,10.7c3.1,2.1,6.4,4.1,9.7,5.9
							c20.9,11.6,44.2,17.5,69.1,17.5c41,0,83.9-15.5,134.9-48.9c35.1-22.9,68.2-50.4,97.4-74.6c13.6-11.3,31.2-25.8,41.9-33.6
							c96.3-29.2,165.4-89.3,205.3-178.6c33.1-74.1,41.5-158,48.9-232c0.9-9.4,1.8-18.2,2.8-27.1c0.7-6.8,0.6-13.7-0.3-20.5
							c-4.8-35.7-15.5-71.5-31.9-106.3c-14.1-29.9-32.7-60-55.4-89.4c-29.2-37.8-64.8-74.7-110.9-114.5
							c-4.9-30.4-14.4-58.7-28.3-83.2c-26.1-46.3-67-79.4-118.3-95.8C676.5,887.1,667.7,885.7,658.8,885.7L658.8,885.7z"/>
					</g>
				</g>
				<g>
					<path class="st0" d="M816.3,1197.3c42.8,55.9,87.5,117.7,93.3,190c0.6,22.7-4.3,44.3-11.9,65.5c-3.9,11-4.8,22.5-3.1,33.9
						c13.7,106.3-54.2,215.9-150.5,258c-14.4,6.3-31.4,8.2-43.4,19c-43.8,38.8-84,82.4-134.7,112.4c-34.1,17.9-105.6,54.1-120.4-1.3
						c-18.3,15.6-45.7,5.6-47.4-18.9c-1.6-33.6,10.1-66.5,18.8-97.5c-1.5-1.5-3.5,0.5-5,1.2c-15.4,8-29.7,17.6-42,30
						c-18.8,18.9-30.2,41-28.3,68.5c2.7,20.8-11.3,46.9-34.6,32.4c-32.1-23.7-36.4-66.5-23.2-101.7c4.3-8.2-1.4-14.4-9.8-10.3
						c-40,13.1-89.6,2.9-109.9-37c-4.3-8-5.5-16.5,0.1-24.6c25.6-32.2,66,28.2,107.4-34.7c31.2-50.9,31.9-115.1,71.3-161.8
						c0.7-1,1.5-2,2.2-3c18-16.2,34.8-34.2,57.9-43.5c8.8-4.6,0.7-10.2-4.6-13.5c-29.3-21-34.7-62.2-11.8-90.1
						c22.6-27.5,64.3-30.2,90.4-6c4.3,3.7,12,12.5,16.1,3.9c5.5-7.6,12.9-94.6-3.8-86.5c-59.7,13.5-139.2-18.7-127-90.8
						c2.5-18.8,8.3-36.9,11-55.7c2.9-20.6,3.2-41.1-1.4-61.5c-4.8-18.5-3.6-36.2,4.6-53.7c25.7-37.1,53.6-38.6,95.6-36.3
						c58.7,6.6,112.7-39.7,170.5-15.1c56.9,20.8,86.8,76.9,82.3,135.7c0,5.7,10.3,11.1,14.5,14.9c7.5,7.2,15.6,13.6,23,20.9
						c13,12.9,26.3,25.6,38.4,39.5c3.6,4.3,7.1,8.7,11.1,12.7C813.1,1194.2,814.5,1196,816.3,1197.3z M437.1,1604.5
						c-7.1,24.3-15.8,49.3-10.8,75.7c0.5,2.9-0.9,3.4-3.2,3.9c-57.8,15.2-118.4,74-124.8,134.7c-1.7,15.7,3,48.2,15.2,57.3
						c-3.1-72.1,49.6-122.4,116.4-140.3c10.7-3.3,11-2.3,16.5,7.8c1.9,3.7,5.1,6.9,2.1,11.1c-17.6,32.2-25.4,68.9-27.4,105.4
						c-0.1,2.6-0.6,5.6,2.9,6.5c5,1.3,5.2-4.3,6.9-7.3c1.6-6.2,40.4-77.7,46.5-64.8c9.5,14.7,20,28.6,31.4,41.9
						c1.1,1.3,2.6,2.2,4.5,1c3.2-2.3,0.3-6.4-0.3-9.4c-5.9-18.3-10.4-36.8-13.8-55.7c8.2-25.7,73.3-37.4,98-35.5c3,0,4.2,1,3,4.1
						c-15.9,49.7-49.6,88.8-90.2,120.3c-9.7,7.5-19.9,14.1-30.5,20.2c-2.1,1.2-3.9,2.7-2.8,5.4c2.6,5.9,14-0.9,18.9-0.7
						c85.5-17.5,136.9-89.6,198.9-143.8c2.3-1.9,4.5-3.8,7.6-4.4c39.4-8.4,72.7-27.7,100.7-56.4c57.9-59.5,83.2-145.9,69.8-226
						c18-26.6,17.9-60.8,10-90.7c-30.5-103.3-110.8-184.3-194.7-247.9c-3.4-2.4-4.5-4.1-1.5-7.7c13.3-20.7,11.6-47.4,1.6-69.1
						c-39.8-84.1-108.6-56.5-178.1-32.3c-32.5,12.3-63.6-6.5-95,10.1c-11.7,5.6-18.9,14.7-19.6,28c-1.6,12.8,8.3,22.8,8.1,35.2
						c0.2,25.3-2.7,50.2-10.2,74.5c-12.4,36.4-4.7,84.8,36.9,96.8c26.8,8.7,53.6,8,79.6-3.7c2.9-1.3,4.1-1.3,5.1,2.1
						c13.2,46.7,16.3,93.4-2,139.3c-8.1,20.4-7.4,39.4,2.1,58.7c20,45.2-138.2,4.9-191.5,137.7c-27,66.6-38.6,173.5-138.8,142
						c-2.4-0.9-4.8-1.7-6.6,0.8c-1.8,2.5-0.3,4.6,1.3,6.6c16.6,20.4,40.6,27.8,66,25.1C334.5,1748.4,375.7,1658.9,437.1,1604.5z
						 M472.7,1412.4c-0.1-49.5-76-49.3-75.7,0.4C398.2,1462.2,471.9,1462.1,472.7,1412.4z"/>
					<g>
						<path d="M909.4,1357.6c-0.1-0.3-0.1-0.5-0.2-0.8c-26.3-89-88.7-171.3-190.5-251.3c3.3-9.6,5-19.9,5-30.6
							c0-15.7-3.6-31.8-10.5-46.6c0-0.1-0.1-0.1-0.1-0.1c-22.8-48.3-58.2-72.7-105.1-72.7c-32.7,0-66.5,11.8-99.1,23.2
							c-2.7,0.9-5.4,1.9-8.2,2.8c-0.3,0.1-0.5,0.2-0.7,0.3c-4.9,1.9-10.3,2.7-17.5,2.7c-4.9,0-10.1-0.4-15.6-0.8
							c-6.2-0.4-12.5-0.9-19.3-0.9c-11,0-27.7,1.1-45.3,10.2c-21,10.3-33.4,28.2-34.8,50.5c-1.4,13.4,3,24.3,5.9,31.5
							c0.8,2,1.9,4.8,2.1,5.9v0.4c0.2,24.1-2.7,45.6-8.8,65.6c-10.5,31-8.8,64.8,4.7,90.5c10.8,20.6,28.2,35,50.5,41.5
							c14.7,4.7,29.5,7.1,43.9,7.1c9.4,0,18.8-1,28-3c6.9,36.4,4.6,67.6-7,96.7c-9,22.6-9.9,45.1-2.8,67c-5.4,1.5-11.9,3-17.3,4.3
							c-23.8,5.6-56.3,13.2-87.4,30.8c-37.7,21.4-65.3,53.1-81.8,94.2c-5.1,12.6-9.6,26.3-14,39.6c-8.1,24.7-16.6,50.2-28.3,68
							c-10.6,15.9-21.8,22.7-37.4,22.7c-7.1,0-15.3-1.4-24.3-4.2c-2.4-0.9-6.9-2.4-12.5-2.4c-10.2,0-19.6,4.8-25.6,13.2
							c-6.9,9.5-10,25.1,2,40.2c0.1,0.1,0.1,0.2,0.2,0.3c18.8,23.2,46.4,35.9,77.8,35.9c4.2,0,8.4-0.2,12.7-0.7c0.3,0,0.6-0.1,1-0.1
							c10.2-1.4,20.2-3.7,29.9-6.9c-4.2,11.5-7,23-8.2,34.4c0,0.3-0.1,0.5-0.1,0.8c-1.9,25.3,3.2,48.8,15.1,69.8
							c8.1,15.8,21.8,17.5,27.3,17.5c2.3,0,4.7-0.3,7-0.8c13-3.1,21.9-15,21.4-28.3c-1.2-26.9,7.2-50.7,25-70.8
							c11.4-12.8,26.4-23.7,43.8-31.7c-9.4,25.7-15,54.6-16.7,86.1c0,0.1,0,0.1,0,0.2l0,0.4c-0.1,2.5-0.4,7.7,1.5,13.7
							c3.3,10.2,11.5,17.9,22.1,20.7c0.2,0.1,0.5,0.1,0.7,0.2c2.6,0.6,5.2,0.9,7.7,0.9c8.9,0,17.2-3.7,23.1-10.2
							c-0.1,4.4,0.8,8.8,2.3,12.7c0.2,0.4,0.4,0.9,0.6,1.3c5.2,11.3,16.6,18.4,29.7,18.4c6.3,0,11.8-1.5,15.9-2.6
							c0.5-0.1,1.2-0.3,1.6-0.4c0.8-0.1,1.7-0.2,2.5-0.4c72.7-14.9,121.6-63,168.8-109.5c14.2-14,27.6-27.2,41.7-39.6
							c42.3-9.8,79.6-31.1,111.1-63.3c31.3-32.1,54.9-72.4,68.4-116.6c12.2-40,15.8-82.3,10.5-123.1
							C916.7,1432.5,919.6,1396.2,909.4,1357.6z M465.6,1857.2c-1.6,0.9-3.1,1.9-4.5,2.9c3.4-6.4,8.1-14.6,12.8-22.4
							c2.5,3.2,5,6.4,7.6,9.6C476.5,1850.7,471.2,1853.9,465.6,1857.2z M533.9,1801.1c-1.9-7.1-3.6-14.3-5.1-21.6
							c4-2.4,11-5.7,22.2-8.9c2.1-0.6,4.2-1.1,6.2-1.6C550.7,1780.1,542.9,1790.8,533.9,1801.1z"/>
					</g>
					<g>
						<path class="st1" d="M551,1592c0,0-1.9,4.7-2.9,7.1c-27.8,72.2-110.2,70.9-110.2,70.9s-1.4-3-1.7-13.4
							c-0.2-5.1,0.7-46.4,27.3-84.1c0.5-0.7,0-1.2,0.5-1.6c7.6-9.4,8.3-26.9-5.2-31c-8.5-3.5-16.8-1.3-24.6,1.9
							c-68.3,23.9-63.6,104.4-105.7,152.4c-26.1,29.5-87.8,75.8-126.5,47c159.2,2.3,79.9-230.9,255.1-250.5
							c20.8-3.7,47.9,5.2,62.8-11.1c1.4-2.1,2.4-2.4,4.2-0.4c80.7,79.8,252.2,72.7,333.5,3.1c12.8-10.9,7.1,45.5,4.9,50.2
							c-9.4-7.7-18.5-4.4-27.4,0.9c-28.5,18.6-35.9,54.7-44.6,85.2c-8.6,39.5-40.3,67.1-77,80.7c-16.6,7.1-33.9,12-51.1,17.5
							c-7,2.2-14.1,5.4-14.4,14.5c-102.7-11.9-160.8,13.4-214.1,103.1c3.6-35.1,19.4-73.6,43-100.2c34.4-38.9,97.9-39.4,112.7-36.8
							c135.7,24.5,153.3-93.3,153.3-93.3s-27.2,45.7-75.2,72.5c-26.8,14.9-53.6,7.6-53.6,7.6c34.2-32.4,29-82.5,28.2-79.3
							c-17.3,64.9-46.6,78-46.6,78c-110.7-4.5-123.7,39.3-129.8,38.9c-81,1.4-152.9,65.9-156,140.2c-22.4-61.9,34.4-127.4,78-153
							c33.5-19.6,50.4-17.3,61.1-19.6C573,1662.1,551,1592,551,1592z"/>
					</g>
					<path class="st2" d="M727.5,1156.8c21.4,47-21.9,89.7-68.6,89.2c-41.9,1.7-67.5-37.3-92.9-64.9c-20.3-24.2-45.1-43.9-66-67.5
						c-22.1-23.5-62.5-55.5-40.2-90.5C557.9,1039.8,653.1,1090.9,727.5,1156.8z"/>
					<path class="st2" d="M533.2,1032.6c-14.3-5-28.6-10-42.8-14.9c59.6-14.8,142.6-56.9,182,14c-10.9,22.8-48.1,20.8-68.1,12.8
						C585.4,1037.8,552.3,1027.7,533.2,1032.6z"/>
					<path class="st2" d="M396.8,1203.6c-4.3-14.1-3.1-28.4,0.7-42.2c7.6-24.7,9.7-50.5,12.9-75.6c22.7,34.6,52.5,63.7,73.8,99.2
						C465.8,1211.3,424.9,1215.4,396.8,1203.6z"/>
					<g>
						<path class="st1" d="M509.2,1872.9c71.2-56.6,90.7-101.6,99.2-130.7l0-0.1c0.7-2.3,1.1-3.9,3.8-3.9c0.1,0,0.2,0,0.3,0
							c8.4,0.3,16.9,1,25.1,1.7c11.8,0.9,23.9,1.9,35.9,1.9c2.2,0,4.3,0,6.3-0.1c-6.9,7-13.8,14.2-21,21.8
							C617,1807.1,569.7,1856.5,509.2,1872.9z"/>
						<path d="M612.2,1738.6c0.1,0,0.2,0,0.3,0c8.4,0.3,16.9,1,25.1,1.7c11.8,0.9,24,1.9,35.9,1.9c1.7,0,3.4,0,5.1-0.1
							c-6.6,6.7-13.2,13.6-20.2,20.9c-21.7,22.7-44.1,46.2-69,66.1c-26.6,21.3-52.1,35.2-78,42.6c23.5-18.9,42.3-37,57.2-55.3
							c19.5-23.9,32.6-48.1,40.2-74.1l0-0.1C609.5,1739.8,610,1738.6,612.2,1738.6 M612.2,1737.6c-3.1,0-3.7,2.1-4.3,4.4
							c-16.2,55.4-57,97.3-100.9,131.9c72.4-18.4,124.7-82.9,174.1-132.9c-2.5,0.1-5,0.1-7.6,0.1c-20.2,0-40.5-2.8-61-3.6
							C612.4,1737.6,612.3,1737.6,612.2,1737.6L612.2,1737.6z"/>
					</g>
					<path class="st3" d="M530.1,1031.5c19.2-4.8,57.1,4.3,76.2,10.9c20,8,53.8,9.6,64.7-13.2c11.9,19.1,19.1,41.8,12.3,64.2
						c-4.7,15.4-5.7,15.7-18.7,7.1C623.4,1072.9,575.9,1050.2,530.1,1031.5z"/>
					<path class="st3" d="M395.4,1198.3c28,11.8,67.8,8.8,86.1-17.5c10.2,14.6,20,34.9,26.6,51.3c1.6,4.1-1.1,4.9-3.6,6.1
						C468.4,1253.6,404.5,1245.2,395.4,1198.3z"/>
					<g>
						<path class="st1" d="M500.5,1812.2c-6.1-9.1-16.1-23.4-17.7-25.7l8.4-9.9L500.5,1812.2z"/>
						<path d="M491,1777.7l8.3,31.8c-5.8-8.7-13.9-20.1-15.9-22.9L491,1777.7 M491.5,1775.6l-9.3,10.9c0,0,13.5,19.1,19.6,28.6
							L491.5,1775.6L491.5,1775.6z"/>
					</g>
					<g>
						<path class="st1" d="M463,1732.7c-1.3,2.6-5.4,8.8-5.4,8.8l-4.4-8.4C453.2,1733.1,455.7,1732,463,1732.7z"/>
					</g>
					<g>
						<path class="st1" d="M407.7,1410.3c0,1.2,0,2.3,0,3.5C407,1412.7,407,1411.5,407.7,1410.3z"/>
						<path d="M407.7,1410.3c-0.7,1.2-0.7,2.3,0,3.5C407.7,1412.7,407.7,1411.5,407.7,1410.3L407.7,1410.3z"/>
					</g>
					<path class="st3" d="M643.1,1731.1c4.1-11.6,12.4-16,19.4-18.2c17.2-5.5,35.4-11.7,52-18.8c36.8-13.6,56-35.6,64.6-75
						c8.7-30.5,24.1-72.9,52.6-91.5c8.9-5.2,22.5-7.7,31.9,0C853,1633.3,755.3,1746.4,643.1,1731.1z"/>
					<path class="st3" d="M448.8,1689.6c0,0-1.5,18.5-21.9,24.5c-37.4,11-39.2-4.9-39.2-4.9s13.6-8.3,29.2-13.7
						C431.8,1690.3,448.8,1689.6,448.8,1689.6z"/>
					<path class="st3" d="M548.9,1698.9c-9.4,12.7-25.7,23.6-40.1,28.1c-16.5,5.1-30.7,6.1-30.7,6.1
						C495,1710.8,524,1703.2,548.9,1698.9z"/>
					<path class="st3" d="M436.1,1656.7c-1.1-28.9,7.1-53,21.4-78.9c-17.9,14.4-53.2,41.7-65.6,59.6
						c-40.6,49.7-104.5,119.4-165.4,112.8c68.7-15.1,120.6-74.7,140.3-139.5c13.4-34.7,55.3-89.5,94.4-74.3
						C506.1,1553.9,440.8,1654.7,436.1,1656.7z"/>
					<path class="st1" d="M822.9,1323c-2.7,26.8,21.9,46.7,47.4,46.9c-3.9-28.6-16.1-53.9-31.7-77.8
						C829.8,1299.7,823.9,1310.6,822.9,1323z"/>
					<path class="st3" d="M536.7,1462.1c-14.5-18.6-22.9-44.7-11.6-66.8c22-55.4,15.1-117.7-6.7-172.1
						c-22.4-59.2-76.4-96.5-105.8-151.3c-23.6-39.6,18.9-55.2,52-48c-22.3,35,16.5,65,38.5,88.5c20.9,23.6,45.8,43.3,66,67.5
						c25.3,27.6,47.2,64,89.1,62.3c46.6,0.4,86.7-41.9,65.3-88.9c38.5,34.2,78.8,78.6,106,122.4c-2.2,3.5-39.6,25.4-22.1,68.9
						c19.5,48.4,64.5,37,64.5,37C887.2,1533.7,612.4,1553.8,536.7,1462.1z"/>
				</g>
			</g>
			<g>
				<text transform="matrix(1 0 0 1 4591.3203 1160.2424)" class="st4 st5">R</text>
				<path d="M4611.4,1190.2c-6.5,0-12.9-1.3-18.9-3.8c-5.8-2.4-11-5.9-15.4-10.4c-4.4-4.4-7.9-9.6-10.4-15.4
					c-2.5-6-3.8-12.3-3.8-18.9s1.3-12.9,3.8-18.9c2.4-5.8,5.9-11,10.4-15.4c4.4-4.4,9.6-7.9,15.4-10.4c6-2.5,12.3-3.8,18.9-3.8
					c6.5,0,12.9,1.3,18.9,3.8c5.8,2.4,11,5.9,15.4,10.4c4.4,4.4,7.9,9.6,10.4,15.4c2.5,6,3.8,12.3,3.8,18.9s-1.3,12.9-3.8,18.9
					c-2.4,5.8-5.9,11-10.4,15.4c-4.4,4.4-9.6,7.9-15.4,10.4C4624.3,1189,4618,1190.2,4611.4,1190.2z M4611.4,1106.6
					c-9.4,0-18.2,3.7-24.9,10.3c-6.6,6.6-10.3,15.5-10.3,24.9c0,9.4,3.7,18.2,10.3,24.9c6.6,6.6,15.5,10.3,24.9,10.3
					c9.4,0,18.2-3.7,24.9-10.3c6.6-6.6,10.3-15.5,10.3-24.9c0-9.4-3.7-18.2-10.3-24.9C4629.7,1110.2,4620.8,1106.6,4611.4,1106.6z"
					/>
			</g>
			<g>
				<path d="M1211.6,1731.8H1085c-10.4,0-17.8-2.3-22.5-6.9c-4.6-4.6-6.9-12.1-6.9-22.5v-529.3c0-10.3,2.3-17.8,6.9-22.5
					c4.6-4.6,12.1-6.9,22.5-6.9h126.6c10.3,0,17.8,2.3,22.5,6.9c4.6,4.6,6.9,12.1,6.9,22.5V1361h32.7l84.1-190.3
					c3.8-9.8,9-16.7,15.5-20.8c6.5-4.1,15-6.1,25.3-6.1h125.8c9.3,0,15.5,2.3,18.8,6.9c3.3,4.6,3,11.3-0.8,20l-83.3,190.3
					c30.5,1.6,54.9,12.4,73.1,32.3c18.2,19.9,27.4,46.2,27.4,78.8v230.4c0,10.3-2.3,17.8-6.9,22.5c-4.6,4.6-12.1,6.9-22.5,6.9
					h-125.8c-10.4,0-17.8-2.3-22.5-6.9c-4.6-4.6-6.9-12.1-6.9-22.5v-159.3c0-8.7-2.2-15.5-6.5-20.4c-4.4-4.9-10.9-7.4-19.6-7.4H1241
					v187.1c0,10.3-2.3,17.8-6.9,22.5C1229.5,1729.5,1222,1731.8,1211.6,1731.8z"/>
				<path d="M1820.2,1731.8h-125.8c-10.4,0-17.8-2.3-22.5-6.9c-4.6-4.6-6.9-12.1-6.9-22.5v-529.3c0-10.3,2.3-17.8,6.9-22.5
					c4.6-4.6,12.1-6.9,22.5-6.9h272c61,0,103.1,12.7,126.2,38c23.1,25.3,34.7,58.1,34.7,98.4v37.6c0,22.9-3.4,42.3-10.2,58.4
					c-6.8,16.1-18.7,27.6-35.5,34.7c29.4,3.3,53.2,15.3,71.5,35.9c18.2,20.7,27.4,48.2,27.4,82.5v173.2c0,10.3-2.3,17.8-6.9,22.5
					c-4.6,4.6-12.1,6.9-22.5,6.9h-126.6c-10.4,0-17.8-2.3-22.5-6.9c-4.6-4.6-6.9-12.1-6.9-22.5v-125c0-12-2.3-20.8-6.9-26.5
					c-4.6-5.7-12.7-8.6-24.1-8.6h-114.4v160.1c0,10.3-2.3,17.8-6.9,22.5C1838,1729.5,1830.5,1731.8,1820.2,1731.8z M1849.6,1290.7
					v104.6h61.3c14.2,0,23.7-3.7,28.6-11c4.9-7.4,7.4-16.5,7.4-27.4v-27.8c0-10.9-2.5-20-7.4-27.4c-4.9-7.4-14.4-11-28.6-11H1849.6z
					"/>
				<path d="M2438.5,1702.4c0,10.3-2.3,17.8-6.9,22.5c-4.6,4.6-12.1,6.9-22.5,6.9H2289c-10.4,0-17.8-2.3-22.5-6.9
					c-4.6-4.6-6.9-12.1-6.9-22.5v-215.6c0-16.3,2.6-35.1,7.8-56.4c5.2-21.2,13.2-46,24.1-74.3l71.1-185.4
					c3.3-9.3,8.3-16.1,15.1-20.4c6.8-4.4,15.6-6.5,26.5-6.5H2624c10.3,0,18.9,2.2,25.7,6.5c6.8,4.4,11.8,11.2,15.1,20.4l71.1,185.4
					c10.9,28.3,18.9,53.1,24.1,74.3c5.2,21.2,7.8,40,7.8,56.4v215.6c0,10.3-2.3,17.8-6.9,22.5c-4.6,4.6-12.1,6.9-22.5,6.9H2615
					c-10.9,0-18.9-2.3-24.1-6.9c-5.2-4.6-7.8-12.1-7.8-22.5v-114.4h-144.6V1702.4z M2485.1,1315.2l-38.4,124.2h128.2l-38.4-124.2
					c-2.2-4.9-4.5-8.4-6.9-10.6c-2.5-2.2-5.3-3.3-8.6-3.3h-20.4c-3.3,0-6.1,1.1-8.6,3.3C2489.6,1306.8,2487.3,1310.3,2485.1,1315.2z
					"/>
				<path d="M3024.2,1731.8h-126.6c-10.4,0-17.8-2.3-22.5-6.9c-4.6-4.6-6.9-12.1-6.9-22.5v-529.3c0-10.3,2.3-17.8,6.9-22.5
					c4.6-4.6,12.1-6.9,22.5-6.9h126.6c10.3,0,17.8,2.3,22.5,6.9c4.6,4.6,6.9,12.1,6.9,22.5V1361h32.7l84.1-190.3
					c3.8-9.8,9-16.7,15.5-20.8c6.5-4.1,15-6.1,25.3-6.1h125.8c9.3,0,15.5,2.3,18.8,6.9c3.3,4.6,3,11.3-0.8,20l-83.3,190.3
					c30.5,1.6,54.9,12.4,73.1,32.3c18.2,19.9,27.4,46.2,27.4,78.8v230.4c0,10.3-2.3,17.8-6.9,22.5c-4.6,4.6-12.1,6.9-22.5,6.9H3217
					c-10.4,0-17.8-2.3-22.5-6.9c-4.6-4.6-6.9-12.1-6.9-22.5v-159.3c0-8.7-2.2-15.5-6.5-20.4c-4.4-4.9-10.9-7.4-19.6-7.4h-107.8
					v187.1c0,10.3-2.3,17.8-6.9,22.5C3042,1729.5,3034.5,1731.8,3024.2,1731.8z"/>
				<path d="M3886,1731.8h-379c-10.4,0-17.8-2.3-22.5-6.9c-4.6-4.6-6.9-12.1-6.9-22.5v-529.3c0-10.3,2.3-17.8,6.9-22.5
					c4.6-4.6,12.1-6.9,22.5-6.9h379c10.3,0,17.8,2.3,22.5,6.9c4.6,4.6,6.9,12.1,6.9,22.5v95.6c0,10.4-2.3,17.8-6.9,22.5
					c-4.6,4.6-12.1,6.9-22.5,6.9h-225.5v62.9h159.3c10.3,0,17.8,2.3,22.5,6.9c4.6,4.6,6.9,12.1,6.9,22.5v87.4
					c0,10.4-2.3,17.8-6.9,22.5c-4.6,4.6-12.1,6.9-22.5,6.9h-159.3v70.2H3886c10.3,0,17.8,2.3,22.5,6.9c4.6,4.6,6.9,12.1,6.9,22.5
					v95.6c0,10.3-2.3,17.8-6.9,22.5C3903.8,1729.5,3896.3,1731.8,3886,1731.8z"/>
				<path d="M4163.7,1731.8h-122.5c-10.4,0-17.8-2.3-22.5-6.9c-4.6-4.6-6.9-12.1-6.9-22.5v-529.3c0-10.3,2.3-17.8,6.9-22.5
					c4.6-4.6,12.1-6.9,22.5-6.9h85c10.3,0,19.2,1.6,26.5,4.9c7.4,3.3,14.6,9,21.6,17.2l158.5,181.3v-174c0-10.3,2.3-17.8,6.9-22.5
					c4.6-4.6,12.1-6.9,22.5-6.9h122.5c10.3,0,17.8,2.3,22.5,6.9c4.6,4.6,6.9,12.1,6.9,22.5v529.3c0,10.3-2.3,17.8-6.9,22.5
					c-4.6,4.6-12.1,6.9-22.5,6.9h-122.5c-10.4,0-17.8-2.3-22.5-6.9c-4.6-4.6-6.9-12.1-6.9-22.5V1602l-139.7-169.1v269.6
					c0,10.3-2.3,17.8-6.9,22.5C4181.5,1729.5,4174,1731.8,4163.7,1731.8z"/>
			</g>
		</g>
		<path class="st2" d="M872,1381.6l0.2,2.5c0,0-59.3,11-70.9-53.8c-3.2-17.9,9.9-44.9,28.2-54.5c3.2,4.8,1.7,2.1,4.5,7.1
			c-7,7.3-25.9,19.2-22.7,45.4C818.1,1384.8,872,1381.6,872,1381.6z"/>
		<circle class="st2" cx="619" cy="1430" r="69.2"/>
		<g>
			<path class="st1" d="M461.7,1411.8c-0.6,35.2-53,35.2-53.6,0C408.7,1376.6,461.1,1376.6,461.7,1411.8z"/>
		</g>
		<g>
			<circle class="st1" cx="619" cy="1433" r="45.9"/>
		</g>
		<path class="st3" d="M439.7,1387.3c2.9,31.2-29.6,30.3-29.6,30.3C406.8,1399.1,419.6,1384.4,439.7,1387.3z"/>
		<path d="M619,1388c24.8,0,45,20.1,45,45s-20.1,45-45,45c-24.8,0-45-20.1-45-45S594.1,1388,619,1388 M619,1372.5
			c-33.3,0-60.5,27.1-60.5,60.5c0,33.3,27.1,60.5,60.5,60.5s60.5-27.1,60.5-60.5C679.4,1399.7,652.3,1372.5,619,1372.5L619,1372.5z"
			/>
	</g>
	<g>
		<path d="M434.9,1387c12.5,0,24.9,8.3,25.2,24.8c-0.3,16.6-12.7,24.8-25.2,24.8c-12.5,0-24.9-8.3-25.2-24.8
			C410,1395.3,422.4,1387,434.9,1387 M434.9,1373.5v11.9V1373.5L434.9,1373.5L434.9,1373.5c-18.9,0-38.3,13.1-38.7,38.1l0,0.2l0,0.2
			c0.4,25,19.8,38.2,38.7,38.2c18.9,0,38.3-13.1,38.7-38.1l0-0.2l0-0.2C473.2,1386.6,453.8,1373.5,434.9,1373.5L434.9,1373.5z"/>
	</g>
	<path class="st3" d="M621.6,1388.1c21.4,3.3,25,26.9,3.2,43.3c-11.3,8.6-31.6,10.5-41.4,1.4
		C563.2,1414.1,599.7,1384.8,621.6,1388.1z"/>
	<path class="st3" d="M838.5,1292.1c11.1,15.6,20.3,37.2,20.3,37.2c-5.5,7.4-13.2,10.6-19.8,12c-8.1,1.7-15.9-4.4-16.2-12.7
		c-0.2-4.3,0.3-9.4,1.9-15.1C828.7,1299.7,838.5,1292.1,838.5,1292.1z"/>
</g>
</svg>
