<?xml version="1.0" encoding="UTF-8"?><svg id="Layer_1" xmlns="http://www.w3.org/2000/svg" viewBox="0 0 5000 2880"><defs><style>.cls-1{font-family:Bungee-Regular, Bungee;font-size:41.37px;}.cls-2{fill:#e7d6ff;}.cls-3{fill:#fff;}.cls-4{fill:#9146ff;}.cls-5{fill:#d7b8f3;}</style></defs><g><g><path class="cls-3" d="M988.6,1091.75H3978.83c195.43,0,354.09,158.66,354.09,354.09h0c0,195.43-158.66,354.1-354.09,354.1H969.02c-24.58,0-44.54-19.96-44.54-44.54v-599.51c0-35.39,28.74-64.13,64.13-64.13Z"/><g><g><path class="cls-3" d="M1315.48,1404.02c-11.84,112.24-15.71,239.86-156.38,277.36-45.91,25.89-171.02,166.47-217.27,91.89-57.77,22.45-38.11-55.81-25.13-85.14-74.63-2.97-44.34,142.32-99.47,85.55-20.49-23.56-10.13-48.88-7.55-74.02-34.76,8.46-107.74,1.04-96.44-46.81,154.82,.99,71.31-131.71,193.03-183.45,1.15-19.14-7.64-64.61,40.15-95.97,24.91-16.35,48.88,81.17,35.79-45.31-46.11-4.2-117.74-3.98-108.79-72.35,16.91-191.96,2.48-152.52,226.46-167.83,49.96,15.97,67.3,61.76,68.24,105.84,66.97,54.89,135.79,124.52,147.34,210.23Z"/><path class="cls-3" d="M1099.9,1087.95c49.96,15.97,67.3,61.75,68.24,105.84,66.97,54.89,135.79,124.52,147.34,210.23-11.84,112.24-15.71,239.86-156.38,277.36-36.46,20.56-122.89,113.47-180.08,113.47-14.82,0-27.67-6.23-37.19-21.58-7.08,2.75-13,3.99-17.91,3.99-35.14,0-18.61-63.4-7.22-89.13-.76-.03-1.5-.04-2.24-.05-59.91,0-49.54,98.77-76.19,98.77-5.28,0-12.01-3.88-21.04-13.17-20.49-23.56-10.13-48.88-7.55-74.02-7.88,1.92-17.72,3.02-28.1,3.02-35.41,0-77.08-12.82-68.34-49.83,.58,0,1.15,0,1.72,0,152.48,0,70.04-131.9,191.31-183.46,1.15-19.14-7.64-64.61,40.15-95.97,2.03-1.34,4.07-1.91,6.07-1.91,12.52,0,24.03,22.5,29.71,22.5,4.53,0,5.36-14.33,.02-65.89-46.11-4.2-117.74-3.98-108.79-72.35,16.91-191.96,2.48-152.52,226.46-167.83m0-65c-1.48,0-2.96,.05-4.43,.15-36.74,2.51-67.5,3.52-92.21,4.34-31.15,1.03-55.76,1.84-76.52,5.09-20.26,3.18-49.94,10.31-73.61,35.41-21.57,22.88-28.95,51.04-32.97,73.02-4.01,21.94-6.22,47.78-9.27,83.55-.66,7.78-1.35,15.82-2.1,24.37-5.39,44.52,9.86,74.19,23.71,91.29,8.46,10.46,18.85,19.34,31.07,26.59-6.03,9.79-10.86,20.32-14.47,31.55-3.72,11.58-5.69,22.62-6.72,32.5-4.01,2.82-7.86,5.77-11.56,8.83-13.3,11.03-24.96,23.98-34.67,38.49-16.57,24.78-24.96,50.15-31.71,70.54-4.39,13.26-9.35,28.29-13.84,32.74-2.41,2.39-12.62,6.43-35.62,6.43-.43,0-.87,0-1.31,0-.14,0-.28,0-.42,0-30.12,0-56.32,20.71-63.26,50.06-7.22,30.59-.95,60.39,17.66,83.91,14.05,17.76,33.98,30.62,59.24,38.23,4.89,1.47,9.99,2.74,15.25,3.8,3.9,19.44,12.63,37.05,26.04,52.47,.78,.9,1.59,1.78,2.42,2.64,8.27,8.52,16.31,15.12,24.55,20.18,13.73,8.43,28.24,12.7,43.12,12.7,17.66,0,34.82-6.29,48.51-17.75,9.99,4.74,21.06,7.5,32.75,8.05,2.38,1.59,4.82,3.08,7.32,4.47,15.78,8.77,33.33,13.22,52.16,13.22,30.95,0,63.32-11.73,101.86-36.93,26.48-17.31,51.5-38.02,73.57-56.3,10.26-8.5,23.57-19.51,31.67-25.36,72.74-22.07,124.85-67.38,154.96-134.83,25-55.98,31.35-119.29,36.95-175.14,.71-7.06,1.38-13.73,2.09-20.44,.54-5.16,.47-10.36-.22-15.51-3.64-26.97-11.73-53.96-24.06-80.22-10.61-22.61-24.68-45.32-41.81-67.5-22.02-28.51-48.96-56.36-83.69-86.43-3.68-22.98-10.89-44.31-21.33-62.81-19.73-34.95-50.61-59.97-89.31-72.34-6.41-2.05-13.09-3.09-19.8-3.09h0Z"/></g><g><path class="cls-3" d="M1218.86,1258.17c32.31,42.18,66.08,88.83,70.44,143.43,.46,17.11-3.27,33.43-8.95,49.44-2.94,8.27-3.62,16.97-2.35,25.6,10.37,80.28-40.95,162.97-113.61,194.79-10.88,4.77-23.73,6.22-32.76,14.37-33.03,29.28-63.41,62.2-101.7,84.83-25.78,13.53-79.7,40.84-90.93-.98-13.8,11.8-34.51,4.25-35.78-14.23-1.19-25.35,7.6-50.23,14.17-73.62-1.17-1.15-2.62,.34-3.78,.94-11.65,6.03-22.42,13.32-31.71,22.65-14.23,14.28-22.77,30.92-21.4,51.7,2.02,15.68-8.52,35.39-26.14,24.45-24.23-17.88-27.45-50.22-17.5-76.78,3.27-6.16-1.05-10.87-7.37-7.8-30.21,9.86-67.67,2.19-82.96-27.96-3.25-6.01-4.12-12.48,.05-18.57,19.35-24.32,49.86,21.3,81.09-26.18,23.53-38.47,24.06-86.87,53.85-122.15l1.67-2.25c13.58-12.21,26.24-25.81,43.74-32.87,6.67-3.44,.5-7.73-3.47-10.21-22.15-15.84-26.22-46.95-8.9-68,17.05-20.73,48.52-22.79,68.24-4.5,3.28,2.76,9.07,9.42,12.13,2.92,4.14-5.76,9.71-71.44-2.84-65.28-45.08,10.17-105.12-14.13-95.85-68.56,1.88-14.22,6.28-27.89,8.3-42.07,2.22-15.58,2.43-31.02-1.05-46.46-3.65-14-2.7-27.31,3.49-40.53,19.4-28.01,40.46-29.13,72.17-27.37,44.34,4.96,85.07-29.97,128.7-11.4,42.97,15.67,65.53,58.08,62.12,102.41,.02,4.27,7.81,8.39,10.93,11.22,5.67,5.41,11.77,10.29,17.39,15.8,9.81,9.74,19.89,19.33,28.97,29.79,2.69,3.28,5.37,6.54,8.37,9.55,.81,1.51,1.84,2.82,3.23,3.84Zm-286.34,307.44c-5.36,18.37-11.95,37.19-8.16,57.15,.35,2.2-.67,2.54-2.42,2.94-43.61,11.48-89.38,55.89-94.25,101.72-1.25,11.87,2.3,36.41,11.46,43.26-2.31-54.42,37.44-92.43,87.9-105.91,8.08-2.46,8.3-1.74,12.47,5.86,1.43,2.79,3.83,5.2,1.58,8.38-13.32,24.32-19.2,52.04-20.68,79.55-.09,1.99-.44,4.22,2.15,4.9,3.75,.95,3.91-3.22,5.19-5.5,1.19-4.69,30.49-58.67,35.1-48.92,7.16,11.07,15.12,21.63,23.69,31.66,.86,1,1.97,1.66,3.37,.77,2.45-1.71,.23-4.84-.21-7.06-4.46-13.78-7.88-27.81-10.41-42.07,6.17-19.37,55.36-28.23,74.01-26.8,2.26,.03,3.13,.74,2.27,3.06-12,37.54-37.47,67.08-68.13,90.79-7.3,5.65-15.03,10.66-23.05,15.22-1.56,.89-2.94,2-2.12,4.05,1.96,4.42,10.6-.71,14.29-.52,64.54-13.24,103.33-67.61,150.16-108.54,1.72-1.46,3.37-2.84,5.77-3.35,29.71-6.35,54.9-20.88,76.03-42.55,43.75-44.9,62.84-110.18,52.73-170.65,13.6-20.05,13.52-45.9,7.54-68.5-23.05-78.03-83.62-139.12-147.01-187.13-2.54-1.83-3.38-3.07-1.12-5.83,10.01-15.6,8.79-35.8,1.21-52.17-30.06-63.48-82.02-42.67-134.48-24.41-24.56,9.27-48.03-4.92-71.73,7.6-8.84,4.24-14.29,11.09-14.8,21.16-1.2,9.66,6.29,17.23,6.12,26.6,.17,19.12-2.03,37.89-7.71,56.21-9.38,27.48-3.54,64.05,27.84,73.08,20.26,6.56,40.48,6.05,60.12-2.83,2.19-.99,3.09-1.01,3.82,1.57,9.95,35.23,12.29,70.48-1.54,105.19-6.12,15.37-5.58,29.73,1.57,44.31,15.11,34.14-104.35,3.71-144.56,103.98-20.38,50.29-29.13,130.98-104.79,107.22-1.8-.68-3.62-1.28-4.99,.61-1.37,1.89-.23,3.49,.95,4.97,12.53,15.42,30.69,20.97,49.85,18.98,67.59-9.42,98.65-77.04,144.99-118.06Zm26.89-145.07c-.11-37.34-57.38-37.22-57.18,.3,.94,37.34,56.57,37.22,57.18-.3Z"/><path d="M1289.09,1379.18c-.05-.19-.1-.38-.16-.57-19.86-67.18-66.96-129.34-143.83-189.71,2.48-7.25,3.77-15.05,3.77-23.11,0-11.86-2.75-24.04-7.96-35.22-.02-.04-.04-.08-.05-.11-17.23-36.44-43.92-54.91-79.32-54.91-24.67,0-50.18,8.88-74.84,17.48-2.06,.71-4.11,1.43-6.17,2.14-.19,.07-.37,.13-.56,.2-3.69,1.4-7.77,2.02-13.24,2.02-3.69,0-7.61-.28-11.77-.58-4.65-.33-9.47-.67-14.56-.67-8.33,0-20.9,.8-34.19,7.72-15.89,7.76-25.19,21.27-26.28,38.14-1.04,10.12,2.24,18.32,4.44,23.8,.61,1.53,1.44,3.6,1.61,4.47v.29c.16,18.2-2.02,34.42-6.68,49.54-7.92,23.39-6.61,48.91,3.52,68.33,8.13,15.58,21.32,26.41,38.14,31.32,11.1,3.56,22.25,5.36,33.16,5.36,7.13,0,14.21-.76,21.16-2.28,5.22,27.48,3.47,51.03-5.28,73-6.81,17.09-7.51,34.06-2.14,50.62-4.1,1.11-8.98,2.26-13.06,3.21-17.95,4.2-42.54,9.95-66,23.23-28.49,16.12-49.27,40.06-61.77,71.14-3.83,9.48-7.25,19.85-10.56,29.89-6.14,18.65-12.5,37.93-21.4,51.32-7.99,12.02-16.43,17.15-28.21,17.15-5.37,0-11.54-1.06-18.35-3.16-1.82-.67-5.24-1.78-9.44-1.78-7.72,0-14.77,3.63-19.35,9.95-5.2,7.18-7.54,18.92,1.5,30.33,.05,.07,.1,.13,.15,.19,14.2,17.5,35.06,27.14,58.76,27.14,3.14,0,6.36-.17,9.57-.5,.24-.03,.48-.05,.72-.09,7.71-1.07,15.22-2.8,22.56-5.22-3.19,8.65-5.28,17.38-6.18,26-.02,.21-.04,.41-.06,.61-1.43,19.12,2.4,36.84,11.39,52.67,6.14,11.93,16.45,13.22,20.6,13.22,1.77,0,3.54-.21,5.27-.62,9.8-2.33,16.57-11.29,16.13-21.36-.89-20.3,5.47-38.28,18.89-53.43,8.58-9.67,19.95-17.86,33.06-23.93-7.11,19.44-11.35,41.22-12.63,65.04,0,.04-.01,.09-.01,.13v.27c-.12,1.88-.34,5.8,1.13,10.34,2.48,7.67,8.71,13.51,16.66,15.6,.17,.04,.34,.08,.5,.12,1.94,.46,3.9,.69,5.83,.69,6.74,0,12.97-2.77,17.46-7.69-.06,3.35,.57,6.63,1.76,9.59,.13,.33,.27,.65,.42,.98,3.96,8.56,12.56,13.88,22.44,13.88,4.74,0,8.94-1.15,12-2,.39-.11,.87-.24,1.23-.33,.64-.07,1.27-.17,1.9-.3,54.92-11.25,91.79-47.56,127.44-82.68,10.72-10.55,20.87-20.54,31.48-29.87,31.91-7.38,60.11-23.45,83.86-47.8,23.62-24.23,41.47-54.67,51.62-88.04,9.19-30.2,11.91-62.17,7.95-92.93,11.54-21.7,13.7-49.11,5.97-78.23Zm-335.07,377.18c-1.22,.69-2.34,1.43-3.37,2.21,2.53-4.8,6.09-11.06,9.64-16.88,1.88,2.43,3.81,4.85,5.77,7.25-3.76,2.52-7.75,4.98-12.04,7.42Zm51.57-42.32c-1.43-5.34-2.72-10.78-3.87-16.31,3-1.84,8.31-4.34,16.79-6.7,1.57-.44,3.14-.84,4.69-1.21-4.89,8.33-10.75,16.39-17.61,24.22Z"/><path class="cls-4" d="M1018.51,1556.18s-1.47,3.54-2.18,5.39c-21.01,54.53-83.23,53.54-83.23,53.54,0,0-1.04-2.26-1.3-10.12-.13-3.81,.52-35.06,20.6-63.46,.35-.49-.01-.89,.39-1.21,5.73-7.06,6.26-20.3-3.93-23.42-6.45-2.63-12.71-.95-18.59,1.44-51.56,18.02-48.03,78.8-79.82,115.08-19.72,22.26-66.28,57.2-95.52,35.49,120.21,1.73,60.36-174.3,192.61-189.15,15.68-2.78,36.19,3.94,47.44-8.37,1.03-1.59,1.78-1.82,3.15-.27,60.91,60.28,190.44,54.89,251.76,2.37,9.65-8.26,5.38,34.32,3.73,37.9-7.09-5.8-14-3.3-20.71,.65-21.54,14.05-27.08,41.27-33.68,64.33-6.46,29.79-30.39,50.66-58.14,60.94-12.55,5.33-25.61,9.08-38.56,13.22-5.28,1.69-10.67,4.04-10.87,10.98-77.53-8.99-121.36,10.11-161.64,77.84,2.72-26.47,14.67-55.57,32.45-75.68,26-29.4,73.93-29.77,85.05-27.76,102.46,18.47,115.72-70.45,115.72-70.45,0,0-20.52,34.54-56.77,54.71-20.27,11.28-40.5,5.76-40.5,5.76,25.85-24.48,21.91-62.28,21.28-59.89-13.09,49.04-35.14,58.88-35.14,58.88-83.54-3.39-93.38,29.68-97.97,29.36-61.13,1.09-115.41,49.73-117.8,105.82-16.91-46.74,25.95-96.2,58.88-115.48,25.33-14.83,38.05-13.04,46.15-14.83,93.81-20.78,77.16-73.65,77.16-73.65Z"/><path class="cls-2" d="M1151.77,1227.62c16.14,35.51-16.52,67.73-51.77,67.37-31.6,1.28-50.98-28.18-70.1-49-15.29-18.27-34.05-33.16-49.86-50.98-16.67-17.77-47.08-42.13-30.23-68.56,74.08,12.62,145.77,51.4,201.96,101.17Z"/><path class="cls-2" d="M1005.12,1133.79c-10.78-3.76-21.56-7.52-32.33-11.27,45-11.2,107.63-42.97,137.44,10.61-8.2,17.21-36.35,15.71-51.43,9.65-14.3-5.01-39.31-12.65-53.68-8.98Z"/><path class="cls-2" d="M902.11,1262.91c-3.28-10.66-2.35-21.42,.49-31.84,5.71-18.63,7.29-38.16,9.77-57.04,17.1,26.1,39.61,48.12,55.73,74.88-13.86,19.85-44.8,22.92-65.98,14Z"/><g><path class="cls-4" d="M987.49,1767.93c53.37-42.58,68.05-76.48,74.45-98.36l.03-.11c.54-1.89,.91-2.88,2.77-2.88h.22c6.33,.27,12.75,.78,18.95,1.28,8.89,.72,18.08,1.46,27.09,1.46,1.52,0,3.03-.02,4.48-.06-5.16,5.23-10.27,10.58-15.66,16.22-31.4,32.83-66.91,69.98-112.33,82.45Z"/><path d="M1064.73,1667.09c.06,0,.13,0,.2,0,6.32,.26,12.73,.78,18.94,1.28,8.9,.72,18.1,1.46,27.12,1.46,1.1,0,2.19-.01,3.26-.03-4.87,4.96-9.71,10.02-14.8,15.35-16.38,17.13-33.32,34.84-52.07,49.85-19.62,15.7-38.53,26.13-57.64,31.78,25.95-20.89,59.77-52.9,72.68-97.06l.03-.11c.51-1.79,.78-2.51,2.29-2.51m0-1c-2.37,0-2.78,1.59-3.28,3.35-12.22,41.82-43,73.46-76.15,99.59,54.66-13.89,94.12-62.57,131.41-100.3-1.91,.07-3.81,.11-5.72,.11-15.25,0-30.59-2.09-46.02-2.73-.08,0-.16,0-.24,0h0Z"/></g><path class="cls-5" d="M1005.12,1133.79c14.48-3.65,39.26,3.95,53.68,8.98,15.1,6.06,43.21,7.57,51.43-9.65,8.97,14.43,13.36,29.7,8.19,46.58-3.57,11.64-4.31,11.88-14.14,5.36-31.11-20.85-64.55-37.13-99.15-51.27Z"/><path class="cls-5" d="M902.11,1262.91c21.16,8.91,52.14,5.84,65.98-14,7.67,11.01,13.15,23.12,18.13,35.51,1.24,3.08-.8,3.73-2.71,4.61-27.36,11.66-74.53,9.31-81.41-26.12Z"/><g><path class="cls-4" d="M980.1,1721.74c-4.54-6.81-11.58-16.83-12.93-18.73l6.16-7.21,6.77,25.94Z"/><path d="M973.09,1696.85l5.78,22.16c-4.2-6.21-9.51-13.76-11.07-15.98l5.28-6.18m.48-2.11l-7.03,8.23s10.17,14.39,14.81,21.57l-7.78-29.8h0Z"/></g><path class="cls-4" d="M952.07,1662.38c-.95,1.93-4.1,6.65-4.1,6.65l-3.29-6.34s1.87-.85,7.38-.31Z"/><g><path class="cls-4" d="M910.34,1419c0,.89,0,1.77,0,2.66-.54-.88-.54-1.77,0-2.66Z"/><path d="M910.34,1419c-.53,.89-.54,1.77,0,2.66,0-.89,0-1.77,0-2.66h0Z"/></g><path class="cls-5" d="M1088.08,1661.14c3.08-8.74,9.33-12.06,14.62-13.75,12.95-4.14,26.72-8.84,39.27-14.17,27.75-10.28,42.29-26.86,48.75-56.66,6.61-23.05,18.16-55.01,39.69-69.05,6.72-3.95,16.99-5.78,24.08,.02-7.98,79.83-81.71,165.21-166.4,153.61Z"/><path class="cls-5" d="M941.35,1629.83s-1.16,13.98-16.55,18.51c-28.27,8.33-29.6-3.68-29.6-3.68,0,0,10.29-6.29,22.07-10.37s24.08-4.46,24.08-4.46Z"/><path class="cls-5" d="M1016.91,1636.87c-7.09,9.58-19.44,17.83-30.3,21.22-12.46,3.89-23.18,4.6-23.18,4.6,12.83-16.86,34.73-22.59,53.47-25.82Z"/><path class="cls-5" d="M931.8,1605c-.86-21.83,5.32-40.01,16.13-59.6-13.55,10.87-40.2,31.49-49.53,45.03-30.66,37.5-78.87,90.13-124.84,85.2,51.88-11.4,91.03-56.41,105.91-105.31,10.15-26.19,41.72-67.57,71.24-56.11,33.92,13.17-15.37,89.32-18.92,90.8Z"/><path class="cls-4" d="M1223.8,1353.07c-2.05,20.24,16.53,35.29,35.75,35.41-2.95-21.58-12.13-40.69-23.95-58.76-6.59,5.73-11.04,13.95-11.8,23.34Z"/><path class="cls-5" d="M1007.75,1458.12c-10.97-14.06-17.32-33.78-8.79-50.44,16.6-41.82,11.39-88.89-5.04-129.9-16.92-44.7-57.67-72.84-79.88-114.24-17.78-29.9,9.7-40.21,35.76-37.08-16.84,26.44,13.56,50.78,30.23,68.55,15.81,17.81,34.57,32.71,49.86,50.98,19.11,20.82,38.51,50.29,70.1,49,35.2,.33,67.95-31.85,51.77-67.37,29.1,25.85,56.49,56.74,77.06,89.77-1.7,2.63-29.92,19.19-16.71,51.99,14.71,36.53,48.72,27.96,48.72,27.96,11.52,114.78-195.97,129.96-253.09,60.77Z"/></g></g><g><text class="cls-1" transform="translate(4068.91 1230.19)"><tspan x="0" y="0">R</tspan></text><path d="M4084.09,1252.83c-4.94,0-9.73-.97-14.24-2.88-4.36-1.84-8.27-4.48-11.63-7.84-3.36-3.36-6-7.27-7.84-11.63-1.91-4.51-2.88-9.31-2.88-14.24s.97-9.73,2.88-14.24c1.84-4.36,4.48-8.27,7.84-11.63,3.36-3.36,7.27-6,11.63-7.84,4.51-1.91,9.31-2.88,14.24-2.88s9.73,.97,14.24,2.88c4.36,1.84,8.27,4.48,11.63,7.84,3.36,3.36,6,7.27,7.84,11.63,1.91,4.51,2.88,9.31,2.88,14.24s-.97,9.73-2.88,14.24c-1.84,4.36-4.48,8.27-7.84,11.63-3.36,3.36-7.27,6-11.63,7.84-4.51,1.91-9.31,2.88-14.24,2.88Zm0-63.16c-7.1,0-13.77,2.76-18.79,7.78-5.02,5.02-7.78,11.69-7.78,18.79s2.76,13.77,7.78,18.79c5.02,5.02,11.69,7.78,18.79,7.78s13.77-2.76,18.79-7.78c5.02-5.02,7.78-11.69,7.78-18.79s-2.76-13.77-7.78-18.79c-5.02-5.02-11.69-7.78-18.79-7.78Z"/></g><g><path d="M1517.3,1661.73h-95.59c-7.82,0-13.47-1.74-16.96-5.24-3.5-3.49-5.24-9.14-5.24-16.96v-399.63c0-7.81,1.74-13.46,5.24-16.96s9.14-5.24,16.96-5.24h95.59c7.81,0,13.46,1.75,16.96,5.24,3.49,3.5,5.24,9.15,5.24,16.96v141.84h24.67l63.52-143.69c2.87-7.4,6.78-12.64,11.72-15.73,4.93-3.08,11.3-4.63,19.12-4.63h94.97c6.99,0,11.72,1.75,14.18,5.24,2.47,3.5,2.25,8.54-.62,15.11l-62.9,143.69c23.02,1.23,41.42,9.36,55.2,24.36,13.77,15.01,20.66,34.84,20.66,59.51v173.91c0,7.81-1.75,13.47-5.24,16.96-3.5,3.5-9.15,5.24-16.96,5.24h-94.97c-7.82,0-13.47-1.74-16.96-5.24-3.5-3.49-5.24-9.14-5.24-16.96v-120.26c0-6.57-1.65-11.72-4.93-15.42-3.3-3.7-8.23-5.55-14.8-5.55h-81.41v141.23c0,7.81-1.75,13.47-5.24,16.96-3.5,3.5-9.15,5.24-16.96,5.24Z"/><path d="M1976.74,1661.73h-94.97c-7.81,0-13.47-1.74-16.96-5.24-3.5-3.49-5.24-9.14-5.24-16.96v-399.63c0-7.81,1.74-13.46,5.24-16.96,3.49-3.49,9.14-5.24,16.96-5.24h205.36c46.04,0,77.8,9.56,95.28,28.68,17.47,19.12,26.21,43.89,26.21,74.31v28.37c0,17.27-2.57,31.97-7.71,44.09-5.15,12.13-14.09,20.87-26.83,26.21,22.2,2.47,40.18,11.52,53.96,27.14,13.77,15.63,20.66,36.39,20.66,62.29v130.74c0,7.81-1.75,13.47-5.24,16.96s-9.15,5.24-16.96,5.24h-95.59c-7.81,0-13.47-1.74-16.96-5.24-3.5-3.49-5.24-9.14-5.24-16.96v-94.36c0-9.04-1.75-15.73-5.24-20.04-3.5-4.32-9.56-6.48-18.19-6.48h-86.34v120.88c0,7.81-1.75,13.47-5.24,16.96-3.5,3.5-9.15,5.24-16.96,5.24Zm22.2-333.02v78.94h46.25c10.69,0,17.88-2.77,21.58-8.33,3.7-5.55,5.55-12.43,5.55-20.66v-20.97c0-8.22-1.85-15.11-5.55-20.66-3.7-5.55-10.9-8.33-21.58-8.33h-46.25Z"/><path d="M2443.59,1639.53c0,7.81-1.75,13.47-5.24,16.96-3.5,3.5-9.15,5.24-16.96,5.24h-90.66c-7.81,0-13.47-1.74-16.96-5.24-3.5-3.49-5.24-9.14-5.24-16.96v-162.81c0-12.33,1.95-26.52,5.86-42.55,3.9-16.03,9.96-34.74,18.19-56.12l53.65-139.99c2.47-6.99,6.26-12.12,11.41-15.42,5.14-3.29,11.81-4.93,20.04-4.93h165.89c7.81,0,14.28,1.65,19.43,4.93,5.14,3.3,8.94,8.43,11.41,15.42l53.65,139.99c8.22,21.38,14.28,40.09,18.19,56.12,3.9,16.03,5.86,30.22,5.86,42.55v162.81c0,7.81-1.75,13.47-5.24,16.96-3.5,3.5-9.15,5.24-16.96,5.24h-93.12c-8.23,0-14.29-1.74-18.19-5.24-3.91-3.49-5.86-9.14-5.86-16.96v-86.34h-109.16v86.34Zm35.15-292.32l-28.98,93.74h96.82l-28.99-93.74c-1.65-3.7-3.39-6.37-5.24-8.02-1.85-1.64-4.01-2.47-6.48-2.47h-15.42c-2.47,0-4.63,.83-6.48,2.47-1.85,1.65-3.6,4.32-5.24,8.02Z"/><path d="M2885.77,1661.73h-95.59c-7.81,0-13.47-1.74-16.96-5.24-3.5-3.49-5.24-9.14-5.24-16.96v-399.63c0-7.81,1.74-13.46,5.24-16.96,3.49-3.49,9.14-5.24,16.96-5.24h95.59c7.81,0,13.46,1.75,16.96,5.24,3.49,3.5,5.24,9.15,5.24,16.96v141.84h24.67l63.52-143.69c2.87-7.4,6.78-12.64,11.72-15.73,4.93-3.08,11.3-4.63,19.12-4.63h94.97c6.99,0,11.72,1.75,14.18,5.24,2.47,3.5,2.25,8.54-.62,15.11l-62.9,143.69c23.02,1.23,41.42,9.36,55.2,24.36,13.77,15.01,20.66,34.84,20.66,59.51v173.91c0,7.81-1.75,13.47-5.24,16.96-3.5,3.5-9.15,5.24-16.96,5.24h-94.97c-7.81,0-13.47-1.74-16.96-5.24-3.5-3.49-5.24-9.14-5.24-16.96v-120.26c0-6.57-1.65-11.72-4.93-15.42-3.3-3.7-8.23-5.55-14.8-5.55h-81.41v141.23c0,7.81-1.75,13.47-5.24,16.96s-9.15,5.24-16.96,5.24Z"/><path d="M3536.39,1661.73h-286.15c-7.81,0-13.47-1.74-16.96-5.24-3.5-3.49-5.24-9.14-5.24-16.96v-399.63c0-7.81,1.74-13.46,5.24-16.96,3.49-3.49,9.14-5.24,16.96-5.24h286.15c7.81,0,13.46,1.75,16.96,5.24,3.49,3.5,5.24,9.15,5.24,16.96v72.15c0,7.82-1.75,13.47-5.24,16.96-3.5,3.5-9.15,5.24-16.96,5.24h-170.21v47.49h120.26c7.81,0,13.46,1.75,16.96,5.24,3.49,3.5,5.24,9.15,5.24,16.96v65.99c0,7.82-1.75,13.47-5.24,16.96-3.5,3.5-9.15,5.24-16.96,5.24h-120.26v53.04h170.21c7.81,0,13.46,1.75,16.96,5.24,3.49,3.5,5.24,9.15,5.24,16.96v72.16c0,7.81-1.75,13.47-5.24,16.96-3.5,3.5-9.15,5.24-16.96,5.24Z"/><path d="M3746.06,1661.73h-92.51c-7.81,0-13.47-1.74-16.96-5.24-3.5-3.49-5.24-9.14-5.24-16.96v-399.63c0-7.81,1.74-13.46,5.24-16.96,3.49-3.49,9.14-5.24,16.96-5.24h64.14c7.81,0,14.49,1.23,20.04,3.7,5.55,2.47,11,6.78,16.34,12.95l119.64,136.91v-131.36c0-7.81,1.74-13.46,5.24-16.96,3.49-3.49,9.14-5.24,16.96-5.24h92.51c7.81,0,13.46,1.75,16.96,5.24,3.49,3.5,5.24,9.15,5.24,16.96v399.63c0,7.81-1.75,13.47-5.24,16.96-3.5,3.5-9.15,5.24-16.96,5.24h-92.51c-7.82,0-13.47-1.74-16.96-5.24-3.5-3.49-5.24-9.14-5.24-16.96v-75.86l-105.46-127.66v203.51c0,7.81-1.75,13.47-5.24,16.96-3.5,3.5-9.15,5.24-16.96,5.24Z"/></g></g><path class="cls-2" d="M1260.85,1397.29l.16,1.87s-44.78,8.34-53.5-40.61c-2.41-13.53,7.51-33.93,21.32-41.16,2.41,3.6,1.32,1.59,3.41,5.39-5.29,5.54-19.54,14.52-17.16,34.28,5.12,42.63,45.77,40.22,45.77,40.22Z"/><circle class="cls-2" cx="1069.84" cy="1433.87" r="52.22"/><path class="cls-4" d="M951.1,1420.14c-.45,26.61-40.04,26.61-40.49,0,.45-26.61,40.04-26.6,40.49,0Z"/><circle class="cls-4" cx="1069.84" cy="1436.11" r="34.65"/><path class="cls-5" d="M934.49,1401.63c2.15,23.53-22.32,22.89-22.32,22.89-2.54-13.96,7.12-25.08,22.32-22.89Z"/><path d="M1069.84,1402.15c18.75,0,33.95,15.2,33.95,33.95s-15.2,33.95-33.95,33.95-33.95-15.2-33.95-33.95,15.2-33.95,33.95-33.95m0-11.69c-25.17,0-45.65,20.48-45.65,45.65s20.48,45.65,45.65,45.65,45.65-20.48,45.65-45.65-20.48-45.65-45.65-45.65h0Z"/></g><path d="M930.86,1401.39c9.41,0,18.82,6.25,19.03,18.76-.21,12.51-9.62,18.76-19.03,18.76s-18.82-6.25-19.03-18.76c.21-12.5,9.62-18.76,19.03-18.76m0-10.2v0h0c-14.29,0-28.92,9.89-29.24,28.8v.31c.32,18.91,14.95,28.8,29.24,28.8s28.92-9.89,29.24-28.8v-.31c-.32-18.91-14.95-28.8-29.24-28.8h0Z"/><path class="cls-5" d="M1071.83,1402.21c16.19,2.47,18.89,20.28,2.44,32.71-8.56,6.47-23.88,7.91-31.24,1.09-15.26-14.13,12.3-36.32,28.8-33.8Z"/><path class="cls-5" d="M1235.61,1329.73c8.41,11.76,15.3,28.06,15.3,28.06-4.15,5.56-9.99,8.03-14.97,9.08-6.14,1.3-11.98-3.3-12.23-9.57-.13-3.22,.19-7.09,1.46-11.43,3.04-10.42,10.44-16.14,10.44-16.14Z"/></svg>