<?xml version="1.0" encoding="utf-8"?>
<!-- Generator: Adobe Illustrator 26.3.1, SVG Export Plug-In . SVG Version: 6.00 Build 0)  -->
<svg version="1.1" id="Layer_1" xmlns="http://www.w3.org/2000/svg" xmlns:xlink="http://www.w3.org/1999/xlink" x="0px" y="0px"
	 viewBox="0 0 1289.6 308" style="enable-background:new 0 0 1289.6 308;" xml:space="preserve">
<style type="text/css">
	.st0{fill:#FFFFFF;}
	.st1{fill:#9146FF;}
	.st2{fill:#E7D6FF;}
	.st3{fill:#D7B8F3;}
	.st4{font-family:'Bungee-Regular';}
	.st5{font-size:14.1559px;}
</style>
<g>
	<g>
		<g>
			<path class="st0" d="M1154.2,276.7H122.3c-7.3,0-13.2-5.9-13.2-13.2V53.3c0-10.5,8.5-19,19-19h1026.2
				c66.9,0,121.2,54.2,121.2,121.2v0C1275.4,222.5,1221.1,276.7,1154.2,276.7z"/>
			<g>
				<g>
					<g>
						<path class="st0" d="M242.9,141.2c-4.1,38.4-5.4,82.1-53.5,94.9c-15.7,8.9-58.5,57-74.3,31.4c-19.8,7.7-13-19.1-8.6-29.1
							c-25.5-1-15.2,48.7-34,29.3c-7-8.1-3.5-16.7-2.6-25.3c-11.9,2.9-36.9,0.4-33-16c53,0.3,24.4-45.1,66.1-62.8
							c0.4-6.5-2.6-22.1,13.7-32.8c8.5-5.6,16.7,27.8,12.2-15.5c-15.8-1.4-40.3-1.4-37.2-24.8c5.8-65.7,0.8-52.2,77.5-57.4
							c17.1,5.5,23,21.1,23.4,36.2C215.4,88.1,238.9,111.9,242.9,141.2z"/>
						<path class="st0" d="M169.1,33.1c17.1,5.5,23,21.1,23.4,36.2c22.9,18.8,46.5,42.6,50.4,71.9c-4.1,38.4-5.4,82.1-53.5,94.9
							c-12.5,7-42,38.8-61.6,38.8c-5.1,0-9.5-2.1-12.7-7.4c-2.4,0.9-4.4,1.4-6.1,1.4c-12,0-6.4-21.7-2.5-30.5c-0.3,0-0.5,0-0.8,0
							c-20.5,0-17,33.8-26.1,33.8c-1.8,0-4.1-1.3-7.2-4.5c-7-8.1-3.5-16.7-2.6-25.3c-2.7,0.7-6.1,1-9.6,1c-12.1,0-26.4-4.4-23.4-17
							c0.2,0,0.4,0,0.6,0c52.2,0,24-45.1,65.5-62.8c0.4-6.5-2.6-22.1,13.7-32.8c0.7-0.5,1.4-0.7,2.1-0.7c4.3,0,8.2,7.7,10.2,7.7
							c1.6,0,1.8-4.9,0-22.5c-15.8-1.4-40.3-1.4-37.2-24.8C97.4,24.8,92.5,38.3,169.1,33.1 M169.1,10.8c-0.5,0-1,0-1.5,0.1
							c-12.6,0.9-23.1,1.2-31.6,1.5c-10.7,0.4-19.1,0.6-26.2,1.7c-6.9,1.1-17.1,3.5-25.2,12.1c-7.4,7.8-9.9,17.5-11.3,25
							c-1.4,7.5-2.1,16.3-3.2,28.6c-0.2,2.7-0.5,5.4-0.7,8.3c-1.8,15.2,3.4,25.4,8.1,31.2c2.9,3.6,6.4,6.6,10.6,9.1
							c-2.1,3.4-3.7,7-5,10.8c-1.3,4-1.9,7.7-2.3,11.1c-1.4,1-2.7,2-4,3c-4.6,3.8-8.5,8.2-11.9,13.2c-5.7,8.5-8.5,17.2-10.8,24.1
							c-1.5,4.5-3.2,9.7-4.7,11.2c-0.8,0.8-4.3,2.2-12.2,2.2c-0.1,0-0.3,0-0.4,0c0,0-0.1,0-0.1,0c-10.3,0-19.3,7.1-21.6,17.1
							c-2.5,10.5-0.3,20.7,6,28.7c4.8,6.1,11.6,10.5,20.3,13.1c1.7,0.5,3.4,0.9,5.2,1.3c1.3,6.7,4.3,12.7,8.9,18
							c0.3,0.3,0.5,0.6,0.8,0.9c2.8,2.9,5.6,5.2,8.4,6.9c4.7,2.9,9.7,4.3,14.8,4.3c6,0,11.9-2.2,16.6-6.1c3.4,1.6,7.2,2.6,11.2,2.8
							c0.8,0.5,1.6,1.1,2.5,1.5c5.4,3,11.4,4.5,17.8,4.5c10.6,0,21.7-4,34.9-12.6c9.1-5.9,17.6-13,25.2-19.3
							c3.5-2.9,8.1-6.7,10.8-8.7c24.9-7.6,42.7-23.1,53-46.1c8.6-19.2,10.7-40.8,12.6-59.9c0.2-2.4,0.5-4.7,0.7-7
							c0.2-1.8,0.2-3.5-0.1-5.3c-1.2-9.2-4-18.5-8.2-27.4c-3.6-7.7-8.4-15.5-14.3-23.1c-7.5-9.8-16.8-19.3-28.6-29.6
							c-1.3-7.9-3.7-15.2-7.3-21.5c-6.8-12-17.3-20.5-30.6-24.8C173.7,11.2,171.4,10.8,169.1,10.8L169.1,10.8z"/>
					</g>
				</g>
				<g>
					<path class="st0" d="M209.8,91.3c11.1,14.4,22.6,30.4,24.1,49.1c0.2,5.9-1.1,11.4-3.1,16.9c-1,2.8-1.2,5.8-0.8,8.8
						c3.5,27.5-14,55.8-38.9,66.7c-3.7,1.6-8.1,2.1-11.2,4.9c-11.3,10-21.7,21.3-34.8,29c-8.8,4.6-27.3,14-31.1-0.3
						c-4.7,4-11.8,1.5-12.2-4.9c-0.4-8.7,2.6-17.2,4.8-25.2c-0.4-0.4-0.9,0.1-1.3,0.3c-4,2.1-7.7,4.6-10.9,7.7
						c-4.9,4.9-7.8,10.6-7.3,17.7c0.7,5.4-2.9,12.1-8.9,8.4c-8.3-6.1-9.4-17.2-6-26.3c1.1-2.1-0.4-3.7-2.5-2.7
						c-10.3,3.4-23.2,0.7-28.4-9.6c-1.1-2.1-1.4-4.3,0-6.4c6.6-8.3,17.1,7.3,27.7-9c8.1-13.2,8.2-29.7,18.4-41.8
						c0.2-0.3,0.4-0.5,0.6-0.8c4.6-4.2,9-8.8,15-11.2c2.3-1.2,0.2-2.6-1.2-3.5c-7.6-5.4-9-16.1-3-23.3c5.8-7.1,16.6-7.8,23.3-1.5
						c1.1,0.9,3.1,3.2,4.2,1c1.4-2,3.3-24.4-1-22.3c-15.4,3.5-36-4.8-32.8-23.5c0.6-4.9,2.1-9.5,2.8-14.4c0.8-5.3,0.8-10.6-0.4-15.9
						c-1.2-4.8-0.9-9.3,1.2-13.9c6.6-9.6,13.8-10,24.7-9.4c15.2,1.7,29.1-10.3,44-3.9c14.7,5.4,22.4,19.9,21.3,35
						c0,1.5,2.7,2.9,3.7,3.8c1.9,1.8,4,3.5,6,5.4c3.4,3.3,6.8,6.6,9.9,10.2c0.9,1.1,1.8,2.2,2.9,3.3C209,90.5,209.4,91,209.8,91.3z
						 M111.9,196.5c-1.8,6.3-4.1,12.7-2.8,19.6c0.1,0.8-0.2,0.9-0.8,1C93.3,221,77.7,236.2,76,251.9c-0.4,4.1,0.8,12.5,3.9,14.8
						c-0.8-18.6,12.8-31.6,30.1-36.2c2.8-0.8,2.8-0.6,4.3,2c0.5,1,1.3,1.8,0.5,2.9c-4.6,8.3-6.6,17.8-7.1,27.2
						c0,0.7-0.2,1.4,0.7,1.7c1.3,0.3,1.3-1.1,1.8-1.9c0.4-1.6,10.4-20.1,12-16.7c2.5,3.8,5.2,7.4,8.1,10.8c0.3,0.3,0.7,0.6,1.2,0.3
						c0.8-0.6,0.1-1.7-0.1-2.4c-1.5-4.7-2.7-9.5-3.6-14.4c2.1-6.6,18.9-9.7,25.3-9.2c0.8,0,1.1,0.3,0.8,1
						c-4.1,12.8-12.8,23-23.3,31.1c-2.5,1.9-5.1,3.6-7.9,5.2c-0.5,0.3-1,0.7-0.7,1.4c0.7,1.5,3.6-0.2,4.9-0.2
						c22.1-4.5,35.4-23.1,51.4-37.1c0.6-0.5,1.2-1,2-1.1c10.2-2.2,18.8-7.1,26-14.6c15-15.4,21.5-37.7,18-58.4
						c4.7-6.9,4.6-15.7,2.6-23.4c-7.9-26.7-28.6-47.6-50.3-64c-0.9-0.6-1.2-1.1-0.4-2c3.4-5.3,3-12.3,0.4-17.9
						c-10.3-21.7-28.1-14.6-46-8.4c-8.4,3.2-16.4-1.7-24.5,2.6c-3,1.4-4.9,3.8-5.1,7.2c-0.4,3.3,2.2,5.9,2.1,9.1
						c0.1,6.5-0.7,13-2.6,19.2c-3.2,9.4-1.2,21.9,9.5,25c6.9,2.2,13.8,2.1,20.6-1c0.7-0.3,1.1-0.3,1.3,0.5c3.4,12.1,4.2,24.1-0.5,36
						c-2.1,5.3-1.9,10.2,0.5,15.2c5.2,11.7-35.7,1.3-49.5,35.6c-7,17.2-10,44.8-35.9,36.7c-0.6-0.2-1.2-0.4-1.7,0.2
						c-0.5,0.6-0.1,1.2,0.3,1.7c4.3,5.3,10.5,7.2,17.1,6.5C85.4,233.7,96,210.6,111.9,196.5z M121.1,146.9
						c0-12.8-19.6-12.7-19.6,0.1C101.8,159.8,120.9,159.7,121.1,146.9z"/>
					<g>
						<path d="M233.9,132.7c0-0.1,0-0.1-0.1-0.2c-6.8-23-22.9-44.3-49.2-64.9c0.8-2.5,1.3-5.1,1.3-7.9c0-4.1-0.9-8.2-2.7-12.1
							c0,0,0,0,0,0c-5.9-12.5-15-18.8-27.1-18.8c-8.4,0-17.2,3-25.6,6c-0.7,0.2-1.4,0.5-2.1,0.7c-0.1,0-0.1,0-0.2,0.1
							c-1.3,0.5-2.7,0.7-4.5,0.7c-1.3,0-2.6-0.1-4-0.2c-1.6-0.1-3.2-0.2-5-0.2c-2.9,0-7.2,0.3-11.7,2.6c-5.4,2.7-8.6,7.3-9,13.1
							c-0.4,3.5,0.8,6.3,1.5,8.1c0.2,0.5,0.5,1.2,0.6,1.5v0.1c0.1,6.2-0.7,11.8-2.3,17c-2.7,8-2.3,16.7,1.2,23.4
							c2.8,5.3,7.3,9,13.1,10.7c3.8,1.2,7.6,1.8,11.3,1.8c2.4,0,4.9-0.3,7.2-0.8c1.8,9.4,1.2,17.5-1.8,25
							c-2.3,5.8-2.6,11.7-0.7,17.3c-1.4,0.4-3.1,0.8-4.5,1.1c-6.1,1.4-14.6,3.4-22.6,7.9c-9.7,5.5-16.9,13.7-21.1,24.3
							c-1.3,3.2-2.5,6.8-3.6,10.2c-2.1,6.4-4.3,13-7.3,17.6c-2.7,4.1-5.6,5.9-9.7,5.9c-1.8,0-3.9-0.4-6.3-1.1
							c-0.6-0.2-1.8-0.6-3.2-0.6c-2.6,0-5.1,1.2-6.6,3.4c-1.8,2.5-2.6,6.5,0.5,10.4c0,0,0,0,0.1,0.1c4.9,6,12,9.3,20.1,9.3
							c1.1,0,2.2-0.1,3.3-0.2c0.1,0,0.2,0,0.2,0c2.6-0.4,5.2-1,7.7-1.8c-1.1,3-1.8,5.9-2.1,8.9c0,0.1,0,0.1,0,0.2
							c-0.5,6.5,0.8,12.6,3.9,18c2.1,4.1,5.6,4.5,7,4.5c0.6,0,1.2-0.1,1.8-0.2c3.4-0.8,5.7-3.9,5.5-7.3c-0.3-6.9,1.9-13.1,6.5-18.3
							c2.9-3.3,6.8-6.1,11.3-8.2c-2.4,6.7-3.9,14.1-4.3,22.3c0,0,0,0,0,0l0,0.1c0,0.6-0.1,2,0.4,3.5c0.8,2.6,3,4.6,5.7,5.3
							c0.1,0,0.1,0,0.2,0c0.7,0.2,1.3,0.2,2,0.2c2.3,0,4.4-0.9,6-2.6c0,1.1,0.2,2.3,0.6,3.3c0,0.1,0.1,0.2,0.1,0.3
							c1.4,2.9,4.3,4.7,7.7,4.7c1.6,0,3.1-0.4,4.1-0.7c0.1,0,0.3-0.1,0.4-0.1c0.2,0,0.4-0.1,0.7-0.1c18.8-3.8,31.4-16.3,43.6-28.3
							c3.7-3.6,7.1-7,10.8-10.2c10.9-2.5,20.6-8,28.7-16.4c8.1-8.3,14.2-18.7,17.7-30.1c3.1-10.3,4.1-21.3,2.7-31.8
							C235.8,152.1,236.5,142.7,233.9,132.7z M119.2,261.8c-0.4,0.2-0.8,0.5-1.2,0.8c0.9-1.6,2.1-3.8,3.3-5.8c0.6,0.8,1.3,1.7,2,2.5
							C122.1,260.1,120.7,261,119.2,261.8z M136.9,247.3c-0.5-1.8-0.9-3.7-1.3-5.6c1-0.6,2.8-1.5,5.7-2.3c0.5-0.2,1.1-0.3,1.6-0.4
							C141.2,241.9,139.2,244.6,136.9,247.3z"/>
					</g>
					<g>
						<path class="st1" d="M141.3,193.3c0,0-0.5,1.2-0.7,1.8c-7.2,18.7-28.5,18.3-28.5,18.3s-0.4-0.8-0.4-3.5c0-1.3,0.2-12,7-21.7
							c0.1-0.2,0-0.3,0.1-0.4c2-2.4,2.1-6.9-1.3-8c-2.2-0.9-4.3-0.3-6.4,0.5c-17.6,6.2-16.4,27-27.3,39.4
							c-6.7,7.6-22.7,19.6-32.7,12.1c41.1,0.6,20.7-59.6,65.9-64.7c5.4-1,12.4,1.3,16.2-2.9c0.4-0.5,0.6-0.6,1.1-0.1
							c20.8,20.6,65.2,18.8,86.1,0.8c3.3-2.8,1.8,11.7,1.3,13c-2.4-2-4.8-1.1-7.1,0.2c-7.4,4.8-9.3,14.1-11.5,22
							c-2.2,10.2-10.4,17.3-19.9,20.9c-4.3,1.8-8.8,3.1-13.2,4.5c-1.8,0.6-3.7,1.4-3.7,3.8c-26.5-3.1-41.5,3.5-55.3,26.6
							c0.9-9.1,5-19,11.1-25.9c8.9-10.1,25.3-10.2,29.1-9.5c35.1,6.3,39.6-24.1,39.6-24.1s-7,11.8-19.4,18.7c-6.9,3.9-13.9,2-13.9,2
							c8.8-8.4,7.5-21.3,7.3-20.5c-4.5,16.8-12,20.1-12,20.1c-28.6-1.2-32,10.2-33.5,10c-20.9,0.4-39.5,17-40.3,36.2
							c-5.8-16,8.9-32.9,20.1-39.5c8.7-5.1,13-4.5,15.8-5.1C147,211.4,141.3,193.3,141.3,193.3z"/>
					</g>
					<path class="st2" d="M186.9,80.9c5.5,12.1-5.7,23.2-17.7,23.1c-10.8,0.4-17.4-9.6-24-16.8c-5.2-6.3-11.7-11.3-17.1-17.4
						c-5.7-6.1-16.1-14.4-10.3-23.5C143.1,50.6,167.7,63.8,186.9,80.9z"/>
					<path class="st2" d="M136.7,48.8c-3.7-1.3-7.4-2.6-11.1-3.9c15.4-3.8,36.8-14.7,47,3.6c-2.8,5.9-12.4,5.4-17.6,3.3
						C150.2,50.1,141.6,47.5,136.7,48.8z"/>
					<path class="st2" d="M101.5,93c-1.1-3.6-0.8-7.3,0.2-10.9c2-6.4,2.5-13.1,3.3-19.5c5.9,8.9,13.6,16.5,19.1,25.6
						C119.3,95,108.7,96,101.5,93z"/>
					<g>
						<path class="st1" d="M132.2,265c8.8-7.2,20-18,24.3-32.8c0.2-0.7,0.3-0.8,0.6-0.8c2.2,0.1,4.4,0.3,6.5,0.4
							c3,0.2,6.2,0.5,9.3,0.5c0.2,0,0.5,0,0.7,0c-1.6,1.6-3.1,3.3-4.8,5C158.5,248.1,146.9,260.3,132.2,265z"/>
						<path d="M157.1,231.9L157.1,231.9c2.2,0.1,4.4,0.3,6.5,0.4c2.9,0.2,5.9,0.5,8.9,0.5c-1.3,1.3-2.6,2.7-4,4.1
							c-9.7,10.1-20.5,21.4-33.9,26.6c8.5-7.2,18.3-17.5,22.3-31.3C157,232.2,157,232,157.1,231.9
							C157.1,231.9,157.1,231.9,157.1,231.9 M157.1,230.9c-0.8,0-1,0.5-1.1,1.1c-4.2,14.3-14.7,25.1-26.1,34.1
							c18.7-4.8,32.2-21.4,45-34.3c-0.7,0-1.3,0-2,0C167.7,231.8,162.5,231.1,157.1,230.9C157.2,230.9,157.1,230.9,157.1,230.9
							L157.1,230.9z"/>
					</g>
					<path class="st3" d="M136.7,48.8c5-1.3,13.4,1.4,18.4,3.1c5.2,2.1,14.8,2.6,17.6-3.3c3.1,4.9,4.6,10.2,2.8,15.9
						c-1.2,4-1.5,4.1-4.8,1.8C160,59.2,148.5,53.6,136.7,48.8z"/>
					<path class="st3" d="M101.5,93c7.2,3,17.8,2,22.6-4.8c2.6,3.8,4.5,7.9,6.2,12.2c0.4,1.1-0.3,1.3-0.9,1.6
						C120,105.9,103.8,105.1,101.5,93z"/>
					<g>
						<path class="st1" d="M127.3,248.2c-1.3-1.9-2.7-3.9-3.2-4.6l1.5-1.8L127.3,248.2z"/>
						<path d="M125.4,242.8l0.7,2.7c-0.5-0.8-1-1.5-1.4-2L125.4,242.8 M125.9,240.7l-2.4,2.8c0,0,3.5,4.9,5.1,7.4L125.9,240.7
							L125.9,240.7z"/>
					</g>
					<g>
						<path class="st1" d="M118.6,229.6c-0.3,0.7-1.4,2.3-1.4,2.3l-1.1-2.2C116,229.7,116.7,229.5,118.6,229.6z"/>
					</g>
					<g>
						<path class="st1" d="M104.3,146.4c0,0.3,0,0.6,0,0.9C104.1,147,104.1,146.7,104.3,146.4z"/>
						<path d="M104.3,146.4c-0.2,0.3-0.2,0.6,0,0.9C104.3,147,104.3,146.7,104.3,146.4L104.3,146.4z"/>
					</g>
					<path class="st3" d="M165.1,229.2c1.1-3,3.2-4.1,5-4.7c4.4-1.4,9.1-3,13.4-4.8c9.5-3.5,14.5-9.2,16.7-19.4
						c2.3-7.9,6.2-18.8,13.6-23.6c2.3-1.4,5.8-2,8.2,0C219.3,204,194.1,233.2,165.1,229.2z"/>
					<path class="st3" d="M114.9,218.5c0,0-0.4,4.8-5.7,6.3c-9.7,2.9-10.1-1.3-10.1-1.3s3.5-2.2,7.6-3.5
						C110.5,218.7,114.9,218.5,114.9,218.5z"/>
					<path class="st3" d="M140.7,220.9c-2.4,3.3-6.7,6.1-10.4,7.3c-4.3,1.3-7.9,1.6-7.9,1.6C126.8,224,134.3,222,140.7,220.9z"/>
					<path class="st3" d="M111.6,210c-0.3-7.5,1.8-13.7,5.5-20.4c-4.6,3.7-13.8,10.8-16.9,15.4c-10.5,12.8-27,30.8-42.7,29.2
						c17.8-3.9,31.1-19.3,36.2-36c3.5-9,14.3-23.1,24.4-19.2C129.7,183.4,112.8,209.5,111.6,210z"/>
					<path class="st1" d="M211.5,123.8c-0.7,6.9,5.7,12.1,12.2,12.1c-1-7.4-4.2-13.9-8.2-20.1C213.3,117.8,211.8,120.6,211.5,123.8z
						"/>
					<path class="st3" d="M137.6,159.7c-3.8-4.8-5.9-11.6-3-17.3c5.7-14.3,3.9-30.4-1.7-44.4c-5.8-15.3-19.7-24.9-27.3-39.1
						c-6.1-10.2,3.3-13.8,12.2-12.7c-5.8,9,4.6,17.4,10.3,23.5c5.4,6.1,11.8,11.2,17.1,17.4c6.5,7.1,13.2,17.2,24,16.8
						c12,0.1,23.2-10.9,17.7-23.1c10,8.8,19.3,19.4,26.4,30.7c-0.6,0.9-10.2,6.6-5.7,17.8c5,12.5,16.7,9.6,16.7,9.6
						C228.1,178.2,157.2,183.4,137.6,159.7z"/>
				</g>
			</g>
			<g>
				<text transform="matrix(1 0 0 1 1185.0471 81.7534)" class="st4 st5">R</text>
				<path d="M1190.2,89.5c-1.7,0-3.3-0.3-4.9-1c-1.5-0.6-2.8-1.5-4-2.7c-1.1-1.1-2.1-2.5-2.7-4c-0.7-1.5-1-3.2-1-4.9s0.3-3.3,1-4.9
					c0.6-1.5,1.5-2.8,2.7-4c1.1-1.1,2.5-2.1,4-2.7c1.5-0.7,3.2-1,4.9-1s3.3,0.3,4.9,1c1.5,0.6,2.8,1.5,4,2.7c1.1,1.1,2.1,2.5,2.7,4
					c0.7,1.5,1,3.2,1,4.9s-0.3,3.3-1,4.9c-0.6,1.5-1.5,2.8-2.7,4c-1.1,1.1-2.5,2.1-4,2.7C1193.6,89.2,1191.9,89.5,1190.2,89.5z
					 M1190.2,67.9c-2.4,0-4.7,0.9-6.4,2.7c-1.7,1.7-2.7,4-2.7,6.4s0.9,4.7,2.7,6.4c1.7,1.7,4,2.7,6.4,2.7c2.4,0,4.7-0.9,6.4-2.7
					c1.7-1.7,2.7-4,2.7-6.4s-0.9-4.7-2.7-6.4C1195,68.8,1192.7,67.9,1190.2,67.9z"/>
			</g>
			<g>
				<path d="M312,229.4h-32.7c-2.7,0-4.6-0.6-5.8-1.8c-1.2-1.2-1.8-3.1-1.8-5.8V85.1c0-2.7,0.6-4.6,1.8-5.8c1.2-1.2,3.1-1.8,5.8-1.8
					H312c2.7,0,4.6,0.6,5.8,1.8c1.2,1.2,1.8,3.1,1.8,5.8v48.5h8.4l21.7-49.2c1-2.5,2.3-4.3,4-5.4c1.7-1.1,3.9-1.6,6.5-1.6h32.5
					c2.4,0,4,0.6,4.9,1.8c0.8,1.2,0.8,2.9-0.2,5.2l-21.5,49.2c7.9,0.4,14.2,3.2,18.9,8.3c4.7,5.1,7.1,11.9,7.1,20.4v59.5
					c0,2.7-0.6,4.6-1.8,5.8c-1.2,1.2-3.1,1.8-5.8,1.8h-32.5c-2.7,0-4.6-0.6-5.8-1.8c-1.2-1.2-1.8-3.1-1.8-5.8v-41.1
					c0-2.2-0.6-4-1.7-5.3c-1.1-1.3-2.8-1.9-5.1-1.9h-27.9v48.3c0,2.7-0.6,4.6-1.8,5.8C316.6,228.8,314.6,229.4,312,229.4z"/>
				<path d="M469.2,229.4h-32.5c-2.7,0-4.6-0.6-5.8-1.8c-1.2-1.2-1.8-3.1-1.8-5.8V85.1c0-2.7,0.6-4.6,1.8-5.8
					c1.2-1.2,3.1-1.8,5.8-1.8h70.3c15.8,0,26.6,3.3,32.6,9.8c6,6.5,9,15,9,25.4v9.7c0,5.9-0.9,10.9-2.6,15.1c-1.8,4.2-4.8,7.1-9.2,9
					c7.6,0.8,13.7,3.9,18.5,9.3c4.7,5.3,7.1,12.5,7.1,21.3v44.7c0,2.7-0.6,4.6-1.8,5.8c-1.2,1.2-3.1,1.8-5.8,1.8h-32.7
					c-2.7,0-4.6-0.6-5.8-1.8c-1.2-1.2-1.8-3.1-1.8-5.8v-32.3c0-3.1-0.6-5.4-1.8-6.9c-1.2-1.5-3.3-2.2-6.2-2.2h-29.5v41.4
					c0,2.7-0.6,4.6-1.8,5.8C473.8,228.8,471.8,229.4,469.2,229.4z M476.8,115.5v27h15.8c3.7,0,6.1-0.9,7.4-2.8s1.9-4.3,1.9-7.1v-7.2
					c0-2.8-0.6-5.2-1.9-7.1s-3.7-2.8-7.4-2.8H476.8z"/>
				<path d="M628.9,221.8c0,2.7-0.6,4.6-1.8,5.8c-1.2,1.2-3.1,1.8-5.8,1.8h-31c-2.7,0-4.6-0.6-5.8-1.8c-1.2-1.2-1.8-3.1-1.8-5.8
					v-55.7c0-4.2,0.7-9.1,2-14.6c1.3-5.5,3.4-11.9,6.2-19.2l18.4-47.9c0.8-2.4,2.1-4.1,3.9-5.3c1.8-1.1,4-1.7,6.9-1.7h56.8
					c2.7,0,4.9,0.6,6.6,1.7c1.8,1.1,3.1,2.9,3.9,5.3l18.4,47.9c2.8,7.3,4.9,13.7,6.2,19.2c1.3,5.5,2,10.3,2,14.6v55.7
					c0,2.7-0.6,4.6-1.8,5.8c-1.2,1.2-3.1,1.8-5.8,1.8h-31.9c-2.8,0-4.9-0.6-6.2-1.8c-1.3-1.2-2-3.1-2-5.8v-29.5h-37.4V221.8z
					 M640.9,121.8l-9.9,32.1h33.1l-9.9-32.1c-0.6-1.3-1.2-2.2-1.8-2.7c-0.6-0.6-1.4-0.8-2.2-0.8h-5.3c-0.8,0-1.6,0.3-2.2,0.8
					C642.1,119.6,641.5,120.5,640.9,121.8z"/>
				<path d="M780.2,229.4h-32.7c-2.7,0-4.6-0.6-5.8-1.8c-1.2-1.2-1.8-3.1-1.8-5.8V85.1c0-2.7,0.6-4.6,1.8-5.8
					c1.2-1.2,3.1-1.8,5.8-1.8h32.7c2.7,0,4.6,0.6,5.8,1.8c1.2,1.2,1.8,3.1,1.8,5.8v48.5h8.4L818,84.4c1-2.5,2.3-4.3,4-5.4
					c1.7-1.1,3.9-1.6,6.5-1.6H861c2.4,0,4,0.6,4.9,1.8c0.8,1.2,0.8,2.9-0.2,5.2l-21.5,49.2c7.9,0.4,14.2,3.2,18.9,8.3
					c4.7,5.1,7.1,11.9,7.1,20.4v59.5c0,2.7-0.6,4.6-1.8,5.8c-1.2,1.2-3.1,1.8-5.8,1.8H830c-2.7,0-4.6-0.6-5.8-1.8
					c-1.2-1.2-1.8-3.1-1.8-5.8v-41.1c0-2.2-0.6-4-1.7-5.3c-1.1-1.3-2.8-1.9-5.1-1.9h-27.9v48.3c0,2.7-0.6,4.6-1.8,5.8
					C784.8,228.8,782.9,229.4,780.2,229.4z"/>
				<path d="M1002.8,229.4h-97.9c-2.7,0-4.6-0.6-5.8-1.8c-1.2-1.2-1.8-3.1-1.8-5.8V85.1c0-2.7,0.6-4.6,1.8-5.8
					c1.2-1.2,3.1-1.8,5.8-1.8h97.9c2.7,0,4.6,0.6,5.8,1.8c1.2,1.2,1.8,3.1,1.8,5.8v24.7c0,2.7-0.6,4.6-1.8,5.8
					c-1.2,1.2-3.1,1.8-5.8,1.8h-58.2v16.2h41.1c2.7,0,4.6,0.6,5.8,1.8c1.2,1.2,1.8,3.1,1.8,5.8v22.6c0,2.7-0.6,4.6-1.8,5.8
					c-1.2,1.2-3.1,1.8-5.8,1.8h-41.1v18.1h58.2c2.7,0,4.6,0.6,5.8,1.8c1.2,1.2,1.8,3.1,1.8,5.8v24.7c0,2.7-0.6,4.6-1.8,5.8
					C1007.4,228.8,1005.5,229.4,1002.8,229.4z"/>
				<path d="M1074.6,229.4h-31.7c-2.7,0-4.6-0.6-5.8-1.8c-1.2-1.2-1.8-3.1-1.8-5.8V85.1c0-2.7,0.6-4.6,1.8-5.8
					c1.2-1.2,3.1-1.8,5.8-1.8h21.9c2.7,0,5,0.4,6.9,1.3c1.9,0.8,3.8,2.3,5.6,4.4l40.9,46.8V85.1c0-2.7,0.6-4.6,1.8-5.8
					c1.2-1.2,3.1-1.8,5.8-1.8h31.7c2.7,0,4.6,0.6,5.8,1.8c1.2,1.2,1.8,3.1,1.8,5.8v136.7c0,2.7-0.6,4.6-1.8,5.8
					c-1.2,1.2-3.1,1.8-5.8,1.8h-31.7c-2.7,0-4.6-0.6-5.8-1.8c-1.2-1.2-1.8-3.1-1.8-5.8v-26l-36.1-43.7v69.6c0,2.7-0.6,4.6-1.8,5.8
					C1079.2,228.8,1077.2,229.4,1074.6,229.4z"/>
			</g>
		</g>
		<path class="st2" d="M224.2,138.9l0.1,0.6c0,0-15.3,2.9-18.3-13.9c-0.8-4.6,2.6-11.6,7.3-14.1c0.8,1.2,0.5,0.5,1.2,1.8
			c-1.8,1.9-6.7,5-5.9,11.7C210.3,139.8,224.2,138.9,224.2,138.9z"/>
		<circle class="st2" cx="158.9" cy="151.4" r="17.9"/>
		<g>
			<path class="st1" d="M118.2,146.8c-0.2,9.1-13.7,9.1-13.9,0C104.5,137.6,118.1,137.6,118.2,146.8z"/>
		</g>
		<g>
			<circle class="st1" cx="158.9" cy="152.2" r="11.9"/>
		</g>
		<path class="st3" d="M112.5,140.4c0.7,8.1-7.6,7.8-7.6,7.8C104,143.5,107.3,139.7,112.5,140.4z"/>
		<path d="M158.9,140.6c6.4,0,11.6,5.2,11.6,11.6c0,6.4-5.2,11.6-11.6,11.6s-11.6-5.2-11.6-11.6
			C147.2,145.8,152.4,140.6,158.9,140.6 M158.9,136.6c-8.6,0-15.6,7-15.6,15.6c0,8.6,7,15.6,15.6,15.6s15.6-7,15.6-15.6
			C174.5,143.6,167.5,136.6,158.9,136.6L158.9,136.6z"/>
	</g>
	<g>
		<path d="M111.3,140.3c3.2,0,6.4,2.1,6.5,6.4c-0.1,4.3-3.3,6.4-6.5,6.4c-3.2,0-6.4-2.1-6.5-6.4
			C104.9,142.5,108.1,140.3,111.3,140.3 M111.3,136.8v3.1V136.8L111.3,136.8L111.3,136.8c-4.9,0-9.9,3.4-10,9.9l0,0.1l0,0.1
			c0.1,6.5,5.1,9.9,10,9.9c4.9,0,9.9-3.4,10-9.9l0-0.1l0-0.1C121.2,140.2,116.2,136.8,111.3,136.8L111.3,136.8z"/>
	</g>
	<path class="st3" d="M159.5,140.6c5.5,0.8,6.5,6.9,0.8,11.2c-2.9,2.2-8.2,2.7-10.7,0.4C144.5,147.3,153.9,139.8,159.5,140.6z"/>
	<path class="st3" d="M215.6,115.8c2.9,4,5.2,9.6,5.2,9.6c-1.4,1.9-3.4,2.7-5.1,3.1c-2.1,0.4-4.1-1.1-4.2-3.3c0-1.1,0.1-2.4,0.5-3.9
		C213,117.8,215.6,115.8,215.6,115.8z"/>
</g>
</svg>
