<?xml version="1.0" encoding="utf-8"?>
<!-- Generator: Adobe Illustrator 26.3.1, SVG Export Plug-In . SVG Version: 6.00 Build 0)  -->
<svg version="1.1" id="Layer_1" xmlns="http://www.w3.org/2000/svg" xmlns:xlink="http://www.w3.org/1999/xlink" x="0px" y="0px"
	 viewBox="0 0 1289.6 308" style="enable-background:new 0 0 1289.6 308;" xml:space="preserve">
<style type="text/css">
	.st0{fill:#FFFFFF;}
	.st1{fill:#9146FF;}
	.st2{fill:#E7D6FF;}
	.st3{fill:#D7B8F3;}
	.st4{font-family:'Bungee-Regular';}
	.st5{font-size:13.1562px;}
</style>
<g>
	<g>
		<g>
			<path class="st0" d="M1118.2,268H155.6c-4.8,0-8.7-3.9-8.7-8.7v-204c0-6.9,5.6-12.5,12.5-12.5h958.8
				c62.2,0,112.6,50.4,112.6,112.6v0C1230.8,217.6,1180.4,268,1118.2,268z"/>
			<g>
				<g>
					<g>
						<path class="st0" d="M271.3,142.1c-3.8,35.7-5,76.3-49.7,88.2c-14.6,8.2-54.4,52.9-69.1,29.2c-18.4,7.1-12.1-17.7-8-27.1
							c-23.7-0.9-14.1,45.3-31.6,27.2c-6.5-7.5-3.2-15.5-2.4-23.5c-11.1,2.7-34.3,0.3-30.7-14.9c49.2,0.3,22.7-41.9,61.4-58.3
							c0.4-6.1-2.4-20.5,12.8-30.5c7.9-5.2,15.5,25.8,11.4-14.4c-14.7-1.3-37.4-1.3-34.6-23c5.4-61,0.8-48.5,72-53.4
							c15.9,5.1,21.4,19.6,21.7,33.7C245.7,92.7,267.6,114.9,271.3,142.1z"/>
						<path class="st0" d="M202.7,41.6c15.9,5.1,21.4,19.6,21.7,33.7c21.3,17.5,43.2,39.6,46.9,66.9c-3.8,35.7-5,76.3-49.7,88.2
							c-11.6,6.5-39.1,36.1-57.3,36.1c-4.7,0-8.8-2-11.8-6.9c-2.3,0.9-4.1,1.3-5.7,1.3c-11.2,0-5.9-20.2-2.3-28.3
							c-0.2,0-0.5,0-0.7,0c-19.1,0-15.8,31.4-24.2,31.4c-1.7,0-3.8-1.2-6.7-4.2c-6.5-7.5-3.2-15.5-2.4-23.5c-2.5,0.6-5.6,1-8.9,1
							c-11.3,0-24.5-4.1-21.7-15.8c0.2,0,0.4,0,0.5,0c48.5,0,22.3-41.9,60.8-58.3c0.4-6.1-2.4-20.5,12.8-30.5
							c0.6-0.4,1.3-0.6,1.9-0.6c4,0,7.6,7.2,9.4,7.2c1.4,0,1.7-4.6,0-21c-14.7-1.3-37.4-1.3-34.6-23C136.1,34,131.5,46.5,202.7,41.6
							 M202.7,21c-0.5,0-0.9,0-1.4,0c-11.7,0.8-21.5,1.1-29.3,1.4c-9.9,0.3-17.7,0.6-24.3,1.6c-6.4,1-15.9,3.3-23.4,11.3
							c-6.9,7.3-9.2,16.2-10.5,23.2c-1.3,7-2,15.2-2.9,26.6c-0.2,2.5-0.4,5-0.7,7.7c-1.7,14.2,3.1,23.6,7.5,29
							c2.7,3.3,6,6.1,9.9,8.5c-1.9,3.1-3.5,6.5-4.6,10c-1.2,3.7-1.8,7.2-2.1,10.3c-1.3,0.9-2.5,1.8-3.7,2.8
							c-4.2,3.5-7.9,7.6-11,12.2c-5.3,7.9-7.9,15.9-10.1,22.4c-1.4,4.2-3,9-4.4,10.4c-0.8,0.8-4,2-11.3,2c-0.1,0-0.3,0-0.4,0
							c0,0-0.1,0-0.1,0c-9.6,0-17.9,6.6-20.1,15.9c-2.3,9.7-0.3,19.2,5.6,26.7c4.5,5.6,10.8,9.7,18.8,12.2c1.6,0.5,3.2,0.9,4.8,1.2
							c1.2,6.2,4,11.8,8.3,16.7c0.2,0.3,0.5,0.6,0.8,0.8c2.6,2.7,5.2,4.8,7.8,6.4c4.4,2.7,9,4,13.7,4c5.6,0,11.1-2,15.4-5.6
							c3.2,1.5,6.7,2.4,10.4,2.6c0.8,0.5,1.5,1,2.3,1.4c5,2.8,10.6,4.2,16.6,4.2c9.8,0,20.1-3.7,32.4-11.7
							c8.4-5.5,16.4-12.1,23.4-17.9c3.3-2.7,7.5-6.2,10.1-8.1c23.1-7,39.7-21.4,49.3-42.9c7.9-17.8,10-37.9,11.7-55.7
							c0.2-2.2,0.4-4.4,0.7-6.5c0.2-1.6,0.1-3.3-0.1-4.9c-1.2-8.6-3.7-17.2-7.6-25.5c-3.4-7.2-7.8-14.4-13.3-21.5
							c-7-9.1-15.6-17.9-26.6-27.5c-1.2-7.3-3.5-14.1-6.8-20c-6.3-11.1-16.1-19.1-28.4-23C207,21.3,204.9,21,202.7,21L202.7,21z"/>
					</g>
				</g>
				<g>
					<path class="st0" d="M240.6,95.8c10.3,13.4,21,28.2,22.4,45.6c0.1,5.4-1,10.6-2.8,15.7c-0.9,2.6-1.2,5.4-0.7,8.1
						c3.3,25.5-13,51.8-36.1,61.9c-3.5,1.5-7.5,2-10.4,4.6c-10.5,9.3-20.2,19.8-32.3,27c-8.2,4.3-25.3,13-28.9-0.3
						c-4.4,3.8-11,1.4-11.4-4.5c-0.4-8.1,2.4-16,4.5-23.4c-0.4-0.4-0.8,0.1-1.2,0.3c-3.7,1.9-7.1,4.2-10.1,7.2
						c-4.5,4.5-7.2,9.8-6.8,16.4c0.6,5-2.7,11.3-8.3,7.8c-7.7-5.7-8.7-16-5.6-24.4c1-2-0.3-3.5-2.3-2.5c-9.6,3.1-21.5,0.7-26.4-8.9
						c-1-1.9-1.3-4,0-5.9c6.2-7.7,15.9,6.8,25.8-8.3c7.5-12.2,7.7-27.6,17.1-38.8c0.2-0.2,0.4-0.5,0.5-0.7
						c4.3-3.9,8.3-8.2,13.9-10.5c2.1-1.1,0.2-2.5-1.1-3.2c-7-5-8.3-14.9-2.8-21.6c5.4-6.6,15.4-7.2,21.7-1.4c1,0.9,2.9,3,3.9,0.9
						c1.3-1.8,3.1-22.7-0.9-20.8c-14.3,3.2-33.4-4.5-30.5-21.8c0.6-4.5,2-8.9,2.6-13.4c0.7-5,0.8-9.9-0.3-14.8
						c-1.2-4.5-0.9-8.7,1.1-12.9c6.2-8.9,12.9-9.3,22.9-8.7c14.1,1.6,27.1-9.5,40.9-3.6c13.7,5,20.8,18.5,19.8,32.6
						c0,1.4,2.5,2.7,3.5,3.6c1.8,1.7,3.7,3.3,5.5,5c3.1,3.1,6.3,6.1,9.2,9.5c0.9,1,1.7,2.1,2.7,3C239.8,95,240.1,95.4,240.6,95.8z
						 M149.5,193.5c-1.7,5.8-3.8,11.8-2.6,18.2c0.1,0.7-0.2,0.8-0.8,0.9c-13.9,3.7-28.4,17.8-30,32.3c-0.4,3.8,0.7,11.6,3.6,13.8
						c-0.7-17.3,11.9-29.4,28-33.7c2.6-0.8,2.6-0.6,4,1.9c0.5,0.9,1.2,1.7,0.5,2.7c-4.2,7.7-6.1,16.6-6.6,25.3
						c0,0.6-0.1,1.3,0.7,1.6c1.2,0.3,1.2-1,1.6-1.7c0.4-1.5,9.7-18.7,11.2-15.6c2.3,3.5,4.8,6.9,7.5,10.1c0.3,0.3,0.6,0.5,1.1,0.2
						c0.8-0.5,0.1-1.5-0.1-2.2c-1.4-4.4-2.5-8.8-3.3-13.4c2-6.2,17.6-9,23.5-8.5c0.7,0,1,0.2,0.7,1c-3.8,11.9-11.9,21.3-21.7,28.9
						c-2.3,1.8-4.8,3.4-7.3,4.8c-0.5,0.3-0.9,0.6-0.7,1.3c0.6,1.4,3.4-0.2,4.5-0.2c20.5-4.2,32.9-21.5,47.8-34.5
						c0.5-0.5,1.1-0.9,1.8-1.1c9.4-2,17.5-6.6,24.2-13.5c13.9-14.3,20-35,16.8-54.3c4.3-6.4,4.3-14.6,2.4-21.8
						c-7.3-24.8-26.6-44.2-46.8-59.5c-0.8-0.6-1.1-1-0.4-1.9c3.2-5,2.8-11.4,0.4-16.6c-9.6-20.2-26.1-13.6-42.8-7.8
						c-7.8,2.9-15.3-1.6-22.8,2.4c-2.8,1.3-4.5,3.5-4.7,6.7c-0.4,3.1,2,5.5,1.9,8.5c0.1,6.1-0.6,12-2.5,17.9
						c-3,8.7-1.1,20.4,8.9,23.2c6.4,2.1,12.9,1.9,19.1-0.9c0.7-0.3,1-0.3,1.2,0.5c3.2,11.2,3.9,22.4-0.5,33.5
						c-1.9,4.9-1.8,9.5,0.5,14.1c4.8,10.9-33.2,1.2-46,33.1c-6.5,16-9.3,41.7-33.3,34.1c-0.6-0.2-1.2-0.4-1.6,0.2
						c-0.4,0.6-0.1,1.1,0.3,1.6c4,4.9,9.8,6.7,15.9,6C124.9,228.1,134.8,206.6,149.5,193.5z M158.1,147.4c0-11.9-18.2-11.8-18.2,0.1
						C140.2,159.4,157.9,159.3,158.1,147.4z"/>
					<g>
						<path d="M262.9,134.2c0-0.1,0-0.1-0.1-0.2c-6.3-21.4-21.3-41.1-45.7-60.3c0.8-2.3,1.2-4.8,1.2-7.3c0-3.8-0.9-7.6-2.5-11.2
							c0,0,0,0,0,0c-5.5-11.6-14-17.5-25.2-17.5c-7.8,0-16,2.8-23.8,5.6c-0.7,0.2-1.3,0.5-2,0.7c-0.1,0-0.1,0-0.2,0.1
							c-1.2,0.4-2.5,0.6-4.2,0.6c-1.2,0-2.4-0.1-3.7-0.2c-1.5-0.1-3-0.2-4.6-0.2c-2.6,0-6.6,0.3-10.9,2.5c-5.1,2.5-8,6.8-8.4,12.1
							c-0.3,3.2,0.7,5.8,1.4,7.6c0.2,0.5,0.5,1.1,0.5,1.4v0.1c0.1,5.8-0.6,10.9-2.1,15.8c-2.5,7.4-2.1,15.6,1.1,21.7
							c2.6,5,6.8,8.4,12.1,10c3.5,1.1,7.1,1.7,10.5,1.7c2.3,0,4.5-0.2,6.7-0.7c1.7,8.7,1.1,16.2-1.7,23.2
							c-2.2,5.4-2.4,10.8-0.7,16.1c-1.3,0.4-2.9,0.7-4.2,1c-5.7,1.3-13.5,3.2-21,7.4c-9.1,5.1-15.7,12.7-19.6,22.6
							c-1.2,3-2.3,6.3-3.4,9.5c-2,5.9-4,12.1-6.8,16.3c-2.5,3.8-5.2,5.5-9,5.5c-1.7,0-3.7-0.3-5.8-1c-0.6-0.2-1.7-0.6-3-0.6
							c-2.5,0-4.7,1.2-6.2,3.2c-1.7,2.3-2.4,6,0.5,9.6c0,0,0,0,0,0.1c4.5,5.6,11.1,8.6,18.7,8.6c1,0,2-0.1,3-0.2c0.1,0,0.2,0,0.2,0
							c2.5-0.3,4.8-0.9,7.2-1.7c-1,2.8-1.7,5.5-2,8.3c0,0.1,0,0.1,0,0.2c-0.5,6.1,0.8,11.7,3.6,16.7c2,3.8,5.2,4.2,6.6,4.2
							c0.6,0,1.1-0.1,1.7-0.2c3.1-0.7,5.3-3.6,5.1-6.8c-0.3-6.5,1.7-12.2,6-17c2.7-3.1,6.3-5.7,10.5-7.6c-2.3,6.2-3.6,13.1-4,20.7
							c0,0,0,0,0,0l0,0.1c0,0.6-0.1,1.8,0.4,3.3c0.8,2.4,2.8,4.3,5.3,5c0.1,0,0.1,0,0.2,0c0.6,0.1,1.2,0.2,1.9,0.2
							c2.1,0,4.1-0.9,5.6-2.4c0,1.1,0.2,2.1,0.6,3c0,0.1,0.1,0.2,0.1,0.3c1.3,2.7,4,4.4,7.1,4.4c1.5,0,2.8-0.4,3.8-0.6
							c0.1,0,0.3-0.1,0.4-0.1c0.2,0,0.4-0.1,0.6-0.1c17.5-3.6,29.2-15.1,40.5-26.3c3.4-3.4,6.6-6.5,10-9.5
							c10.1-2.3,19.1-7.5,26.7-15.2c7.5-7.7,13.2-17.4,16.4-28c2.9-9.6,3.8-19.8,2.5-29.6C264.7,152.2,265.4,143.5,262.9,134.2z
							 M156.3,254.2c-0.4,0.2-0.7,0.5-1.1,0.7c0.8-1.5,1.9-3.5,3.1-5.4c0.6,0.8,1.2,1.5,1.8,2.3C159,252.6,157.7,253.4,156.3,254.2z
							 M172.7,240.7c-0.5-1.7-0.9-3.4-1.2-5.2c1-0.6,2.6-1.4,5.3-2.1c0.5-0.1,1-0.3,1.5-0.4C176.8,235.7,174.9,238.2,172.7,240.7z"
							/>
					</g>
					<g>
						<path class="st1" d="M176.8,190.5c0,0-0.5,1.1-0.7,1.7c-6.7,17.3-26.5,17-26.5,17s-0.3-0.7-0.4-3.2c0-1.2,0.2-11.1,6.6-20.2
							c0.1-0.2,0-0.3,0.1-0.4c1.8-2.2,2-6.5-1.3-7.4c-2-0.8-4-0.3-5.9,0.5c-16.4,5.7-15.3,25.1-25.4,36.6
							c-6.3,7.1-21.1,18.2-30.4,11.3c38.2,0.6,19.2-55.4,61.3-60.2c5-0.9,11.5,1.3,15.1-2.7c0.3-0.5,0.6-0.6,1-0.1
							c19.4,19.2,60.6,17.5,80.1,0.8c3.1-2.6,1.7,10.9,1.2,12.1c-2.3-1.8-4.5-1.1-6.6,0.2c-6.8,4.5-8.6,13.1-10.7,20.5
							c-2.1,9.5-9.7,16.1-18.5,19.4c-4,1.7-8.1,2.9-12.3,4.2c-1.7,0.5-3.4,1.3-3.5,3.5c-24.7-2.9-38.6,3.2-51.4,24.8
							c0.9-8.4,4.7-17.7,10.3-24.1c8.3-9.4,23.5-9.5,27-8.8c32.6,5.9,36.8-22.4,36.8-22.4s-6.5,11-18.1,17.4
							c-6.4,3.6-12.9,1.8-12.9,1.8c8.2-7.8,7-19.8,6.8-19c-4.2,15.6-11.2,18.7-11.2,18.7c-26.6-1.1-29.7,9.4-31.2,9.3
							c-19.4,0.3-36.7,15.8-37.5,33.7c-5.4-14.9,8.3-30.6,18.7-36.7c8.1-4.7,12.1-4.1,14.7-4.7C182.1,207.3,176.8,190.5,176.8,190.5
							z"/>
					</g>
					<path class="st2" d="M219.2,86c5.1,11.3-5.3,21.5-16.5,21.4c-10,0.4-16.2-9-22.3-15.6c-4.9-5.8-10.8-10.5-15.9-16.2
						c-5.3-5.6-15-13.3-9.7-21.7C178.5,58,201.4,70.2,219.2,86z"/>
					<path class="st2" d="M172.6,56.2c-3.4-1.2-6.9-2.4-10.3-3.6C176.6,49.1,196.5,39,206,56c-2.6,5.5-11.6,5-16.4,3.1
						C185.1,57.5,177.2,55,172.6,56.2z"/>
					<path class="st2" d="M139.8,97.3c-1-3.4-0.7-6.8,0.2-10.1c1.8-5.9,2.3-12.1,3.1-18.1c5.4,8.3,12.6,15.3,17.7,23.8
						C156.4,99.1,146.6,100.1,139.8,97.3z"/>
					<g>
						<path class="st1" d="M168.5,257c8.2-6.7,18.4-16.7,22.4-30.4c0.2-0.6,0.2-0.7,0.6-0.7c2.1,0.1,4.1,0.2,6.1,0.4
							c2.8,0.2,5.8,0.5,8.6,0.5c0.2,0,0.4,0,0.6,0c-1.5,1.5-2.9,3-4.4,4.6C192.9,241.4,182.1,252.7,168.5,257z"/>
						<path d="M191.6,226.5L191.6,226.5c2,0.1,4,0.2,6,0.4c2.7,0.2,5.4,0.4,8.1,0.5c-1.2,1.2-2.3,2.4-3.6,3.7
							c-8.9,9.3-18.8,19.7-31.1,24.6c7.8-6.7,16.8-16.2,20.4-28.8C191.5,226.7,191.5,226.6,191.6,226.5 M191.5,225.5
							c-0.8,0-0.9,0.5-1,1.1c-3.9,13.3-13.7,23.4-24.2,31.7c17.4-4.4,29.9-19.9,41.8-31.9c-0.6,0-1.2,0-1.8,0
							C201.4,226.3,196.5,225.7,191.5,225.5C191.6,225.5,191.6,225.5,191.5,225.5L191.5,225.5z"/>
					</g>
					<path class="st3" d="M171.8,55.9c4.6-1.2,13.7,1,18.3,2.6c4.8,1.9,12.9,2.3,15.5-3.2c2.9,4.6,4.6,10,2.9,15.4
						c-1.1,3.7-1.4,3.8-4.5,1.7C194.2,65.9,182.8,60.4,171.8,55.9z"/>
					<path class="st3" d="M139.5,96c6.7,2.8,16.3,2.1,20.7-4.2c2.4,3.5,4.8,8.4,6.4,12.3c0.4,1-0.3,1.2-0.9,1.5
						C157,109.3,141.7,107.3,139.5,96z"/>
					<g>
						<path class="st1" d="M163.8,241.3c-1.1-1.7-2.4-3.4-2.8-4.1l1.4-1.6L163.8,241.3z"/>
						<path d="M162.1,236.7l0.5,2c-0.4-0.6-0.8-1.1-1-1.5L162.1,236.7 M162.6,234.6l-2.2,2.6c0,0,3.2,4.6,4.7,6.9L162.6,234.6
							L162.6,234.6z"/>
					</g>
					<g>
						<path class="st1" d="M155.7,224.3c-0.3,0.6-1.3,2.1-1.3,2.1l-1-2C153.4,224.4,154,224.1,155.7,224.3z"/>
					</g>
					<g>
						<path class="st1" d="M142.4,146.9c0,0.3,0,0.6,0,0.8C142.3,147.5,142.3,147.2,142.4,146.9z"/>
						<path d="M142.4,146.9c-0.2,0.3-0.2,0.6,0,0.8C142.5,147.5,142.4,147.2,142.4,146.9L142.4,146.9z"/>
					</g>
					<path class="st3" d="M199,223.9c1-2.8,3-3.8,4.6-4.4c4.1-1.3,8.5-2.8,12.5-4.5c8.8-3.3,13.4-8.5,15.5-18
						c2.1-7.3,5.8-17.5,12.6-22c2.1-1.3,5.4-1.8,7.7,0C249.4,200.4,225.9,227.6,199,223.9z"/>
					<path class="st3" d="M152.3,213.9c0,0-0.4,4.4-5.3,5.9c-9,2.6-9.4-1.2-9.4-1.2s3.3-2,7-3.3
						C148.2,214.1,152.3,213.9,152.3,213.9z"/>
					<path class="st3" d="M176.3,216.2c-2.3,3-6.2,5.7-9.6,6.7c-4,1.2-7.4,1.5-7.4,1.5C163.4,219,170.4,217.2,176.3,216.2z"/>
					<path class="st3" d="M149.3,206.1c-0.3-6.9,1.7-12.7,5.1-19c-4.3,3.5-12.8,10-15.7,14.3c-9.8,11.9-25.1,28.7-39.7,27.1
						c16.5-3.6,28.9-17.9,33.7-33.5c3.2-8.3,13.3-21.5,22.7-17.8C166.1,181.4,150.4,205.6,149.3,206.1z"/>
					<path class="st1" d="M242.1,125.9c-0.7,6.4,5.3,11.2,11.4,11.3c-0.9-6.9-3.9-12.9-7.6-18.7
						C243.8,120.3,242.4,122.9,242.1,125.9z"/>
					<path class="st3" d="M173.4,159.3c-3.5-4.5-5.5-10.7-2.8-16c5.3-13.3,3.6-28.3-1.6-41.3c-5.4-14.2-18.3-23.2-25.4-36.3
						c-5.7-9.5,4.5-13.2,12.5-11.5c-5.4,8.4,3.9,15.6,9.3,21.3c5,5.7,11,10.4,15.9,16.2c6.1,6.6,11.3,15.4,21.4,15
						c11.2,0.1,20.8-10.1,15.7-21.3c9.3,8.2,18.9,18.9,25.5,29.4c-0.5,0.8-9.5,6.1-5.3,16.5c4.7,11.6,15.5,8.9,15.5,8.9
						C257.6,176.5,191.6,181.3,173.4,159.3z"/>
				</g>
			</g>
			<g>
				<text transform="matrix(1 0 0 1 1146.8915 86.858)" class="st4 st5">R</text>
				<path d="M1151.7,94.1c-1.6,0-3.1-0.3-4.5-0.9c-1.4-0.6-2.6-1.4-3.7-2.5c-1.1-1.1-1.9-2.3-2.5-3.7c-0.6-1.4-0.9-3-0.9-4.5
					c0-1.6,0.3-3.1,0.9-4.5c0.6-1.4,1.4-2.6,2.5-3.7c1.1-1.1,2.3-1.9,3.7-2.5c1.4-0.6,3-0.9,4.5-0.9c1.6,0,3.1,0.3,4.5,0.9
					c1.4,0.6,2.6,1.4,3.7,2.5c1.1,1.1,1.9,2.3,2.5,3.7c0.6,1.4,0.9,3,0.9,4.5c0,1.6-0.3,3.1-0.9,4.5c-0.6,1.4-1.4,2.6-2.5,3.7
					c-1.1,1.1-2.3,1.9-3.7,2.5C1154.8,93.8,1153.3,94.1,1151.7,94.1z M1151.7,74c-2.3,0-4.4,0.9-6,2.5c-1.6,1.6-2.5,3.7-2.5,6
					c0,2.3,0.9,4.4,2.5,6c1.6,1.6,3.7,2.5,6,2.5c2.3,0,4.4-0.9,6-2.5c1.6-1.6,2.5-3.7,2.5-6c0-2.3-0.9-4.4-2.5-6
					C1156.1,74.9,1154,74,1151.7,74z"/>
			</g>
			<g>
				<path d="M335.5,224.1h-30.4c-2.5,0-4.3-0.6-5.4-1.7c-1.1-1.1-1.7-2.9-1.7-5.4V89.9c0-2.5,0.6-4.3,1.7-5.4
					c1.1-1.1,2.9-1.7,5.4-1.7h30.4c2.5,0,4.3,0.6,5.4,1.7c1.1,1.1,1.7,2.9,1.7,5.4v45.1h7.8l20.2-45.7c0.9-2.4,2.2-4,3.7-5
					c1.6-1,3.6-1.5,6.1-1.5h30.2c2.2,0,3.7,0.6,4.5,1.7c0.8,1.1,0.7,2.7-0.2,4.8l-20,45.7c7.3,0.4,13.2,3,17.6,7.7
					c4.4,4.8,6.6,11.1,6.6,18.9V217c0,2.5-0.6,4.3-1.7,5.4c-1.1,1.1-2.9,1.7-5.4,1.7h-30.2c-2.5,0-4.3-0.6-5.4-1.7
					c-1.1-1.1-1.7-2.9-1.7-5.4v-38.2c0-2.1-0.5-3.7-1.6-4.9c-1-1.2-2.6-1.8-4.7-1.8h-25.9V217c0,2.5-0.6,4.3-1.7,5.4
					C339.7,223.5,337.9,224.1,335.5,224.1z"/>
				<path d="M481.6,224.1h-30.2c-2.5,0-4.3-0.6-5.4-1.7c-1.1-1.1-1.7-2.9-1.7-5.4V89.9c0-2.5,0.6-4.3,1.7-5.4
					c1.1-1.1,2.9-1.7,5.4-1.7h65.3c14.6,0,24.7,3,30.3,9.1c5.6,6.1,8.3,14,8.3,23.6v9c0,5.5-0.8,10.2-2.5,14
					c-1.6,3.9-4.5,6.6-8.5,8.3c7.1,0.8,12.8,3.7,17.2,8.6c4.4,5,6.6,11.6,6.6,19.8V217c0,2.5-0.6,4.3-1.7,5.4
					c-1.1,1.1-2.9,1.7-5.4,1.7h-30.4c-2.5,0-4.3-0.6-5.4-1.7c-1.1-1.1-1.7-2.9-1.7-5.4v-30c0-2.9-0.6-5-1.7-6.4
					c-1.1-1.4-3-2.1-5.8-2.1h-27.5V217c0,2.5-0.6,4.3-1.7,5.4C485.9,223.5,484.1,224.1,481.6,224.1z M488.6,118.2v25.1h14.7
					c3.4,0,5.7-0.9,6.9-2.6c1.2-1.8,1.8-4,1.8-6.6v-6.7c0-2.6-0.6-4.8-1.8-6.6c-1.2-1.8-3.5-2.6-6.9-2.6H488.6z"/>
				<path d="M630,217c0,2.5-0.6,4.3-1.7,5.4c-1.1,1.1-2.9,1.7-5.4,1.7h-28.8c-2.5,0-4.3-0.6-5.4-1.7c-1.1-1.1-1.7-2.9-1.7-5.4v-51.8
					c0-3.9,0.6-8.4,1.9-13.5c1.2-5.1,3.2-11,5.8-17.8l17.1-44.5c0.8-2.2,2-3.9,3.6-4.9c1.6-1,3.8-1.6,6.4-1.6h52.8
					c2.5,0,4.5,0.5,6.2,1.6c1.6,1,2.8,2.7,3.6,4.9l17.1,44.5c2.6,6.8,4.5,12.7,5.8,17.8c1.2,5.1,1.9,9.6,1.9,13.5V217
					c0,2.5-0.6,4.3-1.7,5.4c-1.1,1.1-2.9,1.7-5.4,1.7h-29.6c-2.6,0-4.5-0.6-5.8-1.7c-1.2-1.1-1.9-2.9-1.9-5.4v-27.5H630V217z
					 M641.2,124.1l-9.2,29.8h30.8l-9.2-29.8c-0.5-1.2-1.1-2-1.7-2.5c-0.6-0.5-1.3-0.8-2.1-0.8h-4.9c-0.8,0-1.5,0.3-2.1,0.8
					C642.3,122,641.7,122.9,641.2,124.1z"/>
				<path d="M770.6,224.1h-30.4c-2.5,0-4.3-0.6-5.4-1.7c-1.1-1.1-1.7-2.9-1.7-5.4V89.9c0-2.5,0.6-4.3,1.7-5.4
					c1.1-1.1,2.9-1.7,5.4-1.7h30.4c2.5,0,4.3,0.6,5.4,1.7c1.1,1.1,1.7,2.9,1.7,5.4v45.1h7.8l20.2-45.7c0.9-2.4,2.2-4,3.7-5
					c1.6-1,3.6-1.5,6.1-1.5h30.2c2.2,0,3.7,0.6,4.5,1.7c0.8,1.1,0.7,2.7-0.2,4.8l-20,45.7c7.3,0.4,13.2,3,17.6,7.7
					c4.4,4.8,6.6,11.1,6.6,18.9V217c0,2.5-0.6,4.3-1.7,5.4c-1.1,1.1-2.9,1.7-5.4,1.7h-30.2c-2.5,0-4.3-0.6-5.4-1.7
					c-1.1-1.1-1.7-2.9-1.7-5.4v-38.2c0-2.1-0.5-3.7-1.6-4.9c-1-1.2-2.6-1.8-4.7-1.8h-25.9V217c0,2.5-0.6,4.3-1.7,5.4
					C774.9,223.5,773.1,224.1,770.6,224.1z"/>
				<path d="M977.5,224.1h-91c-2.5,0-4.3-0.6-5.4-1.7c-1.1-1.1-1.7-2.9-1.7-5.4V89.9c0-2.5,0.6-4.3,1.7-5.4c1.1-1.1,2.9-1.7,5.4-1.7
					h91c2.5,0,4.3,0.6,5.4,1.7c1.1,1.1,1.7,2.9,1.7,5.4v22.9c0,2.5-0.6,4.3-1.7,5.4c-1.1,1.1-2.9,1.7-5.4,1.7h-54.1v15.1h38.2
					c2.5,0,4.3,0.6,5.4,1.7c1.1,1.1,1.7,2.9,1.7,5.4v21c0,2.5-0.6,4.3-1.7,5.4c-1.1,1.1-2.9,1.7-5.4,1.7h-38.2V187h54.1
					c2.5,0,4.3,0.6,5.4,1.7c1.1,1.1,1.7,2.9,1.7,5.4V217c0,2.5-0.6,4.3-1.7,5.4C981.8,223.5,980,224.1,977.5,224.1z"/>
				<path d="M1044.2,224.1h-29.4c-2.5,0-4.3-0.6-5.4-1.7c-1.1-1.1-1.7-2.9-1.7-5.4V89.9c0-2.5,0.6-4.3,1.7-5.4
					c1.1-1.1,2.9-1.7,5.4-1.7h20.4c2.5,0,4.6,0.4,6.4,1.2c1.8,0.8,3.5,2.2,5.2,4.1l38,43.5V89.9c0-2.5,0.6-4.3,1.7-5.4
					c1.1-1.1,2.9-1.7,5.4-1.7h29.4c2.5,0,4.3,0.6,5.4,1.7c1.1,1.1,1.7,2.9,1.7,5.4V217c0,2.5-0.6,4.3-1.7,5.4
					c-1.1,1.1-2.9,1.7-5.4,1.7h-29.4c-2.5,0-4.3-0.6-5.4-1.7c-1.1-1.1-1.7-2.9-1.7-5.4v-24.1l-33.5-40.6V217c0,2.5-0.6,4.3-1.7,5.4
					C1048.5,223.5,1046.7,224.1,1044.2,224.1z"/>
			</g>
		</g>
		<path class="st2" d="M253.9,140l0.1,0.6c0,0-14.2,2.7-17-12.9c-0.8-4.3,2.4-10.8,6.8-13.1c0.8,1.1,0.4,0.5,1.1,1.7
			c-1.7,1.8-6.2,4.6-5.5,10.9C241,140.8,253.9,140,253.9,140z"/>
		<circle class="st2" cx="193.2" cy="151.6" r="16.6"/>
		<g>
			<path class="st1" d="M155.4,147.3c-0.1,8.5-12.7,8.5-12.9,0C142.7,138.8,155.3,138.8,155.4,147.3z"/>
		</g>
		<g>
			<circle class="st1" cx="193.2" cy="152.3" r="11"/>
		</g>
		<path class="st3" d="M150.1,141.4c0.7,7.5-7.1,7.3-7.1,7.3C142.2,144.2,145.3,140.7,150.1,141.4z"/>
		<path d="M193.2,141.5c6,0,10.8,4.8,10.8,10.8c0,6-4.8,10.8-10.8,10.8c-6,0-10.8-4.8-10.8-10.8
			C182.4,146.4,187.2,141.5,193.2,141.5 M193.2,137.8c-8,0-14.5,6.5-14.5,14.5s6.5,14.5,14.5,14.5s14.5-6.5,14.5-14.5
			S201.2,137.8,193.2,137.8L193.2,137.8z"/>
	</g>
	<g>
		<path d="M149,141.3c3,0,6,2,6.1,6c-0.1,4-3.1,6-6.1,6c-3,0-6-2-6.1-6C143,143.3,146,141.3,149,141.3 M149,138.1v2.9V138.1
			L149,138.1L149,138.1c-4.5,0-9.2,3.1-9.3,9.2l0,0l0,0c0.1,6,4.8,9.2,9.3,9.2c4.5,0,9.2-3.1,9.3-9.2l0,0l0,0
			C158.2,141.2,153.5,138.1,149,138.1L149,138.1z"/>
	</g>
	<path class="st3" d="M193.8,141.6c5.1,0.8,6,6.4,0.8,10.4c-2.7,2.1-7.6,2.5-9.9,0.3C179.8,147.8,188.6,140.8,193.8,141.6z"/>
	<path class="st3" d="M245.9,118.5c2.7,3.7,4.9,8.9,4.9,8.9c-1.3,1.8-3.2,2.6-4.8,2.9c-2,0.4-3.8-1-3.9-3c0-1,0.1-2.3,0.5-3.6
		C243.5,120.3,245.9,118.5,245.9,118.5z"/>
</g>
</svg>
