<?xml version="1.0" encoding="UTF-8"?>
<!--Generator: Apple Native CoreSVG 232.5-->
<!DOCTYPE svg
PUBLIC "-//W3C//DTD SVG 1.1//EN"
       "http://www.w3.org/Graphics/SVG/1.1/DTD/svg11.dtd">
<svg version="1.1" xmlns="http://www.w3.org/2000/svg" xmlns:xlink="http://www.w3.org/1999/xlink" width="3300" height="2200">
 <!--glyph: "", point size: 100.0, font version: "19.0d7e1", template writer version: "128"-->
 <style>.monochrome-0 {-sfsymbols-motion-group:1}
.monochrome-1 {opacity:0.0;-sfsymbols-clear-behind:true;-sfsymbols-motion-group:0;-sfsymbols-always-pulses:true}

.multicolor-0:tintColor {-sfsymbols-motion-group:1}
.multicolor-1:white {-sfsymbols-motion-group:0;-sfsymbols-always-pulses:true}

.hierarchical-0:tertiary {-sfsymbols-motion-group:1}
.hierarchical-1:primary {-sfsymbols-motion-group:0}

.SFSymbolsPreviewWireframe {fill:none;opacity:1.0;stroke:black;stroke-width:0.5}
</style>
 <g id="Notes">
  <rect height="2200" id="artboard" style="fill:white;opacity:1" width="3300" x="0" y="0"/>
  <line style="fill:none;stroke:black;opacity:1;stroke-width:0.5;" x1="263" x2="3036" y1="292" y2="292"/>
  <text style="stroke:none;fill:black;font-family:sans-serif;font-size:13;font-weight:bold;" transform="matrix(1 0 0 1 263 322)">Weight/Scale Variations</text>
  <text style="stroke:none;fill:black;font-family:sans-serif;font-size:13;text-anchor:middle;" transform="matrix(1 0 0 1 559.711 322)">Ultralight</text>
  <text style="stroke:none;fill:black;font-family:sans-serif;font-size:13;text-anchor:middle;" transform="matrix(1 0 0 1 856.422 322)">Thin</text>
  <text style="stroke:none;fill:black;font-family:sans-serif;font-size:13;text-anchor:middle;" transform="matrix(1 0 0 1 1153.13 322)">Light</text>
  <text style="stroke:none;fill:black;font-family:sans-serif;font-size:13;text-anchor:middle;" transform="matrix(1 0 0 1 1449.84 322)">Regular</text>
  <text style="stroke:none;fill:black;font-family:sans-serif;font-size:13;text-anchor:middle;" transform="matrix(1 0 0 1 1746.56 322)">Medium</text>
  <text style="stroke:none;fill:black;font-family:sans-serif;font-size:13;text-anchor:middle;" transform="matrix(1 0 0 1 2043.27 322)">Semibold</text>
  <text style="stroke:none;fill:black;font-family:sans-serif;font-size:13;text-anchor:middle;" transform="matrix(1 0 0 1 2339.98 322)">Bold</text>
  <text style="stroke:none;fill:black;font-family:sans-serif;font-size:13;text-anchor:middle;" transform="matrix(1 0 0 1 2636.69 322)">Heavy</text>
  <text style="stroke:none;fill:black;font-family:sans-serif;font-size:13;text-anchor:middle;" transform="matrix(1 0 0 1 2933.4 322)">Black</text>
  <line style="fill:none;stroke:black;opacity:1;stroke-width:0.5;" x1="263" x2="3036" y1="1903" y2="1903"/>
  <g transform="matrix(0.2 0 0 0.2 263 1933)">
   <path d="m46.2402 4.15039c21.5332 0 39.4531-17.8711 39.4531-39.4043s-17.9688-39.4043-39.502-39.4043c-21.4844 0-39.3555 17.8711-39.3555 39.4043s17.9199 39.4043 39.4043 39.4043Zm0-7.42188c-17.7246 0-31.8848-14.209-31.8848-31.9824s14.1113-31.9824 31.8359-31.9824c17.7734 0 32.0312 14.209 32.0312 31.9824s-14.209 31.9824-31.9824 31.9824Zm-17.9688-31.9824c0 2.14844 1.51367 3.61328 3.75977 3.61328h10.498v10.5957c0 2.19727 1.46484 3.71094 3.61328 3.71094 2.24609 0 3.71094-1.51367 3.71094-3.71094v-10.5957h10.5957c2.19727 0 3.71094-1.46484 3.71094-3.61328 0-2.19727-1.51367-3.71094-3.71094-3.71094h-10.5957v-10.5469c0-2.24609-1.46484-3.75977-3.71094-3.75977-2.14844 0-3.61328 1.51367-3.61328 3.75977v10.5469h-10.498c-2.24609 0-3.75977 1.51367-3.75977 3.71094Z"/>
  </g>
  <g transform="matrix(0.2 0 0 0.2 281.506 1933)">
   <path d="m58.5449 14.5508c27.2461 0 49.8047-22.6074 49.8047-49.8047 0-27.2461-22.6074-49.8047-49.8535-49.8047-27.1973 0-49.7559 22.5586-49.7559 49.8047 0 27.1973 22.6074 49.8047 49.8047 49.8047Zm0-8.30078c-23.0469 0-41.4551-18.457-41.4551-41.5039s18.3594-41.5039 41.4062-41.5039 41.5527 18.457 41.5527 41.5039-18.457 41.5039-41.5039 41.5039Zm-22.6562-41.5039c0 2.39258 1.66016 4.00391 4.15039 4.00391h14.3555v14.4043c0 2.44141 1.66016 4.15039 4.05273 4.15039 2.44141 0 4.15039-1.66016 4.15039-4.15039v-14.4043h14.4043c2.44141 0 4.15039-1.61133 4.15039-4.00391 0-2.44141-1.70898-4.15039-4.15039-4.15039h-14.4043v-14.3555c0-2.49023-1.70898-4.19922-4.15039-4.19922-2.39258 0-4.05273 1.70898-4.05273 4.19922v14.3555h-14.3555c-2.49023 0-4.15039 1.70898-4.15039 4.15039Z"/>
  </g>
  <g transform="matrix(0.2 0 0 0.2 304.924 1933)">
   <path d="m74.8535 28.3203c34.8145 0 63.623-28.8086 63.623-63.5742 0-34.8145-28.8574-63.623-63.6719-63.623-34.7656 0-63.5254 28.8086-63.5254 63.623 0 34.7656 28.8086 63.5742 63.5742 63.5742Zm0-9.08203c-30.1758 0-54.4434-24.3164-54.4434-54.4922 0-30.2246 24.2188-54.4922 54.3945-54.4922 30.2246 0 54.541 24.2676 54.541 54.4922 0 30.1758-24.2676 54.4922-54.4922 54.4922Zm-28.8574-54.4922c0 2.58789 1.85547 4.39453 4.58984 4.39453h19.7266v19.7754c0 2.68555 1.85547 4.58984 4.44336 4.58984 2.68555 0 4.54102-1.85547 4.54102-4.58984v-19.7754h19.7754c2.68555 0 4.58984-1.80664 4.58984-4.39453 0-2.73438-1.85547-4.58984-4.58984-4.58984h-19.7754v-19.7266c0-2.73438-1.85547-4.63867-4.54102-4.63867-2.58789 0-4.44336 1.9043-4.44336 4.63867v19.7266h-19.7266c-2.73438 0-4.58984 1.85547-4.58984 4.58984Z"/>
  </g>
  <text style="stroke:none;fill:black;font-family:sans-serif;font-size:13;font-weight:bold;" transform="matrix(1 0 0 1 263 1953)">Design Variations</text>
  <text style="stroke:none;fill:black;font-family:sans-serif;font-size:13;" transform="matrix(1 0 0 1 263 1971)">Symbols are supported in up to nine weights and three scales.</text>
  <text style="stroke:none;fill:black;font-family:sans-serif;font-size:13;" transform="matrix(1 0 0 1 263 1989)">For optimal layout with text and other symbols, vertically align</text>
  <text style="stroke:none;fill:black;font-family:sans-serif;font-size:13;" transform="matrix(1 0 0 1 263 2007)">symbols with the adjacent text.</text>
  <line style="fill:none;stroke:#00AEEF;stroke-width:0.5;opacity:1.0;" x1="776" x2="776" y1="1919" y2="1933"/>
  <g transform="matrix(0.2 0 0 0.2 776 1933)">
   <path d="m16.5527 0.78125c2.58789 0 3.85742-0.976562 4.78516-3.71094l6.29883-17.2363h28.8086l6.29883 17.2363c0.927734 2.73438 2.19727 3.71094 4.73633 3.71094 2.58789 0 4.24805-1.5625 4.24805-4.00391 0-0.830078-0.146484-1.61133-0.537109-2.63672l-22.9004-60.9863c-1.12305-2.97852-3.125-4.49219-6.25-4.49219-3.02734 0-5.07812 1.46484-6.15234 4.44336l-22.9004 61.084c-0.390625 1.02539-0.537109 1.80664-0.537109 2.63672 0 2.44141 1.5625 3.95508 4.10156 3.95508Zm13.4766-28.3691 11.8652-32.8613h0.244141l11.8652 32.8613Z"/>
  </g>
  <line style="fill:none;stroke:#00AEEF;stroke-width:0.5;opacity:1.0;" x1="792.836" x2="792.836" y1="1919" y2="1933"/>
  <text style="stroke:none;fill:black;font-family:sans-serif;font-size:13;font-weight:bold;" transform="matrix(1 0 0 1 776 1953)">Margins</text>
  <text style="stroke:none;fill:black;font-family:sans-serif;font-size:13;" transform="matrix(1 0 0 1 776 1971)">Leading and trailing margins on the left and right side of each symbol</text>
  <text style="stroke:none;fill:black;font-family:sans-serif;font-size:13;" transform="matrix(1 0 0 1 776 1989)">can be adjusted by modifying the x-location of the margin guidelines.</text>
  <text style="stroke:none;fill:black;font-family:sans-serif;font-size:13;" transform="matrix(1 0 0 1 776 2007)">Modifications are automatically applied proportionally to all</text>
  <text style="stroke:none;fill:black;font-family:sans-serif;font-size:13;" transform="matrix(1 0 0 1 776 2025)">scales and weights.</text>
  <g transform="matrix(0.2 0 0 0.2 1289 1933)">
   <path d="m14.209 9.32617 8.49609 8.54492c4.29688 4.3457 9.22852 4.05273 13.8672-1.07422l53.4668-58.9355-4.83398-4.88281-53.0762 58.3984c-1.75781 2.00195-3.41797 2.49023-5.76172 0.146484l-5.85938-5.81055c-2.34375-2.29492-1.80664-4.00391 0.195312-5.81055l57.373-54.0039-4.88281-4.83398-57.959 54.4434c-4.93164 4.58984-5.32227 9.47266-1.02539 13.8184Zm32.0801-90.9668c-2.09961 2.05078-2.24609 4.93164-1.07422 6.88477 1.17188 1.80664 3.4668 2.97852 6.68945 2.14844 7.32422-1.70898 14.9414-2.00195 22.0703 2.68555l-2.92969 7.27539c-1.70898 4.15039-0.830078 7.08008 1.85547 9.81445l11.4746 11.5723c2.44141 2.44141 4.49219 2.53906 7.32422 2.05078l5.32227-0.976562 3.32031 3.36914-0.195312 2.7832c-0.195312 2.49023 0.439453 4.39453 2.88086 6.78711l3.80859 3.71094c2.39258 2.39258 5.46875 2.53906 7.8125 0.195312l14.5508-14.5996c2.34375-2.34375 2.24609-5.32227-0.146484-7.71484l-3.85742-3.80859c-2.39258-2.39258-4.24805-3.17383-6.64062-2.97852l-2.88086 0.244141-3.22266-3.17383 1.2207-5.61523c0.634766-2.83203-0.146484-5.0293-3.07617-7.95898l-10.9863-10.9375c-16.6992-16.6016-38.8672-16.2109-53.3203-1.75781Zm7.4707 1.85547c12.1582-8.88672 28.6133-7.37305 39.7461 3.75977l12.1582 12.0605c1.17188 1.17188 1.36719 2.09961 1.02539 3.80859l-1.61133 7.42188 7.51953 7.42188 4.93164-0.292969c1.26953-0.0488281 1.66016 0.0488281 2.63672 1.02539l2.88086 2.88086-12.207 12.207-2.88086-2.88086c-0.976562-0.976562-1.12305-1.36719-1.07422-2.68555l0.341797-4.88281-7.4707-7.42188-7.61719 1.26953c-1.61133 0.341797-2.34375 0.195312-3.56445-0.976562l-10.0098-10.0098c-1.26953-1.17188-1.41602-2.00195-0.634766-3.85742l4.39453-10.4492c-7.8125-7.27539-17.9688-10.4004-28.125-7.42188-0.78125 0.195312-1.07422-0.439453-0.439453-0.976562Z"/>
  </g>
  <text style="stroke:none;fill:black;font-family:sans-serif;font-size:13;font-weight:bold;" transform="matrix(1 0 0 1 1289 1953)">Exporting</text>
  <text style="stroke:none;fill:black;font-family:sans-serif;font-size:13;" transform="matrix(1 0 0 1 1289 1971)">Symbols should be outlined when exporting to ensure the</text>
  <text style="stroke:none;fill:black;font-family:sans-serif;font-size:13;" transform="matrix(1 0 0 1 1289 1989)">design is preserved when submitting to Xcode.</text>
  <text id="template-version" style="stroke:none;fill:black;font-family:sans-serif;font-size:13;text-anchor:end;" transform="matrix(1 0 0 1 3036 1933)">Template v.5.0</text>
  <text style="stroke:none;fill:black;font-family:sans-serif;font-size:13;text-anchor:end;" transform="matrix(1 0 0 1 3036 1951)">Requires Xcode 15 or greater</text>
  <text id="descriptive-name" style="stroke:none;fill:black;font-family:sans-serif;font-size:13;text-anchor:end;" transform="matrix(1 0 0 1 3036 1969)">Generated from hexagon.fill</text>
  <text style="stroke:none;fill:black;font-family:sans-serif;font-size:13;text-anchor:end;" transform="matrix(1 0 0 1 3036 1987)">Typeset at 100.0 points</text>
  <text style="stroke:none;fill:black;font-family:sans-serif;font-size:13;" transform="matrix(1 0 0 1 263 726)">Small</text>
  <text style="stroke:none;fill:black;font-family:sans-serif;font-size:13;" transform="matrix(1 0 0 1 263 1156)">Medium</text>
  <text style="stroke:none;fill:black;font-family:sans-serif;font-size:13;" transform="matrix(1 0 0 1 263 1586)">Large</text>
 </g>
 <g id="Guides">
  <g id="H-reference" style="fill:#27AAE1;stroke:none;" transform="matrix(1 0 0 1 339 696)">
   <path d="M0.993654 0L3.63775 0L29.3281-67.1323L30.0303-67.1323L30.0303-70.459L28.1226-70.459ZM11.6885-24.4799L46.9815-24.4799L46.2315-26.7285L12.4385-26.7285ZM55.1196 0L57.7637 0L30.6382-70.459L29.4326-70.459L29.4326-67.1323Z"/>
  </g>
  <line id="Baseline-S" style="fill:none;stroke:#27AAE1;opacity:1;stroke-width:0.5;" x1="263" x2="3036" y1="696" y2="696"/>
  <line id="Capline-S" style="fill:none;stroke:#27AAE1;opacity:1;stroke-width:0.5;" x1="263" x2="3036" y1="625.541" y2="625.541"/>
  <g id="H-reference" style="fill:#27AAE1;stroke:none;" transform="matrix(1 0 0 1 339 1126)">
   <path d="M0.993654 0L3.63775 0L29.3281-67.1323L30.0303-67.1323L30.0303-70.459L28.1226-70.459ZM11.6885-24.4799L46.9815-24.4799L46.2315-26.7285L12.4385-26.7285ZM55.1196 0L57.7637 0L30.6382-70.459L29.4326-70.459L29.4326-67.1323Z"/>
  </g>
  <line id="Baseline-M" style="fill:none;stroke:#27AAE1;opacity:1;stroke-width:0.5;" x1="263" x2="3036" y1="1126" y2="1126"/>
  <line id="Capline-M" style="fill:none;stroke:#27AAE1;opacity:1;stroke-width:0.5;" x1="263" x2="3036" y1="1055.54" y2="1055.54"/>
  <g id="H-reference" style="fill:#27AAE1;stroke:none;" transform="matrix(1 0 0 1 339 1556)">
   <path d="M0.993654 0L3.63775 0L29.3281-67.1323L30.0303-67.1323L30.0303-70.459L28.1226-70.459ZM11.6885-24.4799L46.9815-24.4799L46.2315-26.7285L12.4385-26.7285ZM55.1196 0L57.7637 0L30.6382-70.459L29.4326-70.459L29.4326-67.1323Z"/>
  </g>
  <line id="Baseline-L" style="fill:none;stroke:#27AAE1;opacity:1;stroke-width:0.5;" x1="263" x2="3036" y1="1556" y2="1556"/>
  <line id="Capline-L" style="fill:none;stroke:#27AAE1;opacity:1;stroke-width:0.5;" x1="263" x2="3036" y1="1485.54" y2="1485.54"/>
  <line id="left-margin-Ultralight-S" style="fill:none;stroke:#00AEEF;stroke-width:0.5;opacity:1.0;" x1="514.315" x2="514.315" y1="600.785" y2="720.121"/>
  <line id="right-margin-Ultralight-S" style="fill:none;stroke:#00AEEF;stroke-width:0.5;opacity:1.0;" x1="605.107" x2="605.107" y1="600.785" y2="720.121"/>
  <line id="left-margin-Regular-S" style="fill:none;stroke:#00AEEF;stroke-width:0.5;opacity:1.0;" x1="1401.07" x2="1401.07" y1="600.785" y2="720.121"/>
  <line id="right-margin-Regular-S" style="fill:none;stroke:#00AEEF;stroke-width:0.5;opacity:1.0;" x1="1498.62" x2="1498.62" y1="600.785" y2="720.121"/>
  <line id="left-margin-Black-S" style="fill:none;stroke:#00AEEF;stroke-width:0.5;opacity:1.0;" x1="2881.25" x2="2881.25" y1="600.785" y2="720.121"/>
  <line id="right-margin-Black-S" style="fill:none;stroke:#00AEEF;stroke-width:0.5;opacity:1.0;" x1="2985.55" x2="2985.55" y1="600.785" y2="720.121"/>
 </g>
 <g id="Symbols">
  <g id="Black-S" transform="matrix(1 0 0 1 2881.25 696)">
   <path class="monochrome-0 multicolor-0:tintColor hierarchical-0:tertiary SFSymbolsPreviewWireframe" d="M17.4316-7.42188L42.7246 7.12891C48.9258 10.7422 55.2246 10.791 61.5723 7.12891L86.8652-7.42188C91.2598-9.91211 94.5312-12.9883 94.5312-20.8984L94.5312-49.5605C94.5312-57.4707 91.2598-60.5469 86.8652-63.0371L61.5723-77.5879C55.1758-81.2988 48.9258-81.1523 42.7246-77.5879L17.4316-63.0371C13.0371-60.5469 9.76562-57.4707 9.76562-49.5605L9.76562-20.8984C9.76562-12.9883 13.0371-9.91211 17.4316-7.42188Z"/>
   <path class="monochrome-1 multicolor-1:white hierarchical-1:primary SFSymbolsPreviewWireframe" d="M48.6765-52.5537C49.5397-52.4093 50.369-52.1406 51.1867-51.8306C52.684-51.2629 54.1065-50.5401 55.4607-49.6792C57.035-48.6783 58.4775-47.5123 59.7447-46.1256C60.6605-45.1235 61.4627-44.0364 62.0994-42.8314C63.3397-40.4839 63.7443-37.9918 63.3032-35.3593C63.1492-34.4392 62.8801-33.5641 62.4145-32.7542C61.5774-31.2979 60.3282-30.5806 58.6781-30.558C57.7785-30.5456 56.9317-30.7702 56.1117-31.1216C55.3381-31.4531 54.6006-31.8511 53.8815-32.2829C53.0812-32.7635 50.4912-35.009 47.4449-35.7368C45.82-36.1249 44.4694-35.801 43.7878-34.5238C42.5555-32.2152 43.9449-28.9792 46.9366-27.9725C49.0458-27.2628 51.2036-27.891 51.2036-27.891C52.5787-28.232 54.9991-29.9344 56.7681-29.4894L56.7624-29.4814C56.715-29.4149 56.3743-28.9287 55.8129-27.9163C55.3947-27.1621 54.9629-26.8382 54.5413-26.4984C53.4627-25.6288 51.3711-25.8143 51.3711-25.8143C54.9282-25.0764 54.5809-23.5851 55.3261-20.1866C55.6496-18.7115 55.7742-18.4486 55.853-18.1765C55.8629-18.1428 55.8526-18.106 55.7927-18.1166C55.1969-18.2231 52.6564-18.4271 50.8769-20.3776C49.3365-22.066 48.6661-24.8854 47.805-25.9426C47.0217-26.9044 42.1874-27.4858 41.0545-35.9911C40.8402-37.8907 41.0621-39.7326 41.7491-41.5143C42.5352-43.5534 43.7958-45.2223 45.5149-46.5371C45.8567-46.7984 46.2306-47.0168 46.5145-47.357C46.9259-47.8499 47.0561-48.4125 46.9777-49.0407C46.919-49.5113 46.7496-49.9466 46.5718-50.3795C46.4613-50.6482 46.3414-50.9136 46.3052-51.2073C46.2373-51.7568 46.5307-52.2363 47.039-52.4386C47.5754-52.652 48.1229-52.6464 48.6765-52.5537ZM55.7588-36.1022C55.1395-36.0146 54.8294-35.551 55.0434-35.0323C55.2577-34.5125 55.8721-34.1262 56.502-34.115C57.0601-34.1051 57.4737-34.4282 57.4759-34.8759C57.4792-35.5534 56.5534-36.2147 55.7588-36.1022Z"/>
  </g>
  <g id="Regular-S" transform="matrix(1 0 0 1 1401.07 696)">
   <path class="monochrome-0 multicolor-0:tintColor hierarchical-0:tertiary SFSymbolsPreviewWireframe" d="M15.6738-10.3027L41.1621 4.3457C46.2891 7.27539 51.1719 7.32422 56.3477 4.3457L81.8848-10.3027C85.5957-12.5 87.793-14.6484 87.793-20.8008L87.793-49.707C87.793-55.8594 85.5957-57.959 81.9336-60.1074L56.3965-74.8047C51.1719-77.832 46.2402-77.7344 41.1133-74.8047L15.625-60.1074C11.9629-57.959 9.76562-55.8594 9.76562-49.707L9.76562-20.8008C9.76562-14.6484 11.9141-12.5 15.6738-10.3027Z"/>
   <path class="monochrome-1 multicolor-1:white hierarchical-1:primary SFSymbolsPreviewWireframe" d="M45.3074-52.5537C46.1705-52.4093 46.9999-52.1406 47.8175-51.8306C49.3149-51.2629 50.7373-50.5401 52.0916-49.6792C53.6659-48.6783 55.1084-47.5123 56.3755-46.1256C57.2913-45.1235 58.0936-44.0364 58.7303-42.8314C59.9705-40.4839 60.3751-37.9918 59.9341-35.3593C59.78-34.4392 59.511-33.5641 59.0454-32.7542C58.2082-31.2979 56.959-30.5806 55.309-30.558C54.4094-30.5456 53.5625-30.7702 52.7425-31.1216C51.969-31.4531 51.2315-31.8511 50.5123-32.2829C49.7121-32.7635 47.1221-35.009 44.0758-35.7368C42.4509-36.1249 41.1003-35.801 40.4186-34.5238C39.1863-32.2152 40.5757-28.9792 43.5675-27.9725C45.6767-27.2628 47.8344-27.891 47.8344-27.891C49.2096-28.232 51.63-29.9344 53.399-29.4894L53.3932-29.4814C53.3459-29.4149 53.0051-28.9287 52.4437-27.9163C52.0255-27.1621 51.5938-26.8382 51.1721-26.4984C50.0936-25.6288 48.002-25.8143 48.002-25.8143C51.5591-25.0764 51.2118-23.5851 51.957-20.1866C52.2805-18.7115 52.405-18.4486 52.4839-18.1765C52.4937-18.1428 52.4835-18.106 52.4236-18.1166C51.8278-18.2231 49.2873-18.4271 47.5077-20.3776C45.9674-22.066 45.297-24.8854 44.4359-25.9426C43.6525-26.9044 38.8183-27.4858 37.6853-35.9911C37.471-37.8907 37.693-39.7326 38.3799-41.5143C39.1661-43.5534 40.4267-45.2223 42.1458-46.5371C42.4876-46.7984 42.8615-47.0168 43.1453-47.357C43.5567-47.8499 43.687-48.4125 43.6086-49.0407C43.5498-49.5113 43.3804-49.9466 43.2027-50.3795C43.0922-50.6482 42.9723-50.9136 42.9361-51.2073C42.8682-51.7568 43.1616-52.2363 43.6699-52.4386C44.2063-52.652 44.7538-52.6464 45.3074-52.5537ZM52.3897-36.1022C51.7704-36.0146 51.4603-35.551 51.6743-35.0323C51.8886-34.5125 52.503-34.1262 53.1328-34.115C53.691-34.1051 54.1046-34.4282 54.1068-34.8759C54.1101-35.5534 53.1842-36.2147 52.3897-36.1022Z"/>
  </g>
  <g id="Ultralight-S" transform="matrix(1 0 0 1 514.315 696)">
   <path class="monochrome-0 multicolor-0:tintColor hierarchical-0:tertiary SFSymbolsPreviewWireframe" d="M13.3125-13.1636L42.3882 3.66456C44.3819 4.82326 46.4493 4.78127 48.4009 3.66456L77.48-13.1636C80.1011-14.7251 81.0269-16.2378 81.0269-19.1206L81.0269-52.6133C81.0269-54.6787 80.0103-55.8247 78.5733-56.6109L49.2671-73.8965C46.8125-75.3345 43.9697-75.3277 41.522-73.8965L12.1739-56.6109C10.7368-55.8247 9.76562-54.6787 9.76562-52.6133L9.76562-19.1206C9.76562-16.2378 10.6426-14.7251 13.3125-13.1636Z"/>
   <path class="monochrome-1 multicolor-1:white hierarchical-1:primary SFSymbolsPreviewWireframe" d="M41.9244-52.5537C42.7875-52.4093 43.6169-52.1406 44.4345-51.8306C45.9318-51.2629 47.3543-50.5401 48.7085-49.6792C50.2828-48.6783 51.7253-47.5123 52.9925-46.1256C53.9083-45.1235 54.7105-44.0364 55.3473-42.8314C56.5875-40.4839 56.9921-37.9918 56.5511-35.3593C56.397-34.4392 56.1279-33.5641 55.6623-32.7542C54.8252-31.2979 53.576-30.5806 51.926-30.558C51.0263-30.5456 50.1795-30.7702 49.3595-31.1216C48.5859-31.4531 47.8485-31.8511 47.1293-32.2829C46.329-32.7635 43.7391-35.009 40.6927-35.7368C39.0678-36.1249 37.7172-35.801 37.0356-34.5238C35.8033-32.2152 37.1927-28.9792 40.1845-27.9725C42.2936-27.2628 44.4514-27.891 44.4514-27.891C45.8266-28.232 48.2469-29.9344 50.0159-29.4894L50.0102-29.4814C49.9628-29.4149 49.6221-28.9287 49.0607-27.9163C48.6425-27.1621 48.2107-26.8382 47.7891-26.4984C46.7106-25.6288 44.619-25.8143 44.619-25.8143C48.176-25.0764 47.8287-23.5851 48.574-20.1866C48.8974-18.7115 49.022-18.4486 49.1009-18.1765C49.1107-18.1428 49.1004-18.106 49.0405-18.1166C48.4448-18.2231 45.9043-18.4271 44.1247-20.3776C42.5844-22.066 41.9139-24.8854 41.0529-25.9426C40.2695-26.9044 35.4352-27.4858 34.3023-35.9911C34.088-37.8907 34.31-39.7326 34.9969-41.5143C35.7831-43.5534 37.0437-45.2223 38.7628-46.5371C39.1046-46.7984 39.4785-47.0168 39.7623-47.357C40.1737-47.8499 40.304-48.4125 40.2255-49.0407C40.1668-49.5113 39.9974-49.9466 39.8196-50.3795C39.7092-50.6482 39.5892-50.9136 39.553-51.2073C39.4852-51.7568 39.7786-52.2363 40.2868-52.4386C40.8232-52.652 41.3707-52.6464 41.9244-52.5537ZM49.0066-36.1022C48.3873-36.0146 48.0773-35.551 48.2913-35.0323C48.5056-34.5125 49.12-34.1262 49.7498-34.115C50.3079-34.1051 50.7215-34.4282 50.7238-34.8759C50.727-35.5534 49.8012-36.2147 49.0066-36.1022Z"/>
  </g>
 </g>
</svg>
